<?xml version="1.0" encoding="UTF-8" standalone="no"?>
<!DOCTYPE svg PUBLIC "-//W3C//DTD SVG 1.1//EN"
 "http://www.w3.org/Graphics/SVG/1.1/DTD/svg11.dtd">
<!-- Generated by graphviz version 2.40.1 (20161225.0304)
 -->
<!-- Title: dependency&#45;cruiser output Pages: 1 -->
<svg width="736pt" height="372pt"
 viewBox="0.00 0.00 736.00 372.00" xmlns="http://www.w3.org/2000/svg" xmlns:xlink="http://www.w3.org/1999/xlink">
<g id="graph0" class="graph" transform="scale(1 1) rotate(0) translate(4 368)">
<title>dependency&#45;cruiser output</title>
<polygon fill="#ffffff" stroke="transparent" points="-4,4 -4,-368 732,-368 732,4 -4,4"/>
<g id="clust1" class="cluster">
<title>cluster_src</title>
<path fill="#ffffff" stroke="#000000" stroke-width="2" d="M20,-8C20,-8 708,-8 708,-8 714,-8 720,-14 720,-20 720,-20 720,-344 720,-344 720,-350 714,-356 708,-356 708,-356 20,-356 20,-356 14,-356 8,-350 8,-344 8,-344 8,-20 8,-20 8,-14 14,-8 20,-8"/>
<text text-anchor="middle" x="364" y="-344.8" font-family="Helvetica,sans-Serif" font-weight="bold" font-size="9.00" fill="#000000">src</text>
</g>
<g id="clust2" class="cluster">
<title>cluster_src/modules</title>
<path fill="#ffffff" stroke="#000000" stroke-width="2" d="M218.5,-112C218.5,-112 700,-112 700,-112 706,-112 712,-118 712,-124 712,-124 712,-292 712,-292 712,-298 706,-304 700,-304 700,-304 218.5,-304 218.5,-304 212.5,-304 206.5,-298 206.5,-292 206.5,-292 206.5,-124 206.5,-124 206.5,-118 212.5,-112 218.5,-112"/>
<text text-anchor="middle" x="459.25" y="-292.8" font-family="Helvetica,sans-Serif" font-weight="bold" font-size="9.00" fill="#000000">modules</text>
</g>
<g id="clust3" class="cluster">
<title>cluster_src/scenes</title>
<path fill="#ffffff" stroke="#000000" stroke-width="2" d="M90,-22C90,-22 293,-22 293,-22 299,-22 305,-28 305,-34 305,-34 305,-92 305,-92 305,-98 299,-104 293,-104 293,-104 90,-104 90,-104 84,-104 78,-98 78,-92 78,-92 78,-34 78,-34 78,-28 84,-22 90,-22"/>
<text text-anchor="middle" x="191.5" y="-92.8" font-family="Helvetica,sans-Serif" font-weight="bold" font-size="9.00" fill="#000000">scenes</text>
</g>
<!-- src/index.tsx -->
<g id="node1" class="node">
<title>src/index.tsx</title>
<g id="a_node1"><a xlink:href="src/index.tsx" xlink:title="index.tsx">
<path fill="#bbfeff" stroke="#000000" d="M64,-78C64,-78 22,-78 22,-78 19,-78 16,-75 16,-72 16,-72 16,-66 16,-66 16,-63 19,-60 22,-60 22,-60 64,-60 64,-60 67,-60 70,-63 70,-66 70,-66 70,-72 70,-72 70,-75 67,-78 64,-78"/>
<text text-anchor="middle" x="43" y="-66.8" font-family="Helvetica,sans-Serif" font-size="9.00" fill="#000000">index.tsx</text>
</a>
</g>
</g>
<!-- src/scenes/ReaderScene.tsx -->
<g id="node2" class="node">
<title>src/scenes/ReaderScene.tsx</title>
<g id="a_node2"><a xlink:href="src/scenes/ReaderScene.tsx" xlink:title="ReaderScene.tsx">
<path fill="#bbfeff" stroke="#000000" d="M167,-78C167,-78 92,-78 92,-78 89,-78 86,-75 86,-72 86,-72 86,-66 86,-66 86,-63 89,-60 92,-60 92,-60 167,-60 167,-60 170,-60 173,-63 173,-66 173,-66 173,-72 173,-72 173,-75 170,-78 167,-78"/>
<text text-anchor="middle" x="129.5" y="-66.8" font-family="Helvetica,sans-Serif" font-size="9.00" fill="#000000">ReaderScene.tsx</text>
</a>
</g>
</g>
<!-- src/index.tsx&#45;&gt;src/scenes/ReaderScene.tsx -->
<g id="edge1" class="edge">
<title>src/index.tsx&#45;&gt;src/scenes/ReaderScene.tsx</title>
<path fill="none" stroke="#000000" stroke-width="2" stroke-opacity="0.200000" d="M70.3691,-69C70.3691,-69 79.8699,-69 79.8699,-69"/>
<polygon fill="#000000" fill-opacity="0.200000" stroke="#000000" stroke-width="2" stroke-opacity="0.200000" points="79.8699,-71.1001 85.8699,-69 79.8698,-66.9001 79.8699,-71.1001"/>
</g>
<!-- src/modules/control -->
<g id="node6" class="node">
<title>src/modules/control</title>
<g id="a_node6"><a xlink:href="src/modules/control" xlink:title="control">
<polygon fill="#ffffcc" stroke="#000000" points="268.5,-183 216.5,-183 214.5,-181 214.5,-165 266.5,-165 268.5,-167 268.5,-183"/>
<polyline fill="none" stroke="#000000" points="266.5,-181 214.5,-181 "/>
<polyline fill="none" stroke="#000000" points="266.5,-181 266.5,-165 "/>
<polyline fill="none" stroke="#000000" points="266.5,-181 268.5,-183 "/>
<text text-anchor="middle" x="241.5" y="-171.8" font-family="Helvetica,sans-Serif" font-size="9.00" fill="#000000">control</text>
</a>
</g>
</g>
<!-- src/scenes/ReaderScene.tsx&#45;&gt;src/modules/control -->
<g id="edge36" class="edge">
<title>src/scenes/ReaderScene.tsx&#45;&gt;src/modules/control</title>
<path fill="none" stroke="#000000" stroke-width="2" stroke-opacity="0.200000" d="M130,-78.318C130,-104.0155 130,-174 130,-174 130,-174 208.224,-174 208.224,-174"/>
<polygon fill="#000000" fill-opacity="0.200000" stroke="#000000" stroke-width="2" stroke-opacity="0.200000" points="208.2241,-176.1001 214.224,-174 208.224,-171.9001 208.2241,-176.1001"/>
</g>
<!-- src/modules/extraction -->
<g id="node9" class="node">
<title>src/modules/extraction</title>
<g id="a_node9"><a xlink:href="src/modules/extraction" xlink:title="extraction">
<polygon fill="#ffffcc" stroke="#000000" points="369,-194 315,-194 313,-192 313,-176 367,-176 369,-178 369,-194"/>
<polyline fill="none" stroke="#000000" points="367,-192 313,-192 "/>
<polyline fill="none" stroke="#000000" points="367,-192 367,-176 "/>
<polyline fill="none" stroke="#000000" points="367,-192 369,-194 "/>
<text text-anchor="middle" x="341" y="-182.8" font-family="Helvetica,sans-Serif" font-size="9.00" fill="#000000">extraction</text>
</a>
</g>
</g>
<!-- src/scenes/ReaderScene.tsx&#45;&gt;src/modules/extraction -->
<g id="edge37" class="edge">
<title>src/scenes/ReaderScene.tsx&#45;&gt;src/modules/extraction</title>
<path fill="none" stroke="#000000" stroke-width="2" stroke-opacity="0.200000" d="M108,-78.377C108,-106.548 108,-188.5 108,-188.5 108,-188.5 306.8948,-188.5 306.8948,-188.5"/>
<polygon fill="#000000" fill-opacity="0.200000" stroke="#000000" stroke-width="2" stroke-opacity="0.200000" points="306.8948,-190.6001 312.8948,-188.5 306.8947,-186.4001 306.8948,-190.6001"/>
</g>
<!-- src/modules/selection -->
<g id="node11" class="node">
<title>src/modules/selection</title>
<g id="a_node11"><a xlink:href="src/modules/selection" xlink:title="selection">
<polygon fill="#ffffcc" stroke="#000000" points="704,-174 652,-174 650,-172 650,-156 702,-156 704,-158 704,-174"/>
<polyline fill="none" stroke="#000000" points="702,-172 650,-172 "/>
<polyline fill="none" stroke="#000000" points="702,-172 702,-156 "/>
<polyline fill="none" stroke="#000000" points="702,-172 704,-174 "/>
<text text-anchor="middle" x="677" y="-162.8" font-family="Helvetica,sans-Serif" font-size="9.00" fill="#000000">selection</text>
</a>
</g>
</g>
<!-- src/scenes/ReaderScene.tsx&#45;&gt;src/modules/selection -->
<g id="edge38" class="edge">
<title>src/scenes/ReaderScene.tsx&#45;&gt;src/modules/selection</title>
<path fill="none" stroke="#000000" stroke-width="2" stroke-opacity="0.200000" d="M152,-78.1079C152,-101.2517 152,-160.5 152,-160.5 152,-160.5 643.8792,-160.5 643.8792,-160.5"/>
<polygon fill="#000000" fill-opacity="0.200000" stroke="#000000" stroke-width="2" stroke-opacity="0.200000" points="643.8793,-162.6001 649.8792,-160.5 643.8792,-158.4001 643.8793,-162.6001"/>
</g>
<!-- src/scenes/ActiveRiverView.tsx -->
<g id="node13" class="node">
<title>src/scenes/ActiveRiverView.tsx</title>
<g id="a_node13"><a xlink:href="src/scenes/ActiveRiverView.tsx" xlink:title="ActiveRiverView.tsx">
<path fill="#bbfeff" stroke="#000000" d="M284,-48C284,-48 199,-48 199,-48 196,-48 193,-45 193,-42 193,-42 193,-36 193,-36 193,-33 196,-30 199,-30 199,-30 284,-30 284,-30 287,-30 290,-33 290,-36 290,-36 290,-42 290,-42 290,-45 287,-48 284,-48"/>
<text text-anchor="middle" x="241.5" y="-36.8" font-family="Helvetica,sans-Serif" font-size="9.00" fill="#000000">ActiveRiverView.tsx</text>
</a>
</g>
</g>
<!-- src/scenes/ReaderScene.tsx&#45;&gt;src/scenes/ActiveRiverView.tsx -->
<g id="edge39" class="edge">
<title>src/scenes/ReaderScene.tsx&#45;&gt;src/scenes/ActiveRiverView.tsx</title>
<path fill="none" stroke="#000000" stroke-width="2" stroke-opacity="0.200000" d="M130,-59.836C130,-51.0135 130,-39 130,-39 130,-39 186.9188,-39 186.9188,-39"/>
<polygon fill="#000000" fill-opacity="0.200000" stroke="#000000" stroke-width="2" stroke-opacity="0.200000" points="186.9189,-41.1001 192.9188,-39 186.9188,-36.9001 186.9189,-41.1001"/>
</g>
<!-- src/scenes/SummaryRiverView.tsx -->
<g id="node14" class="node">
<title>src/scenes/SummaryRiverView.tsx</title>
<g id="a_node14"><a xlink:href="src/scenes/SummaryRiverView.tsx" xlink:title="SummaryRiverView.tsx">
<path fill="#bbfeff" stroke="#000000" d="M291,-78C291,-78 192,-78 192,-78 189,-78 186,-75 186,-72 186,-72 186,-66 186,-66 186,-63 189,-60 192,-60 192,-60 291,-60 291,-60 294,-60 297,-63 297,-66 297,-66 297,-72 297,-72 297,-75 294,-78 291,-78"/>
<text text-anchor="middle" x="241.5" y="-66.8" font-family="Helvetica,sans-Serif" font-size="9.00" fill="#000000">SummaryRiverView.tsx</text>
</a>
</g>
</g>
<!-- src/scenes/ReaderScene.tsx&#45;&gt;src/scenes/SummaryRiverView.tsx -->
<g id="edge40" class="edge">
<title>src/scenes/ReaderScene.tsx&#45;&gt;src/scenes/SummaryRiverView.tsx</title>
<path fill="none" stroke="#000000" stroke-width="2" stroke-opacity="0.200000" d="M173.1228,-69C173.1228,-69 179.8435,-69 179.8435,-69"/>
<polygon fill="#000000" fill-opacity="0.200000" stroke="#000000" stroke-width="2" stroke-opacity="0.200000" points="179.8435,-71.1001 185.8435,-69 179.8435,-66.9001 179.8435,-71.1001"/>
</g>
<!-- src/modules/cards -->
<g id="node3" class="node">
<title>src/modules/cards</title>
<g id="a_node3"><a xlink:href="src/modules/cards" xlink:title="cards">
<polygon fill="#ffffcc" stroke="#000000" points="436,-214 384,-214 382,-212 382,-196 434,-196 436,-198 436,-214"/>
<polyline fill="none" stroke="#000000" points="434,-212 382,-212 "/>
<polyline fill="none" stroke="#000000" points="434,-212 434,-196 "/>
<polyline fill="none" stroke="#000000" points="434,-212 436,-214 "/>
<text text-anchor="middle" x="409" y="-202.8" font-family="Helvetica,sans-Serif" font-size="9.00" fill="#000000">cards</text>
</a>
</g>
</g>
<!-- src/modules/text -->
<g id="node4" class="node">
<title>src/modules/text</title>
<g id="a_node4"><a xlink:href="src/modules/text" xlink:title="text">
<polygon fill="#ffffcc" stroke="#000000" points="704,-216 652,-216 650,-214 650,-198 702,-198 704,-200 704,-216"/>
<polyline fill="none" stroke="#000000" points="702,-214 650,-214 "/>
<polyline fill="none" stroke="#000000" points="702,-214 702,-198 "/>
<polyline fill="none" stroke="#000000" points="702,-214 704,-216 "/>
<text text-anchor="middle" x="677" y="-204.8" font-family="Helvetica,sans-Serif" font-size="9.00" fill="#000000">text</text>
</a>
</g>
</g>
<!-- src/modules/cards&#45;&gt;src/modules/text -->
<g id="edge2" class="edge">
<title>src/modules/cards&#45;&gt;src/modules/text</title>
<path fill="none" stroke="#000000" stroke-width="2" stroke-opacity="0.200000" d="M436.1721,-206C436.1721,-206 643.756,-206 643.756,-206"/>
<polygon fill="#000000" fill-opacity="0.200000" stroke="#000000" stroke-width="2" stroke-opacity="0.200000" points="643.756,-208.1001 649.756,-206 643.7559,-203.9001 643.756,-208.1001"/>
</g>
<!-- src/modules/db -->
<g id="node5" class="node">
<title>src/modules/db</title>
<g id="a_node5"><a xlink:href="src/modules/db" xlink:title="db">
<polygon fill="#ffffcc" stroke="#000000" points="503,-250 451,-250 449,-248 449,-232 501,-232 503,-234 503,-250"/>
<polyline fill="none" stroke="#000000" points="501,-248 449,-248 "/>
<polyline fill="none" stroke="#000000" points="501,-248 501,-232 "/>
<polyline fill="none" stroke="#000000" points="501,-248 503,-250 "/>
<text text-anchor="middle" x="476" y="-238.8" font-family="Helvetica,sans-Serif" font-size="9.00" fill="#000000">db</text>
</a>
</g>
</g>
<!-- src/modules/cards&#45;&gt;src/modules/db -->
<g id="edge3" class="edge">
<title>src/modules/cards&#45;&gt;src/modules/db</title>
<path fill="none" stroke="#000000" stroke-width="2" stroke-opacity="0.200000" d="M442.3016,-210C442.3016,-210 467,-210 467,-210 467,-210 467,-225.8666 467,-225.8666"/>
<polygon fill="#000000" fill-opacity="0.200000" stroke="#000000" stroke-width="2" stroke-opacity="0.200000" points="442.3017,-207.9001 436.3016,-210 442.3016,-212.1001 442.3017,-207.9001"/>
<polygon fill="#000000" fill-opacity="0.200000" stroke="#000000" stroke-width="2" stroke-opacity="0.200000" points="464.9001,-225.8666 467,-231.8666 469.1001,-225.8667 464.9001,-225.8666"/>
</g>
<!-- src/modules/river -->
<g id="node8" class="node">
<title>src/modules/river</title>
<g id="a_node8"><a xlink:href="src/modules/river" xlink:title="river">
<polygon fill="#ffffcc" stroke="#000000" points="570,-194 518,-194 516,-192 516,-176 568,-176 570,-178 570,-194"/>
<polyline fill="none" stroke="#000000" points="568,-192 516,-192 "/>
<polyline fill="none" stroke="#000000" points="568,-192 568,-176 "/>
<polyline fill="none" stroke="#000000" points="568,-192 570,-194 "/>
<text text-anchor="middle" x="543" y="-182.8" font-family="Helvetica,sans-Serif" font-size="9.00" fill="#000000">river</text>
</a>
</g>
</g>
<!-- src/modules/db&#45;&gt;src/modules/river -->
<g id="edge14" class="edge">
<title>src/modules/db&#45;&gt;src/modules/river</title>
<path fill="none" stroke="#000000" stroke-width="2" stroke-opacity="0.200000" d="M485,-225.5591C485,-225.5591 485,-186.8 485,-186.8 485,-186.8 509.6984,-186.8 509.6984,-186.8"/>
<polygon fill="#000000" fill-opacity="0.200000" stroke="#000000" stroke-width="2" stroke-opacity="0.200000" points="482.9001,-225.559 485,-231.5591 487.1001,-225.5591 482.9001,-225.559"/>
<polygon fill="#000000" fill-opacity="0.200000" stroke="#000000" stroke-width="2" stroke-opacity="0.200000" points="509.6984,-188.9001 515.6984,-186.8 509.6983,-184.7001 509.6984,-188.9001"/>
</g>
<!-- src/modules/control&#45;&gt;src/modules/cards -->
<g id="edge6" class="edge">
<title>src/modules/control&#45;&gt;src/modules/cards</title>
<path fill="none" stroke="#000000" stroke-width="2" stroke-opacity="0.200000" d="M260,-183.1334C260,-192.2776 260,-205 260,-205 260,-205 375.6711,-205 375.6711,-205"/>
<polygon fill="#000000" fill-opacity="0.200000" stroke="#000000" stroke-width="2" stroke-opacity="0.200000" points="375.6711,-207.1001 381.6711,-205 375.6711,-202.9001 375.6711,-207.1001"/>
</g>
<!-- src/modules/control&#45;&gt;src/modules/text -->
<g id="edge11" class="edge">
<title>src/modules/control&#45;&gt;src/modules/text</title>
<path fill="none" stroke="#000000" stroke-width="2" stroke-opacity="0.200000" d="M233,-183.1228C233,-208.9984 233,-281 233,-281 233,-281 691,-281 691,-281 691,-281 691,-222.0739 691,-222.0739"/>
<polygon fill="#000000" fill-opacity="0.200000" stroke="#000000" stroke-width="2" stroke-opacity="0.200000" points="693.1001,-222.0738 691,-216.0739 688.9001,-222.0739 693.1001,-222.0738"/>
</g>
<!-- src/modules/control&#45;&gt;src/modules/db -->
<g id="edge4" class="edge">
<title>src/modules/control&#45;&gt;src/modules/db</title>
<path fill="none" stroke="#000000" stroke-width="2" stroke-opacity="0.200000" d="M242,-183.0359C242,-201.3241 242,-241 242,-241 242,-241 442.6993,-241 442.6993,-241"/>
<polygon fill="#000000" fill-opacity="0.200000" stroke="#000000" stroke-width="2" stroke-opacity="0.200000" points="442.6993,-243.1001 448.6993,-241 442.6992,-238.9001 442.6993,-243.1001"/>
</g>
<!-- src/modules/display -->
<g id="node7" class="node">
<title>src/modules/display</title>
<g id="a_node7"><a xlink:href="src/modules/display" xlink:title="display">
<polygon fill="#ffffcc" stroke="#000000" points="637,-238 585,-238 583,-236 583,-220 635,-220 637,-222 637,-238"/>
<polyline fill="none" stroke="#000000" points="635,-236 583,-236 "/>
<polyline fill="none" stroke="#000000" points="635,-236 635,-220 "/>
<polyline fill="none" stroke="#000000" points="635,-236 637,-238 "/>
<text text-anchor="middle" x="610" y="-226.8" font-family="Helvetica,sans-Serif" font-size="9.00" fill="#000000">display</text>
</a>
</g>
</g>
<!-- src/modules/control&#45;&gt;src/modules/display -->
<g id="edge5" class="edge">
<title>src/modules/control&#45;&gt;src/modules/display</title>
<path fill="none" stroke="#000000" stroke-width="2" stroke-opacity="0.200000" d="M251,-183.2473C251,-199.1528 251,-230 251,-230 251,-230 576.722,-230 576.722,-230"/>
<polygon fill="#000000" fill-opacity="0.200000" stroke="#000000" stroke-width="2" stroke-opacity="0.200000" points="576.722,-232.1001 582.722,-230 576.722,-227.9001 576.722,-232.1001"/>
</g>
<!-- src/modules/control&#45;&gt;src/modules/river -->
<g id="edge7" class="edge">
<title>src/modules/control&#45;&gt;src/modules/river</title>
<path fill="none" stroke="#000000" stroke-width="2" stroke-opacity="0.200000" d="M268.6832,-168.8571C339.6409,-168.8571 525,-168.8571 525,-168.8571 525,-168.8571 525,-169.7969 525,-169.7969"/>
<polygon fill="#000000" fill-opacity="0.200000" stroke="#000000" stroke-width="2" stroke-opacity="0.200000" points="522.9001,-169.7968 525,-175.7969 527.1001,-169.7969 522.9001,-169.7968"/>
</g>
<!-- src/modules/control&#45;&gt;src/modules/extraction -->
<g id="edge8" class="edge">
<title>src/modules/control&#45;&gt;src/modules/extraction</title>
<path fill="none" stroke="#000000" stroke-width="2" stroke-opacity="0.200000" d="M268.6888,-179.5C268.6888,-179.5 306.8033,-179.5 306.8033,-179.5"/>
<polygon fill="#000000" fill-opacity="0.200000" stroke="#000000" stroke-width="2" stroke-opacity="0.200000" points="306.8033,-181.6001 312.8033,-179.5 306.8032,-177.4001 306.8033,-181.6001"/>
</g>
<!-- src/modules/focus -->
<g id="node10" class="node">
<title>src/modules/focus</title>
<g id="a_node10"><a xlink:href="src/modules/focus" xlink:title="focus">
<polygon fill="#ffffcc" stroke="#000000" points="637,-138 585,-138 583,-136 583,-120 635,-120 637,-122 637,-138"/>
<polyline fill="none" stroke="#000000" points="635,-136 583,-136 "/>
<polyline fill="none" stroke="#000000" points="635,-136 635,-120 "/>
<polyline fill="none" stroke="#000000" points="635,-136 637,-138 "/>
<text text-anchor="middle" x="610" y="-126.8" font-family="Helvetica,sans-Serif" font-size="9.00" fill="#000000">focus</text>
</a>
</g>
</g>
<!-- src/modules/control&#45;&gt;src/modules/focus -->
<g id="edge9" class="edge">
<title>src/modules/control&#45;&gt;src/modules/focus</title>
<path fill="none" stroke="#000000" stroke-width="2" stroke-opacity="0.200000" d="M242,-164.8936C242,-151.7444 242,-129 242,-129 242,-129 576.9401,-129 576.9401,-129"/>
<polygon fill="#000000" fill-opacity="0.200000" stroke="#000000" stroke-width="2" stroke-opacity="0.200000" points="576.9401,-131.1001 582.9401,-129 576.94,-126.9001 576.9401,-131.1001"/>
</g>
<!-- src/modules/control&#45;&gt;src/modules/selection -->
<g id="edge10" class="edge">
<title>src/modules/control&#45;&gt;src/modules/selection</title>
<path fill="none" stroke="#000000" stroke-width="2" stroke-opacity="0.200000" d="M268.7425,-166.2857C268.7425,-166.2857 643.7678,-166.2857 643.7678,-166.2857"/>
<polygon fill="#000000" fill-opacity="0.200000" stroke="#000000" stroke-width="2" stroke-opacity="0.200000" points="643.7679,-168.3858 649.7678,-166.2857 643.7678,-164.1858 643.7679,-168.3858"/>
</g>
<!-- src/shared -->
<g id="node12" class="node">
<title>src/shared</title>
<g id="a_node12"><a xlink:href="src/shared" xlink:title="shared">
<polygon fill="#ffffcc" stroke="#000000" points="704,-330 652,-330 650,-328 650,-312 702,-312 704,-314 704,-330"/>
<polyline fill="none" stroke="#000000" points="702,-328 650,-328 "/>
<polyline fill="none" stroke="#000000" points="702,-328 702,-312 "/>
<polyline fill="none" stroke="#000000" points="702,-328 704,-330 "/>
<text text-anchor="middle" x="677" y="-318.8" font-family="Helvetica,sans-Serif" font-size="9.00" fill="#000000">shared</text>
</a>
</g>
</g>
<!-- src/modules/control&#45;&gt;src/shared -->
<g id="edge12" class="edge">
<title>src/modules/control&#45;&gt;src/shared</title>
<path fill="none" stroke="#000000" stroke-width="2" stroke-opacity="0.200000" d="M224,-183.0233C224,-215.6385 224,-325.5 224,-325.5 224,-325.5 643.683,-325.5 643.683,-325.5"/>
<polygon fill="#000000" fill-opacity="0.200000" stroke="#000000" stroke-width="2" stroke-opacity="0.200000" points="643.683,-327.6001 649.683,-325.5 643.6829,-323.4001 643.683,-327.6001"/>
</g>
<!-- src/modules/display&#45;&gt;src/modules/cards -->
<g id="edge17" class="edge">
<title>src/modules/display&#45;&gt;src/modules/cards</title>
<path fill="none" stroke="#000000" stroke-width="2" stroke-opacity="0.200000" d="M582.8922,-224C528.0278,-224 409,-224 409,-224 409,-224 409,-220.0548 409,-220.0548"/>
<polygon fill="#000000" fill-opacity="0.200000" stroke="#000000" stroke-width="2" stroke-opacity="0.200000" points="411.1001,-220.0548 409,-214.0548 406.9001,-220.0549 411.1001,-220.0548"/>
</g>
<!-- src/modules/display&#45;&gt;src/modules/text -->
<g id="edge19" class="edge">
<title>src/modules/display&#45;&gt;src/modules/text</title>
<path fill="none" stroke="#000000" stroke-width="2" stroke-opacity="0.200000" d="M637.2515,-226C655.8008,-226 677,-226 677,-226 677,-226 677,-222.0548 677,-222.0548"/>
<polygon fill="#000000" fill-opacity="0.200000" stroke="#000000" stroke-width="2" stroke-opacity="0.200000" points="679.1001,-222.0548 677,-216.0548 674.9001,-222.0549 679.1001,-222.0548"/>
</g>
<!-- src/modules/display&#45;&gt;src/modules/db -->
<g id="edge16" class="edge">
<title>src/modules/display&#45;&gt;src/modules/db</title>
<path fill="none" stroke="#000000" stroke-width="2" stroke-opacity="0.200000" d="M610,-238.2435C610,-241.3303 610,-244 610,-244 610,-244 509.1169,-244 509.1169,-244"/>
<polygon fill="#000000" fill-opacity="0.200000" stroke="#000000" stroke-width="2" stroke-opacity="0.200000" points="509.1169,-241.9001 503.1169,-244 509.1169,-246.1001 509.1169,-241.9001"/>
</g>
<!-- src/modules/display&#45;&gt;src/modules/selection -->
<g id="edge18" class="edge">
<title>src/modules/display&#45;&gt;src/modules/selection</title>
<path fill="none" stroke="#000000" stroke-width="2" stroke-opacity="0.200000" d="M610,-219.9567C610,-204.0461 610,-172.7143 610,-172.7143 610,-172.7143 643.7485,-172.7143 643.7485,-172.7143"/>
<polygon fill="#000000" fill-opacity="0.200000" stroke="#000000" stroke-width="2" stroke-opacity="0.200000" points="643.7486,-174.8144 649.7485,-172.7143 643.7485,-170.6144 643.7486,-174.8144"/>
</g>
<!-- src/modules/display&#45;&gt;src/shared -->
<g id="edge15" class="edge">
<title>src/modules/display&#45;&gt;src/shared</title>
<path fill="none" stroke="#000000" stroke-width="2" stroke-opacity="0.200000" d="M637.3164,-232C650.7101,-232 664,-232 664,-232 664,-232 664,-305.8107 664,-305.8107"/>
<polygon fill="#000000" fill-opacity="0.200000" stroke="#000000" stroke-width="2" stroke-opacity="0.200000" points="661.9001,-305.8106 664,-311.8107 666.1001,-305.8107 661.9001,-305.8106"/>
</g>
<!-- src/modules/river&#45;&gt;src/modules/cards -->
<g id="edge25" class="edge">
<title>src/modules/river&#45;&gt;src/modules/cards</title>
<path fill="none" stroke="#000000" stroke-width="2" stroke-opacity="0.200000" d="M515.7701,-183.2C480.3651,-183.2 423,-183.2 423,-183.2 423,-183.2 423,-189.8812 423,-189.8812"/>
<polygon fill="#000000" fill-opacity="0.200000" stroke="#000000" stroke-width="2" stroke-opacity="0.200000" points="420.9001,-189.8811 423,-195.8812 425.1001,-189.8812 420.9001,-189.8811"/>
</g>
<!-- src/modules/river&#45;&gt;src/modules/text -->
<g id="edge29" class="edge">
<title>src/modules/river&#45;&gt;src/modules/text</title>
<path fill="none" stroke="#000000" stroke-width="2" stroke-opacity="0.200000" d="M557,-194.2958C557,-198.2646 557,-202 557,-202 557,-202 643.7701,-202 643.7701,-202"/>
<polygon fill="#000000" fill-opacity="0.200000" stroke="#000000" stroke-width="2" stroke-opacity="0.200000" points="643.7702,-204.1001 649.7701,-202 643.7701,-199.9001 643.7702,-204.1001"/>
</g>
<!-- src/modules/river&#45;&gt;src/modules/display -->
<g id="edge26" class="edge">
<title>src/modules/river&#45;&gt;src/modules/display</title>
<path fill="none" stroke="#000000" stroke-width="2" stroke-opacity="0.200000" d="M543,-194.3367C543,-205.2976 543,-222 543,-222 543,-222 576.7485,-222 576.7485,-222"/>
<polygon fill="#000000" fill-opacity="0.200000" stroke="#000000" stroke-width="2" stroke-opacity="0.200000" points="576.7486,-224.1001 582.7485,-222 576.7485,-219.9001 576.7486,-224.1001"/>
</g>
<!-- src/modules/river&#45;&gt;src/modules/focus -->
<g id="edge27" class="edge">
<title>src/modules/river&#45;&gt;src/modules/focus</title>
<path fill="none" stroke="#000000" stroke-width="2" stroke-opacity="0.200000" d="M552,-175.5541C552,-160.6865 552,-133.5 552,-133.5 552,-133.5 576.6984,-133.5 576.6984,-133.5"/>
<polygon fill="#000000" fill-opacity="0.200000" stroke="#000000" stroke-width="2" stroke-opacity="0.200000" points="576.6984,-135.6001 582.6984,-133.5 576.6983,-131.4001 576.6984,-135.6001"/>
</g>
<!-- src/modules/river&#45;&gt;src/modules/selection -->
<g id="edge30" class="edge">
<title>src/modules/river&#45;&gt;src/modules/selection</title>
<path fill="none" stroke="#000000" stroke-width="2" stroke-opacity="0.200000" d="M561,-175.7227C561,-173.3371 561,-171.4286 561,-171.4286 561,-171.4286 643.8032,-171.4286 643.8032,-171.4286"/>
<polygon fill="#000000" fill-opacity="0.200000" stroke="#000000" stroke-width="2" stroke-opacity="0.200000" points="643.8032,-173.5287 649.8032,-171.4286 643.8031,-169.3287 643.8032,-173.5287"/>
</g>
<!-- src/modules/river&#45;&gt;src/shared -->
<g id="edge28" class="edge">
<title>src/modules/river&#45;&gt;src/shared</title>
<path fill="none" stroke="#000000" stroke-width="2" stroke-opacity="0.200000" d="M530,-194.0385C530,-223.7481 530,-316.5 530,-316.5 530,-316.5 643.6949,-316.5 643.6949,-316.5"/>
<polygon fill="#000000" fill-opacity="0.200000" stroke="#000000" stroke-width="2" stroke-opacity="0.200000" points="643.695,-318.6001 649.6949,-316.5 643.6949,-314.4001 643.695,-318.6001"/>
</g>
<!-- src/modules/extraction&#45;&gt;src/modules/cards -->
<g id="edge24" class="edge">
<title>src/modules/extraction&#45;&gt;src/modules/cards</title>
<path fill="none" stroke="#000000" stroke-width="2" stroke-opacity="0.200000" d="M369.1445,-190.4C382.6763,-190.4 396,-190.4 396,-190.4 396,-190.4 396,-190.9271 396,-190.9271"/>
<polygon fill="#000000" fill-opacity="0.200000" stroke="#000000" stroke-width="2" stroke-opacity="0.200000" points="393.9001,-189.6709 396,-195.6709 398.1001,-189.671 393.9001,-189.6709"/>
</g>
<!-- src/modules/extraction&#45;&gt;src/modules/display -->
<g id="edge20" class="edge">
<title>src/modules/extraction&#45;&gt;src/modules/display</title>
<path fill="none" stroke="#000000" stroke-width="2" stroke-opacity="0.200000" d="M351,-194.1192C351,-206.7415 351,-228 351,-228 351,-228 576.772,-228 576.772,-228"/>
<polygon fill="#000000" fill-opacity="0.200000" stroke="#000000" stroke-width="2" stroke-opacity="0.200000" points="576.772,-230.1001 582.772,-228 576.772,-225.9001 576.772,-230.1001"/>
</g>
<!-- src/modules/extraction&#45;&gt;src/modules/river -->
<g id="edge21" class="edge">
<title>src/modules/extraction&#45;&gt;src/modules/river</title>
<path fill="none" stroke="#000000" stroke-width="2" stroke-opacity="0.200000" d="M369.0872,-179.6C369.0872,-179.6 509.7967,-179.6 509.7967,-179.6"/>
<polygon fill="#000000" fill-opacity="0.200000" stroke="#000000" stroke-width="2" stroke-opacity="0.200000" points="509.7968,-181.7001 515.7967,-179.6 509.7967,-177.5001 509.7968,-181.7001"/>
</g>
<!-- src/modules/extraction&#45;&gt;src/modules/selection -->
<g id="edge22" class="edge">
<title>src/modules/extraction&#45;&gt;src/modules/selection</title>
<path fill="none" stroke="#000000" stroke-width="2" stroke-opacity="0.200000" d="M341,-175.8774C341,-171.6605 341,-167.5714 341,-167.5714 341,-167.5714 643.7883,-167.5714 643.7883,-167.5714"/>
<polygon fill="#000000" fill-opacity="0.200000" stroke="#000000" stroke-width="2" stroke-opacity="0.200000" points="643.7884,-169.6715 649.7883,-167.5714 643.7883,-165.4715 643.7884,-169.6715"/>
</g>
<!-- src/modules/extraction&#45;&gt;src/shared -->
<g id="edge23" class="edge">
<title>src/modules/extraction&#45;&gt;src/shared</title>
<path fill="none" stroke="#000000" stroke-width="2" stroke-opacity="0.200000" d="M332,-194.3478C332,-225.0741 332,-321 332,-321 332,-321 643.9284,-321 643.9284,-321"/>
<polygon fill="#000000" fill-opacity="0.200000" stroke="#000000" stroke-width="2" stroke-opacity="0.200000" points="643.9285,-323.1001 649.9284,-321 643.9284,-318.9001 643.9285,-323.1001"/>
</g>
<!-- src/modules/selection&#45;&gt;src/modules/cards -->
<g id="edge32" class="edge">
<title>src/modules/selection&#45;&gt;src/modules/cards</title>
<path fill="none" stroke="#000000" stroke-width="2" stroke-opacity="0.200000" d="M649.8279,-170.1429C581.6945,-170.1429 409,-170.1429 409,-170.1429 409,-170.1429 409,-189.8417 409,-189.8417"/>
<polygon fill="#000000" fill-opacity="0.200000" stroke="#000000" stroke-width="2" stroke-opacity="0.200000" points="406.9001,-189.8417 409,-195.8417 411.1001,-189.8417 406.9001,-189.8417"/>
</g>
<!-- src/scenes/ActiveRiverView.tsx&#45;&gt;src/modules/display -->
<g id="edge33" class="edge">
<title>src/scenes/ActiveRiverView.tsx&#45;&gt;src/modules/display</title>
<path fill="none" stroke="#000000" stroke-width="2" stroke-opacity="0.200000" d="M290.0576,-43.5C328.5835,-43.5 376,-43.5 376,-43.5 376,-43.5 376,-226 376,-226 376,-226 576.6993,-226 576.6993,-226"/>
<polygon fill="#000000" fill-opacity="0.200000" stroke="#000000" stroke-width="2" stroke-opacity="0.200000" points="576.6993,-228.1001 582.6993,-226 576.6992,-223.9001 576.6993,-228.1001"/>
</g>
<!-- src/scenes/ActiveRiverView.tsx&#45;&gt;src/modules/river -->
<g id="edge35" class="edge">
<title>src/scenes/ActiveRiverView.tsx&#45;&gt;src/modules/river</title>
<path fill="none" stroke="#000000" stroke-width="2" stroke-opacity="0.200000" d="M290.2763,-39C375.6073,-39 543,-39 543,-39 543,-39 543,-169.867 543,-169.867"/>
<polygon fill="#000000" fill-opacity="0.200000" stroke="#000000" stroke-width="2" stroke-opacity="0.200000" points="540.9001,-169.867 543,-175.867 545.1001,-169.8671 540.9001,-169.867"/>
</g>
<!-- src/scenes/ActiveRiverView.tsx&#45;&gt;src/modules/focus -->
<g id="edge34" class="edge">
<title>src/scenes/ActiveRiverView.tsx&#45;&gt;src/modules/focus</title>
<path fill="none" stroke="#000000" stroke-width="2" stroke-opacity="0.200000" d="M290.0539,-34.5C390.1176,-34.5 610,-34.5 610,-34.5 610,-34.5 610,-113.9389 610,-113.9389"/>
<polygon fill="#000000" fill-opacity="0.200000" stroke="#000000" stroke-width="2" stroke-opacity="0.200000" points="607.9001,-113.9389 610,-119.9389 612.1001,-113.939 607.9001,-113.9389"/>
</g>
<!-- src/scenes/SummaryRiverView.tsx&#45;&gt;src/modules/river -->
<g id="edge42" class="edge">
<title>src/scenes/SummaryRiverView.tsx&#45;&gt;src/modules/river</title>
<path fill="none" stroke="#000000" stroke-width="2" stroke-opacity="0.200000" d="M297.2055,-69C382.0717,-69 534,-69 534,-69 534,-69 534,-169.8977 534,-169.8977"/>
<polygon fill="#000000" fill-opacity="0.200000" stroke="#000000" stroke-width="2" stroke-opacity="0.200000" points="531.9001,-169.8976 534,-175.8977 536.1001,-169.8977 531.9001,-169.8976"/>
</g>
<!-- src/scenes/SummaryRiverView.tsx&#45;&gt;src/modules/focus -->
<g id="edge41" class="edge">
<title>src/scenes/SummaryRiverView.tsx&#45;&gt;src/modules/focus</title>
<path fill="none" stroke="#000000" stroke-width="2" stroke-opacity="0.200000" d="M283,-78.1647C283,-93.9283 283,-124.5 283,-124.5 283,-124.5 576.962,-124.5 576.962,-124.5"/>
<polygon fill="#000000" fill-opacity="0.200000" stroke="#000000" stroke-width="2" stroke-opacity="0.200000" points="576.962,-126.6001 582.962,-124.5 576.962,-122.4001 576.962,-126.6001"/>
</g>
</g>
</svg>
