<?xml version="1.0" encoding="UTF-8" standalone="no"?>
<!DOCTYPE svg PUBLIC "-//W3C//DTD SVG 1.1//EN"
 "http://www.w3.org/Graphics/SVG/1.1/DTD/svg11.dtd">
<!-- Generated by graphviz version 2.40.1 (20161225.0304)
 -->
<!-- Title: dependency&#45;cruiser output Pages: 1 -->
<svg width="685pt" height="198pt"
 viewBox="0.00 0.00 685.00 198.00" xmlns="http://www.w3.org/2000/svg" xmlns:xlink="http://www.w3.org/1999/xlink">
<g id="graph0" class="graph" transform="scale(1 1) rotate(0) translate(4 194)">
<title>dependency&#45;cruiser output</title>
<polygon fill="#ffffff" stroke="transparent" points="-4,4 -4,-194 681,-194 681,4 -4,4"/>
<g id="clust1" class="cluster">
<title>cluster_src</title>
<path fill="#ffffff" stroke="#000000" stroke-width="2" d="M20,-8C20,-8 657,-8 657,-8 663,-8 669,-14 669,-20 669,-20 669,-170 669,-170 669,-176 663,-182 657,-182 657,-182 20,-182 20,-182 14,-182 8,-176 8,-170 8,-170 8,-20 8,-20 8,-14 14,-8 20,-8"/>
<text text-anchor="middle" x="338.5" y="-170.8" font-family="Helvetica,sans-Serif" font-weight="bold" font-size="9.00" fill="#000000">src</text>
</g>
<g id="clust2" class="cluster">
<title>cluster_src/modules</title>
<path fill="#ffffff" stroke="#000000" stroke-width="2" d="M201,-22C201,-22 649,-22 649,-22 655,-22 661,-28 661,-34 661,-34 661,-118 661,-118 661,-124 655,-130 649,-130 649,-130 201,-130 201,-130 195,-130 189,-124 189,-118 189,-118 189,-34 189,-34 189,-28 195,-22 201,-22"/>
<text text-anchor="middle" x="425" y="-118.8" font-family="Helvetica,sans-Serif" font-weight="bold" font-size="9.00" fill="#000000">modules</text>
</g>
<g id="clust3" class="cluster">
<title>cluster_src/scenes</title>
<path fill="#ffffff" stroke="#000000" stroke-width="2" d="M90,-22C90,-22 169,-22 169,-22 175,-22 181,-28 181,-34 181,-34 181,-62 181,-62 181,-68 175,-74 169,-74 169,-74 90,-74 90,-74 84,-74 78,-68 78,-62 78,-62 78,-34 78,-34 78,-28 84,-22 90,-22"/>
<text text-anchor="middle" x="129.5" y="-62.8" font-family="Helvetica,sans-Serif" font-weight="bold" font-size="9.00" fill="#000000">scenes</text>
</g>
<!-- src/index.tsx -->
<g id="node1" class="node">
<title>src/index.tsx</title>
<g id="a_node1"><a xlink:href="src/index.tsx" xlink:title="index.tsx">
<path fill="#bbfeff" stroke="#000000" d="M64,-48C64,-48 22,-48 22,-48 19,-48 16,-45 16,-42 16,-42 16,-36 16,-36 16,-33 19,-30 22,-30 22,-30 64,-30 64,-30 67,-30 70,-33 70,-36 70,-36 70,-42 70,-42 70,-45 67,-48 64,-48"/>
<text text-anchor="middle" x="43" y="-36.8" font-family="Helvetica,sans-Serif" font-size="9.00" fill="#000000">index.tsx</text>
</a>
</g>
</g>
<!-- src/scenes/ReaderScene.tsx -->
<g id="node2" class="node">
<title>src/scenes/ReaderScene.tsx</title>
<g id="a_node2"><a xlink:href="src/scenes/ReaderScene.tsx" xlink:title="ReaderScene.tsx">
<path fill="#bbfeff" stroke="#000000" d="M167,-48C167,-48 92,-48 92,-48 89,-48 86,-45 86,-42 86,-42 86,-36 86,-36 86,-33 89,-30 92,-30 92,-30 167,-30 167,-30 170,-30 173,-33 173,-36 173,-36 173,-42 173,-42 173,-45 170,-48 167,-48"/>
<text text-anchor="middle" x="129.5" y="-36.8" font-family="Helvetica,sans-Serif" font-size="9.00" fill="#000000">ReaderScene.tsx</text>
</a>
</g>
</g>
<!-- src/index.tsx&#45;&gt;src/scenes/ReaderScene.tsx -->
<g id="edge1" class="edge">
<title>src/index.tsx&#45;&gt;src/scenes/ReaderScene.tsx</title>
<path fill="none" stroke="#000000" stroke-width="2" stroke-opacity="0.200000" d="M70.3691,-39C70.3691,-39 79.8699,-39 79.8699,-39"/>
<polygon fill="#000000" fill-opacity="0.200000" stroke="#000000" stroke-width="2" stroke-opacity="0.200000" points="79.8699,-41.1001 85.8699,-39 79.8698,-36.9001 79.8699,-41.1001"/>
</g>
<!-- src/modules/control -->
<g id="node5" class="node">
<title>src/modules/control</title>
<g id="a_node5"><a xlink:href="src/modules/control" xlink:title="control">
<polygon fill="#ffffcc" stroke="#000000" points="251,-55 199,-55 197,-53 197,-37 249,-37 251,-39 251,-55"/>
<polyline fill="none" stroke="#000000" points="249,-53 197,-53 "/>
<polyline fill="none" stroke="#000000" points="249,-53 249,-37 "/>
<polyline fill="none" stroke="#000000" points="249,-53 251,-55 "/>
<text text-anchor="middle" x="224" y="-43.8" font-family="Helvetica,sans-Serif" font-size="9.00" fill="#000000">control</text>
</a>
</g>
</g>
<!-- src/scenes/ReaderScene.tsx&#45;&gt;src/modules/control -->
<g id="edge24" class="edge">
<title>src/scenes/ReaderScene.tsx&#45;&gt;src/modules/control</title>
<path fill="none" stroke="#000000" stroke-width="2" stroke-opacity="0.200000" d="M173.154,-42.5C173.154,-42.5 190.9873,-42.5 190.9873,-42.5"/>
<polygon fill="#000000" fill-opacity="0.200000" stroke="#000000" stroke-width="2" stroke-opacity="0.200000" points="190.9873,-44.6001 196.9873,-42.5 190.9873,-40.4001 190.9873,-44.6001"/>
</g>
<!-- src/modules/river -->
<g id="node7" class="node">
<title>src/modules/river</title>
<g id="a_node7"><a xlink:href="src/modules/river" xlink:title="river">
<polygon fill="#ffffcc" stroke="#000000" points="519,-76 467,-76 465,-74 465,-58 517,-58 519,-60 519,-76"/>
<polyline fill="none" stroke="#000000" points="517,-74 465,-74 "/>
<polyline fill="none" stroke="#000000" points="517,-74 517,-58 "/>
<polyline fill="none" stroke="#000000" points="517,-74 519,-76 "/>
<text text-anchor="middle" x="492" y="-64.8" font-family="Helvetica,sans-Serif" font-size="9.00" fill="#000000">river</text>
</a>
</g>
</g>
<!-- src/scenes/ReaderScene.tsx&#45;&gt;src/modules/river -->
<g id="edge26" class="edge">
<title>src/scenes/ReaderScene.tsx&#45;&gt;src/modules/river</title>
<path fill="none" stroke="#000000" stroke-width="2" stroke-opacity="0.200000" d="M173.3365,-32.3333C268.7993,-32.3333 487,-32.3333 487,-32.3333 487,-32.3333 487,-51.8917 487,-51.8917"/>
<polygon fill="#000000" fill-opacity="0.200000" stroke="#000000" stroke-width="2" stroke-opacity="0.200000" points="484.9001,-51.8917 487,-57.8917 489.1001,-51.8918 484.9001,-51.8917"/>
</g>
<!-- src/modules/creation -->
<g id="node8" class="node">
<title>src/modules/creation</title>
<g id="a_node8"><a xlink:href="src/modules/creation" xlink:title="creation">
<polygon fill="#ffffcc" stroke="#000000" points="318,-62 266,-62 264,-60 264,-44 316,-44 318,-46 318,-62"/>
<polyline fill="none" stroke="#000000" points="316,-60 264,-60 "/>
<polyline fill="none" stroke="#000000" points="316,-60 316,-44 "/>
<polyline fill="none" stroke="#000000" points="316,-60 318,-62 "/>
<text text-anchor="middle" x="291" y="-50.8" font-family="Helvetica,sans-Serif" font-size="9.00" fill="#000000">creation</text>
</a>
</g>
</g>
<!-- src/scenes/ReaderScene.tsx&#45;&gt;src/modules/creation -->
<g id="edge25" class="edge">
<title>src/scenes/ReaderScene.tsx&#45;&gt;src/modules/creation</title>
<path fill="none" stroke="#000000" stroke-width="2" stroke-opacity="0.200000" d="M173.2042,-34.6667C221.0331,-34.6667 291,-34.6667 291,-34.6667 291,-34.6667 291,-37.8333 291,-37.8333"/>
<polygon fill="#000000" fill-opacity="0.200000" stroke="#000000" stroke-width="2" stroke-opacity="0.200000" points="288.9001,-37.8333 291,-43.8333 293.1001,-37.8334 288.9001,-37.8333"/>
</g>
<!-- src/modules/cards -->
<g id="node3" class="node">
<title>src/modules/cards</title>
<g id="a_node3"><a xlink:href="src/modules/cards" xlink:title="cards">
<polygon fill="#ffffcc" stroke="#000000" points="385,-76 333,-76 331,-74 331,-58 383,-58 385,-60 385,-76"/>
<polyline fill="none" stroke="#000000" points="383,-74 331,-74 "/>
<polyline fill="none" stroke="#000000" points="383,-74 383,-58 "/>
<polyline fill="none" stroke="#000000" points="383,-74 385,-76 "/>
<text text-anchor="middle" x="358" y="-64.8" font-family="Helvetica,sans-Serif" font-size="9.00" fill="#000000">cards</text>
</a>
</g>
</g>
<!-- src/modules/db -->
<g id="node4" class="node">
<title>src/modules/db</title>
<g id="a_node4"><a xlink:href="src/modules/db" xlink:title="db">
<polygon fill="#ffffcc" stroke="#000000" points="452,-90 400,-90 398,-88 398,-72 450,-72 452,-74 452,-90"/>
<polyline fill="none" stroke="#000000" points="450,-88 398,-88 "/>
<polyline fill="none" stroke="#000000" points="450,-88 450,-72 "/>
<polyline fill="none" stroke="#000000" points="450,-88 452,-90 "/>
<text text-anchor="middle" x="425" y="-78.8" font-family="Helvetica,sans-Serif" font-size="9.00" fill="#000000">db</text>
</a>
</g>
</g>
<!-- src/modules/cards&#45;&gt;src/modules/db -->
<g id="edge2" class="edge">
<title>src/modules/cards&#45;&gt;src/modules/db</title>
<path fill="none" stroke="#000000" stroke-width="2" stroke-opacity="0.200000" d="M358,-80.204C358,-80.204 358,-80.6667 358,-80.6667 358,-80.6667 391.7485,-80.6667 391.7485,-80.6667"/>
<polygon fill="#000000" fill-opacity="0.200000" stroke="#000000" stroke-width="2" stroke-opacity="0.200000" points="360.1001,-82.0397 358,-76.0398 355.9001,-82.0398 360.1001,-82.0397"/>
<polygon fill="#000000" fill-opacity="0.200000" stroke="#000000" stroke-width="2" stroke-opacity="0.200000" points="391.7486,-82.7668 397.7485,-80.6667 391.7485,-78.5668 391.7486,-82.7668"/>
</g>
<!-- src/modules/db&#45;&gt;src/modules/river -->
<g id="edge16" class="edge">
<title>src/modules/db&#45;&gt;src/modules/river</title>
<path fill="none" stroke="#000000" stroke-width="2" stroke-opacity="0.200000" d="M458.2515,-83C458.2515,-83 492,-83 492,-83 492,-83 492,-82.1217 492,-82.1217"/>
<polygon fill="#000000" fill-opacity="0.200000" stroke="#000000" stroke-width="2" stroke-opacity="0.200000" points="458.2515,-80.9001 452.2515,-83 458.2514,-85.1001 458.2515,-80.9001"/>
<polygon fill="#000000" fill-opacity="0.200000" stroke="#000000" stroke-width="2" stroke-opacity="0.200000" points="494.1001,-82.1217 492,-76.1217 489.9001,-82.1217 494.1001,-82.1217"/>
</g>
<!-- src/modules/control&#45;&gt;src/modules/cards -->
<g id="edge5" class="edge">
<title>src/modules/control&#45;&gt;src/modules/cards</title>
<path fill="none" stroke="#000000" stroke-width="2" stroke-opacity="0.200000" d="M238,-55.1459C238,-62.4023 238,-71.3333 238,-71.3333 238,-71.3333 324.7701,-71.3333 324.7701,-71.3333"/>
<polygon fill="#000000" fill-opacity="0.200000" stroke="#000000" stroke-width="2" stroke-opacity="0.200000" points="324.7702,-73.4334 330.7701,-71.3333 324.7701,-69.2334 324.7702,-73.4334"/>
</g>
<!-- src/modules/control&#45;&gt;src/modules/db -->
<g id="edge3" class="edge">
<title>src/modules/control&#45;&gt;src/modules/db</title>
<path fill="none" stroke="#000000" stroke-width="2" stroke-opacity="0.200000" d="M224,-55.1227C224,-66.7422 224,-85.3333 224,-85.3333 224,-85.3333 391.8922,-85.3333 391.8922,-85.3333"/>
<polygon fill="#000000" fill-opacity="0.200000" stroke="#000000" stroke-width="2" stroke-opacity="0.200000" points="391.8923,-87.4334 397.8922,-85.3333 391.8922,-83.2334 391.8923,-87.4334"/>
</g>
<!-- src/modules/display -->
<g id="node6" class="node">
<title>src/modules/display</title>
<g id="a_node6"><a xlink:href="src/modules/display" xlink:title="display">
<polygon fill="#ffffcc" stroke="#000000" points="586,-62 534,-62 532,-60 532,-44 584,-44 586,-46 586,-62"/>
<polyline fill="none" stroke="#000000" points="584,-60 532,-60 "/>
<polyline fill="none" stroke="#000000" points="584,-60 584,-44 "/>
<polyline fill="none" stroke="#000000" points="584,-60 586,-62 "/>
<text text-anchor="middle" x="559" y="-50.8" font-family="Helvetica,sans-Serif" font-size="9.00" fill="#000000">display</text>
</a>
</g>
</g>
<!-- src/modules/control&#45;&gt;src/modules/display -->
<g id="edge4" class="edge">
<title>src/modules/control&#45;&gt;src/modules/display</title>
<path fill="none" stroke="#000000" stroke-width="2" stroke-opacity="0.200000" d="M251.1307,-41.2C330.8827,-41.2 559,-41.2 559,-41.2 559,-41.2 559,-41.4737 559,-41.4737"/>
<polygon fill="#000000" fill-opacity="0.200000" stroke="#000000" stroke-width="2" stroke-opacity="0.200000" points="556.9002,-37.9367 559,-43.9368 561.1002,-37.9369 556.9002,-37.9367"/>
</g>
<!-- src/modules/control&#45;&gt;src/modules/river -->
<g id="edge6" class="edge">
<title>src/modules/control&#45;&gt;src/modules/river</title>
<path fill="none" stroke="#000000" stroke-width="2" stroke-opacity="0.200000" d="M251.4481,-42.6C316.761,-42.6 476,-42.6 476,-42.6 476,-42.6 476,-51.9143 476,-51.9143"/>
<polygon fill="#000000" fill-opacity="0.200000" stroke="#000000" stroke-width="2" stroke-opacity="0.200000" points="473.9001,-51.9143 476,-57.9143 478.1001,-51.9144 473.9001,-51.9143"/>
</g>
<!-- src/modules/control&#45;&gt;src/modules/creation -->
<g id="edge7" class="edge">
<title>src/modules/control&#45;&gt;src/modules/creation</title>
<path fill="none" stroke="#000000" stroke-width="2" stroke-opacity="0.200000" d="M251.2515,-49.5C251.2515,-49.5 257.9899,-49.5 257.9899,-49.5"/>
<polygon fill="#000000" fill-opacity="0.200000" stroke="#000000" stroke-width="2" stroke-opacity="0.200000" points="257.9899,-51.6001 263.9899,-49.5 257.9899,-47.4001 257.9899,-51.6001"/>
</g>
<!-- src/modules/focus -->
<g id="node9" class="node">
<title>src/modules/focus</title>
<g id="a_node9"><a xlink:href="src/modules/focus" xlink:title="focus">
<polygon fill="#ffffcc" stroke="#000000" points="653,-55 601,-55 599,-53 599,-37 651,-37 653,-39 653,-55"/>
<polyline fill="none" stroke="#000000" points="651,-53 599,-53 "/>
<polyline fill="none" stroke="#000000" points="651,-53 651,-37 "/>
<polyline fill="none" stroke="#000000" points="651,-53 653,-55 "/>
<text text-anchor="middle" x="626" y="-43.8" font-family="Helvetica,sans-Serif" font-size="9.00" fill="#000000">focus</text>
</a>
</g>
</g>
<!-- src/modules/control&#45;&gt;src/modules/focus -->
<g id="edge8" class="edge">
<title>src/modules/control&#45;&gt;src/modules/focus</title>
<path fill="none" stroke="#000000" stroke-width="2" stroke-opacity="0.200000" d="M251.0006,-38.4C251.0006,-38.4 592.8528,-38.4 592.8528,-38.4"/>
<polygon fill="#000000" fill-opacity="0.200000" stroke="#000000" stroke-width="2" stroke-opacity="0.200000" points="592.8529,-40.5001 598.8528,-38.4 592.8528,-36.3001 592.8529,-40.5001"/>
</g>
<!-- src/shared -->
<g id="node10" class="node">
<title>src/shared</title>
<g id="a_node10"><a xlink:href="src/shared" xlink:title="shared">
<polygon fill="#ffffcc" stroke="#000000" points="653,-156 601,-156 599,-154 599,-138 651,-138 653,-140 653,-156"/>
<polyline fill="none" stroke="#000000" points="651,-154 599,-154 "/>
<polyline fill="none" stroke="#000000" points="651,-154 651,-138 "/>
<polyline fill="none" stroke="#000000" points="651,-154 653,-156 "/>
<text text-anchor="middle" x="626" y="-144.8" font-family="Helvetica,sans-Serif" font-size="9.00" fill="#000000">shared</text>
</a>
</g>
</g>
<!-- src/modules/control&#45;&gt;src/shared -->
<g id="edge9" class="edge">
<title>src/modules/control&#45;&gt;src/shared</title>
<path fill="none" stroke="#000000" stroke-width="2" stroke-opacity="0.200000" d="M211,-55.2293C211,-80.682 211,-150 211,-150 211,-150 592.7707,-150 592.7707,-150"/>
<polygon fill="#000000" fill-opacity="0.200000" stroke="#000000" stroke-width="2" stroke-opacity="0.200000" points="592.7707,-152.1001 598.7707,-150 592.7707,-147.9001 592.7707,-152.1001"/>
</g>
<!-- src/modules/display&#45;&gt;src/modules/focus -->
<g id="edge18" class="edge">
<title>src/modules/display&#45;&gt;src/modules/focus</title>
<path fill="none" stroke="#000000" stroke-width="2" stroke-opacity="0.200000" d="M586.2515,-49.5C586.2515,-49.5 592.9899,-49.5 592.9899,-49.5"/>
<polygon fill="#000000" fill-opacity="0.200000" stroke="#000000" stroke-width="2" stroke-opacity="0.200000" points="592.9899,-51.6001 598.9899,-49.5 592.9899,-47.4001 592.9899,-51.6001"/>
</g>
<!-- src/modules/display&#45;&gt;src/shared -->
<g id="edge17" class="edge">
<title>src/modules/display&#45;&gt;src/shared</title>
<path fill="none" stroke="#000000" stroke-width="2" stroke-opacity="0.200000" d="M586.4229,-58.5C609.9216,-58.5 640,-58.5 640,-58.5 640,-58.5 640,-131.8623 640,-131.8623"/>
<polygon fill="#000000" fill-opacity="0.200000" stroke="#000000" stroke-width="2" stroke-opacity="0.200000" points="637.9001,-131.8622 640,-137.8623 642.1001,-131.8623 637.9001,-131.8622"/>
</g>
<!-- src/modules/river&#45;&gt;src/modules/cards -->
<g id="edge19" class="edge">
<title>src/modules/river&#45;&gt;src/modules/cards</title>
<path fill="none" stroke="#000000" stroke-width="2" stroke-opacity="0.200000" d="M464.8831,-65C464.8831,-65 391.0766,-65 391.0766,-65"/>
<polygon fill="#000000" fill-opacity="0.200000" stroke="#000000" stroke-width="2" stroke-opacity="0.200000" points="391.0766,-62.9001 385.0766,-65 391.0765,-67.1001 391.0766,-62.9001"/>
</g>
<!-- src/modules/river&#45;&gt;src/modules/display -->
<g id="edge20" class="edge">
<title>src/modules/river&#45;&gt;src/modules/display</title>
<path fill="none" stroke="#000000" stroke-width="2" stroke-opacity="0.200000" d="M509,-57.9368C509,-56.3523 509,-55.2 509,-55.2 509,-55.2 525.9513,-55.2 525.9513,-55.2"/>
<polygon fill="#000000" fill-opacity="0.200000" stroke="#000000" stroke-width="2" stroke-opacity="0.200000" points="525.9513,-57.3001 531.9513,-55.2 525.9512,-53.1001 525.9513,-57.3001"/>
</g>
<!-- src/modules/river&#45;&gt;src/modules/focus -->
<g id="edge21" class="edge">
<title>src/modules/river&#45;&gt;src/modules/focus</title>
<path fill="none" stroke="#000000" stroke-width="2" stroke-opacity="0.200000" d="M519.1169,-66.6667C558.2721,-66.6667 626,-66.6667 626,-66.6667 626,-66.6667 626,-61.3658 626,-61.3658"/>
<polygon fill="#000000" fill-opacity="0.200000" stroke="#000000" stroke-width="2" stroke-opacity="0.200000" points="628.1001,-61.3658 626,-55.3658 623.9001,-61.3659 628.1001,-61.3658"/>
</g>
<!-- src/modules/river&#45;&gt;src/shared -->
<g id="edge22" class="edge">
<title>src/modules/river&#45;&gt;src/shared</title>
<path fill="none" stroke="#000000" stroke-width="2" stroke-opacity="0.200000" d="M519.1548,-71.3333C554.8296,-71.3333 613,-71.3333 613,-71.3333 613,-71.3333 613,-131.7218 613,-131.7218"/>
<polygon fill="#000000" fill-opacity="0.200000" stroke="#000000" stroke-width="2" stroke-opacity="0.200000" points="610.9001,-131.7217 613,-137.7218 615.1001,-131.7218 610.9001,-131.7217"/>
</g>
<!-- src/modules/creation&#45;&gt;src/modules/cards -->
<g id="edge10" class="edge">
<title>src/modules/creation&#45;&gt;src/modules/cards</title>
<path fill="none" stroke="#000000" stroke-width="2" stroke-opacity="0.200000" d="M300,-62.0398C300,-64.5813 300,-66.6667 300,-66.6667 300,-66.6667 324.6984,-66.6667 324.6984,-66.6667"/>
<polygon fill="#000000" fill-opacity="0.200000" stroke="#000000" stroke-width="2" stroke-opacity="0.200000" points="324.6984,-68.7668 330.6984,-66.6667 324.6983,-64.5668 324.6984,-68.7668"/>
</g>
<!-- src/modules/creation&#45;&gt;src/modules/display -->
<g id="edge11" class="edge">
<title>src/modules/creation&#45;&gt;src/modules/display</title>
<path fill="none" stroke="#000000" stroke-width="2" stroke-opacity="0.200000" d="M318.1721,-49.6C318.1721,-49.6 525.756,-49.6 525.756,-49.6"/>
<polygon fill="#000000" fill-opacity="0.200000" stroke="#000000" stroke-width="2" stroke-opacity="0.200000" points="525.756,-51.7001 531.756,-49.6 525.7559,-47.5001 525.756,-51.7001"/>
</g>
<!-- src/modules/creation&#45;&gt;src/modules/river -->
<g id="edge13" class="edge">
<title>src/modules/creation&#45;&gt;src/modules/river</title>
<path fill="none" stroke="#000000" stroke-width="2" stroke-opacity="0.200000" d="M318.0616,-52.4C374.1714,-52.4 498,-52.4 498,-52.4 498,-52.4 498,-52.9271 498,-52.9271"/>
<polygon fill="#000000" fill-opacity="0.200000" stroke="#000000" stroke-width="2" stroke-opacity="0.200000" points="495.9001,-51.6709 498,-57.6709 500.1001,-51.671 495.9001,-51.6709"/>
</g>
<!-- src/modules/creation&#45;&gt;src/modules/focus -->
<g id="edge12" class="edge">
<title>src/modules/creation&#45;&gt;src/modules/focus</title>
<path fill="none" stroke="#000000" stroke-width="2" stroke-opacity="0.200000" d="M318.1196,-46.8C322.1591,-46.8 325,-46.8 325,-46.8 325,-46.8 325,-39.8 325,-39.8 325,-39.8 592.7574,-39.8 592.7574,-39.8"/>
<polygon fill="#000000" fill-opacity="0.200000" stroke="#000000" stroke-width="2" stroke-opacity="0.200000" points="592.7574,-41.9001 598.7574,-39.8 592.7573,-37.7001 592.7574,-41.9001"/>
</g>
<!-- src/modules/creation&#45;&gt;src/shared -->
<g id="edge14" class="edge">
<title>src/modules/creation&#45;&gt;src/shared</title>
<path fill="none" stroke="#000000" stroke-width="2" stroke-opacity="0.200000" d="M282,-62.0581C282,-85.0755 282,-144 282,-144 282,-144 592.7194,-144 592.7194,-144"/>
<polygon fill="#000000" fill-opacity="0.200000" stroke="#000000" stroke-width="2" stroke-opacity="0.200000" points="592.7194,-146.1001 598.7194,-144 592.7193,-141.9001 592.7194,-146.1001"/>
</g>
</g>
</svg>
