<?xml version="1.0" encoding="UTF-8" standalone="no"?>
<!DOCTYPE svg PUBLIC "-//W3C//DTD SVG 1.1//EN"
 "http://www.w3.org/Graphics/SVG/1.1/DTD/svg11.dtd">
<!-- Generated by graphviz version 2.40.1 (20161225.0304)
 -->
<!-- Title: dependency&#45;cruiser output Pages: 1 -->
<svg width="613pt" height="198pt"
 viewBox="0.00 0.00 613.00 198.00" xmlns="http://www.w3.org/2000/svg" xmlns:xlink="http://www.w3.org/1999/xlink">
<g id="graph0" class="graph" transform="scale(1 1) rotate(0) translate(4 194)">
<title>dependency&#45;cruiser output</title>
<polygon fill="#ffffff" stroke="transparent" points="-4,4 -4,-194 609,-194 609,4 -4,4"/>
<g id="clust1" class="cluster">
<title>cluster_src</title>
<path fill="#ffffff" stroke="#000000" stroke-width="2" d="M20,-8C20,-8 585,-8 585,-8 591,-8 597,-14 597,-20 597,-20 597,-170 597,-170 597,-176 591,-182 585,-182 585,-182 20,-182 20,-182 14,-182 8,-176 8,-170 8,-170 8,-20 8,-20 8,-14 14,-8 20,-8"/>
<text text-anchor="middle" x="302.5" y="-170.8" font-family="Helvetica,sans-Serif" font-weight="bold" font-size="9.00" fill="#000000">src</text>
</g>
<g id="clust2" class="cluster">
<title>cluster_src/modules</title>
<path fill="#ffffff" stroke="#000000" stroke-width="2" d="M201,-16C201,-16 515,-16 515,-16 521,-16 527,-22 527,-28 527,-28 527,-144 527,-144 527,-150 521,-156 515,-156 515,-156 201,-156 201,-156 195,-156 189,-150 189,-144 189,-144 189,-28 189,-28 189,-22 195,-16 201,-16"/>
<text text-anchor="middle" x="358" y="-144.8" font-family="Helvetica,sans-Serif" font-weight="bold" font-size="9.00" fill="#000000">modules</text>
</g>
<g id="clust3" class="cluster">
<title>cluster_src/scenes</title>
<path fill="#ffffff" stroke="#000000" stroke-width="2" d="M90,-68C90,-68 169,-68 169,-68 175,-68 181,-74 181,-80 181,-80 181,-108 181,-108 181,-114 175,-120 169,-120 169,-120 90,-120 90,-120 84,-120 78,-114 78,-108 78,-108 78,-80 78,-80 78,-74 84,-68 90,-68"/>
<text text-anchor="middle" x="129.5" y="-108.8" font-family="Helvetica,sans-Serif" font-weight="bold" font-size="9.00" fill="#000000">scenes</text>
</g>
<!-- src/index.tsx -->
<g id="node1" class="node">
<title>src/index.tsx</title>
<g id="a_node1"><a xlink:href="src/index.tsx" xlink:title="index.tsx">
<path fill="#bbfeff" stroke="#000000" d="M64,-94C64,-94 22,-94 22,-94 19,-94 16,-91 16,-88 16,-88 16,-82 16,-82 16,-79 19,-76 22,-76 22,-76 64,-76 64,-76 67,-76 70,-79 70,-82 70,-82 70,-88 70,-88 70,-91 67,-94 64,-94"/>
<text text-anchor="middle" x="43" y="-82.8" font-family="Helvetica,sans-Serif" font-size="9.00" fill="#000000">index.tsx</text>
</a>
</g>
</g>
<!-- src/scenes/ReaderScene.tsx -->
<g id="node2" class="node">
<title>src/scenes/ReaderScene.tsx</title>
<g id="a_node2"><a xlink:href="src/scenes/ReaderScene.tsx" xlink:title="ReaderScene.tsx">
<path fill="#bbfeff" stroke="#000000" d="M167,-94C167,-94 92,-94 92,-94 89,-94 86,-91 86,-88 86,-88 86,-82 86,-82 86,-79 89,-76 92,-76 92,-76 167,-76 167,-76 170,-76 173,-79 173,-82 173,-82 173,-88 173,-88 173,-91 170,-94 167,-94"/>
<text text-anchor="middle" x="129.5" y="-82.8" font-family="Helvetica,sans-Serif" font-size="9.00" fill="#000000">ReaderScene.tsx</text>
</a>
</g>
</g>
<!-- src/index.tsx&#45;&gt;src/scenes/ReaderScene.tsx -->
<g id="edge1" class="edge">
<title>src/index.tsx&#45;&gt;src/scenes/ReaderScene.tsx</title>
<path fill="none" stroke="#000000" stroke-width="2" stroke-opacity="0.200000" d="M70.3691,-85C70.3691,-85 79.8699,-85 79.8699,-85"/>
<polygon fill="#000000" fill-opacity="0.200000" stroke="#000000" stroke-width="2" stroke-opacity="0.200000" points="79.8699,-87.1001 85.8699,-85 79.8698,-82.9001 79.8699,-87.1001"/>
</g>
<!-- src/modules/control -->
<g id="node6" class="node">
<title>src/modules/control</title>
<g id="a_node6"><a xlink:href="src/modules/control" xlink:title="control">
<polygon fill="#ffffcc" stroke="#000000" points="251,-94 199,-94 197,-92 197,-76 249,-76 251,-78 251,-94"/>
<polyline fill="none" stroke="#000000" points="249,-92 197,-92 "/>
<polyline fill="none" stroke="#000000" points="249,-92 249,-76 "/>
<polyline fill="none" stroke="#000000" points="249,-92 251,-94 "/>
<text text-anchor="middle" x="224" y="-82.8" font-family="Helvetica,sans-Serif" font-size="9.00" fill="#000000">control</text>
</a>
</g>
</g>
<!-- src/scenes/ReaderScene.tsx&#45;&gt;src/modules/control -->
<g id="edge21" class="edge">
<title>src/scenes/ReaderScene.tsx&#45;&gt;src/modules/control</title>
<path fill="none" stroke="#000000" stroke-width="2" stroke-opacity="0.200000" d="M173.154,-85C173.154,-85 190.9873,-85 190.9873,-85"/>
<polygon fill="#000000" fill-opacity="0.200000" stroke="#000000" stroke-width="2" stroke-opacity="0.200000" points="190.9873,-87.1001 196.9873,-85 190.9873,-82.9001 190.9873,-87.1001"/>
</g>
<!-- src/modules/focus -->
<g id="node7" class="node">
<title>src/modules/focus</title>
<g id="a_node7"><a xlink:href="src/modules/focus" xlink:title="focus">
<polygon fill="#ffffcc" stroke="#000000" points="452,-86 400,-86 398,-84 398,-68 450,-68 452,-70 452,-86"/>
<polyline fill="none" stroke="#000000" points="450,-84 398,-84 "/>
<polyline fill="none" stroke="#000000" points="450,-84 450,-68 "/>
<polyline fill="none" stroke="#000000" points="450,-84 452,-86 "/>
<text text-anchor="middle" x="425" y="-74.8" font-family="Helvetica,sans-Serif" font-size="9.00" fill="#000000">focus</text>
</a>
</g>
</g>
<!-- src/scenes/ReaderScene.tsx&#45;&gt;src/modules/focus -->
<g id="edge24" class="edge">
<title>src/scenes/ReaderScene.tsx&#45;&gt;src/modules/focus</title>
<path fill="none" stroke="#000000" stroke-width="2" stroke-opacity="0.200000" d="M130,-75.9546C130,-64.4336 130,-46 130,-46 130,-46 416,-46 416,-46 416,-46 416,-61.8666 416,-61.8666"/>
<polygon fill="#000000" fill-opacity="0.200000" stroke="#000000" stroke-width="2" stroke-opacity="0.200000" points="413.9001,-61.8666 416,-67.8666 418.1001,-61.8667 413.9001,-61.8666"/>
</g>
<!-- src/modules/display -->
<g id="node8" class="node">
<title>src/modules/display</title>
<g id="a_node8"><a xlink:href="src/modules/display" xlink:title="display">
<polygon fill="#ffffcc" stroke="#000000" points="452,-42 400,-42 398,-40 398,-24 450,-24 452,-26 452,-42"/>
<polyline fill="none" stroke="#000000" points="450,-40 398,-40 "/>
<polyline fill="none" stroke="#000000" points="450,-40 450,-24 "/>
<polyline fill="none" stroke="#000000" points="450,-40 452,-42 "/>
<text text-anchor="middle" x="425" y="-30.8" font-family="Helvetica,sans-Serif" font-size="9.00" fill="#000000">display</text>
</a>
</g>
</g>
<!-- src/scenes/ReaderScene.tsx&#45;&gt;src/modules/display -->
<g id="edge23" class="edge">
<title>src/scenes/ReaderScene.tsx&#45;&gt;src/modules/display</title>
<path fill="none" stroke="#000000" stroke-width="2" stroke-opacity="0.200000" d="M108,-75.9179C108,-60.2963 108,-30 108,-30 108,-30 391.9728,-30 391.9728,-30"/>
<polygon fill="#000000" fill-opacity="0.200000" stroke="#000000" stroke-width="2" stroke-opacity="0.200000" points="391.9728,-32.1001 397.9728,-30 391.9727,-27.9001 391.9728,-32.1001"/>
</g>
<!-- src/modules/select -->
<g id="node9" class="node">
<title>src/modules/select</title>
<g id="a_node9"><a xlink:href="src/modules/select" xlink:title="select">
<polygon fill="#ffffcc" stroke="#000000" points="385,-72 333,-72 331,-70 331,-54 383,-54 385,-56 385,-72"/>
<polyline fill="none" stroke="#000000" points="383,-70 331,-70 "/>
<polyline fill="none" stroke="#000000" points="383,-70 383,-54 "/>
<polyline fill="none" stroke="#000000" points="383,-70 385,-72 "/>
<text text-anchor="middle" x="358" y="-60.8" font-family="Helvetica,sans-Serif" font-size="9.00" fill="#000000">select</text>
</a>
</g>
</g>
<!-- src/scenes/ReaderScene.tsx&#45;&gt;src/modules/select -->
<g id="edge26" class="edge">
<title>src/scenes/ReaderScene.tsx&#45;&gt;src/modules/select</title>
<path fill="none" stroke="#000000" stroke-width="2" stroke-opacity="0.200000" d="M152,-75.7975C152,-69.7689 152,-63 152,-63 152,-63 324.6448,-63 324.6448,-63"/>
<polygon fill="#000000" fill-opacity="0.200000" stroke="#000000" stroke-width="2" stroke-opacity="0.200000" points="324.6448,-65.1001 330.6448,-63 324.6448,-60.9001 324.6448,-65.1001"/>
</g>
<!-- src/modules/creation -->
<g id="node10" class="node">
<title>src/modules/creation</title>
<g id="a_node10"><a xlink:href="src/modules/creation" xlink:title="creation">
<polygon fill="#ffffcc" stroke="#000000" points="318,-108 266,-108 264,-106 264,-90 316,-90 318,-92 318,-108"/>
<polyline fill="none" stroke="#000000" points="316,-106 264,-106 "/>
<polyline fill="none" stroke="#000000" points="316,-106 316,-90 "/>
<polyline fill="none" stroke="#000000" points="316,-106 318,-108 "/>
<text text-anchor="middle" x="291" y="-96.8" font-family="Helvetica,sans-Serif" font-size="9.00" fill="#000000">creation</text>
</a>
</g>
</g>
<!-- src/scenes/ReaderScene.tsx&#45;&gt;src/modules/creation -->
<g id="edge22" class="edge">
<title>src/scenes/ReaderScene.tsx&#45;&gt;src/modules/creation</title>
<path fill="none" stroke="#000000" stroke-width="2" stroke-opacity="0.200000" d="M144,-94.1667C144,-98.75 144,-103.3333 144,-103.3333 144,-103.3333 257.6949,-103.3333 257.6949,-103.3333"/>
<polygon fill="#000000" fill-opacity="0.200000" stroke="#000000" stroke-width="2" stroke-opacity="0.200000" points="257.695,-105.4334 263.6949,-103.3333 257.6949,-101.2334 257.695,-105.4334"/>
</g>
<!-- src/modules/river -->
<g id="node11" class="node">
<title>src/modules/river</title>
<g id="a_node11"><a xlink:href="src/modules/river" xlink:title="river">
<polygon fill="#ffffcc" stroke="#000000" points="385,-116 333,-116 331,-114 331,-98 383,-98 385,-100 385,-116"/>
<polyline fill="none" stroke="#000000" points="383,-114 331,-114 "/>
<polyline fill="none" stroke="#000000" points="383,-114 383,-98 "/>
<polyline fill="none" stroke="#000000" points="383,-114 385,-116 "/>
<text text-anchor="middle" x="358" y="-104.8" font-family="Helvetica,sans-Serif" font-size="9.00" fill="#000000">river</text>
</a>
</g>
</g>
<!-- src/scenes/ReaderScene.tsx&#45;&gt;src/modules/river -->
<g id="edge25" class="edge">
<title>src/scenes/ReaderScene.tsx&#45;&gt;src/modules/river</title>
<path fill="none" stroke="#000000" stroke-width="2" stroke-opacity="0.200000" d="M115,-94.141C115,-101.9739 115,-112 115,-112 115,-112 324.5972,-112 324.5972,-112"/>
<polygon fill="#000000" fill-opacity="0.200000" stroke="#000000" stroke-width="2" stroke-opacity="0.200000" points="324.5972,-114.1001 330.5972,-112 324.5971,-109.9001 324.5972,-114.1001"/>
</g>
<!-- src/modules/analyze -->
<g id="node3" class="node">
<title>src/modules/analyze</title>
<g id="a_node3"><a xlink:href="src/modules/analyze" xlink:title="analyze">
<polygon fill="#ffffcc" stroke="#000000" points="519,-86 467,-86 465,-84 465,-68 517,-68 519,-70 519,-86"/>
<polyline fill="none" stroke="#000000" points="517,-84 465,-84 "/>
<polyline fill="none" stroke="#000000" points="517,-84 517,-68 "/>
<polyline fill="none" stroke="#000000" points="517,-84 519,-86 "/>
<text text-anchor="middle" x="492" y="-74.8" font-family="Helvetica,sans-Serif" font-size="9.00" fill="#000000">analyze</text>
</a>
</g>
</g>
<!-- src/shared -->
<g id="node4" class="node">
<title>src/shared</title>
<g id="a_node4"><a xlink:href="src/shared" xlink:title="shared">
<polygon fill="#ffffcc" stroke="#000000" points="589,-119 537,-119 535,-117 535,-101 587,-101 589,-103 589,-119"/>
<polyline fill="none" stroke="#000000" points="587,-117 535,-117 "/>
<polyline fill="none" stroke="#000000" points="587,-117 587,-101 "/>
<polyline fill="none" stroke="#000000" points="587,-117 589,-119 "/>
<text text-anchor="middle" x="562" y="-107.8" font-family="Helvetica,sans-Serif" font-size="9.00" fill="#000000">shared</text>
</a>
</g>
</g>
<!-- src/modules/analyze&#45;&gt;src/shared -->
<g id="edge2" class="edge">
<title>src/modules/analyze&#45;&gt;src/shared</title>
<path fill="none" stroke="#000000" stroke-width="2" stroke-opacity="0.200000" d="M492,-86.2807C492,-95.5724 492,-108.5 492,-108.5 492,-108.5 528.7357,-108.5 528.7357,-108.5"/>
<polygon fill="#000000" fill-opacity="0.200000" stroke="#000000" stroke-width="2" stroke-opacity="0.200000" points="528.7358,-110.6001 534.7357,-108.5 528.7357,-106.4001 528.7358,-110.6001"/>
</g>
<!-- src/modules/cards -->
<g id="node5" class="node">
<title>src/modules/cards</title>
<g id="a_node5"><a xlink:href="src/modules/cards" xlink:title="cards">
<polygon fill="#ffffcc" stroke="#000000" points="452,-116 400,-116 398,-114 398,-98 450,-98 452,-100 452,-116"/>
<polyline fill="none" stroke="#000000" points="450,-114 398,-114 "/>
<polyline fill="none" stroke="#000000" points="450,-114 450,-98 "/>
<polyline fill="none" stroke="#000000" points="450,-114 452,-116 "/>
<text text-anchor="middle" x="425" y="-104.8" font-family="Helvetica,sans-Serif" font-size="9.00" fill="#000000">cards</text>
</a>
</g>
</g>
<!-- src/modules/control&#45;&gt;src/modules/focus -->
<g id="edge3" class="edge">
<title>src/modules/control&#45;&gt;src/modules/focus</title>
<path fill="none" stroke="#000000" stroke-width="2" stroke-opacity="0.200000" d="M251.1078,-81C251.1078,-81 391.6798,-81 391.6798,-81"/>
<polygon fill="#000000" fill-opacity="0.200000" stroke="#000000" stroke-width="2" stroke-opacity="0.200000" points="391.6798,-83.1001 397.6798,-81 391.6798,-78.9001 391.6798,-83.1001"/>
</g>
<!-- src/modules/control&#45;&gt;src/modules/display -->
<g id="edge4" class="edge">
<title>src/modules/control&#45;&gt;src/modules/display</title>
<path fill="none" stroke="#000000" stroke-width="2" stroke-opacity="0.200000" d="M224,-75.5523C224,-61.3135 224,-36 224,-36 224,-36 391.8922,-36 391.8922,-36"/>
<polygon fill="#000000" fill-opacity="0.200000" stroke="#000000" stroke-width="2" stroke-opacity="0.200000" points="391.8923,-38.1001 397.8922,-36 391.8922,-33.9001 391.8923,-38.1001"/>
</g>
<!-- src/modules/control&#45;&gt;src/modules/select -->
<g id="edge5" class="edge">
<title>src/modules/control&#45;&gt;src/modules/select</title>
<path fill="none" stroke="#000000" stroke-width="2" stroke-opacity="0.200000" d="M251.1548,-78.5C286.8296,-78.5 345,-78.5 345,-78.5 345,-78.5 345,-77.8696 345,-77.8696"/>
<polygon fill="#000000" fill-opacity="0.200000" stroke="#000000" stroke-width="2" stroke-opacity="0.200000" points="347.1001,-78.1955 345,-72.1956 342.9001,-78.1956 347.1001,-78.1955"/>
</g>
<!-- src/modules/control&#45;&gt;src/modules/creation -->
<g id="edge6" class="edge">
<title>src/modules/control&#45;&gt;src/modules/creation</title>
<path fill="none" stroke="#000000" stroke-width="2" stroke-opacity="0.200000" d="M224,-94.0398C224,-96.5813 224,-98.6667 224,-98.6667 224,-98.6667 257.7485,-98.6667 257.7485,-98.6667"/>
<polygon fill="#000000" fill-opacity="0.200000" stroke="#000000" stroke-width="2" stroke-opacity="0.200000" points="257.7486,-100.7668 263.7485,-98.6667 257.7485,-96.5668 257.7486,-100.7668"/>
</g>
<!-- src/modules/focus&#45;&gt;src/modules/analyze -->
<g id="edge14" class="edge">
<title>src/modules/focus&#45;&gt;src/modules/analyze</title>
<path fill="none" stroke="#000000" stroke-width="2" stroke-opacity="0.200000" d="M452.2515,-77C452.2515,-77 458.9899,-77 458.9899,-77"/>
<polygon fill="#000000" fill-opacity="0.200000" stroke="#000000" stroke-width="2" stroke-opacity="0.200000" points="458.9899,-79.1001 464.9899,-77 458.9899,-74.9001 458.9899,-79.1001"/>
</g>
<!-- src/modules/display&#45;&gt;src/modules/analyze -->
<g id="edge13" class="edge">
<title>src/modules/display&#45;&gt;src/modules/analyze</title>
<path fill="none" stroke="#000000" stroke-width="2" stroke-opacity="0.200000" d="M452.4229,-33C475.9216,-33 506,-33 506,-33 506,-33 506,-61.6687 506,-61.6687"/>
<polygon fill="#000000" fill-opacity="0.200000" stroke="#000000" stroke-width="2" stroke-opacity="0.200000" points="503.9001,-61.6687 506,-67.6687 508.1001,-61.6688 503.9001,-61.6687"/>
</g>
<!-- src/modules/select&#45;&gt;src/modules/analyze -->
<g id="edge18" class="edge">
<title>src/modules/select&#45;&gt;src/modules/analyze</title>
<path fill="none" stroke="#000000" stroke-width="2" stroke-opacity="0.200000" d="M385.1169,-64.5C424.2721,-64.5 492,-64.5 492,-64.5 492,-64.5 492,-64.8416 492,-64.8416"/>
<polygon fill="#000000" fill-opacity="0.200000" stroke="#000000" stroke-width="2" stroke-opacity="0.200000" points="489.9002,-61.9156 492,-67.9157 494.1002,-61.9157 489.9002,-61.9156"/>
</g>
<!-- src/modules/select&#45;&gt;src/shared -->
<g id="edge20" class="edge">
<title>src/modules/select&#45;&gt;src/shared</title>
<path fill="none" stroke="#000000" stroke-width="2" stroke-opacity="0.200000" d="M385.0896,-61C440.5816,-61 562,-61 562,-61 562,-61 562,-94.5523 562,-94.5523"/>
<polygon fill="#000000" fill-opacity="0.200000" stroke="#000000" stroke-width="2" stroke-opacity="0.200000" points="559.9001,-94.5523 562,-100.5523 564.1001,-94.5523 559.9001,-94.5523"/>
</g>
<!-- src/modules/select&#45;&gt;src/modules/display -->
<g id="edge19" class="edge">
<title>src/modules/select&#45;&gt;src/modules/display</title>
<path fill="none" stroke="#000000" stroke-width="2" stroke-opacity="0.200000" d="M385.0087,-57.5C406.8533,-57.5 434,-57.5 434,-57.5 434,-57.5 434,-48.1229 434,-48.1229"/>
<polygon fill="#000000" fill-opacity="0.200000" stroke="#000000" stroke-width="2" stroke-opacity="0.200000" points="436.1001,-48.1229 434,-42.1229 431.9001,-48.1229 436.1001,-48.1229"/>
</g>
<!-- src/modules/creation&#45;&gt;src/modules/analyze -->
<g id="edge7" class="edge">
<title>src/modules/creation&#45;&gt;src/modules/analyze</title>
<path fill="none" stroke="#000000" stroke-width="2" stroke-opacity="0.200000" d="M291,-89.5523C291,-75.3135 291,-50 291,-50 291,-50 479,-50 479,-50 479,-50 479,-61.859 479,-61.859"/>
<polygon fill="#000000" fill-opacity="0.200000" stroke="#000000" stroke-width="2" stroke-opacity="0.200000" points="476.9001,-61.859 479,-67.859 481.1001,-61.8591 476.9001,-61.859"/>
</g>
<!-- src/modules/creation&#45;&gt;src/shared -->
<g id="edge11" class="edge">
<title>src/modules/creation&#45;&gt;src/shared</title>
<path fill="none" stroke="#000000" stroke-width="2" stroke-opacity="0.200000" d="M291,-108.3313C291,-121.2471 291,-143 291,-143 291,-143 571,-143 571,-143 571,-143 571,-125.0174 571,-125.0174"/>
<polygon fill="#000000" fill-opacity="0.200000" stroke="#000000" stroke-width="2" stroke-opacity="0.200000" points="573.1001,-125.0174 571,-119.0174 568.9001,-125.0174 573.1001,-125.0174"/>
</g>
<!-- src/modules/creation&#45;&gt;src/modules/cards -->
<g id="edge8" class="edge">
<title>src/modules/creation&#45;&gt;src/modules/cards</title>
<path fill="none" stroke="#000000" stroke-width="2" stroke-opacity="0.200000" d="M318.2338,-96C359.7239,-96 434,-96 434,-96 434,-96 434,-96.1719 434,-96.1719"/>
<polygon fill="#000000" fill-opacity="0.200000" stroke="#000000" stroke-width="2" stroke-opacity="0.200000" points="431.9004,-91.7186 434,-97.7188 436.1004,-91.7189 431.9004,-91.7186"/>
</g>
<!-- src/modules/creation&#45;&gt;src/modules/focus -->
<g id="edge9" class="edge">
<title>src/modules/creation&#45;&gt;src/modules/focus</title>
<path fill="none" stroke="#000000" stroke-width="2" stroke-opacity="0.200000" d="M318.1231,-94C354.8866,-94 416,-94 416,-94 416,-94 416,-92.2958 416,-92.2958"/>
<polygon fill="#000000" fill-opacity="0.200000" stroke="#000000" stroke-width="2" stroke-opacity="0.200000" points="418.1001,-92.2958 416,-86.2958 413.9001,-92.2959 418.1001,-92.2958"/>
</g>
<!-- src/modules/creation&#45;&gt;src/modules/select -->
<g id="edge10" class="edge">
<title>src/modules/creation&#45;&gt;src/modules/select</title>
<path fill="none" stroke="#000000" stroke-width="2" stroke-opacity="0.200000" d="M318.2515,-92C336.8008,-92 358,-92 358,-92 358,-92 358,-78.1758 358,-78.1758"/>
<polygon fill="#000000" fill-opacity="0.200000" stroke="#000000" stroke-width="2" stroke-opacity="0.200000" points="360.1001,-78.1757 358,-72.1758 355.9001,-78.1758 360.1001,-78.1757"/>
</g>
<!-- src/modules/creation&#45;&gt;src/modules/river -->
<g id="edge12" class="edge">
<title>src/modules/creation&#45;&gt;src/modules/river</title>
<path fill="none" stroke="#000000" stroke-width="2" stroke-opacity="0.200000" d="M318.2515,-103C318.2515,-103 324.9899,-103 324.9899,-103"/>
<polygon fill="#000000" fill-opacity="0.200000" stroke="#000000" stroke-width="2" stroke-opacity="0.200000" points="324.9899,-105.1001 330.9899,-103 324.9899,-100.9001 324.9899,-105.1001"/>
</g>
<!-- src/modules/river&#45;&gt;src/shared -->
<g id="edge15" class="edge">
<title>src/modules/river&#45;&gt;src/shared</title>
<path fill="none" stroke="#000000" stroke-width="2" stroke-opacity="0.200000" d="M358,-116.2104C358,-122.9785 358,-131 358,-131 358,-131 553,-131 553,-131 553,-131 553,-125.0278 553,-125.0278"/>
<polygon fill="#000000" fill-opacity="0.200000" stroke="#000000" stroke-width="2" stroke-opacity="0.200000" points="555.1001,-125.0277 553,-119.0278 550.9001,-125.0278 555.1001,-125.0277"/>
</g>
<!-- src/modules/river&#45;&gt;src/modules/cards -->
<g id="edge16" class="edge">
<title>src/modules/river&#45;&gt;src/modules/cards</title>
<path fill="none" stroke="#000000" stroke-width="2" stroke-opacity="0.200000" d="M385.2515,-107C385.2515,-107 391.9899,-107 391.9899,-107"/>
<polygon fill="#000000" fill-opacity="0.200000" stroke="#000000" stroke-width="2" stroke-opacity="0.200000" points="391.9899,-109.1001 397.9899,-107 391.9899,-104.9001 391.9899,-109.1001"/>
</g>
<!-- src/modules/river&#45;&gt;src/modules/focus -->
<g id="edge17" class="edge">
<title>src/modules/river&#45;&gt;src/modules/focus</title>
<path fill="none" stroke="#000000" stroke-width="2" stroke-opacity="0.200000" d="M372,-97.9815C372,-91.3544 372,-83.5 372,-83.5 372,-83.5 391.879,-83.5 391.879,-83.5"/>
<polygon fill="#000000" fill-opacity="0.200000" stroke="#000000" stroke-width="2" stroke-opacity="0.200000" points="391.879,-85.6001 397.879,-83.5 391.8789,-81.4001 391.879,-85.6001"/>
</g>
</g>
</svg>
