<?xml version="1.0" encoding="UTF-8" standalone="no"?>
<!DOCTYPE svg PUBLIC "-//W3C//DTD SVG 1.1//EN"
 "http://www.w3.org/Graphics/SVG/1.1/DTD/svg11.dtd">
<!-- Generated by graphviz version 2.40.1 (20161225.0304)
 -->
<!-- Title: dependency&#45;cruiser output Pages: 1 -->
<svg width="613pt" height="232pt"
 viewBox="0.00 0.00 613.00 232.00" xmlns="http://www.w3.org/2000/svg" xmlns:xlink="http://www.w3.org/1999/xlink">
<g id="graph0" class="graph" transform="scale(1 1) rotate(0) translate(4 228)">
<title>dependency&#45;cruiser output</title>
<polygon fill="#ffffff" stroke="transparent" points="-4,4 -4,-228 609,-228 609,4 -4,4"/>
<g id="clust1" class="cluster">
<title>cluster_src</title>
<path fill="#ffffff" stroke="#000000" stroke-width="2" d="M20,-8C20,-8 585,-8 585,-8 591,-8 597,-14 597,-20 597,-20 597,-204 597,-204 597,-210 591,-216 585,-216 585,-216 20,-216 20,-216 14,-216 8,-210 8,-204 8,-204 8,-20 8,-20 8,-14 14,-8 20,-8"/>
<text text-anchor="middle" x="302.5" y="-204.8" font-family="Helvetica,sans-Serif" font-weight="bold" font-size="9.00" fill="#000000">src</text>
</g>
<g id="clust2" class="cluster">
<title>cluster_src/modules</title>
<path fill="#ffffff" stroke="#000000" stroke-width="2" d="M201,-36C201,-36 515,-36 515,-36 521,-36 527,-42 527,-48 527,-48 527,-178 527,-178 527,-184 521,-190 515,-190 515,-190 201,-190 201,-190 195,-190 189,-184 189,-178 189,-178 189,-48 189,-48 189,-42 195,-36 201,-36"/>
<text text-anchor="middle" x="358" y="-178.8" font-family="Helvetica,sans-Serif" font-weight="bold" font-size="9.00" fill="#000000">modules</text>
</g>
<g id="clust3" class="cluster">
<title>cluster_src/scenes</title>
<path fill="#ffffff" stroke="#000000" stroke-width="2" d="M90,-64C90,-64 169,-64 169,-64 175,-64 181,-70 181,-76 181,-76 181,-104 181,-104 181,-110 175,-116 169,-116 169,-116 90,-116 90,-116 84,-116 78,-110 78,-104 78,-104 78,-76 78,-76 78,-70 84,-64 90,-64"/>
<text text-anchor="middle" x="129.5" y="-104.8" font-family="Helvetica,sans-Serif" font-weight="bold" font-size="9.00" fill="#000000">scenes</text>
</g>
<!-- src/index.tsx -->
<g id="node1" class="node">
<title>src/index.tsx</title>
<g id="a_node1"><a xlink:href="src/index.tsx" xlink:title="index.tsx">
<path fill="#bbfeff" stroke="#000000" d="M64,-90C64,-90 22,-90 22,-90 19,-90 16,-87 16,-84 16,-84 16,-78 16,-78 16,-75 19,-72 22,-72 22,-72 64,-72 64,-72 67,-72 70,-75 70,-78 70,-78 70,-84 70,-84 70,-87 67,-90 64,-90"/>
<text text-anchor="middle" x="43" y="-78.8" font-family="Helvetica,sans-Serif" font-size="9.00" fill="#000000">index.tsx</text>
</a>
</g>
</g>
<!-- src/scenes/ReaderScene.tsx -->
<g id="node2" class="node">
<title>src/scenes/ReaderScene.tsx</title>
<g id="a_node2"><a xlink:href="src/scenes/ReaderScene.tsx" xlink:title="ReaderScene.tsx">
<path fill="#bbfeff" stroke="#000000" d="M167,-90C167,-90 92,-90 92,-90 89,-90 86,-87 86,-84 86,-84 86,-78 86,-78 86,-75 89,-72 92,-72 92,-72 167,-72 167,-72 170,-72 173,-75 173,-78 173,-78 173,-84 173,-84 173,-87 170,-90 167,-90"/>
<text text-anchor="middle" x="129.5" y="-78.8" font-family="Helvetica,sans-Serif" font-size="9.00" fill="#000000">ReaderScene.tsx</text>
</a>
</g>
</g>
<!-- src/index.tsx&#45;&gt;src/scenes/ReaderScene.tsx -->
<g id="edge1" class="edge">
<title>src/index.tsx&#45;&gt;src/scenes/ReaderScene.tsx</title>
<path fill="none" stroke="#000000" stroke-width="2" stroke-opacity="0.200000" d="M70.3691,-81C70.3691,-81 79.8699,-81 79.8699,-81"/>
<polygon fill="#000000" fill-opacity="0.200000" stroke="#000000" stroke-width="2" stroke-opacity="0.200000" points="79.8699,-83.1001 85.8699,-81 79.8698,-78.9001 79.8699,-83.1001"/>
</g>
<!-- src/modules/control -->
<g id="node6" class="node">
<title>src/modules/control</title>
<g id="a_node6"><a xlink:href="src/modules/control" xlink:title="control">
<polygon fill="#ffffcc" stroke="#000000" points="251,-90 199,-90 197,-88 197,-72 249,-72 251,-74 251,-90"/>
<polyline fill="none" stroke="#000000" points="249,-88 197,-88 "/>
<polyline fill="none" stroke="#000000" points="249,-88 249,-72 "/>
<polyline fill="none" stroke="#000000" points="249,-88 251,-90 "/>
<text text-anchor="middle" x="224" y="-78.8" font-family="Helvetica,sans-Serif" font-size="9.00" fill="#000000">control</text>
</a>
</g>
</g>
<!-- src/scenes/ReaderScene.tsx&#45;&gt;src/modules/control -->
<g id="edge22" class="edge">
<title>src/scenes/ReaderScene.tsx&#45;&gt;src/modules/control</title>
<path fill="none" stroke="#000000" stroke-width="2" stroke-opacity="0.200000" d="M173.154,-81C173.154,-81 190.9873,-81 190.9873,-81"/>
<polygon fill="#000000" fill-opacity="0.200000" stroke="#000000" stroke-width="2" stroke-opacity="0.200000" points="190.9873,-83.1001 196.9873,-81 190.9873,-78.9001 190.9873,-83.1001"/>
</g>
<!-- src/modules/focus -->
<g id="node7" class="node">
<title>src/modules/focus</title>
<g id="a_node7"><a xlink:href="src/modules/focus" xlink:title="focus">
<polygon fill="#ffffcc" stroke="#000000" points="452,-62 400,-62 398,-60 398,-44 450,-44 452,-46 452,-62"/>
<polyline fill="none" stroke="#000000" points="450,-60 398,-60 "/>
<polyline fill="none" stroke="#000000" points="450,-60 450,-44 "/>
<polyline fill="none" stroke="#000000" points="450,-60 452,-62 "/>
<text text-anchor="middle" x="425" y="-50.8" font-family="Helvetica,sans-Serif" font-size="9.00" fill="#000000">focus</text>
</a>
</g>
</g>
<!-- src/scenes/ReaderScene.tsx&#45;&gt;src/modules/focus -->
<g id="edge25" class="edge">
<title>src/scenes/ReaderScene.tsx&#45;&gt;src/modules/focus</title>
<path fill="none" stroke="#000000" stroke-width="2" stroke-opacity="0.200000" d="M108,-71.7737C108,-62.1653 108,-48.5 108,-48.5 108,-48.5 391.9728,-48.5 391.9728,-48.5"/>
<polygon fill="#000000" fill-opacity="0.200000" stroke="#000000" stroke-width="2" stroke-opacity="0.200000" points="391.9728,-50.6001 397.9728,-48.5 391.9727,-46.4001 391.9728,-50.6001"/>
</g>
<!-- src/modules/display -->
<g id="node8" class="node">
<title>src/modules/display</title>
<g id="a_node8"><a xlink:href="src/modules/display" xlink:title="display">
<polygon fill="#ffffcc" stroke="#000000" points="452,-150 400,-150 398,-148 398,-132 450,-132 452,-134 452,-150"/>
<polyline fill="none" stroke="#000000" points="450,-148 398,-148 "/>
<polyline fill="none" stroke="#000000" points="450,-148 450,-132 "/>
<polyline fill="none" stroke="#000000" points="450,-148 452,-150 "/>
<text text-anchor="middle" x="425" y="-138.8" font-family="Helvetica,sans-Serif" font-size="9.00" fill="#000000">display</text>
</a>
</g>
</g>
<!-- src/scenes/ReaderScene.tsx&#45;&gt;src/modules/display -->
<g id="edge24" class="edge">
<title>src/scenes/ReaderScene.tsx&#45;&gt;src/modules/display</title>
<path fill="none" stroke="#000000" stroke-width="2" stroke-opacity="0.200000" d="M130,-90.1431C130,-106.9838 130,-141.2 130,-141.2 130,-141.2 391.7759,-141.2 391.7759,-141.2"/>
<polygon fill="#000000" fill-opacity="0.200000" stroke="#000000" stroke-width="2" stroke-opacity="0.200000" points="391.7759,-143.3001 397.7759,-141.2 391.7758,-139.1001 391.7759,-143.3001"/>
</g>
<!-- src/modules/select -->
<g id="node9" class="node">
<title>src/modules/select</title>
<g id="a_node9"><a xlink:href="src/modules/select" xlink:title="select">
<polygon fill="#ffffcc" stroke="#000000" points="385,-134 333,-134 331,-132 331,-116 383,-116 385,-118 385,-134"/>
<polyline fill="none" stroke="#000000" points="383,-132 331,-132 "/>
<polyline fill="none" stroke="#000000" points="383,-132 383,-116 "/>
<polyline fill="none" stroke="#000000" points="383,-132 385,-134 "/>
<text text-anchor="middle" x="358" y="-122.8" font-family="Helvetica,sans-Serif" font-size="9.00" fill="#000000">select</text>
</a>
</g>
</g>
<!-- src/scenes/ReaderScene.tsx&#45;&gt;src/modules/select -->
<g id="edge28" class="edge">
<title>src/scenes/ReaderScene.tsx&#45;&gt;src/modules/select</title>
<path fill="none" stroke="#000000" stroke-width="2" stroke-opacity="0.200000" d="M152,-90.3513C152,-104.4448 152,-129.5 152,-129.5 152,-129.5 324.6448,-129.5 324.6448,-129.5"/>
<polygon fill="#000000" fill-opacity="0.200000" stroke="#000000" stroke-width="2" stroke-opacity="0.200000" points="324.6448,-131.6001 330.6448,-129.5 324.6448,-127.4001 324.6448,-131.6001"/>
</g>
<!-- src/modules/creation -->
<g id="node10" class="node">
<title>src/modules/creation</title>
<g id="a_node10"><a xlink:href="src/modules/creation" xlink:title="creation">
<polygon fill="#ffffcc" stroke="#000000" points="318,-90 266,-90 264,-88 264,-72 316,-72 318,-74 318,-90"/>
<polyline fill="none" stroke="#000000" points="316,-88 264,-88 "/>
<polyline fill="none" stroke="#000000" points="316,-88 316,-72 "/>
<polyline fill="none" stroke="#000000" points="316,-88 318,-90 "/>
<text text-anchor="middle" x="291" y="-78.8" font-family="Helvetica,sans-Serif" font-size="9.00" fill="#000000">creation</text>
</a>
</g>
</g>
<!-- src/scenes/ReaderScene.tsx&#45;&gt;src/modules/creation -->
<g id="edge23" class="edge">
<title>src/scenes/ReaderScene.tsx&#45;&gt;src/modules/creation</title>
<path fill="none" stroke="#000000" stroke-width="2" stroke-opacity="0.200000" d="M152,-71.7789C152,-69.9945 152,-68.6667 152,-68.6667 152,-68.6667 282,-68.6667 282,-68.6667 282,-68.6667 282,-68.9779 282,-68.9779"/>
<polygon fill="#000000" fill-opacity="0.200000" stroke="#000000" stroke-width="2" stroke-opacity="0.200000" points="279.9002,-65.7788 282,-71.7789 284.1002,-65.779 279.9002,-65.7788"/>
</g>
<!-- src/modules/river -->
<g id="node11" class="node">
<title>src/modules/river</title>
<g id="a_node11"><a xlink:href="src/modules/river" xlink:title="river">
<polygon fill="#ffffcc" stroke="#000000" points="385,-90 333,-90 331,-88 331,-72 383,-72 385,-74 385,-90"/>
<polyline fill="none" stroke="#000000" points="383,-88 331,-88 "/>
<polyline fill="none" stroke="#000000" points="383,-88 383,-72 "/>
<polyline fill="none" stroke="#000000" points="383,-88 385,-90 "/>
<text text-anchor="middle" x="358" y="-78.8" font-family="Helvetica,sans-Serif" font-size="9.00" fill="#000000">river</text>
</a>
</g>
</g>
<!-- src/scenes/ReaderScene.tsx&#45;&gt;src/modules/river -->
<g id="edge27" class="edge">
<title>src/scenes/ReaderScene.tsx&#45;&gt;src/modules/river</title>
<path fill="none" stroke="#000000" stroke-width="2" stroke-opacity="0.200000" d="M130,-71.7056C130,-68.332 130,-65.3333 130,-65.3333 130,-65.3333 358,-65.3333 358,-65.3333 358,-65.3333 358,-65.9706 358,-65.9706"/>
<polygon fill="#000000" fill-opacity="0.200000" stroke="#000000" stroke-width="2" stroke-opacity="0.200000" points="355.9001,-65.7055 358,-71.7056 360.1001,-65.7056 355.9001,-65.7055"/>
</g>
<!-- src/modules/navigate -->
<g id="node12" class="node">
<title>src/modules/navigate</title>
<g id="a_node12"><a xlink:href="src/modules/navigate" xlink:title="navigate">
<polygon fill="#ffffcc" stroke="#000000" points="385,-164 333,-164 331,-162 331,-146 383,-146 385,-148 385,-164"/>
<polyline fill="none" stroke="#000000" points="383,-162 331,-162 "/>
<polyline fill="none" stroke="#000000" points="383,-162 383,-146 "/>
<polyline fill="none" stroke="#000000" points="383,-162 385,-164 "/>
<text text-anchor="middle" x="358" y="-152.8" font-family="Helvetica,sans-Serif" font-size="9.00" fill="#000000">navigate</text>
</a>
</g>
</g>
<!-- src/scenes/ReaderScene.tsx&#45;&gt;src/modules/navigate -->
<g id="edge26" class="edge">
<title>src/scenes/ReaderScene.tsx&#45;&gt;src/modules/navigate</title>
<path fill="none" stroke="#000000" stroke-width="2" stroke-opacity="0.200000" d="M108,-90.0739C108,-109.834 108,-155 108,-155 108,-155 324.7697,-155 324.7697,-155"/>
<polygon fill="#000000" fill-opacity="0.200000" stroke="#000000" stroke-width="2" stroke-opacity="0.200000" points="324.7697,-157.1001 330.7697,-155 324.7697,-152.9001 324.7697,-157.1001"/>
</g>
<!-- src/modules/analyze -->
<g id="node3" class="node">
<title>src/modules/analyze</title>
<g id="a_node3"><a xlink:href="src/modules/analyze" xlink:title="analyze">
<polygon fill="#ffffcc" stroke="#000000" points="519,-106 467,-106 465,-104 465,-88 517,-88 519,-90 519,-106"/>
<polyline fill="none" stroke="#000000" points="517,-104 465,-104 "/>
<polyline fill="none" stroke="#000000" points="517,-104 517,-88 "/>
<polyline fill="none" stroke="#000000" points="517,-104 519,-106 "/>
<text text-anchor="middle" x="492" y="-94.8" font-family="Helvetica,sans-Serif" font-size="9.00" fill="#000000">analyze</text>
</a>
</g>
</g>
<!-- src/shared -->
<g id="node4" class="node">
<title>src/shared</title>
<g id="a_node4"><a xlink:href="src/shared" xlink:title="shared">
<polygon fill="#ffffcc" stroke="#000000" points="589,-106 537,-106 535,-104 535,-88 587,-88 589,-90 589,-106"/>
<polyline fill="none" stroke="#000000" points="587,-104 535,-104 "/>
<polyline fill="none" stroke="#000000" points="587,-104 587,-88 "/>
<polyline fill="none" stroke="#000000" points="587,-104 589,-106 "/>
<text text-anchor="middle" x="562" y="-94.8" font-family="Helvetica,sans-Serif" font-size="9.00" fill="#000000">shared</text>
</a>
</g>
</g>
<!-- src/modules/analyze&#45;&gt;src/shared -->
<g id="edge2" class="edge">
<title>src/modules/analyze&#45;&gt;src/shared</title>
<path fill="none" stroke="#000000" stroke-width="2" stroke-opacity="0.200000" d="M519.2643,-97C519.2643,-97 528.695,-97 528.695,-97"/>
<polygon fill="#000000" fill-opacity="0.200000" stroke="#000000" stroke-width="2" stroke-opacity="0.200000" points="528.695,-99.1001 534.695,-97 528.695,-94.9001 528.695,-99.1001"/>
</g>
<!-- src/modules/cards -->
<g id="node5" class="node">
<title>src/modules/cards</title>
<g id="a_node5"><a xlink:href="src/modules/cards" xlink:title="cards">
<polygon fill="#ffffcc" stroke="#000000" points="452,-106 400,-106 398,-104 398,-88 450,-88 452,-90 452,-106"/>
<polyline fill="none" stroke="#000000" points="450,-104 398,-104 "/>
<polyline fill="none" stroke="#000000" points="450,-104 450,-88 "/>
<polyline fill="none" stroke="#000000" points="450,-104 452,-106 "/>
<text text-anchor="middle" x="425" y="-94.8" font-family="Helvetica,sans-Serif" font-size="9.00" fill="#000000">cards</text>
</a>
</g>
</g>
<!-- src/modules/control&#45;&gt;src/modules/focus -->
<g id="edge3" class="edge">
<title>src/modules/control&#45;&gt;src/modules/focus</title>
<path fill="none" stroke="#000000" stroke-width="2" stroke-opacity="0.200000" d="M224,-71.8318C224,-63.6658 224,-53 224,-53 224,-53 391.8922,-53 391.8922,-53"/>
<polygon fill="#000000" fill-opacity="0.200000" stroke="#000000" stroke-width="2" stroke-opacity="0.200000" points="391.8923,-55.1001 397.8922,-53 391.8922,-50.9001 391.8923,-55.1001"/>
</g>
<!-- src/modules/control&#45;&gt;src/modules/display -->
<g id="edge4" class="edge">
<title>src/modules/control&#45;&gt;src/modules/display</title>
<path fill="none" stroke="#000000" stroke-width="2" stroke-opacity="0.200000" d="M215,-90.0313C215,-106.2875 215,-138.8 215,-138.8 215,-138.8 391.9761,-138.8 391.9761,-138.8"/>
<polygon fill="#000000" fill-opacity="0.200000" stroke="#000000" stroke-width="2" stroke-opacity="0.200000" points="391.9761,-140.9001 397.9761,-138.8 391.976,-136.7001 391.9761,-140.9001"/>
</g>
<!-- src/modules/control&#45;&gt;src/modules/select -->
<g id="edge5" class="edge">
<title>src/modules/control&#45;&gt;src/modules/select</title>
<path fill="none" stroke="#000000" stroke-width="2" stroke-opacity="0.200000" d="M233,-90.3313C233,-103.2471 233,-125 233,-125 233,-125 324.8769,-125 324.8769,-125"/>
<polygon fill="#000000" fill-opacity="0.200000" stroke="#000000" stroke-width="2" stroke-opacity="0.200000" points="324.8769,-127.1001 330.8769,-125 324.8768,-122.9001 324.8769,-127.1001"/>
</g>
<!-- src/modules/control&#45;&gt;src/modules/creation -->
<g id="edge6" class="edge">
<title>src/modules/control&#45;&gt;src/modules/creation</title>
<path fill="none" stroke="#000000" stroke-width="2" stroke-opacity="0.200000" d="M251.2515,-81C251.2515,-81 257.9899,-81 257.9899,-81"/>
<polygon fill="#000000" fill-opacity="0.200000" stroke="#000000" stroke-width="2" stroke-opacity="0.200000" points="257.9899,-83.1001 263.9899,-81 257.9899,-78.9001 257.9899,-83.1001"/>
</g>
<!-- src/modules/focus&#45;&gt;src/modules/analyze -->
<g id="edge14" class="edge">
<title>src/modules/focus&#45;&gt;src/modules/analyze</title>
<path fill="none" stroke="#000000" stroke-width="2" stroke-opacity="0.200000" d="M452.2515,-53C470.8008,-53 492,-53 492,-53 492,-53 492,-81.6687 492,-81.6687"/>
<polygon fill="#000000" fill-opacity="0.200000" stroke="#000000" stroke-width="2" stroke-opacity="0.200000" points="489.9001,-81.6687 492,-87.6687 494.1001,-81.6688 489.9001,-81.6687"/>
</g>
<!-- src/modules/display&#45;&gt;src/modules/analyze -->
<g id="edge13" class="edge">
<title>src/modules/display&#45;&gt;src/modules/analyze</title>
<path fill="none" stroke="#000000" stroke-width="2" stroke-opacity="0.200000" d="M452.4229,-141C475.9216,-141 506,-141 506,-141 506,-141 506,-112.3313 506,-112.3313"/>
<polygon fill="#000000" fill-opacity="0.200000" stroke="#000000" stroke-width="2" stroke-opacity="0.200000" points="508.1001,-112.3312 506,-106.3313 503.9001,-112.3313 508.1001,-112.3312"/>
</g>
<!-- src/modules/select&#45;&gt;src/modules/analyze -->
<g id="edge19" class="edge">
<title>src/modules/select&#45;&gt;src/modules/analyze</title>
<path fill="none" stroke="#000000" stroke-width="2" stroke-opacity="0.200000" d="M385.1169,-121.3333C424.2721,-121.3333 492,-121.3333 492,-121.3333 492,-121.3333 492,-112.0608 492,-112.0608"/>
<polygon fill="#000000" fill-opacity="0.200000" stroke="#000000" stroke-width="2" stroke-opacity="0.200000" points="494.1001,-112.0608 492,-106.0608 489.9001,-112.0609 494.1001,-112.0608"/>
</g>
<!-- src/modules/select&#45;&gt;src/shared -->
<g id="edge21" class="edge">
<title>src/modules/select&#45;&gt;src/shared</title>
<path fill="none" stroke="#000000" stroke-width="2" stroke-opacity="0.200000" d="M385.41,-126.6667C442.9379,-126.6667 571,-126.6667 571,-126.6667 571,-126.6667 571,-112.0622 571,-112.0622"/>
<polygon fill="#000000" fill-opacity="0.200000" stroke="#000000" stroke-width="2" stroke-opacity="0.200000" points="573.1001,-112.0621 571,-106.0622 568.9001,-112.0622 573.1001,-112.0621"/>
</g>
<!-- src/modules/select&#45;&gt;src/modules/display -->
<g id="edge20" class="edge">
<title>src/modules/select&#45;&gt;src/modules/display</title>
<path fill="none" stroke="#000000" stroke-width="2" stroke-opacity="0.200000" d="M349,-134.202C349,-135.4982 349,-136.4 349,-136.4 349,-136.4 391.9913,-136.4 391.9913,-136.4"/>
<polygon fill="#000000" fill-opacity="0.200000" stroke="#000000" stroke-width="2" stroke-opacity="0.200000" points="391.9913,-138.5001 397.9913,-136.4 391.9912,-134.3001 391.9913,-138.5001"/>
</g>
<!-- src/modules/creation&#45;&gt;src/modules/analyze -->
<g id="edge7" class="edge">
<title>src/modules/creation&#45;&gt;src/modules/analyze</title>
<path fill="none" stroke="#000000" stroke-width="2" stroke-opacity="0.200000" d="M308,-90.2774C308,-98.5406 308,-109.3333 308,-109.3333 308,-109.3333 479,-109.3333 479,-109.3333 479,-109.3333 479,-109.0221 479,-109.0221"/>
<polygon fill="#000000" fill-opacity="0.200000" stroke="#000000" stroke-width="2" stroke-opacity="0.200000" points="481.1002,-112.221 479,-106.2211 476.9002,-112.2212 481.1002,-112.221"/>
</g>
<!-- src/modules/creation&#45;&gt;src/shared -->
<g id="edge11" class="edge">
<title>src/modules/creation&#45;&gt;src/shared</title>
<path fill="none" stroke="#000000" stroke-width="2" stroke-opacity="0.200000" d="M297,-90.3298C297,-99.6707 297,-112.6667 297,-112.6667 297,-112.6667 553,-112.6667 553,-112.6667 553,-112.6667 553,-112.0294 553,-112.0294"/>
<polygon fill="#000000" fill-opacity="0.200000" stroke="#000000" stroke-width="2" stroke-opacity="0.200000" points="555.1001,-112.2944 553,-106.2944 550.9001,-112.2945 555.1001,-112.2944"/>
</g>
<!-- src/modules/creation&#45;&gt;src/modules/cards -->
<g id="edge8" class="edge">
<title>src/modules/creation&#45;&gt;src/modules/cards</title>
<path fill="none" stroke="#000000" stroke-width="2" stroke-opacity="0.200000" d="M275,-90.2958C275,-94.2646 275,-98 275,-98 275,-98 391.8361,-98 391.8361,-98"/>
<polygon fill="#000000" fill-opacity="0.200000" stroke="#000000" stroke-width="2" stroke-opacity="0.200000" points="391.8362,-100.1001 397.8361,-98 391.8361,-95.9001 391.8362,-100.1001"/>
</g>
<!-- src/modules/creation&#45;&gt;src/modules/focus -->
<g id="edge9" class="edge">
<title>src/modules/creation&#45;&gt;src/modules/focus</title>
<path fill="none" stroke="#000000" stroke-width="2" stroke-opacity="0.200000" d="M300,-71.9815C300,-65.3544 300,-57.5 300,-57.5 300,-57.5 391.8769,-57.5 391.8769,-57.5"/>
<polygon fill="#000000" fill-opacity="0.200000" stroke="#000000" stroke-width="2" stroke-opacity="0.200000" points="391.8769,-59.6001 397.8769,-57.5 391.8768,-55.4001 391.8769,-59.6001"/>
</g>
<!-- src/modules/creation&#45;&gt;src/modules/select -->
<g id="edge10" class="edge">
<title>src/modules/creation&#45;&gt;src/modules/select</title>
<path fill="none" stroke="#000000" stroke-width="2" stroke-opacity="0.200000" d="M286,-90.1614C286,-101.8301 286,-120.5 286,-120.5 286,-120.5 324.7799,-120.5 324.7799,-120.5"/>
<polygon fill="#000000" fill-opacity="0.200000" stroke="#000000" stroke-width="2" stroke-opacity="0.200000" points="324.7799,-122.6001 330.7799,-120.5 324.7799,-118.4001 324.7799,-122.6001"/>
</g>
<!-- src/modules/creation&#45;&gt;src/modules/river -->
<g id="edge12" class="edge">
<title>src/modules/creation&#45;&gt;src/modules/river</title>
<path fill="none" stroke="#000000" stroke-width="2" stroke-opacity="0.200000" d="M318.2515,-81C318.2515,-81 324.9899,-81 324.9899,-81"/>
<polygon fill="#000000" fill-opacity="0.200000" stroke="#000000" stroke-width="2" stroke-opacity="0.200000" points="324.9899,-83.1001 330.9899,-81 324.9899,-78.9001 324.9899,-83.1001"/>
</g>
<!-- src/modules/river&#45;&gt;src/shared -->
<g id="edge16" class="edge">
<title>src/modules/river&#45;&gt;src/shared</title>
<path fill="none" stroke="#000000" stroke-width="2" stroke-opacity="0.200000" d="M385.0896,-80C440.5816,-80 562,-80 562,-80 562,-80 562,-81.7042 562,-81.7042"/>
<polygon fill="#000000" fill-opacity="0.200000" stroke="#000000" stroke-width="2" stroke-opacity="0.200000" points="559.9001,-81.7041 562,-87.7042 564.1001,-81.7042 559.9001,-81.7041"/>
</g>
<!-- src/modules/river&#45;&gt;src/modules/cards -->
<g id="edge17" class="edge">
<title>src/modules/river&#45;&gt;src/modules/cards</title>
<path fill="none" stroke="#000000" stroke-width="2" stroke-opacity="0.200000" d="M385.0087,-84C406.8533,-84 434,-84 434,-84 434,-84 434,-84.383 434,-84.383"/>
<polygon fill="#000000" fill-opacity="0.200000" stroke="#000000" stroke-width="2" stroke-opacity="0.200000" points="431.9002,-81.8301 434,-87.8301 436.1002,-81.8302 431.9002,-81.8301"/>
</g>
<!-- src/modules/river&#45;&gt;src/modules/focus -->
<g id="edge18" class="edge">
<title>src/modules/river&#45;&gt;src/modules/focus</title>
<path fill="none" stroke="#000000" stroke-width="2" stroke-opacity="0.200000" d="M385.3016,-76C400.3451,-76 416,-76 416,-76 416,-76 416,-68.0902 416,-68.0902"/>
<polygon fill="#000000" fill-opacity="0.200000" stroke="#000000" stroke-width="2" stroke-opacity="0.200000" points="418.1001,-68.0902 416,-62.0902 413.9001,-68.0902 418.1001,-68.0902"/>
</g>
<!-- src/modules/navigate&#45;&gt;src/modules/display -->
<g id="edge15" class="edge">
<title>src/modules/navigate&#45;&gt;src/modules/display</title>
<path fill="none" stroke="#000000" stroke-width="2" stroke-opacity="0.200000" d="M367,-145.798C367,-144.5018 367,-143.6 367,-143.6 367,-143.6 391.6984,-143.6 391.6984,-143.6"/>
<polygon fill="#000000" fill-opacity="0.200000" stroke="#000000" stroke-width="2" stroke-opacity="0.200000" points="391.6984,-145.7001 397.6984,-143.6 391.6983,-141.5001 391.6984,-145.7001"/>
</g>
</g>
</svg>
