<?xml version="1.0" encoding="UTF-8" standalone="no"?>
<!DOCTYPE svg PUBLIC "-//W3C//DTD SVG 1.1//EN"
 "http://www.w3.org/Graphics/SVG/1.1/DTD/svg11.dtd">
<!-- Generated by graphviz version 2.40.1 (20161225.0304)
 -->
<!-- Title: dependency&#45;cruiser output Pages: 1 -->
<svg width="551pt" height="168pt"
 viewBox="0.00 0.00 551.00 168.00" xmlns="http://www.w3.org/2000/svg" xmlns:xlink="http://www.w3.org/1999/xlink">
<g id="graph0" class="graph" transform="scale(1 1) rotate(0) translate(4 164)">
<title>dependency&#45;cruiser output</title>
<polygon fill="#ffffff" stroke="transparent" points="-4,4 -4,-164 547,-164 547,4 -4,4"/>
<g id="clust1" class="cluster">
<title>cluster_src</title>
<path fill="#ffffff" stroke="#000000" stroke-width="2" d="M20,-8C20,-8 523,-8 523,-8 529,-8 535,-14 535,-20 535,-20 535,-140 535,-140 535,-146 529,-152 523,-152 523,-152 20,-152 20,-152 14,-152 8,-146 8,-140 8,-140 8,-20 8,-20 8,-14 14,-8 20,-8"/>
<text text-anchor="middle" x="271.5" y="-140.8" font-family="Helvetica,sans-Serif" font-weight="bold" font-size="9.00" fill="#000000">src</text>
</g>
<g id="clust2" class="cluster">
<title>cluster_src/modules</title>
<path fill="#ffffff" stroke="#000000" stroke-width="2" d="M201,-16C201,-16 515,-16 515,-16 521,-16 527,-22 527,-28 527,-28 527,-114 527,-114 527,-120 521,-126 515,-126 515,-126 201,-126 201,-126 195,-126 189,-120 189,-114 189,-114 189,-28 189,-28 189,-22 195,-16 201,-16"/>
<text text-anchor="middle" x="358" y="-114.8" font-family="Helvetica,sans-Serif" font-weight="bold" font-size="9.00" fill="#000000">modules</text>
</g>
<g id="clust3" class="cluster">
<title>cluster_src/scene</title>
<path fill="#ffffff" stroke="#000000" stroke-width="2" d="M90,-49C90,-49 169,-49 169,-49 175,-49 181,-55 181,-61 181,-61 181,-89 181,-89 181,-95 175,-101 169,-101 169,-101 90,-101 90,-101 84,-101 78,-95 78,-89 78,-89 78,-61 78,-61 78,-55 84,-49 90,-49"/>
<text text-anchor="middle" x="129.5" y="-89.8" font-family="Helvetica,sans-Serif" font-weight="bold" font-size="9.00" fill="#000000">scene</text>
</g>
<!-- src/index.tsx -->
<g id="node1" class="node">
<title>src/index.tsx</title>
<g id="a_node1"><a xlink:href="src/index.tsx" xlink:title="index.tsx">
<path fill="#bbfeff" stroke="#000000" d="M64,-75C64,-75 22,-75 22,-75 19,-75 16,-72 16,-69 16,-69 16,-63 16,-63 16,-60 19,-57 22,-57 22,-57 64,-57 64,-57 67,-57 70,-60 70,-63 70,-63 70,-69 70,-69 70,-72 67,-75 64,-75"/>
<text text-anchor="middle" x="43" y="-63.8" font-family="Helvetica,sans-Serif" font-size="9.00" fill="#000000">index.tsx</text>
</a>
</g>
</g>
<!-- src/scene/ReaderScene.tsx -->
<g id="node2" class="node">
<title>src/scene/ReaderScene.tsx</title>
<g id="a_node2"><a xlink:href="src/scene/ReaderScene.tsx" xlink:title="ReaderScene.tsx">
<path fill="#bbfeff" stroke="#000000" d="M167,-75C167,-75 92,-75 92,-75 89,-75 86,-72 86,-69 86,-69 86,-63 86,-63 86,-60 89,-57 92,-57 92,-57 167,-57 167,-57 170,-57 173,-60 173,-63 173,-63 173,-69 173,-69 173,-72 170,-75 167,-75"/>
<text text-anchor="middle" x="129.5" y="-63.8" font-family="Helvetica,sans-Serif" font-size="9.00" fill="#000000">ReaderScene.tsx</text>
</a>
</g>
</g>
<!-- src/index.tsx&#45;&gt;src/scene/ReaderScene.tsx -->
<g id="edge1" class="edge">
<title>src/index.tsx&#45;&gt;src/scene/ReaderScene.tsx</title>
<path fill="none" stroke="#000000" stroke-width="2" stroke-opacity="0.200000" d="M70.3691,-66C70.3691,-66 79.8699,-66 79.8699,-66"/>
<polygon fill="#000000" fill-opacity="0.200000" stroke="#000000" stroke-width="2" stroke-opacity="0.200000" points="79.8699,-68.1001 85.8699,-66 79.8698,-63.9001 79.8699,-68.1001"/>
</g>
<!-- src/modules/control -->
<g id="node4" class="node">
<title>src/modules/control</title>
<g id="a_node4"><a xlink:href="src/modules/control" xlink:title="control">
<polygon fill="#ffffcc" stroke="#000000" points="251,-64 199,-64 197,-62 197,-46 249,-46 251,-48 251,-64"/>
<polyline fill="none" stroke="#000000" points="249,-62 197,-62 "/>
<polyline fill="none" stroke="#000000" points="249,-62 249,-46 "/>
<polyline fill="none" stroke="#000000" points="249,-62 251,-64 "/>
<text text-anchor="middle" x="224" y="-52.8" font-family="Helvetica,sans-Serif" font-size="9.00" fill="#000000">control</text>
</a>
</g>
</g>
<!-- src/scene/ReaderScene.tsx&#45;&gt;src/modules/control -->
<g id="edge14" class="edge">
<title>src/scene/ReaderScene.tsx&#45;&gt;src/modules/control</title>
<path fill="none" stroke="#000000" stroke-width="2" stroke-opacity="0.200000" d="M173.154,-60.5C173.154,-60.5 190.9873,-60.5 190.9873,-60.5"/>
<polygon fill="#000000" fill-opacity="0.200000" stroke="#000000" stroke-width="2" stroke-opacity="0.200000" points="190.9873,-62.6001 196.9873,-60.5 190.9873,-58.4001 190.9873,-62.6001"/>
</g>
<!-- src/modules/display -->
<g id="node8" class="node">
<title>src/modules/display</title>
<g id="a_node8"><a xlink:href="src/modules/display" xlink:title="display">
<polygon fill="#ffffcc" stroke="#000000" points="318,-86 266,-86 264,-84 264,-68 316,-68 318,-70 318,-86"/>
<polyline fill="none" stroke="#000000" points="316,-84 264,-84 "/>
<polyline fill="none" stroke="#000000" points="316,-84 316,-68 "/>
<polyline fill="none" stroke="#000000" points="316,-84 318,-86 "/>
<text text-anchor="middle" x="291" y="-74.8" font-family="Helvetica,sans-Serif" font-size="9.00" fill="#000000">display</text>
</a>
</g>
</g>
<!-- src/scene/ReaderScene.tsx&#45;&gt;src/modules/display -->
<g id="edge15" class="edge">
<title>src/scene/ReaderScene.tsx&#45;&gt;src/modules/display</title>
<path fill="none" stroke="#000000" stroke-width="2" stroke-opacity="0.200000" d="M173.2042,-72.6667C173.2042,-72.6667 257.9842,-72.6667 257.9842,-72.6667"/>
<polygon fill="#000000" fill-opacity="0.200000" stroke="#000000" stroke-width="2" stroke-opacity="0.200000" points="257.9842,-74.7668 263.9842,-72.6667 257.9841,-70.5668 257.9842,-74.7668"/>
</g>
<!-- src/modules/cards -->
<g id="node3" class="node">
<title>src/modules/cards</title>
<g id="a_node3"><a xlink:href="src/modules/cards" xlink:title="cards">
<polygon fill="#ffffcc" stroke="#000000" points="519,-78 467,-78 465,-76 465,-60 517,-60 519,-62 519,-78"/>
<polyline fill="none" stroke="#000000" points="517,-76 465,-76 "/>
<polyline fill="none" stroke="#000000" points="517,-76 517,-60 "/>
<polyline fill="none" stroke="#000000" points="517,-76 519,-78 "/>
<text text-anchor="middle" x="492" y="-66.8" font-family="Helvetica,sans-Serif" font-size="9.00" fill="#000000">cards</text>
</a>
</g>
</g>
<!-- src/modules/control&#45;&gt;src/modules/cards -->
<g id="edge2" class="edge">
<title>src/modules/control&#45;&gt;src/modules/cards</title>
<path fill="none" stroke="#000000" stroke-width="2" stroke-opacity="0.200000" d="M224,-45.5523C224,-31.3135 224,-6 224,-6 224,-6 492,-6 492,-6 492,-6 492,-53.9736 492,-53.9736"/>
<polygon fill="#000000" fill-opacity="0.200000" stroke="#000000" stroke-width="2" stroke-opacity="0.200000" points="489.9001,-53.9736 492,-59.9736 494.1001,-53.9737 489.9001,-53.9736"/>
</g>
<!-- src/modules/db -->
<g id="node5" class="node">
<title>src/modules/db</title>
<g id="a_node5"><a xlink:href="src/modules/db" xlink:title="db">
<polygon fill="#ffffcc" stroke="#000000" points="318,-42 266,-42 264,-40 264,-24 316,-24 318,-26 318,-42"/>
<polyline fill="none" stroke="#000000" points="316,-40 264,-40 "/>
<polyline fill="none" stroke="#000000" points="316,-40 316,-24 "/>
<polyline fill="none" stroke="#000000" points="316,-40 318,-42 "/>
<text text-anchor="middle" x="291" y="-30.8" font-family="Helvetica,sans-Serif" font-size="9.00" fill="#000000">db</text>
</a>
</g>
</g>
<!-- src/modules/control&#45;&gt;src/modules/db -->
<g id="edge3" class="edge">
<title>src/modules/control&#45;&gt;src/modules/db</title>
<path fill="none" stroke="#000000" stroke-width="2" stroke-opacity="0.200000" d="M251.2515,-49.3333C269.8008,-49.3333 291,-49.3333 291,-49.3333 291,-49.3333 291,-48.3117 291,-48.3117"/>
<polygon fill="#000000" fill-opacity="0.200000" stroke="#000000" stroke-width="2" stroke-opacity="0.200000" points="293.1001,-48.3117 291,-42.3117 288.9001,-48.3118 293.1001,-48.3117"/>
</g>
<!-- src/modules/pdf -->
<g id="node6" class="node">
<title>src/modules/pdf</title>
<g id="a_node6"><a xlink:href="src/modules/pdf" xlink:title="pdf">
<polygon fill="#ffffcc" stroke="#000000" points="385,-56 333,-56 331,-54 331,-38 383,-38 385,-40 385,-56"/>
<polyline fill="none" stroke="#000000" points="383,-54 331,-54 "/>
<polyline fill="none" stroke="#000000" points="383,-54 383,-38 "/>
<polyline fill="none" stroke="#000000" points="383,-54 385,-56 "/>
<text text-anchor="middle" x="358" y="-44.8" font-family="Helvetica,sans-Serif" font-size="9.00" fill="#000000">pdf</text>
</a>
</g>
</g>
<!-- src/modules/control&#45;&gt;src/modules/pdf -->
<g id="edge4" class="edge">
<title>src/modules/control&#45;&gt;src/modules/pdf</title>
<path fill="none" stroke="#000000" stroke-width="2" stroke-opacity="0.200000" d="M251.1169,-52.6667C251.1169,-52.6667 324.9234,-52.6667 324.9234,-52.6667"/>
<polygon fill="#000000" fill-opacity="0.200000" stroke="#000000" stroke-width="2" stroke-opacity="0.200000" points="324.9235,-54.7668 330.9234,-52.6667 324.9234,-50.5668 324.9235,-54.7668"/>
</g>
<!-- src/modules/river -->
<g id="node7" class="node">
<title>src/modules/river</title>
<g id="a_node7"><a xlink:href="src/modules/river" xlink:title="river">
<polygon fill="#ffffcc" stroke="#000000" points="385,-100 333,-100 331,-98 331,-82 383,-82 385,-84 385,-100"/>
<polyline fill="none" stroke="#000000" points="383,-98 331,-98 "/>
<polyline fill="none" stroke="#000000" points="383,-98 383,-82 "/>
<polyline fill="none" stroke="#000000" points="383,-98 385,-100 "/>
<text text-anchor="middle" x="358" y="-88.8" font-family="Helvetica,sans-Serif" font-size="9.00" fill="#000000">river</text>
</a>
</g>
</g>
<!-- src/modules/control&#45;&gt;src/modules/river -->
<g id="edge5" class="edge">
<title>src/modules/control&#45;&gt;src/modules/river</title>
<path fill="none" stroke="#000000" stroke-width="2" stroke-opacity="0.200000" d="M215,-64.3547C215,-76.2695 215,-95.3333 215,-95.3333 215,-95.3333 324.7662,-95.3333 324.7662,-95.3333"/>
<polygon fill="#000000" fill-opacity="0.200000" stroke="#000000" stroke-width="2" stroke-opacity="0.200000" points="324.7662,-97.4334 330.7662,-95.3333 324.7662,-93.2334 324.7662,-97.4334"/>
</g>
<!-- src/modules/control&#45;&gt;src/modules/display -->
<g id="edge6" class="edge">
<title>src/modules/control&#45;&gt;src/modules/display</title>
<path fill="none" stroke="#000000" stroke-width="2" stroke-opacity="0.200000" d="M233,-64.0967C233,-67.3984 233,-70.3333 233,-70.3333 233,-70.3333 257.6984,-70.3333 257.6984,-70.3333"/>
<polygon fill="#000000" fill-opacity="0.200000" stroke="#000000" stroke-width="2" stroke-opacity="0.200000" points="257.6984,-72.4334 263.6984,-70.3333 257.6983,-68.2334 257.6984,-72.4334"/>
</g>
<!-- src/modules/selection -->
<g id="node9" class="node">
<title>src/modules/selection</title>
<g id="a_node9"><a xlink:href="src/modules/selection" xlink:title="selection">
<polygon fill="#ffffcc" stroke="#000000" points="452,-78 400,-78 398,-76 398,-60 450,-60 452,-62 452,-78"/>
<polyline fill="none" stroke="#000000" points="450,-76 398,-76 "/>
<polyline fill="none" stroke="#000000" points="450,-76 450,-60 "/>
<polyline fill="none" stroke="#000000" points="450,-76 452,-78 "/>
<text text-anchor="middle" x="425" y="-66.8" font-family="Helvetica,sans-Serif" font-size="9.00" fill="#000000">selection</text>
</a>
</g>
</g>
<!-- src/modules/pdf&#45;&gt;src/modules/selection -->
<g id="edge10" class="edge">
<title>src/modules/pdf&#45;&gt;src/modules/selection</title>
<path fill="none" stroke="#000000" stroke-width="2" stroke-opacity="0.200000" d="M385.2515,-47C403.8008,-47 425,-47 425,-47 425,-47 425,-53.7975 425,-53.7975"/>
<polygon fill="#000000" fill-opacity="0.200000" stroke="#000000" stroke-width="2" stroke-opacity="0.200000" points="422.9001,-53.7975 425,-59.7975 427.1001,-53.7975 422.9001,-53.7975"/>
</g>
<!-- src/modules/river&#45;&gt;src/modules/cards -->
<g id="edge11" class="edge">
<title>src/modules/river&#45;&gt;src/modules/cards</title>
<path fill="none" stroke="#000000" stroke-width="2" stroke-opacity="0.200000" d="M385.1169,-91C424.2721,-91 492,-91 492,-91 492,-91 492,-84.2025 492,-84.2025"/>
<polygon fill="#000000" fill-opacity="0.200000" stroke="#000000" stroke-width="2" stroke-opacity="0.200000" points="494.1001,-84.2025 492,-78.2025 489.9001,-84.2025 494.1001,-84.2025"/>
</g>
<!-- src/modules/river&#45;&gt;src/modules/selection -->
<g id="edge12" class="edge">
<title>src/modules/river&#45;&gt;src/modules/selection</title>
<path fill="none" stroke="#000000" stroke-width="2" stroke-opacity="0.200000" d="M367,-81.8044C367,-78.4668 367,-75.5 367,-75.5 367,-75.5 391.6984,-75.5 391.6984,-75.5"/>
<polygon fill="#000000" fill-opacity="0.200000" stroke="#000000" stroke-width="2" stroke-opacity="0.200000" points="391.6984,-77.6001 397.6984,-75.5 391.6983,-73.4001 391.6984,-77.6001"/>
</g>
<!-- src/modules/display&#45;&gt;src/modules/pdf -->
<g id="edge7" class="edge">
<title>src/modules/display&#45;&gt;src/modules/pdf</title>
<path fill="none" stroke="#000000" stroke-width="2" stroke-opacity="0.200000" d="M318.3016,-70.5C333.3451,-70.5 349,-70.5 349,-70.5 349,-70.5 349,-62.0185 349,-62.0185"/>
<polygon fill="#000000" fill-opacity="0.200000" stroke="#000000" stroke-width="2" stroke-opacity="0.200000" points="351.1001,-62.0185 349,-56.0185 346.9001,-62.0185 351.1001,-62.0185"/>
</g>
<!-- src/modules/display&#45;&gt;src/modules/river -->
<g id="edge9" class="edge">
<title>src/modules/display&#45;&gt;src/modules/river</title>
<path fill="none" stroke="#000000" stroke-width="2" stroke-opacity="0.200000" d="M291,-86.0398C291,-88.5813 291,-90.6667 291,-90.6667 291,-90.6667 324.7485,-90.6667 324.7485,-90.6667"/>
<polygon fill="#000000" fill-opacity="0.200000" stroke="#000000" stroke-width="2" stroke-opacity="0.200000" points="324.7486,-92.7668 330.7485,-90.6667 324.7485,-88.5668 324.7486,-92.7668"/>
</g>
<!-- src/modules/display&#45;&gt;src/modules/selection -->
<g id="edge8" class="edge">
<title>src/modules/display&#45;&gt;src/modules/selection</title>
<path fill="none" stroke="#000000" stroke-width="2" stroke-opacity="0.200000" d="M318.1169,-73C318.1169,-73 391.9234,-73 391.9234,-73"/>
<polygon fill="#000000" fill-opacity="0.200000" stroke="#000000" stroke-width="2" stroke-opacity="0.200000" points="391.9235,-75.1001 397.9234,-73 391.9234,-70.9001 391.9235,-75.1001"/>
</g>
<!-- src/modules/selection&#45;&gt;src/modules/cards -->
<g id="edge13" class="edge">
<title>src/modules/selection&#45;&gt;src/modules/cards</title>
<path fill="none" stroke="#000000" stroke-width="2" stroke-opacity="0.200000" d="M452.2515,-69C452.2515,-69 458.9899,-69 458.9899,-69"/>
<polygon fill="#000000" fill-opacity="0.200000" stroke="#000000" stroke-width="2" stroke-opacity="0.200000" points="458.9899,-71.1001 464.9899,-69 458.9899,-66.9001 458.9899,-71.1001"/>
</g>
</g>
</svg>
