<?xml version="1.0" encoding="UTF-8" standalone="no"?>
<!DOCTYPE svg PUBLIC "-//W3C//DTD SVG 1.1//EN"
 "http://www.w3.org/Graphics/SVG/1.1/DTD/svg11.dtd">
<!-- Generated by graphviz version 2.40.1 (20161225.0304)
 -->
<!-- Title: dependency&#45;cruiser output Pages: 1 -->
<svg width="551pt" height="154pt"
 viewBox="0.00 0.00 551.00 154.00" xmlns="http://www.w3.org/2000/svg" xmlns:xlink="http://www.w3.org/1999/xlink">
<g id="graph0" class="graph" transform="scale(1 1) rotate(0) translate(4 150)">
<title>dependency&#45;cruiser output</title>
<polygon fill="#ffffff" stroke="transparent" points="-4,4 -4,-150 547,-150 547,4 -4,4"/>
<g id="clust1" class="cluster">
<title>cluster_src</title>
<path fill="#ffffff" stroke="#000000" stroke-width="2" d="M20,-8C20,-8 523,-8 523,-8 529,-8 535,-14 535,-20 535,-20 535,-126 535,-126 535,-132 529,-138 523,-138 523,-138 20,-138 20,-138 14,-138 8,-132 8,-126 8,-126 8,-20 8,-20 8,-14 14,-8 20,-8"/>
<text text-anchor="middle" x="271.5" y="-126.8" font-family="Helvetica,sans-Serif" font-weight="bold" font-size="9.00" fill="#000000">src</text>
</g>
<g id="clust2" class="cluster">
<title>cluster_src/modules</title>
<path fill="#ffffff" stroke="#000000" stroke-width="2" d="M201,-16C201,-16 515,-16 515,-16 521,-16 527,-22 527,-28 527,-28 527,-100 527,-100 527,-106 521,-112 515,-112 515,-112 201,-112 201,-112 195,-112 189,-106 189,-100 189,-100 189,-28 189,-28 189,-22 195,-16 201,-16"/>
<text text-anchor="middle" x="358" y="-100.8" font-family="Helvetica,sans-Serif" font-weight="bold" font-size="9.00" fill="#000000">modules</text>
</g>
<g id="clust3" class="cluster">
<title>cluster_src/scene</title>
<path fill="#ffffff" stroke="#000000" stroke-width="2" d="M90,-54C90,-54 169,-54 169,-54 175,-54 181,-60 181,-66 181,-66 181,-94 181,-94 181,-100 175,-106 169,-106 169,-106 90,-106 90,-106 84,-106 78,-100 78,-94 78,-94 78,-66 78,-66 78,-60 84,-54 90,-54"/>
<text text-anchor="middle" x="129.5" y="-94.8" font-family="Helvetica,sans-Serif" font-weight="bold" font-size="9.00" fill="#000000">scene</text>
</g>
<!-- src/index.tsx -->
<g id="node1" class="node">
<title>src/index.tsx</title>
<g id="a_node1"><a xlink:href="src/index.tsx" xlink:title="index.tsx">
<path fill="#bbfeff" stroke="#000000" d="M64,-80C64,-80 22,-80 22,-80 19,-80 16,-77 16,-74 16,-74 16,-68 16,-68 16,-65 19,-62 22,-62 22,-62 64,-62 64,-62 67,-62 70,-65 70,-68 70,-68 70,-74 70,-74 70,-77 67,-80 64,-80"/>
<text text-anchor="middle" x="43" y="-68.8" font-family="Helvetica,sans-Serif" font-size="9.00" fill="#000000">index.tsx</text>
</a>
</g>
</g>
<!-- src/scene/ReaderScene.tsx -->
<g id="node2" class="node">
<title>src/scene/ReaderScene.tsx</title>
<g id="a_node2"><a xlink:href="src/scene/ReaderScene.tsx" xlink:title="ReaderScene.tsx">
<path fill="#bbfeff" stroke="#000000" d="M167,-80C167,-80 92,-80 92,-80 89,-80 86,-77 86,-74 86,-74 86,-68 86,-68 86,-65 89,-62 92,-62 92,-62 167,-62 167,-62 170,-62 173,-65 173,-68 173,-68 173,-74 173,-74 173,-77 170,-80 167,-80"/>
<text text-anchor="middle" x="129.5" y="-68.8" font-family="Helvetica,sans-Serif" font-size="9.00" fill="#000000">ReaderScene.tsx</text>
</a>
</g>
</g>
<!-- src/index.tsx&#45;&gt;src/scene/ReaderScene.tsx -->
<g id="edge1" class="edge">
<title>src/index.tsx&#45;&gt;src/scene/ReaderScene.tsx</title>
<path fill="none" stroke="#000000" stroke-width="2" stroke-opacity="0.200000" d="M70.3691,-71C70.3691,-71 79.8699,-71 79.8699,-71"/>
<polygon fill="#000000" fill-opacity="0.200000" stroke="#000000" stroke-width="2" stroke-opacity="0.200000" points="79.8699,-73.1001 85.8699,-71 79.8698,-68.9001 79.8699,-73.1001"/>
</g>
<!-- src/modules/control -->
<g id="node4" class="node">
<title>src/modules/control</title>
<g id="a_node4"><a xlink:href="src/modules/control" xlink:title="control">
<polygon fill="#ffffcc" stroke="#000000" points="251,-69 199,-69 197,-67 197,-51 249,-51 251,-53 251,-69"/>
<polyline fill="none" stroke="#000000" points="249,-67 197,-67 "/>
<polyline fill="none" stroke="#000000" points="249,-67 249,-51 "/>
<polyline fill="none" stroke="#000000" points="249,-67 251,-69 "/>
<text text-anchor="middle" x="224" y="-57.8" font-family="Helvetica,sans-Serif" font-size="9.00" fill="#000000">control</text>
</a>
</g>
</g>
<!-- src/scene/ReaderScene.tsx&#45;&gt;src/modules/control -->
<g id="edge11" class="edge">
<title>src/scene/ReaderScene.tsx&#45;&gt;src/modules/control</title>
<path fill="none" stroke="#000000" stroke-width="2" stroke-opacity="0.200000" d="M173.154,-65.5C173.154,-65.5 190.9873,-65.5 190.9873,-65.5"/>
<polygon fill="#000000" fill-opacity="0.200000" stroke="#000000" stroke-width="2" stroke-opacity="0.200000" points="190.9873,-67.6001 196.9873,-65.5 190.9873,-63.4001 190.9873,-67.6001"/>
</g>
<!-- src/modules/display -->
<g id="node6" class="node">
<title>src/modules/display</title>
<g id="a_node6"><a xlink:href="src/modules/display" xlink:title="display">
<polygon fill="#ffffcc" stroke="#000000" points="318,-86 266,-86 264,-84 264,-68 316,-68 318,-70 318,-86"/>
<polyline fill="none" stroke="#000000" points="316,-84 264,-84 "/>
<polyline fill="none" stroke="#000000" points="316,-84 316,-68 "/>
<polyline fill="none" stroke="#000000" points="316,-84 318,-86 "/>
<text text-anchor="middle" x="291" y="-74.8" font-family="Helvetica,sans-Serif" font-size="9.00" fill="#000000">display</text>
</a>
</g>
</g>
<!-- src/scene/ReaderScene.tsx&#45;&gt;src/modules/display -->
<g id="edge12" class="edge">
<title>src/scene/ReaderScene.tsx&#45;&gt;src/modules/display</title>
<path fill="none" stroke="#000000" stroke-width="2" stroke-opacity="0.200000" d="M173.2042,-76.3333C173.2042,-76.3333 257.9842,-76.3333 257.9842,-76.3333"/>
<polygon fill="#000000" fill-opacity="0.200000" stroke="#000000" stroke-width="2" stroke-opacity="0.200000" points="257.9842,-78.4334 263.9842,-76.3333 257.9841,-74.2334 257.9842,-78.4334"/>
</g>
<!-- src/modules/selection -->
<g id="node8" class="node">
<title>src/modules/selection</title>
<g id="a_node8"><a xlink:href="src/modules/selection" xlink:title="selection">
<polygon fill="#ffffcc" stroke="#000000" points="452,-72 400,-72 398,-70 398,-54 450,-54 452,-56 452,-72"/>
<polyline fill="none" stroke="#000000" points="450,-70 398,-70 "/>
<polyline fill="none" stroke="#000000" points="450,-70 450,-54 "/>
<polyline fill="none" stroke="#000000" points="450,-70 452,-72 "/>
<text text-anchor="middle" x="425" y="-60.8" font-family="Helvetica,sans-Serif" font-size="9.00" fill="#000000">selection</text>
</a>
</g>
</g>
<!-- src/scene/ReaderScene.tsx&#45;&gt;src/modules/selection -->
<g id="edge13" class="edge">
<title>src/scene/ReaderScene.tsx&#45;&gt;src/modules/selection</title>
<path fill="none" stroke="#000000" stroke-width="2" stroke-opacity="0.200000" d="M130,-61.9065C130,-54.4088 130,-45 130,-45 130,-45 425,-45 425,-45 425,-45 425,-47.5783 425,-47.5783"/>
<polygon fill="#000000" fill-opacity="0.200000" stroke="#000000" stroke-width="2" stroke-opacity="0.200000" points="422.9001,-47.5782 425,-53.5783 427.1001,-47.5783 422.9001,-47.5782"/>
</g>
<!-- src/modules/cards -->
<g id="node3" class="node">
<title>src/modules/cards</title>
<g id="a_node3"><a xlink:href="src/modules/cards" xlink:title="cards">
<polygon fill="#ffffcc" stroke="#000000" points="519,-61 467,-61 465,-59 465,-43 517,-43 519,-45 519,-61"/>
<polyline fill="none" stroke="#000000" points="517,-59 465,-59 "/>
<polyline fill="none" stroke="#000000" points="517,-59 517,-43 "/>
<polyline fill="none" stroke="#000000" points="517,-59 519,-61 "/>
<text text-anchor="middle" x="492" y="-49.8" font-family="Helvetica,sans-Serif" font-size="9.00" fill="#000000">cards</text>
</a>
</g>
</g>
<!-- src/modules/control&#45;&gt;src/modules/cards -->
<g id="edge2" class="edge">
<title>src/modules/control&#45;&gt;src/modules/cards</title>
<path fill="none" stroke="#000000" stroke-width="2" stroke-opacity="0.200000" d="M215,-50.8301C215,-48.679 215,-47 215,-47 215,-47 458.9357,-47 458.9357,-47"/>
<polygon fill="#000000" fill-opacity="0.200000" stroke="#000000" stroke-width="2" stroke-opacity="0.200000" points="458.9358,-49.1001 464.9357,-47 458.9357,-44.9001 458.9358,-49.1001"/>
</g>
<!-- src/modules/db -->
<g id="node5" class="node">
<title>src/modules/db</title>
<g id="a_node5"><a xlink:href="src/modules/db" xlink:title="db">
<polygon fill="#ffffcc" stroke="#000000" points="318,-42 266,-42 264,-40 264,-24 316,-24 318,-26 318,-42"/>
<polyline fill="none" stroke="#000000" points="316,-40 264,-40 "/>
<polyline fill="none" stroke="#000000" points="316,-40 316,-24 "/>
<polyline fill="none" stroke="#000000" points="316,-40 318,-42 "/>
<text text-anchor="middle" x="291" y="-30.8" font-family="Helvetica,sans-Serif" font-size="9.00" fill="#000000">db</text>
</a>
</g>
</g>
<!-- src/modules/control&#45;&gt;src/modules/db -->
<g id="edge3" class="edge">
<title>src/modules/control&#45;&gt;src/modules/db</title>
<path fill="none" stroke="#000000" stroke-width="2" stroke-opacity="0.200000" d="M233,-50.859C233,-43.0261 233,-33 233,-33 233,-33 257.6984,-33 257.6984,-33"/>
<polygon fill="#000000" fill-opacity="0.200000" stroke="#000000" stroke-width="2" stroke-opacity="0.200000" points="257.6984,-35.1001 263.6984,-33 257.6983,-30.9001 257.6984,-35.1001"/>
</g>
<!-- src/modules/control&#45;&gt;src/modules/display -->
<g id="edge4" class="edge">
<title>src/modules/control&#45;&gt;src/modules/display</title>
<path fill="none" stroke="#000000" stroke-width="2" stroke-opacity="0.200000" d="M224,-69.2054C224,-71.1699 224,-72.6667 224,-72.6667 224,-72.6667 257.7485,-72.6667 257.7485,-72.6667"/>
<polygon fill="#000000" fill-opacity="0.200000" stroke="#000000" stroke-width="2" stroke-opacity="0.200000" points="257.7486,-74.7668 263.7485,-72.6667 257.7485,-70.5668 257.7486,-74.7668"/>
</g>
<!-- src/modules/river -->
<g id="node7" class="node">
<title>src/modules/river</title>
<g id="a_node7"><a xlink:href="src/modules/river" xlink:title="river">
<polygon fill="#ffffcc" stroke="#000000" points="385,-72 333,-72 331,-70 331,-54 383,-54 385,-56 385,-72"/>
<polyline fill="none" stroke="#000000" points="383,-70 331,-70 "/>
<polyline fill="none" stroke="#000000" points="383,-70 383,-54 "/>
<polyline fill="none" stroke="#000000" points="383,-70 385,-72 "/>
<text text-anchor="middle" x="358" y="-60.8" font-family="Helvetica,sans-Serif" font-size="9.00" fill="#000000">river</text>
</a>
</g>
</g>
<!-- src/modules/control&#45;&gt;src/modules/river -->
<g id="edge5" class="edge">
<title>src/modules/control&#45;&gt;src/modules/river</title>
<path fill="none" stroke="#000000" stroke-width="2" stroke-opacity="0.200000" d="M251.1169,-58.6667C251.1169,-58.6667 324.9234,-58.6667 324.9234,-58.6667"/>
<polygon fill="#000000" fill-opacity="0.200000" stroke="#000000" stroke-width="2" stroke-opacity="0.200000" points="324.9235,-60.7668 330.9234,-58.6667 324.9234,-56.5668 324.9235,-60.7668"/>
</g>
<!-- src/modules/display&#45;&gt;src/modules/river -->
<g id="edge6" class="edge">
<title>src/modules/display&#45;&gt;src/modules/river</title>
<path fill="none" stroke="#000000" stroke-width="2" stroke-opacity="0.200000" d="M291,-67.9602C291,-65.4187 291,-63.3333 291,-63.3333 291,-63.3333 324.7485,-63.3333 324.7485,-63.3333"/>
<polygon fill="#000000" fill-opacity="0.200000" stroke="#000000" stroke-width="2" stroke-opacity="0.200000" points="324.7486,-65.4334 330.7485,-63.3333 324.7485,-61.2334 324.7486,-65.4334"/>
</g>
<!-- src/modules/display&#45;&gt;src/modules/selection -->
<g id="edge7" class="edge">
<title>src/modules/display&#45;&gt;src/modules/selection</title>
<path fill="none" stroke="#000000" stroke-width="2" stroke-opacity="0.200000" d="M318.1169,-79C357.2721,-79 425,-79 425,-79 425,-79 425,-78.1217 425,-78.1217"/>
<polygon fill="#000000" fill-opacity="0.200000" stroke="#000000" stroke-width="2" stroke-opacity="0.200000" points="427.1001,-78.1217 425,-72.1217 422.9001,-78.1217 427.1001,-78.1217"/>
</g>
<!-- src/modules/river&#45;&gt;src/modules/cards -->
<g id="edge8" class="edge">
<title>src/modules/river&#45;&gt;src/modules/cards</title>
<path fill="none" stroke="#000000" stroke-width="2" stroke-opacity="0.200000" d="M358,-53.7398C358,-51.1362 358,-49 358,-49 358,-49 458.8831,-49 458.8831,-49"/>
<polygon fill="#000000" fill-opacity="0.200000" stroke="#000000" stroke-width="2" stroke-opacity="0.200000" points="458.8831,-51.1001 464.8831,-49 458.8831,-46.9001 458.8831,-51.1001"/>
</g>
<!-- src/modules/river&#45;&gt;src/modules/selection -->
<g id="edge9" class="edge">
<title>src/modules/river&#45;&gt;src/modules/selection</title>
<path fill="none" stroke="#000000" stroke-width="2" stroke-opacity="0.200000" d="M385.2515,-63C385.2515,-63 391.9899,-63 391.9899,-63"/>
<polygon fill="#000000" fill-opacity="0.200000" stroke="#000000" stroke-width="2" stroke-opacity="0.200000" points="391.9899,-65.1001 397.9899,-63 391.9899,-60.9001 391.9899,-65.1001"/>
</g>
<!-- src/modules/selection&#45;&gt;src/modules/cards -->
<g id="edge10" class="edge">
<title>src/modules/selection&#45;&gt;src/modules/cards</title>
<path fill="none" stroke="#000000" stroke-width="2" stroke-opacity="0.200000" d="M452.2515,-57.5C452.2515,-57.5 458.9899,-57.5 458.9899,-57.5"/>
<polygon fill="#000000" fill-opacity="0.200000" stroke="#000000" stroke-width="2" stroke-opacity="0.200000" points="458.9899,-59.6001 464.9899,-57.5 458.9899,-55.4001 458.9899,-59.6001"/>
</g>
</g>
</svg>
