<?xml version="1.0" encoding="UTF-8" standalone="no"?>
<!DOCTYPE svg PUBLIC "-//W3C//DTD SVG 1.1//EN"
 "http://www.w3.org/Graphics/SVG/1.1/DTD/svg11.dtd">
<!-- Generated by graphviz version 2.40.1 (20161225.0304)
 -->
<!-- Title: dependency&#45;cruiser output Pages: 1 -->
<svg width="543pt" height="238pt"
 viewBox="0.00 0.00 543.00 238.00" xmlns="http://www.w3.org/2000/svg" xmlns:xlink="http://www.w3.org/1999/xlink">
<g id="graph0" class="graph" transform="scale(1 1) rotate(0) translate(4 234)">
<title>dependency&#45;cruiser output</title>
<polygon fill="#ffffff" stroke="transparent" points="-4,4 -4,-234 539,-234 539,4 -4,4"/>
<g id="clust1" class="cluster">
<title>cluster_src</title>
<path fill="#ffffff" stroke="#000000" stroke-width="2" d="M20,-8C20,-8 515,-8 515,-8 521,-8 527,-14 527,-20 527,-20 527,-210 527,-210 527,-216 521,-222 515,-222 515,-222 20,-222 20,-222 14,-222 8,-216 8,-210 8,-210 8,-20 8,-20 8,-14 14,-8 20,-8"/>
<text text-anchor="middle" x="267.5" y="-210.8" font-family="Helvetica,sans-Serif" font-weight="bold" font-size="9.00" fill="#000000">src</text>
</g>
<g id="clust2" class="cluster">
<title>cluster_src/modules</title>
<path fill="#ffffff" stroke="#000000" stroke-width="2" d="M106.5,-76C106.5,-76 507,-76 507,-76 513,-76 519,-82 519,-88 519,-88 519,-158 519,-158 519,-164 513,-170 507,-170 507,-170 106.5,-170 106.5,-170 100.5,-170 94.5,-164 94.5,-158 94.5,-158 94.5,-88 94.5,-88 94.5,-82 100.5,-76 106.5,-76"/>
<text text-anchor="middle" x="306.75" y="-158.8" font-family="Helvetica,sans-Serif" font-weight="bold" font-size="9.00" fill="#000000">modules</text>
</g>
<g id="clust3" class="cluster">
<title>cluster_src/scenes</title>
<path fill="#ffffff" stroke="#000000" stroke-width="2" d="M90,-16C90,-16 169,-16 169,-16 175,-16 181,-22 181,-28 181,-28 181,-56 181,-56 181,-62 175,-68 169,-68 169,-68 90,-68 90,-68 84,-68 78,-62 78,-56 78,-56 78,-28 78,-28 78,-22 84,-16 90,-16"/>
<text text-anchor="middle" x="129.5" y="-56.8" font-family="Helvetica,sans-Serif" font-weight="bold" font-size="9.00" fill="#000000">scenes</text>
</g>
<!-- src/index.tsx -->
<g id="node1" class="node">
<title>src/index.tsx</title>
<g id="a_node1"><a xlink:href="src/index.tsx" xlink:title="index.tsx">
<path fill="#bbfeff" stroke="#000000" d="M64,-42C64,-42 22,-42 22,-42 19,-42 16,-39 16,-36 16,-36 16,-30 16,-30 16,-27 19,-24 22,-24 22,-24 64,-24 64,-24 67,-24 70,-27 70,-30 70,-30 70,-36 70,-36 70,-39 67,-42 64,-42"/>
<text text-anchor="middle" x="43" y="-30.8" font-family="Helvetica,sans-Serif" font-size="9.00" fill="#000000">index.tsx</text>
</a>
</g>
</g>
<!-- src/scenes/ReaderScene.tsx -->
<g id="node2" class="node">
<title>src/scenes/ReaderScene.tsx</title>
<g id="a_node2"><a xlink:href="src/scenes/ReaderScene.tsx" xlink:title="ReaderScene.tsx">
<path fill="#bbfeff" stroke="#000000" d="M167,-42C167,-42 92,-42 92,-42 89,-42 86,-39 86,-36 86,-36 86,-30 86,-30 86,-27 89,-24 92,-24 92,-24 167,-24 167,-24 170,-24 173,-27 173,-30 173,-30 173,-36 173,-36 173,-39 170,-42 167,-42"/>
<text text-anchor="middle" x="129.5" y="-30.8" font-family="Helvetica,sans-Serif" font-size="9.00" fill="#000000">ReaderScene.tsx</text>
</a>
</g>
</g>
<!-- src/index.tsx&#45;&gt;src/scenes/ReaderScene.tsx -->
<g id="edge1" class="edge">
<title>src/index.tsx&#45;&gt;src/scenes/ReaderScene.tsx</title>
<path fill="none" stroke="#000000" stroke-width="2" stroke-opacity="0.200000" d="M70.3691,-33C70.3691,-33 79.8699,-33 79.8699,-33"/>
<polygon fill="#000000" fill-opacity="0.200000" stroke="#000000" stroke-width="2" stroke-opacity="0.200000" points="79.8699,-35.1001 85.8699,-33 79.8698,-30.9001 79.8699,-35.1001"/>
</g>
<!-- src/modules/control -->
<g id="node4" class="node">
<title>src/modules/control</title>
<g id="a_node4"><a xlink:href="src/modules/control" xlink:title="control">
<polygon fill="#ffffcc" stroke="#000000" points="243,-116 191,-116 189,-114 189,-98 241,-98 243,-100 243,-116"/>
<polyline fill="none" stroke="#000000" points="241,-114 189,-114 "/>
<polyline fill="none" stroke="#000000" points="241,-114 241,-98 "/>
<polyline fill="none" stroke="#000000" points="241,-114 243,-116 "/>
<text text-anchor="middle" x="216" y="-104.8" font-family="Helvetica,sans-Serif" font-size="9.00" fill="#000000">control</text>
</a>
</g>
</g>
<!-- src/scenes/ReaderScene.tsx&#45;&gt;src/modules/control -->
<g id="edge20" class="edge">
<title>src/scenes/ReaderScene.tsx&#45;&gt;src/modules/control</title>
<path fill="none" stroke="#000000" stroke-width="2" stroke-opacity="0.200000" d="M168,-42.1077C168,-60.9917 168,-102.6667 168,-102.6667 168,-102.6667 182.9139,-102.6667 182.9139,-102.6667"/>
<polygon fill="#000000" fill-opacity="0.200000" stroke="#000000" stroke-width="2" stroke-opacity="0.200000" points="182.9139,-104.7668 188.9139,-102.6667 182.9138,-100.5668 182.9139,-104.7668"/>
</g>
<!-- src/modules/river -->
<g id="node6" class="node">
<title>src/modules/river</title>
<g id="a_node6"><a xlink:href="src/modules/river" xlink:title="river">
<polygon fill="#ffffcc" stroke="#000000" points="377,-136 325,-136 323,-134 323,-118 375,-118 377,-120 377,-136"/>
<polyline fill="none" stroke="#000000" points="375,-134 323,-134 "/>
<polyline fill="none" stroke="#000000" points="375,-134 375,-118 "/>
<polyline fill="none" stroke="#000000" points="375,-134 377,-136 "/>
<text text-anchor="middle" x="350" y="-124.8" font-family="Helvetica,sans-Serif" font-size="9.00" fill="#000000">river</text>
</a>
</g>
</g>
<!-- src/scenes/ReaderScene.tsx&#45;&gt;src/modules/river -->
<g id="edge22" class="edge">
<title>src/scenes/ReaderScene.tsx&#45;&gt;src/modules/river</title>
<path fill="none" stroke="#000000" stroke-width="2" stroke-opacity="0.200000" d="M162,-42.2572C162,-65.7805 162,-126 162,-126 162,-126 316.6632,-126 316.6632,-126"/>
<polygon fill="#000000" fill-opacity="0.200000" stroke="#000000" stroke-width="2" stroke-opacity="0.200000" points="316.6632,-128.1001 322.6632,-126 316.6632,-123.9001 316.6632,-128.1001"/>
</g>
<!-- src/modules/creation -->
<g id="node7" class="node">
<title>src/modules/creation</title>
<g id="a_node7"><a xlink:href="src/modules/creation" xlink:title="creation">
<polygon fill="#ffffcc" stroke="#000000" points="310,-116 258,-116 256,-114 256,-98 308,-98 310,-100 310,-116"/>
<polyline fill="none" stroke="#000000" points="308,-114 256,-114 "/>
<polyline fill="none" stroke="#000000" points="308,-114 308,-98 "/>
<polyline fill="none" stroke="#000000" points="308,-114 310,-116 "/>
<text text-anchor="middle" x="283" y="-104.8" font-family="Helvetica,sans-Serif" font-size="9.00" fill="#000000">creation</text>
</a>
</g>
</g>
<!-- src/scenes/ReaderScene.tsx&#45;&gt;src/modules/creation -->
<g id="edge21" class="edge">
<title>src/scenes/ReaderScene.tsx&#45;&gt;src/modules/creation</title>
<path fill="none" stroke="#000000" stroke-width="2" stroke-opacity="0.200000" d="M173.047,-33C221.1815,-33 292,-33 292,-33 292,-33 292,-91.9261 292,-91.9261"/>
<polygon fill="#000000" fill-opacity="0.200000" stroke="#000000" stroke-width="2" stroke-opacity="0.200000" points="289.9001,-91.9261 292,-97.9261 294.1001,-91.9262 289.9001,-91.9261"/>
</g>
<!-- src/modules/cards -->
<g id="node3" class="node">
<title>src/modules/cards</title>
<g id="a_node3"><a xlink:href="src/modules/cards" xlink:title="cards">
<polygon fill="#ffffcc" stroke="#000000" points="156.5,-130 104.5,-130 102.5,-128 102.5,-112 154.5,-112 156.5,-114 156.5,-130"/>
<polyline fill="none" stroke="#000000" points="154.5,-128 102.5,-128 "/>
<polyline fill="none" stroke="#000000" points="154.5,-128 154.5,-112 "/>
<polyline fill="none" stroke="#000000" points="154.5,-128 156.5,-130 "/>
<text text-anchor="middle" x="129.5" y="-118.8" font-family="Helvetica,sans-Serif" font-size="9.00" fill="#000000">cards</text>
</a>
</g>
</g>
<!-- src/modules/cards&#45;&gt;src/modules/control -->
<g id="edge2" class="edge">
<title>src/modules/cards&#45;&gt;src/modules/control</title>
<path fill="none" stroke="#000000" stroke-width="2" stroke-opacity="0.200000" d="M130,-107.796C130,-107.796 130,-107.3333 130,-107.3333 130,-107.3333 182.7891,-107.3333 182.7891,-107.3333"/>
<polygon fill="#000000" fill-opacity="0.200000" stroke="#000000" stroke-width="2" stroke-opacity="0.200000" points="127.9001,-105.9602 130,-111.9602 132.1001,-105.9603 127.9001,-105.9602"/>
<polygon fill="#000000" fill-opacity="0.200000" stroke="#000000" stroke-width="2" stroke-opacity="0.200000" points="182.7891,-109.4334 188.7891,-107.3333 182.789,-105.2334 182.7891,-109.4334"/>
</g>
<!-- src/modules/display -->
<g id="node5" class="node">
<title>src/modules/display</title>
<g id="a_node5"><a xlink:href="src/modules/display" xlink:title="display">
<polygon fill="#ffffcc" stroke="#000000" points="444,-118 392,-118 390,-116 390,-100 442,-100 444,-102 444,-118"/>
<polyline fill="none" stroke="#000000" points="442,-116 390,-116 "/>
<polyline fill="none" stroke="#000000" points="442,-116 442,-100 "/>
<polyline fill="none" stroke="#000000" points="442,-116 444,-118 "/>
<text text-anchor="middle" x="417" y="-106.8" font-family="Helvetica,sans-Serif" font-size="9.00" fill="#000000">display</text>
</a>
</g>
</g>
<!-- src/modules/control&#45;&gt;src/modules/display -->
<g id="edge4" class="edge">
<title>src/modules/control&#45;&gt;src/modules/display</title>
<path fill="none" stroke="#000000" stroke-width="2" stroke-opacity="0.200000" d="M225,-97.9098C225,-91.4809 225,-84 225,-84 225,-84 417,-84 417,-84 417,-84 417,-93.9744 417,-93.9744"/>
<polygon fill="#000000" fill-opacity="0.200000" stroke="#000000" stroke-width="2" stroke-opacity="0.200000" points="414.9001,-93.9744 417,-99.9744 419.1001,-93.9745 414.9001,-93.9744"/>
</g>
<!-- src/modules/control&#45;&gt;src/modules/river -->
<g id="edge5" class="edge">
<title>src/modules/control&#45;&gt;src/modules/river</title>
<path fill="none" stroke="#000000" stroke-width="2" stroke-opacity="0.200000" d="M216,-122.2958C216,-122.2958 216,-124 216,-124 216,-124 316.8831,-124 316.8831,-124"/>
<polygon fill="#000000" fill-opacity="0.200000" stroke="#000000" stroke-width="2" stroke-opacity="0.200000" points="218.1001,-122.2958 216,-116.2958 213.9001,-122.2959 218.1001,-122.2958"/>
<polygon fill="#000000" fill-opacity="0.200000" stroke="#000000" stroke-width="2" stroke-opacity="0.200000" points="316.8831,-126.1001 322.8831,-124 316.8831,-121.9001 316.8831,-126.1001"/>
</g>
<!-- src/modules/control&#45;&gt;src/modules/creation -->
<g id="edge6" class="edge">
<title>src/modules/control&#45;&gt;src/modules/creation</title>
<path fill="none" stroke="#000000" stroke-width="2" stroke-opacity="0.200000" d="M243.2515,-107C243.2515,-107 249.9899,-107 249.9899,-107"/>
<polygon fill="#000000" fill-opacity="0.200000" stroke="#000000" stroke-width="2" stroke-opacity="0.200000" points="249.9899,-109.1001 255.9899,-107 249.9899,-104.9001 249.9899,-109.1001"/>
</g>
<!-- src/modules/focus -->
<g id="node8" class="node">
<title>src/modules/focus</title>
<g id="a_node8"><a xlink:href="src/modules/focus" xlink:title="focus">
<polygon fill="#ffffcc" stroke="#000000" points="511,-118 459,-118 457,-116 457,-100 509,-100 511,-102 511,-118"/>
<polyline fill="none" stroke="#000000" points="509,-116 457,-116 "/>
<polyline fill="none" stroke="#000000" points="509,-116 509,-100 "/>
<polyline fill="none" stroke="#000000" points="509,-116 511,-118 "/>
<text text-anchor="middle" x="484" y="-106.8" font-family="Helvetica,sans-Serif" font-size="9.00" fill="#000000">focus</text>
</a>
</g>
</g>
<!-- src/modules/control&#45;&gt;src/modules/focus -->
<g id="edge7" class="edge">
<title>src/modules/control&#45;&gt;src/modules/focus</title>
<path fill="none" stroke="#000000" stroke-width="2" stroke-opacity="0.200000" d="M207,-97.6458C207,-82.9225 207,-56 207,-56 207,-56 493,-56 493,-56 493,-56 493,-93.7681 493,-93.7681"/>
<polygon fill="#000000" fill-opacity="0.200000" stroke="#000000" stroke-width="2" stroke-opacity="0.200000" points="490.9001,-93.7681 493,-99.7681 495.1001,-93.7681 490.9001,-93.7681"/>
</g>
<!-- src/modules/display&#45;&gt;src/modules/focus -->
<g id="edge14" class="edge">
<title>src/modules/display&#45;&gt;src/modules/focus</title>
<path fill="none" stroke="#000000" stroke-width="2" stroke-opacity="0.200000" d="M444.2515,-109C444.2515,-109 450.9899,-109 450.9899,-109"/>
<polygon fill="#000000" fill-opacity="0.200000" stroke="#000000" stroke-width="2" stroke-opacity="0.200000" points="450.9899,-111.1001 456.9899,-109 450.9899,-106.9001 450.9899,-111.1001"/>
</g>
<!-- src/shared -->
<g id="node9" class="node">
<title>src/shared</title>
<g id="a_node9"><a xlink:href="src/shared" xlink:title="shared">
<polygon fill="#ffffcc" stroke="#000000" points="511,-196 459,-196 457,-194 457,-178 509,-178 511,-180 511,-196"/>
<polyline fill="none" stroke="#000000" points="509,-194 457,-194 "/>
<polyline fill="none" stroke="#000000" points="509,-194 509,-178 "/>
<polyline fill="none" stroke="#000000" points="509,-194 511,-196 "/>
<text text-anchor="middle" x="484" y="-184.8" font-family="Helvetica,sans-Serif" font-size="9.00" fill="#000000">shared</text>
</a>
</g>
</g>
<!-- src/modules/display&#45;&gt;src/shared -->
<g id="edge13" class="edge">
<title>src/modules/display&#45;&gt;src/shared</title>
<path fill="none" stroke="#000000" stroke-width="2" stroke-opacity="0.200000" d="M426,-118.1965C426,-138.2236 426,-184 426,-184 426,-184 450.6984,-184 450.6984,-184"/>
<polygon fill="#000000" fill-opacity="0.200000" stroke="#000000" stroke-width="2" stroke-opacity="0.200000" points="450.6984,-186.1001 456.6984,-184 450.6983,-181.9001 450.6984,-186.1001"/>
</g>
<!-- src/modules/river&#45;&gt;src/modules/cards -->
<g id="edge15" class="edge">
<title>src/modules/river&#45;&gt;src/modules/cards</title>
<path fill="none" stroke="#000000" stroke-width="2" stroke-opacity="0.200000" d="M322.9624,-128C322.9624,-128 162.7588,-128 162.7588,-128"/>
<polygon fill="#000000" fill-opacity="0.200000" stroke="#000000" stroke-width="2" stroke-opacity="0.200000" points="162.7588,-125.9001 156.7588,-128 162.7587,-130.1001 162.7588,-125.9001"/>
</g>
<!-- src/modules/river&#45;&gt;src/modules/display -->
<g id="edge16" class="edge">
<title>src/modules/river&#45;&gt;src/modules/display</title>
<path fill="none" stroke="#000000" stroke-width="2" stroke-opacity="0.200000" d="M377.3016,-122.5C392.3451,-122.5 408,-122.5 408,-122.5 408,-122.5 408,-122.0729 408,-122.0729"/>
<polygon fill="#000000" fill-opacity="0.200000" stroke="#000000" stroke-width="2" stroke-opacity="0.200000" points="410.1002,-124.2285 408,-118.2285 405.9002,-124.2286 410.1002,-124.2285"/>
</g>
<!-- src/modules/river&#45;&gt;src/modules/focus -->
<g id="edge17" class="edge">
<title>src/modules/river&#45;&gt;src/modules/focus</title>
<path fill="none" stroke="#000000" stroke-width="2" stroke-opacity="0.200000" d="M377.1231,-127C413.8866,-127 475,-127 475,-127 475,-127 475,-124.4217 475,-124.4217"/>
<polygon fill="#000000" fill-opacity="0.200000" stroke="#000000" stroke-width="2" stroke-opacity="0.200000" points="477.1001,-124.4217 475,-118.4217 472.9001,-124.4218 477.1001,-124.4217"/>
</g>
<!-- src/modules/river&#45;&gt;src/shared -->
<g id="edge18" class="edge">
<title>src/modules/river&#45;&gt;src/shared</title>
<path fill="none" stroke="#000000" stroke-width="2" stroke-opacity="0.200000" d="M377.2338,-131.5C418.7239,-131.5 493,-131.5 493,-131.5 493,-131.5 493,-171.8353 493,-171.8353"/>
<polygon fill="#000000" fill-opacity="0.200000" stroke="#000000" stroke-width="2" stroke-opacity="0.200000" points="490.9001,-171.8353 493,-177.8353 495.1001,-171.8353 490.9001,-171.8353"/>
</g>
<!-- src/modules/creation&#45;&gt;src/modules/cards -->
<g id="edge8" class="edge">
<title>src/modules/creation&#45;&gt;src/modules/cards</title>
<path fill="none" stroke="#000000" stroke-width="2" stroke-opacity="0.200000" d="M270,-116.1699C270,-118.321 270,-120 270,-120 270,-120 162.5898,-120 162.5898,-120"/>
<polygon fill="#000000" fill-opacity="0.200000" stroke="#000000" stroke-width="2" stroke-opacity="0.200000" points="162.5898,-117.9001 156.5898,-120 162.5898,-122.1001 162.5898,-117.9001"/>
</g>
<!-- src/modules/creation&#45;&gt;src/modules/display -->
<g id="edge9" class="edge">
<title>src/modules/creation&#45;&gt;src/modules/display</title>
<path fill="none" stroke="#000000" stroke-width="2" stroke-opacity="0.200000" d="M310.1169,-108C310.1169,-108 383.9234,-108 383.9234,-108"/>
<polygon fill="#000000" fill-opacity="0.200000" stroke="#000000" stroke-width="2" stroke-opacity="0.200000" points="383.9235,-110.1001 389.9234,-108 383.9234,-105.9001 383.9235,-110.1001"/>
</g>
<!-- src/modules/creation&#45;&gt;src/modules/river -->
<g id="edge11" class="edge">
<title>src/modules/creation&#45;&gt;src/modules/river</title>
<path fill="none" stroke="#000000" stroke-width="2" stroke-opacity="0.200000" d="M297,-116.2435C297,-119.3303 297,-122 297,-122 297,-122 316.879,-122 316.879,-122"/>
<polygon fill="#000000" fill-opacity="0.200000" stroke="#000000" stroke-width="2" stroke-opacity="0.200000" points="316.879,-124.1001 322.879,-122 316.8789,-119.9001 316.879,-124.1001"/>
</g>
<!-- src/modules/creation&#45;&gt;src/modules/focus -->
<g id="edge10" class="edge">
<title>src/modules/creation&#45;&gt;src/modules/focus</title>
<path fill="none" stroke="#000000" stroke-width="2" stroke-opacity="0.200000" d="M274,-97.6633C274,-86.7024 274,-70 274,-70 274,-70 475,-70 475,-70 475,-70 475,-93.9546 475,-93.9546"/>
<polygon fill="#000000" fill-opacity="0.200000" stroke="#000000" stroke-width="2" stroke-opacity="0.200000" points="472.9001,-93.9546 475,-99.9546 477.1001,-93.9546 472.9001,-93.9546"/>
</g>
<!-- src/modules/creation&#45;&gt;src/shared -->
<g id="edge12" class="edge">
<title>src/modules/creation&#45;&gt;src/shared</title>
<path fill="none" stroke="#000000" stroke-width="2" stroke-opacity="0.200000" d="M283,-116.1996C283,-137.8096 283,-190 283,-190 283,-190 450.8922,-190 450.8922,-190"/>
<polygon fill="#000000" fill-opacity="0.200000" stroke="#000000" stroke-width="2" stroke-opacity="0.200000" points="450.8923,-192.1001 456.8922,-190 450.8922,-187.9001 450.8923,-192.1001"/>
</g>
</g>
</svg>
