<?xml version="1.0" encoding="UTF-8" standalone="no"?>
<!DOCTYPE svg PUBLIC "-//W3C//DTD SVG 1.1//EN"
 "http://www.w3.org/Graphics/SVG/1.1/DTD/svg11.dtd">
<!-- Generated by graphviz version 2.40.1 (20161225.0304)
 -->
<!-- Title: dependency&#45;cruiser output Pages: 1 -->
<svg width="613pt" height="188pt"
 viewBox="0.00 0.00 613.00 188.00" xmlns="http://www.w3.org/2000/svg" xmlns:xlink="http://www.w3.org/1999/xlink">
<g id="graph0" class="graph" transform="scale(1 1) rotate(0) translate(4 184)">
<title>dependency&#45;cruiser output</title>
<polygon fill="#ffffff" stroke="transparent" points="-4,4 -4,-184 609,-184 609,4 -4,4"/>
<g id="clust1" class="cluster">
<title>cluster_src</title>
<path fill="#ffffff" stroke="#000000" stroke-width="2" d="M20,-8C20,-8 585,-8 585,-8 591,-8 597,-14 597,-20 597,-20 597,-160 597,-160 597,-166 591,-172 585,-172 585,-172 20,-172 20,-172 14,-172 8,-166 8,-160 8,-160 8,-20 8,-20 8,-14 14,-8 20,-8"/>
<text text-anchor="middle" x="302.5" y="-160.8" font-family="Helvetica,sans-Serif" font-weight="bold" font-size="9.00" fill="#000000">src</text>
</g>
<g id="clust2" class="cluster">
<title>cluster_src/modules</title>
<path fill="#ffffff" stroke="#000000" stroke-width="2" d="M201,-36C201,-36 515,-36 515,-36 521,-36 527,-42 527,-48 527,-48 527,-134 527,-134 527,-140 521,-146 515,-146 515,-146 201,-146 201,-146 195,-146 189,-140 189,-134 189,-134 189,-48 189,-48 189,-42 195,-36 201,-36"/>
<text text-anchor="middle" x="358" y="-134.8" font-family="Helvetica,sans-Serif" font-weight="bold" font-size="9.00" fill="#000000">modules</text>
</g>
<g id="clust3" class="cluster">
<title>cluster_src/scenes</title>
<path fill="#ffffff" stroke="#000000" stroke-width="2" d="M90,-50C90,-50 169,-50 169,-50 175,-50 181,-56 181,-62 181,-62 181,-90 181,-90 181,-96 175,-102 169,-102 169,-102 90,-102 90,-102 84,-102 78,-96 78,-90 78,-90 78,-62 78,-62 78,-56 84,-50 90,-50"/>
<text text-anchor="middle" x="129.5" y="-90.8" font-family="Helvetica,sans-Serif" font-weight="bold" font-size="9.00" fill="#000000">scenes</text>
</g>
<!-- src/index.tsx -->
<g id="node1" class="node">
<title>src/index.tsx</title>
<g id="a_node1"><a xlink:href="src/index.tsx" xlink:title="index.tsx">
<path fill="#bbfeff" stroke="#000000" d="M64,-76C64,-76 22,-76 22,-76 19,-76 16,-73 16,-70 16,-70 16,-64 16,-64 16,-61 19,-58 22,-58 22,-58 64,-58 64,-58 67,-58 70,-61 70,-64 70,-64 70,-70 70,-70 70,-73 67,-76 64,-76"/>
<text text-anchor="middle" x="43" y="-64.8" font-family="Helvetica,sans-Serif" font-size="9.00" fill="#000000">index.tsx</text>
</a>
</g>
</g>
<!-- src/scenes/ReaderScene.tsx -->
<g id="node2" class="node">
<title>src/scenes/ReaderScene.tsx</title>
<g id="a_node2"><a xlink:href="src/scenes/ReaderScene.tsx" xlink:title="ReaderScene.tsx">
<path fill="#bbfeff" stroke="#000000" d="M167,-76C167,-76 92,-76 92,-76 89,-76 86,-73 86,-70 86,-70 86,-64 86,-64 86,-61 89,-58 92,-58 92,-58 167,-58 167,-58 170,-58 173,-61 173,-64 173,-64 173,-70 173,-70 173,-73 170,-76 167,-76"/>
<text text-anchor="middle" x="129.5" y="-64.8" font-family="Helvetica,sans-Serif" font-size="9.00" fill="#000000">ReaderScene.tsx</text>
</a>
</g>
</g>
<!-- src/index.tsx&#45;&gt;src/scenes/ReaderScene.tsx -->
<g id="edge1" class="edge">
<title>src/index.tsx&#45;&gt;src/scenes/ReaderScene.tsx</title>
<path fill="none" stroke="#000000" stroke-width="2" stroke-opacity="0.200000" d="M70.3691,-67C70.3691,-67 79.8699,-67 79.8699,-67"/>
<polygon fill="#000000" fill-opacity="0.200000" stroke="#000000" stroke-width="2" stroke-opacity="0.200000" points="79.8699,-69.1001 85.8699,-67 79.8698,-64.9001 79.8699,-69.1001"/>
</g>
<!-- src/modules/control -->
<g id="node4" class="node">
<title>src/modules/control</title>
<g id="a_node4"><a xlink:href="src/modules/control" xlink:title="control">
<polygon fill="#ffffcc" stroke="#000000" points="251,-76 199,-76 197,-74 197,-58 249,-58 251,-60 251,-76"/>
<polyline fill="none" stroke="#000000" points="249,-74 197,-74 "/>
<polyline fill="none" stroke="#000000" points="249,-74 249,-58 "/>
<polyline fill="none" stroke="#000000" points="249,-74 251,-76 "/>
<text text-anchor="middle" x="224" y="-64.8" font-family="Helvetica,sans-Serif" font-size="9.00" fill="#000000">control</text>
</a>
</g>
</g>
<!-- src/scenes/ReaderScene.tsx&#45;&gt;src/modules/control -->
<g id="edge16" class="edge">
<title>src/scenes/ReaderScene.tsx&#45;&gt;src/modules/control</title>
<path fill="none" stroke="#000000" stroke-width="2" stroke-opacity="0.200000" d="M173.154,-64C173.154,-64 190.9873,-64 190.9873,-64"/>
<polygon fill="#000000" fill-opacity="0.200000" stroke="#000000" stroke-width="2" stroke-opacity="0.200000" points="190.9873,-66.1001 196.9873,-64 190.9873,-61.9001 190.9873,-66.1001"/>
</g>
<!-- src/modules/creation -->
<g id="node5" class="node">
<title>src/modules/creation</title>
<g id="a_node5"><a xlink:href="src/modules/creation" xlink:title="creation">
<polygon fill="#ffffcc" stroke="#000000" points="318,-76 266,-76 264,-74 264,-58 316,-58 318,-60 318,-76"/>
<polyline fill="none" stroke="#000000" points="316,-74 264,-74 "/>
<polyline fill="none" stroke="#000000" points="316,-74 316,-58 "/>
<polyline fill="none" stroke="#000000" points="316,-74 318,-76 "/>
<text text-anchor="middle" x="291" y="-64.8" font-family="Helvetica,sans-Serif" font-size="9.00" fill="#000000">creation</text>
</a>
</g>
</g>
<!-- src/scenes/ReaderScene.tsx&#45;&gt;src/modules/creation -->
<g id="edge17" class="edge">
<title>src/scenes/ReaderScene.tsx&#45;&gt;src/modules/creation</title>
<path fill="none" stroke="#000000" stroke-width="2" stroke-opacity="0.200000" d="M152,-76.2773C152,-78.6629 152,-80.5714 152,-80.5714 152,-80.5714 291,-80.5714 291,-80.5714 291,-80.5714 291,-80.142 291,-80.142"/>
<polygon fill="#000000" fill-opacity="0.200000" stroke="#000000" stroke-width="2" stroke-opacity="0.200000" points="293.1002,-82.2773 291,-76.2773 288.9002,-82.2774 293.1002,-82.2773"/>
</g>
<!-- src/modules/display -->
<g id="node6" class="node">
<title>src/modules/display</title>
<g id="a_node6"><a xlink:href="src/modules/display" xlink:title="display">
<polygon fill="#ffffcc" stroke="#000000" points="519,-84 467,-84 465,-82 465,-66 517,-66 519,-68 519,-84"/>
<polyline fill="none" stroke="#000000" points="517,-82 465,-82 "/>
<polyline fill="none" stroke="#000000" points="517,-82 517,-66 "/>
<polyline fill="none" stroke="#000000" points="517,-82 519,-84 "/>
<text text-anchor="middle" x="492" y="-72.8" font-family="Helvetica,sans-Serif" font-size="9.00" fill="#000000">display</text>
</a>
</g>
</g>
<!-- src/scenes/ReaderScene.tsx&#45;&gt;src/modules/display -->
<g id="edge18" class="edge">
<title>src/scenes/ReaderScene.tsx&#45;&gt;src/modules/display</title>
<path fill="none" stroke="#000000" stroke-width="2" stroke-opacity="0.200000" d="M173.2299,-70C180.1085,-70 185,-70 185,-70 185,-70 185,-78.2857 185,-78.2857 185,-78.2857 458.7558,-78.2857 458.7558,-78.2857"/>
<polygon fill="#000000" fill-opacity="0.200000" stroke="#000000" stroke-width="2" stroke-opacity="0.200000" points="458.7558,-80.3858 464.7558,-78.2857 458.7558,-76.1858 458.7558,-80.3858"/>
</g>
<!-- src/modules/focus -->
<g id="node7" class="node">
<title>src/modules/focus</title>
<g id="a_node7"><a xlink:href="src/modules/focus" xlink:title="focus">
<polygon fill="#ffffcc" stroke="#000000" points="452,-106 400,-106 398,-104 398,-88 450,-88 452,-90 452,-106"/>
<polyline fill="none" stroke="#000000" points="450,-104 398,-104 "/>
<polyline fill="none" stroke="#000000" points="450,-104 450,-88 "/>
<polyline fill="none" stroke="#000000" points="450,-104 452,-106 "/>
<text text-anchor="middle" x="425" y="-94.8" font-family="Helvetica,sans-Serif" font-size="9.00" fill="#000000">focus</text>
</a>
</g>
</g>
<!-- src/scenes/ReaderScene.tsx&#45;&gt;src/modules/focus -->
<g id="edge19" class="edge">
<title>src/scenes/ReaderScene.tsx&#45;&gt;src/modules/focus</title>
<path fill="none" stroke="#000000" stroke-width="2" stroke-opacity="0.200000" d="M108,-76.158C108,-92.2706 108,-124 108,-124 108,-124 425,-124 425,-124 425,-124 425,-112.141 425,-112.141"/>
<polygon fill="#000000" fill-opacity="0.200000" stroke="#000000" stroke-width="2" stroke-opacity="0.200000" points="427.1001,-112.1409 425,-106.141 422.9001,-112.141 427.1001,-112.1409"/>
</g>
<!-- src/modules/river -->
<g id="node8" class="node">
<title>src/modules/river</title>
<g id="a_node8"><a xlink:href="src/modules/river" xlink:title="river">
<polygon fill="#ffffcc" stroke="#000000" points="385,-112 333,-112 331,-110 331,-94 383,-94 385,-96 385,-112"/>
<polyline fill="none" stroke="#000000" points="383,-110 331,-110 "/>
<polyline fill="none" stroke="#000000" points="383,-110 383,-94 "/>
<polyline fill="none" stroke="#000000" points="383,-110 385,-112 "/>
<text text-anchor="middle" x="358" y="-100.8" font-family="Helvetica,sans-Serif" font-size="9.00" fill="#000000">river</text>
</a>
</g>
</g>
<!-- src/scenes/ReaderScene.tsx&#45;&gt;src/modules/river -->
<g id="edge20" class="edge">
<title>src/scenes/ReaderScene.tsx&#45;&gt;src/modules/river</title>
<path fill="none" stroke="#000000" stroke-width="2" stroke-opacity="0.200000" d="M130,-76.0454C130,-87.5664 130,-106 130,-106 130,-106 324.9501,-106 324.9501,-106"/>
<polygon fill="#000000" fill-opacity="0.200000" stroke="#000000" stroke-width="2" stroke-opacity="0.200000" points="324.9501,-108.1001 330.9501,-106 324.95,-103.9001 324.9501,-108.1001"/>
</g>
<!-- src/modules/cards -->
<g id="node3" class="node">
<title>src/modules/cards</title>
<g id="a_node3"><a xlink:href="src/modules/cards" xlink:title="cards">
<polygon fill="#ffffcc" stroke="#000000" points="452,-76 400,-76 398,-74 398,-58 450,-58 452,-60 452,-76"/>
<polyline fill="none" stroke="#000000" points="450,-74 398,-74 "/>
<polyline fill="none" stroke="#000000" points="450,-74 450,-58 "/>
<polyline fill="none" stroke="#000000" points="450,-74 452,-76 "/>
<text text-anchor="middle" x="425" y="-64.8" font-family="Helvetica,sans-Serif" font-size="9.00" fill="#000000">cards</text>
</a>
</g>
</g>
<!-- src/modules/control&#45;&gt;src/modules/creation -->
<g id="edge2" class="edge">
<title>src/modules/control&#45;&gt;src/modules/creation</title>
<path fill="none" stroke="#000000" stroke-width="2" stroke-opacity="0.200000" d="M251.2515,-64C251.2515,-64 257.9899,-64 257.9899,-64"/>
<polygon fill="#000000" fill-opacity="0.200000" stroke="#000000" stroke-width="2" stroke-opacity="0.200000" points="257.9899,-66.1001 263.9899,-64 257.9899,-61.9001 257.9899,-66.1001"/>
</g>
<!-- src/modules/control&#45;&gt;src/modules/display -->
<g id="edge3" class="edge">
<title>src/modules/control&#45;&gt;src/modules/display</title>
<path fill="none" stroke="#000000" stroke-width="2" stroke-opacity="0.200000" d="M251.1196,-70C255.1591,-70 258,-70 258,-70 258,-70 258,-77.1429 258,-77.1429 258,-77.1429 458.6993,-77.1429 458.6993,-77.1429"/>
<polygon fill="#000000" fill-opacity="0.200000" stroke="#000000" stroke-width="2" stroke-opacity="0.200000" points="458.6993,-79.243 464.6993,-77.1429 458.6992,-75.043 458.6993,-79.243"/>
</g>
<!-- src/modules/control&#45;&gt;src/modules/focus -->
<g id="edge4" class="edge">
<title>src/modules/control&#45;&gt;src/modules/focus</title>
<path fill="none" stroke="#000000" stroke-width="2" stroke-opacity="0.200000" d="M215,-76.0324C215,-77.96 215,-79.4286 215,-79.4286 215,-79.4286 416,-79.4286 416,-79.4286 416,-79.4286 416,-81.8026 416,-81.8026"/>
<polygon fill="#000000" fill-opacity="0.200000" stroke="#000000" stroke-width="2" stroke-opacity="0.200000" points="413.9001,-81.8026 416,-87.8026 418.1001,-81.8026 413.9001,-81.8026"/>
</g>
<!-- src/modules/control&#45;&gt;src/modules/river -->
<g id="edge5" class="edge">
<title>src/modules/control&#45;&gt;src/modules/river</title>
<path fill="none" stroke="#000000" stroke-width="2" stroke-opacity="0.200000" d="M233,-76.0174C233,-85.7881 233,-100 233,-100 233,-100 324.8769,-100 324.8769,-100"/>
<polygon fill="#000000" fill-opacity="0.200000" stroke="#000000" stroke-width="2" stroke-opacity="0.200000" points="324.8769,-102.1001 330.8769,-100 324.8768,-97.9001 324.8769,-102.1001"/>
</g>
<!-- src/modules/creation&#45;&gt;src/modules/cards -->
<g id="edge6" class="edge">
<title>src/modules/creation&#45;&gt;src/modules/cards</title>
<path fill="none" stroke="#000000" stroke-width="2" stroke-opacity="0.200000" d="M318.1169,-61.6C318.1169,-61.6 391.9234,-61.6 391.9234,-61.6"/>
<polygon fill="#000000" fill-opacity="0.200000" stroke="#000000" stroke-width="2" stroke-opacity="0.200000" points="391.9235,-63.7001 397.9234,-61.6 391.9234,-59.5001 391.9235,-63.7001"/>
</g>
<!-- src/modules/creation&#45;&gt;src/modules/focus -->
<g id="edge7" class="edge">
<title>src/modules/creation&#45;&gt;src/modules/focus</title>
<path fill="none" stroke="#000000" stroke-width="2" stroke-opacity="0.200000" d="M318.0661,-65.2C347.9836,-65.2 392,-65.2 392,-65.2 392,-65.2 392,-98 392,-98 392,-98 392.5748,-98 392.5748,-98"/>
<polygon fill="#000000" fill-opacity="0.200000" stroke="#000000" stroke-width="2" stroke-opacity="0.200000" points="391.7482,-100.1001 397.7482,-98 391.7481,-95.9001 391.7482,-100.1001"/>
</g>
<!-- src/modules/creation&#45;&gt;src/modules/river -->
<g id="edge9" class="edge">
<title>src/modules/creation&#45;&gt;src/modules/river</title>
<path fill="none" stroke="#000000" stroke-width="2" stroke-opacity="0.200000" d="M318.3164,-72.4C331.7101,-72.4 345,-72.4 345,-72.4 345,-72.4 345,-87.9845 345,-87.9845"/>
<polygon fill="#000000" fill-opacity="0.200000" stroke="#000000" stroke-width="2" stroke-opacity="0.200000" points="342.9001,-87.9845 345,-93.9845 347.1001,-87.9845 342.9001,-87.9845"/>
</g>
<!-- src/shared -->
<g id="node9" class="node">
<title>src/shared</title>
<g id="a_node9"><a xlink:href="src/shared" xlink:title="shared">
<polygon fill="#ffffcc" stroke="#000000" points="589,-84 537,-84 535,-82 535,-66 587,-66 589,-68 589,-84"/>
<polyline fill="none" stroke="#000000" points="587,-82 535,-82 "/>
<polyline fill="none" stroke="#000000" points="587,-82 587,-66 "/>
<polyline fill="none" stroke="#000000" points="587,-82 589,-84 "/>
<text text-anchor="middle" x="562" y="-72.8" font-family="Helvetica,sans-Serif" font-size="9.00" fill="#000000">shared</text>
</a>
</g>
</g>
<!-- src/modules/creation&#45;&gt;src/shared -->
<g id="edge8" class="edge">
<title>src/modules/creation&#45;&gt;src/shared</title>
<path fill="none" stroke="#000000" stroke-width="2" stroke-opacity="0.200000" d="M291,-57.859C291,-50.0261 291,-40 291,-40 291,-40 562,-40 562,-40 562,-40 562,-59.8042 562,-59.8042"/>
<polygon fill="#000000" fill-opacity="0.200000" stroke="#000000" stroke-width="2" stroke-opacity="0.200000" points="559.9001,-59.8041 562,-65.8042 564.1001,-59.8042 559.9001,-59.8041"/>
</g>
<!-- src/modules/display&#45;&gt;src/shared -->
<g id="edge10" class="edge">
<title>src/modules/display&#45;&gt;src/shared</title>
<path fill="none" stroke="#000000" stroke-width="2" stroke-opacity="0.200000" d="M519.2643,-75C519.2643,-75 528.695,-75 528.695,-75"/>
<polygon fill="#000000" fill-opacity="0.200000" stroke="#000000" stroke-width="2" stroke-opacity="0.200000" points="528.695,-77.1001 534.695,-75 528.695,-72.9001 528.695,-77.1001"/>
</g>
<!-- src/modules/focus&#45;&gt;src/modules/display -->
<g id="edge11" class="edge">
<title>src/modules/focus&#45;&gt;src/modules/display</title>
<path fill="none" stroke="#000000" stroke-width="2" stroke-opacity="0.200000" d="M434,-87.963C434,-85.1913 434,-82.8571 434,-82.8571 434,-82.8571 458.6984,-82.8571 458.6984,-82.8571"/>
<polygon fill="#000000" fill-opacity="0.200000" stroke="#000000" stroke-width="2" stroke-opacity="0.200000" points="458.6984,-84.9572 464.6984,-82.8571 458.6983,-80.7572 458.6984,-84.9572"/>
</g>
<!-- src/modules/river&#45;&gt;src/modules/cards -->
<g id="edge12" class="edge">
<title>src/modules/river&#45;&gt;src/modules/cards</title>
<path fill="none" stroke="#000000" stroke-width="2" stroke-opacity="0.200000" d="M358,-93.6547C358,-83.5287 358,-68.8 358,-68.8 358,-68.8 391.7485,-68.8 391.7485,-68.8"/>
<polygon fill="#000000" fill-opacity="0.200000" stroke="#000000" stroke-width="2" stroke-opacity="0.200000" points="391.7486,-70.9001 397.7485,-68.8 391.7485,-66.7001 391.7486,-70.9001"/>
</g>
<!-- src/modules/river&#45;&gt;src/modules/display -->
<g id="edge15" class="edge">
<title>src/modules/river&#45;&gt;src/modules/display</title>
<path fill="none" stroke="#000000" stroke-width="2" stroke-opacity="0.200000" d="M372,-93.8494C372,-88.0803 372,-81.7143 372,-81.7143 372,-81.7143 458.7701,-81.7143 458.7701,-81.7143"/>
<polygon fill="#000000" fill-opacity="0.200000" stroke="#000000" stroke-width="2" stroke-opacity="0.200000" points="458.7702,-83.8144 464.7701,-81.7143 458.7701,-79.6144 458.7702,-83.8144"/>
</g>
<!-- src/modules/river&#45;&gt;src/modules/focus -->
<g id="edge14" class="edge">
<title>src/modules/river&#45;&gt;src/modules/focus</title>
<path fill="none" stroke="#000000" stroke-width="2" stroke-opacity="0.200000" d="M385.2515,-102C385.2515,-102 391.9899,-102 391.9899,-102"/>
<polygon fill="#000000" fill-opacity="0.200000" stroke="#000000" stroke-width="2" stroke-opacity="0.200000" points="391.9899,-104.1001 397.9899,-102 391.9899,-99.9001 391.9899,-104.1001"/>
</g>
<!-- src/modules/river&#45;&gt;src/shared -->
<g id="edge13" class="edge">
<title>src/modules/river&#45;&gt;src/shared</title>
<path fill="none" stroke="#000000" stroke-width="2" stroke-opacity="0.200000" d="M358,-112.0174C358,-121.7881 358,-136 358,-136 358,-136 562,-136 562,-136 562,-136 562,-90.0008 562,-90.0008"/>
<polygon fill="#000000" fill-opacity="0.200000" stroke="#000000" stroke-width="2" stroke-opacity="0.200000" points="564.1001,-90.0007 562,-84.0008 559.9001,-90.0008 564.1001,-90.0007"/>
</g>
</g>
</svg>
