<?xml version="1.0" encoding="UTF-8" standalone="no"?>
<!DOCTYPE svg PUBLIC "-//W3C//DTD SVG 1.1//EN"
 "http://www.w3.org/Graphics/SVG/1.1/DTD/svg11.dtd">
<!-- Generated by graphviz version 2.40.1 (20161225.0304)
 -->
<!-- Title: dependency&#45;cruiser output Pages: 1 -->
<svg width="551pt" height="208pt"
 viewBox="0.00 0.00 551.00 208.00" xmlns="http://www.w3.org/2000/svg" xmlns:xlink="http://www.w3.org/1999/xlink">
<g id="graph0" class="graph" transform="scale(1 1) rotate(0) translate(4 204)">
<title>dependency&#45;cruiser output</title>
<polygon fill="#ffffff" stroke="transparent" points="-4,4 -4,-204 547,-204 547,4 -4,4"/>
<g id="clust1" class="cluster">
<title>cluster_src</title>
<path fill="#ffffff" stroke="#000000" stroke-width="2" d="M20,-8C20,-8 523,-8 523,-8 529,-8 535,-14 535,-20 535,-20 535,-180 535,-180 535,-186 529,-192 523,-192 523,-192 20,-192 20,-192 14,-192 8,-186 8,-180 8,-180 8,-20 8,-20 8,-14 14,-8 20,-8"/>
<text text-anchor="middle" x="271.5" y="-180.8" font-family="Helvetica,sans-Serif" font-weight="bold" font-size="9.00" fill="#000000">src</text>
</g>
<g id="clust2" class="cluster">
<title>cluster_src/modules</title>
<path fill="#ffffff" stroke="#000000" stroke-width="2" d="M201,-16C201,-16 515,-16 515,-16 521,-16 527,-22 527,-28 527,-28 527,-128 527,-128 527,-134 521,-140 515,-140 515,-140 201,-140 201,-140 195,-140 189,-134 189,-128 189,-128 189,-28 189,-28 189,-22 195,-16 201,-16"/>
<text text-anchor="middle" x="358" y="-128.8" font-family="Helvetica,sans-Serif" font-weight="bold" font-size="9.00" fill="#000000">modules</text>
</g>
<g id="clust3" class="cluster">
<title>cluster_src/scenes</title>
<path fill="#ffffff" stroke="#000000" stroke-width="2" d="M90,-70C90,-70 169,-70 169,-70 175,-70 181,-76 181,-82 181,-82 181,-110 181,-110 181,-116 175,-122 169,-122 169,-122 90,-122 90,-122 84,-122 78,-116 78,-110 78,-110 78,-82 78,-82 78,-76 84,-70 90,-70"/>
<text text-anchor="middle" x="129.5" y="-110.8" font-family="Helvetica,sans-Serif" font-weight="bold" font-size="9.00" fill="#000000">scenes</text>
</g>
<!-- src/index.tsx -->
<g id="node1" class="node">
<title>src/index.tsx</title>
<g id="a_node1"><a xlink:href="src/index.tsx" xlink:title="index.tsx">
<path fill="#bbfeff" stroke="#000000" d="M64,-96C64,-96 22,-96 22,-96 19,-96 16,-93 16,-90 16,-90 16,-84 16,-84 16,-81 19,-78 22,-78 22,-78 64,-78 64,-78 67,-78 70,-81 70,-84 70,-84 70,-90 70,-90 70,-93 67,-96 64,-96"/>
<text text-anchor="middle" x="43" y="-84.8" font-family="Helvetica,sans-Serif" font-size="9.00" fill="#000000">index.tsx</text>
</a>
</g>
</g>
<!-- src/scenes/ReaderScene.tsx -->
<g id="node2" class="node">
<title>src/scenes/ReaderScene.tsx</title>
<g id="a_node2"><a xlink:href="src/scenes/ReaderScene.tsx" xlink:title="ReaderScene.tsx">
<path fill="#bbfeff" stroke="#000000" d="M167,-96C167,-96 92,-96 92,-96 89,-96 86,-93 86,-90 86,-90 86,-84 86,-84 86,-81 89,-78 92,-78 92,-78 167,-78 167,-78 170,-78 173,-81 173,-84 173,-84 173,-90 173,-90 173,-93 170,-96 167,-96"/>
<text text-anchor="middle" x="129.5" y="-84.8" font-family="Helvetica,sans-Serif" font-size="9.00" fill="#000000">ReaderScene.tsx</text>
</a>
</g>
</g>
<!-- src/index.tsx&#45;&gt;src/scenes/ReaderScene.tsx -->
<g id="edge1" class="edge">
<title>src/index.tsx&#45;&gt;src/scenes/ReaderScene.tsx</title>
<path fill="none" stroke="#000000" stroke-width="2" stroke-opacity="0.200000" d="M70.3691,-87C70.3691,-87 79.8699,-87 79.8699,-87"/>
<polygon fill="#000000" fill-opacity="0.200000" stroke="#000000" stroke-width="2" stroke-opacity="0.200000" points="79.8699,-89.1001 85.8699,-87 79.8698,-84.9001 79.8699,-89.1001"/>
</g>
<!-- src/modules/control -->
<g id="node4" class="node">
<title>src/modules/control</title>
<g id="a_node4"><a xlink:href="src/modules/control" xlink:title="control">
<polygon fill="#ffffcc" stroke="#000000" points="251,-96 199,-96 197,-94 197,-78 249,-78 251,-80 251,-96"/>
<polyline fill="none" stroke="#000000" points="249,-94 197,-94 "/>
<polyline fill="none" stroke="#000000" points="249,-94 249,-78 "/>
<polyline fill="none" stroke="#000000" points="249,-94 251,-96 "/>
<text text-anchor="middle" x="224" y="-84.8" font-family="Helvetica,sans-Serif" font-size="9.00" fill="#000000">control</text>
</a>
</g>
</g>
<!-- src/scenes/ReaderScene.tsx&#45;&gt;src/modules/control -->
<g id="edge18" class="edge">
<title>src/scenes/ReaderScene.tsx&#45;&gt;src/modules/control</title>
<path fill="none" stroke="#000000" stroke-width="2" stroke-opacity="0.200000" d="M173.154,-87C173.154,-87 190.9873,-87 190.9873,-87"/>
<polygon fill="#000000" fill-opacity="0.200000" stroke="#000000" stroke-width="2" stroke-opacity="0.200000" points="190.9873,-89.1001 196.9873,-87 190.9873,-84.9001 190.9873,-89.1001"/>
</g>
<!-- src/modules/creation -->
<g id="node5" class="node">
<title>src/modules/creation</title>
<g id="a_node5"><a xlink:href="src/modules/creation" xlink:title="creation">
<polygon fill="#ffffcc" stroke="#000000" points="318,-110 266,-110 264,-108 264,-92 316,-92 318,-94 318,-110"/>
<polyline fill="none" stroke="#000000" points="316,-108 264,-108 "/>
<polyline fill="none" stroke="#000000" points="316,-108 316,-92 "/>
<polyline fill="none" stroke="#000000" points="316,-108 318,-110 "/>
<text text-anchor="middle" x="291" y="-98.8" font-family="Helvetica,sans-Serif" font-size="9.00" fill="#000000">creation</text>
</a>
</g>
</g>
<!-- src/scenes/ReaderScene.tsx&#45;&gt;src/modules/creation -->
<g id="edge19" class="edge">
<title>src/scenes/ReaderScene.tsx&#45;&gt;src/modules/creation</title>
<path fill="none" stroke="#000000" stroke-width="2" stroke-opacity="0.200000" d="M130,-96.1217C130,-99.7148 130,-103 130,-103 130,-103 257.6885,-103 257.6885,-103"/>
<polygon fill="#000000" fill-opacity="0.200000" stroke="#000000" stroke-width="2" stroke-opacity="0.200000" points="257.6886,-105.1001 263.6885,-103 257.6885,-100.9001 257.6886,-105.1001"/>
</g>
<!-- src/modules/focus -->
<g id="node7" class="node">
<title>src/modules/focus</title>
<g id="a_node7"><a xlink:href="src/modules/focus" xlink:title="focus">
<polygon fill="#ffffcc" stroke="#000000" points="519,-89 467,-89 465,-87 465,-71 517,-71 519,-73 519,-89"/>
<polyline fill="none" stroke="#000000" points="517,-87 465,-87 "/>
<polyline fill="none" stroke="#000000" points="517,-87 517,-71 "/>
<polyline fill="none" stroke="#000000" points="517,-87 519,-89 "/>
<text text-anchor="middle" x="492" y="-77.8" font-family="Helvetica,sans-Serif" font-size="9.00" fill="#000000">focus</text>
</a>
</g>
</g>
<!-- src/scenes/ReaderScene.tsx&#45;&gt;src/modules/focus -->
<g id="edge20" class="edge">
<title>src/scenes/ReaderScene.tsx&#45;&gt;src/modules/focus</title>
<path fill="none" stroke="#000000" stroke-width="2" stroke-opacity="0.200000" d="M115,-77.9409C115,-69.8721 115,-59.3333 115,-59.3333 115,-59.3333 501,-59.3333 501,-59.3333 501,-59.3333 501,-64.6342 501,-64.6342"/>
<polygon fill="#000000" fill-opacity="0.200000" stroke="#000000" stroke-width="2" stroke-opacity="0.200000" points="498.9001,-64.6341 501,-70.6342 503.1001,-64.6342 498.9001,-64.6341"/>
</g>
<!-- src/modules/river -->
<g id="node8" class="node">
<title>src/modules/river</title>
<g id="a_node8"><a xlink:href="src/modules/river" xlink:title="river">
<polygon fill="#ffffcc" stroke="#000000" points="385,-84 333,-84 331,-82 331,-66 383,-66 385,-68 385,-84"/>
<polyline fill="none" stroke="#000000" points="383,-82 331,-82 "/>
<polyline fill="none" stroke="#000000" points="383,-82 383,-66 "/>
<polyline fill="none" stroke="#000000" points="383,-82 385,-84 "/>
<text text-anchor="middle" x="358" y="-72.8" font-family="Helvetica,sans-Serif" font-size="9.00" fill="#000000">river</text>
</a>
</g>
</g>
<!-- src/scenes/ReaderScene.tsx&#45;&gt;src/modules/river -->
<g id="edge21" class="edge">
<title>src/scenes/ReaderScene.tsx&#45;&gt;src/modules/river</title>
<path fill="none" stroke="#000000" stroke-width="2" stroke-opacity="0.200000" d="M144,-77.7565C144,-74.6697 144,-72 144,-72 144,-72 324.8968,-72 324.8968,-72"/>
<polygon fill="#000000" fill-opacity="0.200000" stroke="#000000" stroke-width="2" stroke-opacity="0.200000" points="324.8968,-74.1001 330.8968,-72 324.8967,-69.9001 324.8968,-74.1001"/>
</g>
<!-- src/modules/cards -->
<g id="node3" class="node">
<title>src/modules/cards</title>
<g id="a_node3"><a xlink:href="src/modules/cards" xlink:title="cards">
<polygon fill="#ffffcc" stroke="#000000" points="452,-56 400,-56 398,-54 398,-38 450,-38 452,-40 452,-56"/>
<polyline fill="none" stroke="#000000" points="450,-54 398,-54 "/>
<polyline fill="none" stroke="#000000" points="450,-54 450,-38 "/>
<polyline fill="none" stroke="#000000" points="450,-54 452,-56 "/>
<text text-anchor="middle" x="425" y="-44.8" font-family="Helvetica,sans-Serif" font-size="9.00" fill="#000000">cards</text>
</a>
</g>
</g>
<!-- src/modules/control&#45;&gt;src/modules/cards -->
<g id="edge5" class="edge">
<title>src/modules/control&#45;&gt;src/modules/cards</title>
<path fill="none" stroke="#000000" stroke-width="2" stroke-opacity="0.200000" d="M215,-77.9948C215,-64.9917 215,-42.5 215,-42.5 215,-42.5 391.9761,-42.5 391.9761,-42.5"/>
<polygon fill="#000000" fill-opacity="0.200000" stroke="#000000" stroke-width="2" stroke-opacity="0.200000" points="391.9761,-44.6001 397.9761,-42.5 391.976,-40.4001 391.9761,-44.6001"/>
</g>
<!-- src/modules/control&#45;&gt;src/modules/creation -->
<g id="edge2" class="edge">
<title>src/modules/control&#45;&gt;src/modules/creation</title>
<path fill="none" stroke="#000000" stroke-width="2" stroke-opacity="0.200000" d="M251.0087,-90.4C272.8533,-90.4 300,-90.4 300,-90.4 300,-90.4 300,-90.53 300,-90.53"/>
<polygon fill="#000000" fill-opacity="0.200000" stroke="#000000" stroke-width="2" stroke-opacity="0.200000" points="297.9005,-85.6996 300,-91.6998 302.1005,-85.6999 297.9005,-85.6996"/>
</g>
<!-- src/modules/display -->
<g id="node6" class="node">
<title>src/modules/display</title>
<g id="a_node6"><a xlink:href="src/modules/display" xlink:title="display">
<polygon fill="#ffffcc" stroke="#000000" points="452,-100 400,-100 398,-98 398,-82 450,-82 452,-84 452,-100"/>
<polyline fill="none" stroke="#000000" points="450,-98 398,-98 "/>
<polyline fill="none" stroke="#000000" points="450,-98 450,-82 "/>
<polyline fill="none" stroke="#000000" points="450,-98 452,-100 "/>
<text text-anchor="middle" x="425" y="-88.8" font-family="Helvetica,sans-Serif" font-size="9.00" fill="#000000">display</text>
</a>
</g>
</g>
<!-- src/modules/control&#45;&gt;src/modules/display -->
<g id="edge3" class="edge">
<title>src/modules/control&#45;&gt;src/modules/display</title>
<path fill="none" stroke="#000000" stroke-width="2" stroke-opacity="0.200000" d="M251.1078,-88.8C251.1078,-88.8 391.6798,-88.8 391.6798,-88.8"/>
<polygon fill="#000000" fill-opacity="0.200000" stroke="#000000" stroke-width="2" stroke-opacity="0.200000" points="391.6798,-90.9001 397.6798,-88.8 391.6798,-86.7001 391.6798,-90.9001"/>
</g>
<!-- src/modules/control&#45;&gt;src/modules/focus -->
<g id="edge4" class="edge">
<title>src/modules/control&#45;&gt;src/modules/focus</title>
<path fill="none" stroke="#000000" stroke-width="2" stroke-opacity="0.200000" d="M233,-77.9392C233,-71.0209 233,-62.6667 233,-62.6667 233,-62.6667 483,-62.6667 483,-62.6667 483,-62.6667 483,-64.9272 483,-64.9272"/>
<polygon fill="#000000" fill-opacity="0.200000" stroke="#000000" stroke-width="2" stroke-opacity="0.200000" points="480.9001,-64.9272 483,-70.9272 485.1001,-64.9273 480.9001,-64.9272"/>
</g>
<!-- src/modules/control&#45;&gt;src/modules/river -->
<g id="edge6" class="edge">
<title>src/modules/control&#45;&gt;src/modules/river</title>
<path fill="none" stroke="#000000" stroke-width="2" stroke-opacity="0.200000" d="M251.0716,-85.6C285.9092,-85.6 342,-85.6 342,-85.6 342,-85.6 342,-85.47 342,-85.47"/>
<polygon fill="#000000" fill-opacity="0.200000" stroke="#000000" stroke-width="2" stroke-opacity="0.200000" points="344.1005,-90.3001 342,-84.3002 339.9005,-90.3004 344.1005,-90.3001"/>
</g>
<!-- src/modules/creation&#45;&gt;src/modules/cards -->
<g id="edge7" class="edge">
<title>src/modules/creation&#45;&gt;src/modules/cards</title>
<path fill="none" stroke="#000000" stroke-width="2" stroke-opacity="0.200000" d="M282,-91.5939C282,-76.1226 282,-47 282,-47 282,-47 391.7662,-47 391.7662,-47"/>
<polygon fill="#000000" fill-opacity="0.200000" stroke="#000000" stroke-width="2" stroke-opacity="0.200000" points="391.7662,-49.1001 397.7662,-47 391.7662,-44.9001 391.7662,-49.1001"/>
</g>
<!-- src/modules/creation&#45;&gt;src/modules/display -->
<g id="edge8" class="edge">
<title>src/modules/creation&#45;&gt;src/modules/display</title>
<path fill="none" stroke="#000000" stroke-width="2" stroke-opacity="0.200000" d="M318.1169,-97.3333C318.1169,-97.3333 391.9234,-97.3333 391.9234,-97.3333"/>
<polygon fill="#000000" fill-opacity="0.200000" stroke="#000000" stroke-width="2" stroke-opacity="0.200000" points="391.9235,-99.4334 397.9234,-97.3333 391.9234,-95.2334 391.9235,-99.4334"/>
</g>
<!-- src/modules/creation&#45;&gt;src/modules/focus -->
<g id="edge9" class="edge">
<title>src/modules/creation&#45;&gt;src/modules/focus</title>
<path fill="none" stroke="#000000" stroke-width="2" stroke-opacity="0.200000" d="M318.1078,-103.3333C372.9722,-103.3333 492,-103.3333 492,-103.3333 492,-103.3333 492,-95.222 492,-95.222"/>
<polygon fill="#000000" fill-opacity="0.200000" stroke="#000000" stroke-width="2" stroke-opacity="0.200000" points="494.1001,-95.2219 492,-89.222 489.9001,-95.222 494.1001,-95.2219"/>
</g>
<!-- src/modules/creation&#45;&gt;src/modules/river -->
<g id="edge10" class="edge">
<title>src/modules/creation&#45;&gt;src/modules/river</title>
<path fill="none" stroke="#000000" stroke-width="2" stroke-opacity="0.200000" d="M318.0137,-94.6667C334.7215,-94.6667 353,-94.6667 353,-94.6667 353,-94.6667 353,-90.3725 353,-90.3725"/>
<polygon fill="#000000" fill-opacity="0.200000" stroke="#000000" stroke-width="2" stroke-opacity="0.200000" points="355.1001,-90.3725 353,-84.3725 350.9001,-90.3726 355.1001,-90.3725"/>
</g>
<!-- src/shared -->
<g id="node9" class="node">
<title>src/shared</title>
<g id="a_node9"><a xlink:href="src/shared" xlink:title="shared">
<polygon fill="#ffffcc" stroke="#000000" points="519,-166 467,-166 465,-164 465,-148 517,-148 519,-150 519,-166"/>
<polyline fill="none" stroke="#000000" points="517,-164 465,-164 "/>
<polyline fill="none" stroke="#000000" points="517,-164 517,-148 "/>
<polyline fill="none" stroke="#000000" points="517,-164 519,-166 "/>
<text text-anchor="middle" x="492" y="-154.8" font-family="Helvetica,sans-Serif" font-size="9.00" fill="#000000">shared</text>
</a>
</g>
</g>
<!-- src/modules/creation&#45;&gt;src/shared -->
<g id="edge11" class="edge">
<title>src/modules/creation&#45;&gt;src/shared</title>
<path fill="none" stroke="#000000" stroke-width="2" stroke-opacity="0.200000" d="M318.3368,-106.6667C370.4782,-106.6667 479,-106.6667 479,-106.6667 479,-106.6667 479,-141.7681 479,-141.7681"/>
<polygon fill="#000000" fill-opacity="0.200000" stroke="#000000" stroke-width="2" stroke-opacity="0.200000" points="476.9001,-141.7681 479,-147.7681 481.1001,-141.7681 476.9001,-141.7681"/>
</g>
<!-- src/modules/display&#45;&gt;src/modules/focus -->
<g id="edge13" class="edge">
<title>src/modules/display&#45;&gt;src/modules/focus</title>
<path fill="none" stroke="#000000" stroke-width="2" stroke-opacity="0.200000" d="M452.2515,-85.5C452.2515,-85.5 458.9899,-85.5 458.9899,-85.5"/>
<polygon fill="#000000" fill-opacity="0.200000" stroke="#000000" stroke-width="2" stroke-opacity="0.200000" points="458.9899,-87.6001 464.9899,-85.5 458.9899,-83.4001 458.9899,-87.6001"/>
</g>
<!-- src/modules/display&#45;&gt;src/shared -->
<g id="edge12" class="edge">
<title>src/modules/display&#45;&gt;src/shared</title>
<path fill="none" stroke="#000000" stroke-width="2" stroke-opacity="0.200000" d="M452.4229,-94.5C475.9216,-94.5 506,-94.5 506,-94.5 506,-94.5 506,-141.7779 506,-141.7779"/>
<polygon fill="#000000" fill-opacity="0.200000" stroke="#000000" stroke-width="2" stroke-opacity="0.200000" points="503.9001,-141.7779 506,-147.7779 508.1001,-141.7779 503.9001,-141.7779"/>
</g>
<!-- src/modules/river&#45;&gt;src/modules/cards -->
<g id="edge14" class="edge">
<title>src/modules/river&#45;&gt;src/modules/cards</title>
<path fill="none" stroke="#000000" stroke-width="2" stroke-opacity="0.200000" d="M358,-65.9815C358,-59.3544 358,-51.5 358,-51.5 358,-51.5 391.7485,-51.5 391.7485,-51.5"/>
<polygon fill="#000000" fill-opacity="0.200000" stroke="#000000" stroke-width="2" stroke-opacity="0.200000" points="391.7486,-53.6001 397.7485,-51.5 391.7485,-49.4001 391.7486,-53.6001"/>
</g>
<!-- src/modules/river&#45;&gt;src/modules/display -->
<g id="edge17" class="edge">
<title>src/modules/river&#45;&gt;src/modules/display</title>
<path fill="none" stroke="#000000" stroke-width="2" stroke-opacity="0.200000" d="M375,-84.1214C375,-85.8865 375,-87.2 375,-87.2 375,-87.2 391.9513,-87.2 391.9513,-87.2"/>
<polygon fill="#000000" fill-opacity="0.200000" stroke="#000000" stroke-width="2" stroke-opacity="0.200000" points="391.9513,-89.3001 397.9513,-87.2 391.9512,-85.1001 391.9513,-89.3001"/>
</g>
<!-- src/modules/river&#45;&gt;src/modules/focus -->
<g id="edge15" class="edge">
<title>src/modules/river&#45;&gt;src/modules/focus</title>
<path fill="none" stroke="#000000" stroke-width="2" stroke-opacity="0.200000" d="M385.1169,-76.5C385.1169,-76.5 458.9234,-76.5 458.9234,-76.5"/>
<polygon fill="#000000" fill-opacity="0.200000" stroke="#000000" stroke-width="2" stroke-opacity="0.200000" points="458.9235,-78.6001 464.9234,-76.5 458.9234,-74.4001 458.9235,-78.6001"/>
</g>
<!-- src/modules/river&#45;&gt;src/shared -->
<g id="edge16" class="edge">
<title>src/modules/river&#45;&gt;src/shared</title>
<path fill="none" stroke="#000000" stroke-width="2" stroke-opacity="0.200000" d="M364,-84.0887C364,-105.4384 364,-157 364,-157 364,-157 458.8545,-157 458.8545,-157"/>
<polygon fill="#000000" fill-opacity="0.200000" stroke="#000000" stroke-width="2" stroke-opacity="0.200000" points="458.8545,-159.1001 464.8545,-157 458.8545,-154.9001 458.8545,-159.1001"/>
</g>
</g>
</svg>
