<?xml version="1.0" encoding="UTF-8" standalone="no"?>
<!DOCTYPE svg PUBLIC "-//W3C//DTD SVG 1.1//EN"
 "http://www.w3.org/Graphics/SVG/1.1/DTD/svg11.dtd">
<!-- Generated by graphviz version 2.40.1 (20161225.0304)
 -->
<!-- Title: dependency&#45;cruiser output Pages: 1 -->
<svg width="553pt" height="248pt"
 viewBox="0.00 0.00 553.00 248.00" xmlns="http://www.w3.org/2000/svg" xmlns:xlink="http://www.w3.org/1999/xlink">
<g id="graph0" class="graph" transform="scale(1 1) rotate(0) translate(4 244)">
<title>dependency&#45;cruiser output</title>
<polygon fill="#ffffff" stroke="transparent" points="-4,4 -4,-244 549,-244 549,4 -4,4"/>
<g id="clust1" class="cluster">
<title>cluster_src</title>
<path fill="#ffffff" stroke="#000000" stroke-width="2" d="M20,-8C20,-8 525,-8 525,-8 531,-8 537,-14 537,-20 537,-20 537,-220 537,-220 537,-226 531,-232 525,-232 525,-232 20,-232 20,-232 14,-232 8,-226 8,-220 8,-220 8,-20 8,-20 8,-14 14,-8 20,-8"/>
<text text-anchor="middle" x="272.5" y="-220.8" font-family="Helvetica,sans-Serif" font-weight="bold" font-size="9.00" fill="#000000">src</text>
</g>
<g id="clust2" class="cluster">
<title>cluster_src/modules</title>
<path fill="#ffffff" stroke="#000000" stroke-width="2" d="M201,-42C201,-42 517,-42 517,-42 523,-42 529,-48 529,-54 529,-54 529,-194 529,-194 529,-200 523,-206 517,-206 517,-206 201,-206 201,-206 195,-206 189,-200 189,-194 189,-194 189,-54 189,-54 189,-48 195,-42 201,-42"/>
<text text-anchor="middle" x="359" y="-194.8" font-family="Helvetica,sans-Serif" font-weight="bold" font-size="9.00" fill="#000000">modules</text>
</g>
<g id="clust3" class="cluster">
<title>cluster_src/scene</title>
<path fill="#ffffff" stroke="#000000" stroke-width="2" d="M90,-72C90,-72 169,-72 169,-72 175,-72 181,-78 181,-84 181,-84 181,-112 181,-112 181,-118 175,-124 169,-124 169,-124 90,-124 90,-124 84,-124 78,-118 78,-112 78,-112 78,-84 78,-84 78,-78 84,-72 90,-72"/>
<text text-anchor="middle" x="129.5" y="-112.8" font-family="Helvetica,sans-Serif" font-weight="bold" font-size="9.00" fill="#000000">scene</text>
</g>
<!-- src/index.tsx -->
<g id="node1" class="node">
<title>src/index.tsx</title>
<g id="a_node1"><a xlink:href="src/index.tsx" xlink:title="index.tsx">
<path fill="#bbfeff" stroke="#000000" d="M64,-98C64,-98 22,-98 22,-98 19,-98 16,-95 16,-92 16,-92 16,-86 16,-86 16,-83 19,-80 22,-80 22,-80 64,-80 64,-80 67,-80 70,-83 70,-86 70,-86 70,-92 70,-92 70,-95 67,-98 64,-98"/>
<text text-anchor="middle" x="43" y="-86.8" font-family="Helvetica,sans-Serif" font-size="9.00" fill="#000000">index.tsx</text>
</a>
</g>
</g>
<!-- src/scene/ReaderScene.tsx -->
<g id="node2" class="node">
<title>src/scene/ReaderScene.tsx</title>
<g id="a_node2"><a xlink:href="src/scene/ReaderScene.tsx" xlink:title="ReaderScene.tsx">
<path fill="#bbfeff" stroke="#000000" d="M167,-98C167,-98 92,-98 92,-98 89,-98 86,-95 86,-92 86,-92 86,-86 86,-86 86,-83 89,-80 92,-80 92,-80 167,-80 167,-80 170,-80 173,-83 173,-86 173,-86 173,-92 173,-92 173,-95 170,-98 167,-98"/>
<text text-anchor="middle" x="129.5" y="-86.8" font-family="Helvetica,sans-Serif" font-size="9.00" fill="#000000">ReaderScene.tsx</text>
</a>
</g>
</g>
<!-- src/index.tsx&#45;&gt;src/scene/ReaderScene.tsx -->
<g id="edge1" class="edge">
<title>src/index.tsx&#45;&gt;src/scene/ReaderScene.tsx</title>
<path fill="none" stroke="#000000" stroke-width="2" stroke-opacity="0.200000" d="M70.3691,-89C70.3691,-89 79.8699,-89 79.8699,-89"/>
<polygon fill="#000000" fill-opacity="0.200000" stroke="#000000" stroke-width="2" stroke-opacity="0.200000" points="79.8699,-91.1001 85.8699,-89 79.8698,-86.9001 79.8699,-91.1001"/>
</g>
<!-- src/modules/control -->
<g id="node6" class="node">
<title>src/modules/control</title>
<g id="a_node6"><a xlink:href="src/modules/control" xlink:title="control">
<polygon fill="#ffffcc" stroke="#000000" points="252,-98 200,-98 198,-96 198,-80 250,-80 252,-82 252,-98"/>
<polyline fill="none" stroke="#000000" points="250,-96 198,-96 "/>
<polyline fill="none" stroke="#000000" points="250,-96 250,-80 "/>
<polyline fill="none" stroke="#000000" points="250,-96 252,-98 "/>
<text text-anchor="middle" x="225" y="-86.8" font-family="Helvetica,sans-Serif" font-size="9.00" fill="#000000">control</text>
</a>
</g>
</g>
<!-- src/scene/ReaderScene.tsx&#45;&gt;src/modules/control -->
<g id="edge32" class="edge">
<title>src/scene/ReaderScene.tsx&#45;&gt;src/modules/control</title>
<path fill="none" stroke="#000000" stroke-width="2" stroke-opacity="0.200000" d="M173.058,-89C173.058,-89 191.8989,-89 191.8989,-89"/>
<polygon fill="#000000" fill-opacity="0.200000" stroke="#000000" stroke-width="2" stroke-opacity="0.200000" points="191.899,-91.1001 197.8989,-89 191.8989,-86.9001 191.899,-91.1001"/>
</g>
<!-- src/modules/display -->
<g id="node7" class="node">
<title>src/modules/display</title>
<g id="a_node7"><a xlink:href="src/modules/display" xlink:title="display">
<polygon fill="#ffffcc" stroke="#000000" points="454,-110 402,-110 400,-108 400,-92 452,-92 454,-94 454,-110"/>
<polyline fill="none" stroke="#000000" points="452,-108 400,-108 "/>
<polyline fill="none" stroke="#000000" points="452,-108 452,-92 "/>
<polyline fill="none" stroke="#000000" points="452,-108 454,-110 "/>
<text text-anchor="middle" x="427" y="-98.8" font-family="Helvetica,sans-Serif" font-size="9.00" fill="#000000">display</text>
</a>
</g>
</g>
<!-- src/scene/ReaderScene.tsx&#45;&gt;src/modules/display -->
<g id="edge33" class="edge">
<title>src/scene/ReaderScene.tsx&#45;&gt;src/modules/display</title>
<path fill="none" stroke="#000000" stroke-width="2" stroke-opacity="0.200000" d="M156,-98.0185C156,-104.6456 156,-112.5 156,-112.5 156,-112.5 409,-112.5 409,-112.5 409,-112.5 409,-112.2783 409,-112.2783"/>
<polygon fill="#000000" fill-opacity="0.200000" stroke="#000000" stroke-width="2" stroke-opacity="0.200000" points="411.1003,-116.2826 409,-110.2827 406.9003,-116.2828 411.1003,-116.2826"/>
</g>
<!-- src/modules/river -->
<g id="node8" class="node">
<title>src/modules/river</title>
<g id="a_node8"><a xlink:href="src/modules/river" xlink:title="river">
<polygon fill="#ffffcc" stroke="#000000" points="454,-166 402,-166 400,-164 400,-148 452,-148 454,-150 454,-166"/>
<polyline fill="none" stroke="#000000" points="452,-164 400,-164 "/>
<polyline fill="none" stroke="#000000" points="452,-164 452,-148 "/>
<polyline fill="none" stroke="#000000" points="452,-164 454,-166 "/>
<text text-anchor="middle" x="427" y="-154.8" font-family="Helvetica,sans-Serif" font-size="9.00" fill="#000000">river</text>
</a>
</g>
</g>
<!-- src/scene/ReaderScene.tsx&#45;&gt;src/modules/river -->
<g id="edge36" class="edge">
<title>src/scene/ReaderScene.tsx&#45;&gt;src/modules/river</title>
<path fill="none" stroke="#000000" stroke-width="2" stroke-opacity="0.200000" d="M121,-98.0003C121,-117.6002 121,-162.4 121,-162.4 121,-162.4 393.8445,-162.4 393.8445,-162.4"/>
<polygon fill="#000000" fill-opacity="0.200000" stroke="#000000" stroke-width="2" stroke-opacity="0.200000" points="393.8446,-164.5001 399.8445,-162.4 393.8445,-160.3001 393.8446,-164.5001"/>
</g>
<!-- src/modules/focus -->
<g id="node10" class="node">
<title>src/modules/focus</title>
<g id="a_node10"><a xlink:href="src/modules/focus" xlink:title="focus">
<polygon fill="#ffffcc" stroke="#000000" points="521,-180 469,-180 467,-178 467,-162 519,-162 521,-164 521,-180"/>
<polyline fill="none" stroke="#000000" points="519,-178 467,-178 "/>
<polyline fill="none" stroke="#000000" points="519,-178 519,-162 "/>
<polyline fill="none" stroke="#000000" points="519,-178 521,-180 "/>
<text text-anchor="middle" x="494" y="-168.8" font-family="Helvetica,sans-Serif" font-size="9.00" fill="#000000">focus</text>
</a>
</g>
</g>
<!-- src/scene/ReaderScene.tsx&#45;&gt;src/modules/focus -->
<g id="edge35" class="edge">
<title>src/scene/ReaderScene.tsx&#45;&gt;src/modules/focus</title>
<path fill="none" stroke="#000000" stroke-width="2" stroke-opacity="0.200000" d="M104,-98.0345C104,-120.3906 104,-176.5 104,-176.5 104,-176.5 460.8856,-176.5 460.8856,-176.5"/>
<polygon fill="#000000" fill-opacity="0.200000" stroke="#000000" stroke-width="2" stroke-opacity="0.200000" points="460.8856,-178.6001 466.8856,-176.5 460.8856,-174.4001 460.8856,-178.6001"/>
</g>
<!-- src/modules/selection -->
<g id="node11" class="node">
<title>src/modules/selection</title>
<g id="a_node11"><a xlink:href="src/modules/selection" xlink:title="selection">
<polygon fill="#ffffcc" stroke="#000000" points="521,-110 469,-110 467,-108 467,-92 519,-92 521,-94 521,-110"/>
<polyline fill="none" stroke="#000000" points="519,-108 467,-108 "/>
<polyline fill="none" stroke="#000000" points="519,-108 519,-92 "/>
<polyline fill="none" stroke="#000000" points="519,-108 521,-110 "/>
<text text-anchor="middle" x="494" y="-98.8" font-family="Helvetica,sans-Serif" font-size="9.00" fill="#000000">selection</text>
</a>
</g>
</g>
<!-- src/scene/ReaderScene.tsx&#45;&gt;src/modules/selection -->
<g id="edge37" class="edge">
<title>src/scene/ReaderScene.tsx&#45;&gt;src/modules/selection</title>
<path fill="none" stroke="#000000" stroke-width="2" stroke-opacity="0.200000" d="M139,-98.0176C139,-106.3672 139,-117.5 139,-117.5 139,-117.5 485,-117.5 485,-117.5 485,-117.5 485,-116.0224 485,-116.0224"/>
<polygon fill="#000000" fill-opacity="0.200000" stroke="#000000" stroke-width="2" stroke-opacity="0.200000" points="487.1001,-116.0224 485,-110.0224 482.9001,-116.0225 487.1001,-116.0224"/>
</g>
<!-- src/modules/extraction -->
<g id="node12" class="node">
<title>src/modules/extraction</title>
<g id="a_node12"><a xlink:href="src/modules/extraction" xlink:title="extraction">
<polygon fill="#ffffcc" stroke="#000000" points="253,-68 199,-68 197,-66 197,-50 251,-50 253,-52 253,-68"/>
<polyline fill="none" stroke="#000000" points="251,-66 197,-66 "/>
<polyline fill="none" stroke="#000000" points="251,-66 251,-50 "/>
<polyline fill="none" stroke="#000000" points="251,-66 253,-68 "/>
<text text-anchor="middle" x="225" y="-56.8" font-family="Helvetica,sans-Serif" font-size="9.00" fill="#000000">extraction</text>
</a>
</g>
</g>
<!-- src/scene/ReaderScene.tsx&#45;&gt;src/modules/extraction -->
<g id="edge34" class="edge">
<title>src/scene/ReaderScene.tsx&#45;&gt;src/modules/extraction</title>
<path fill="none" stroke="#000000" stroke-width="2" stroke-opacity="0.200000" d="M130,-79.836C130,-71.0135 130,-59 130,-59 130,-59 190.7541,-59 190.7541,-59"/>
<polygon fill="#000000" fill-opacity="0.200000" stroke="#000000" stroke-width="2" stroke-opacity="0.200000" points="190.7541,-61.1001 196.7541,-59 190.754,-56.9001 190.7541,-61.1001"/>
</g>
<!-- src/modules/cards -->
<g id="node3" class="node">
<title>src/modules/cards</title>
<g id="a_node3"><a xlink:href="src/modules/cards" xlink:title="cards">
<polygon fill="#ffffcc" stroke="#000000" points="320,-110 268,-110 266,-108 266,-92 318,-92 320,-94 320,-110"/>
<polyline fill="none" stroke="#000000" points="318,-108 266,-108 "/>
<polyline fill="none" stroke="#000000" points="318,-108 318,-92 "/>
<polyline fill="none" stroke="#000000" points="318,-108 320,-110 "/>
<text text-anchor="middle" x="293" y="-98.8" font-family="Helvetica,sans-Serif" font-size="9.00" fill="#000000">cards</text>
</a>
</g>
</g>
<!-- src/modules/text -->
<g id="node4" class="node">
<title>src/modules/text</title>
<g id="a_node4"><a xlink:href="src/modules/text" xlink:title="text">
<polygon fill="#ffffcc" stroke="#000000" points="521,-145 469,-145 467,-143 467,-127 519,-127 521,-129 521,-145"/>
<polyline fill="none" stroke="#000000" points="519,-143 467,-143 "/>
<polyline fill="none" stroke="#000000" points="519,-143 519,-127 "/>
<polyline fill="none" stroke="#000000" points="519,-143 521,-145 "/>
<text text-anchor="middle" x="494" y="-133.8" font-family="Helvetica,sans-Serif" font-size="9.00" fill="#000000">text</text>
</a>
</g>
</g>
<!-- src/modules/cards&#45;&gt;src/modules/text -->
<g id="edge2" class="edge">
<title>src/modules/cards&#45;&gt;src/modules/text</title>
<path fill="none" stroke="#000000" stroke-width="2" stroke-opacity="0.200000" d="M293,-110.3803C293,-121.8485 293,-139.75 293,-139.75 293,-139.75 460.8922,-139.75 460.8922,-139.75"/>
<polygon fill="#000000" fill-opacity="0.200000" stroke="#000000" stroke-width="2" stroke-opacity="0.200000" points="460.8923,-141.8501 466.8922,-139.75 460.8922,-137.6501 460.8923,-141.8501"/>
</g>
<!-- src/modules/db -->
<g id="node5" class="node">
<title>src/modules/db</title>
<g id="a_node5"><a xlink:href="src/modules/db" xlink:title="db">
<polygon fill="#ffffcc" stroke="#000000" points="387,-138 335,-138 333,-136 333,-120 385,-120 387,-122 387,-138"/>
<polyline fill="none" stroke="#000000" points="385,-136 333,-136 "/>
<polyline fill="none" stroke="#000000" points="385,-136 385,-120 "/>
<polyline fill="none" stroke="#000000" points="385,-136 387,-138 "/>
<text text-anchor="middle" x="360" y="-126.8" font-family="Helvetica,sans-Serif" font-size="9.00" fill="#000000">db</text>
</a>
</g>
</g>
<!-- src/modules/cards&#45;&gt;src/modules/db -->
<g id="edge3" class="edge">
<title>src/modules/cards&#45;&gt;src/modules/db</title>
<path fill="none" stroke="#000000" stroke-width="2" stroke-opacity="0.200000" d="M326.2515,-104C326.2515,-104 360,-104 360,-104 360,-104 360,-113.9744 360,-113.9744"/>
<polygon fill="#000000" fill-opacity="0.200000" stroke="#000000" stroke-width="2" stroke-opacity="0.200000" points="326.2515,-101.9001 320.2515,-104 326.2514,-106.1001 326.2515,-101.9001"/>
<polygon fill="#000000" fill-opacity="0.200000" stroke="#000000" stroke-width="2" stroke-opacity="0.200000" points="357.9001,-113.9744 360,-119.9744 362.1001,-113.9745 357.9001,-113.9744"/>
</g>
<!-- src/modules/db&#45;&gt;src/modules/display -->
<g id="edge12" class="edge">
<title>src/modules/db&#45;&gt;src/modules/display</title>
<path fill="none" stroke="#000000" stroke-width="2" stroke-opacity="0.200000" d="M393.2515,-123.5C393.2515,-123.5 427,-123.5 427,-123.5 427,-123.5 427,-116.1516 427,-116.1516"/>
<polygon fill="#000000" fill-opacity="0.200000" stroke="#000000" stroke-width="2" stroke-opacity="0.200000" points="393.2515,-121.4001 387.2515,-123.5 393.2514,-125.6001 393.2515,-121.4001"/>
<polygon fill="#000000" fill-opacity="0.200000" stroke="#000000" stroke-width="2" stroke-opacity="0.200000" points="429.1001,-116.1516 427,-110.1516 424.9001,-116.1516 429.1001,-116.1516"/>
</g>
<!-- src/modules/db&#45;&gt;src/modules/river -->
<g id="edge13" class="edge">
<title>src/modules/db&#45;&gt;src/modules/river</title>
<path fill="none" stroke="#000000" stroke-width="2" stroke-opacity="0.200000" d="M393.3016,-134.3333C393.3016,-134.3333 418,-134.3333 418,-134.3333 418,-134.3333 418,-141.7806 418,-141.7806"/>
<polygon fill="#000000" fill-opacity="0.200000" stroke="#000000" stroke-width="2" stroke-opacity="0.200000" points="393.3017,-132.2334 387.3016,-134.3333 393.3016,-136.4334 393.3017,-132.2334"/>
<polygon fill="#000000" fill-opacity="0.200000" stroke="#000000" stroke-width="2" stroke-opacity="0.200000" points="415.9001,-141.7806 418,-147.7806 420.1001,-141.7806 415.9001,-141.7806"/>
</g>
<!-- src/modules/control&#45;&gt;src/modules/cards -->
<g id="edge6" class="edge">
<title>src/modules/control&#45;&gt;src/modules/cards</title>
<path fill="none" stroke="#000000" stroke-width="2" stroke-opacity="0.200000" d="M243,-98.2435C243,-101.3303 243,-104 243,-104 243,-104 259.9513,-104 259.9513,-104"/>
<polygon fill="#000000" fill-opacity="0.200000" stroke="#000000" stroke-width="2" stroke-opacity="0.200000" points="259.9513,-106.1001 265.9513,-104 259.9512,-101.9001 259.9513,-106.1001"/>
</g>
<!-- src/modules/control&#45;&gt;src/modules/text -->
<g id="edge9" class="edge">
<title>src/modules/control&#45;&gt;src/modules/text</title>
<path fill="none" stroke="#000000" stroke-width="2" stroke-opacity="0.200000" d="M225,-98.1448C225,-113.1864 225,-141.5 225,-141.5 225,-141.5 460.9756,-141.5 460.9756,-141.5"/>
<polygon fill="#000000" fill-opacity="0.200000" stroke="#000000" stroke-width="2" stroke-opacity="0.200000" points="460.9757,-143.6001 466.9756,-141.5 460.9756,-139.4001 460.9757,-143.6001"/>
</g>
<!-- src/modules/control&#45;&gt;src/modules/db -->
<g id="edge4" class="edge">
<title>src/modules/control&#45;&gt;src/modules/db</title>
<path fill="none" stroke="#000000" stroke-width="2" stroke-opacity="0.200000" d="M234,-98.2773C234,-110.0938 234,-129 234,-129 234,-129 326.9698,-129 326.9698,-129"/>
<polygon fill="#000000" fill-opacity="0.200000" stroke="#000000" stroke-width="2" stroke-opacity="0.200000" points="326.9699,-131.1001 332.9698,-129 326.9698,-126.9001 326.9699,-131.1001"/>
</g>
<!-- src/modules/control&#45;&gt;src/modules/display -->
<g id="edge5" class="edge">
<title>src/modules/control&#45;&gt;src/modules/display</title>
<path fill="none" stroke="#000000" stroke-width="2" stroke-opacity="0.200000" d="M252.2426,-88C307.38,-88 427,-88 427,-88 427,-88 427,-88.383 427,-88.383"/>
<polygon fill="#000000" fill-opacity="0.200000" stroke="#000000" stroke-width="2" stroke-opacity="0.200000" points="424.9002,-85.8301 427,-91.8301 429.1002,-85.8302 424.9002,-85.8301"/>
</g>
<!-- src/modules/control&#45;&gt;src/modules/river -->
<g id="edge7" class="edge">
<title>src/modules/control&#45;&gt;src/modules/river</title>
<path fill="none" stroke="#000000" stroke-width="2" stroke-opacity="0.200000" d="M216,-98.1251C216,-117.0453 216,-158.8 216,-158.8 216,-158.8 393.8474,-158.8 393.8474,-158.8"/>
<polygon fill="#000000" fill-opacity="0.200000" stroke="#000000" stroke-width="2" stroke-opacity="0.200000" points="393.8474,-160.9001 399.8474,-158.8 393.8474,-156.7001 393.8474,-160.9001"/>
</g>
<!-- src/shared -->
<g id="node9" class="node">
<title>src/shared</title>
<g id="a_node9"><a xlink:href="src/shared" xlink:title="shared">
<polygon fill="#ffffcc" stroke="#000000" points="521,-34 469,-34 467,-32 467,-16 519,-16 521,-18 521,-34"/>
<polyline fill="none" stroke="#000000" points="519,-32 467,-32 "/>
<polyline fill="none" stroke="#000000" points="519,-32 519,-16 "/>
<polyline fill="none" stroke="#000000" points="519,-32 521,-34 "/>
<text text-anchor="middle" x="494" y="-22.8" font-family="Helvetica,sans-Serif" font-size="9.00" fill="#000000">shared</text>
</a>
</g>
</g>
<!-- src/modules/control&#45;&gt;src/shared -->
<g id="edge8" class="edge">
<title>src/modules/control&#45;&gt;src/shared</title>
<path fill="none" stroke="#000000" stroke-width="2" stroke-opacity="0.200000" d="M252.1352,-84C322.9678,-84 508,-84 508,-84 508,-84 508,-40.2188 508,-40.2188"/>
<polygon fill="#000000" fill-opacity="0.200000" stroke="#000000" stroke-width="2" stroke-opacity="0.200000" points="510.1001,-40.2187 508,-34.2188 505.9001,-40.2188 510.1001,-40.2187"/>
</g>
<!-- src/modules/control&#45;&gt;src/modules/focus -->
<g id="edge10" class="edge">
<title>src/modules/control&#45;&gt;src/modules/focus</title>
<path fill="none" stroke="#000000" stroke-width="2" stroke-opacity="0.200000" d="M207,-98.3104C207,-120.1808 207,-173 207,-173 207,-173 460.9997,-173 460.9997,-173"/>
<polygon fill="#000000" fill-opacity="0.200000" stroke="#000000" stroke-width="2" stroke-opacity="0.200000" points="460.9998,-175.1001 466.9997,-173 460.9997,-170.9001 460.9998,-175.1001"/>
</g>
<!-- src/modules/display&#45;&gt;src/modules/cards -->
<g id="edge15" class="edge">
<title>src/modules/display&#45;&gt;src/modules/cards</title>
<path fill="none" stroke="#000000" stroke-width="2" stroke-opacity="0.200000" d="M399.8831,-98C399.8831,-98 326.0766,-98 326.0766,-98"/>
<polygon fill="#000000" fill-opacity="0.200000" stroke="#000000" stroke-width="2" stroke-opacity="0.200000" points="326.0766,-95.9001 320.0766,-98 326.0765,-100.1001 326.0766,-95.9001"/>
</g>
<!-- src/modules/display&#45;&gt;src/modules/text -->
<g id="edge17" class="edge">
<title>src/modules/display&#45;&gt;src/modules/text</title>
<path fill="none" stroke="#000000" stroke-width="2" stroke-opacity="0.200000" d="M436,-110.0622C436,-118.7866 436,-130.6667 436,-130.6667 436,-130.6667 460.6984,-130.6667 460.6984,-130.6667"/>
<polygon fill="#000000" fill-opacity="0.200000" stroke="#000000" stroke-width="2" stroke-opacity="0.200000" points="460.6984,-132.7668 466.6984,-130.6667 460.6983,-128.5668 460.6984,-132.7668"/>
</g>
<!-- src/modules/display&#45;&gt;src/shared -->
<g id="edge14" class="edge">
<title>src/modules/display&#45;&gt;src/shared</title>
<path fill="none" stroke="#000000" stroke-width="2" stroke-opacity="0.200000" d="M441,-91.9377C441,-71.187 441,-22 441,-22 441,-22 460.879,-22 460.879,-22"/>
<polygon fill="#000000" fill-opacity="0.200000" stroke="#000000" stroke-width="2" stroke-opacity="0.200000" points="460.879,-24.1001 466.879,-22 460.8789,-19.9001 460.879,-24.1001"/>
</g>
<!-- src/modules/display&#45;&gt;src/modules/selection -->
<g id="edge16" class="edge">
<title>src/modules/display&#45;&gt;src/modules/selection</title>
<path fill="none" stroke="#000000" stroke-width="2" stroke-opacity="0.200000" d="M454.2515,-98C454.2515,-98 460.9899,-98 460.9899,-98"/>
<polygon fill="#000000" fill-opacity="0.200000" stroke="#000000" stroke-width="2" stroke-opacity="0.200000" points="460.9899,-100.1001 466.9899,-98 460.9899,-95.9001 460.9899,-100.1001"/>
</g>
<!-- src/modules/river&#45;&gt;src/modules/cards -->
<g id="edge25" class="edge">
<title>src/modules/river&#45;&gt;src/modules/cards</title>
<path fill="none" stroke="#000000" stroke-width="2" stroke-opacity="0.200000" d="M399.6949,-151.6C357.1836,-151.6 280,-151.6 280,-151.6 280,-151.6 280,-116.2808 280,-116.2808"/>
<polygon fill="#000000" fill-opacity="0.200000" stroke="#000000" stroke-width="2" stroke-opacity="0.200000" points="282.1001,-116.2808 280,-110.2808 277.9001,-116.2809 282.1001,-116.2808"/>
</g>
<!-- src/modules/river&#45;&gt;src/modules/text -->
<g id="edge29" class="edge">
<title>src/modules/river&#45;&gt;src/modules/text</title>
<path fill="none" stroke="#000000" stroke-width="2" stroke-opacity="0.200000" d="M445,-147.9051C445,-145.3481 445,-143.25 445,-143.25 445,-143.25 460.9203,-143.25 460.9203,-143.25"/>
<polygon fill="#000000" fill-opacity="0.200000" stroke="#000000" stroke-width="2" stroke-opacity="0.200000" points="460.9203,-145.3501 466.9203,-143.25 460.9202,-141.1501 460.9203,-145.3501"/>
</g>
<!-- src/modules/river&#45;&gt;src/shared -->
<g id="edge27" class="edge">
<title>src/modules/river&#45;&gt;src/shared</title>
<path fill="none" stroke="#000000" stroke-width="2" stroke-opacity="0.200000" d="M454.2783,-151.5C457.123,-151.5 459,-151.5 459,-151.5 459,-151.5 459,-28 459,-28 459,-28 460.7676,-28 460.7676,-28"/>
<polygon fill="#000000" fill-opacity="0.200000" stroke="#000000" stroke-width="2" stroke-opacity="0.200000" points="460.7677,-30.1001 466.7676,-28 460.7676,-25.9001 460.7677,-30.1001"/>
</g>
<!-- src/modules/river&#45;&gt;src/modules/focus -->
<g id="edge26" class="edge">
<title>src/modules/river&#45;&gt;src/modules/focus</title>
<path fill="none" stroke="#000000" stroke-width="2" stroke-opacity="0.200000" d="M454.2515,-158.5C472.8008,-158.5 494,-158.5 494,-158.5 494,-158.5 494,-158.8416 494,-158.8416"/>
<polygon fill="#000000" fill-opacity="0.200000" stroke="#000000" stroke-width="2" stroke-opacity="0.200000" points="491.9002,-155.9156 494,-161.9157 496.1002,-155.9157 491.9002,-155.9156"/>
</g>
<!-- src/modules/river&#45;&gt;src/modules/selection -->
<g id="edge28" class="edge">
<title>src/modules/river&#45;&gt;src/modules/selection</title>
<path fill="none" stroke="#000000" stroke-width="2" stroke-opacity="0.200000" d="M454.2854,-155C459.3064,-155 463,-155 463,-155 463,-155 463,-104 463,-104 463,-104 463.3801,-104 463.3801,-104"/>
<polygon fill="#000000" fill-opacity="0.200000" stroke="#000000" stroke-width="2" stroke-opacity="0.200000" points="460.8013,-106.1002 466.8012,-104 460.8011,-101.9002 460.8013,-106.1002"/>
</g>
<!-- src/modules/selection&#45;&gt;src/modules/cards -->
<g id="edge31" class="edge">
<title>src/modules/selection&#45;&gt;src/modules/cards</title>
<path fill="none" stroke="#000000" stroke-width="2" stroke-opacity="0.200000" d="M503,-110.2602C503,-112.8638 503,-115 503,-115 503,-115 307,-115 307,-115 307,-115 307,-114.526 307,-114.526"/>
<polygon fill="#000000" fill-opacity="0.200000" stroke="#000000" stroke-width="2" stroke-opacity="0.200000" points="309.1001,-116.2602 307,-110.2602 304.9001,-116.2603 309.1001,-116.2602"/>
</g>
<!-- src/modules/extraction&#45;&gt;src/modules/cards -->
<g id="edge19" class="edge">
<title>src/modules/extraction&#45;&gt;src/modules/cards</title>
<path fill="none" stroke="#000000" stroke-width="2" stroke-opacity="0.200000" d="M253.0508,-65.4286C271.7822,-65.4286 293,-65.4286 293,-65.4286 293,-65.4286 293,-85.654 293,-85.654"/>
<polygon fill="#000000" fill-opacity="0.200000" stroke="#000000" stroke-width="2" stroke-opacity="0.200000" points="290.9001,-85.654 293,-91.654 295.1001,-85.6541 290.9001,-85.654"/>
</g>
<!-- src/modules/extraction&#45;&gt;src/modules/display -->
<g id="edge20" class="edge">
<title>src/modules/extraction&#45;&gt;src/modules/display</title>
<path fill="none" stroke="#000000" stroke-width="2" stroke-opacity="0.200000" d="M253.2952,-62.8571C306.0199,-62.8571 414,-62.8571 414,-62.8571 414,-62.8571 414,-85.7667 414,-85.7667"/>
<polygon fill="#000000" fill-opacity="0.200000" stroke="#000000" stroke-width="2" stroke-opacity="0.200000" points="411.9001,-85.7666 414,-91.7667 416.1001,-85.7667 411.9001,-85.7666"/>
</g>
<!-- src/modules/extraction&#45;&gt;src/modules/river -->
<g id="edge22" class="edge">
<title>src/modules/extraction&#45;&gt;src/modules/river</title>
<path fill="none" stroke="#000000" stroke-width="2" stroke-opacity="0.200000" d="M253.0433,-52.5714C258.2038,-52.5714 262,-52.5714 262,-52.5714 262,-52.5714 262,-155.2 262,-155.2 262,-155.2 393.7536,-155.2 393.7536,-155.2"/>
<polygon fill="#000000" fill-opacity="0.200000" stroke="#000000" stroke-width="2" stroke-opacity="0.200000" points="393.7536,-157.3001 399.7536,-155.2 393.7536,-153.1001 393.7536,-157.3001"/>
</g>
<!-- src/modules/extraction&#45;&gt;src/shared -->
<g id="edge24" class="edge">
<title>src/modules/extraction&#45;&gt;src/shared</title>
<path fill="none" stroke="#000000" stroke-width="2" stroke-opacity="0.200000" d="M253.0265,-57.7143C321.9241,-57.7143 494,-57.7143 494,-57.7143 494,-57.7143 494,-40.2871 494,-40.2871"/>
<polygon fill="#000000" fill-opacity="0.200000" stroke="#000000" stroke-width="2" stroke-opacity="0.200000" points="496.1001,-40.2871 494,-34.2871 491.9001,-40.2871 496.1001,-40.2871"/>
</g>
<!-- src/modules/extraction&#45;&gt;src/modules/focus -->
<g id="edge21" class="edge">
<title>src/modules/extraction&#45;&gt;src/modules/focus</title>
<path fill="none" stroke="#000000" stroke-width="2" stroke-opacity="0.200000" d="M253.1307,-55.1429C256.0644,-55.1429 258,-55.1429 258,-55.1429 258,-55.1429 258,-169.5 258,-169.5 258,-169.5 460.9278,-169.5 460.9278,-169.5"/>
<polygon fill="#000000" fill-opacity="0.200000" stroke="#000000" stroke-width="2" stroke-opacity="0.200000" points="460.9278,-171.6001 466.9278,-169.5 460.9278,-167.4001 460.9278,-171.6001"/>
</g>
<!-- src/modules/extraction&#45;&gt;src/modules/selection -->
<g id="edge23" class="edge">
<title>src/modules/extraction&#45;&gt;src/modules/selection</title>
<path fill="none" stroke="#000000" stroke-width="2" stroke-opacity="0.200000" d="M253.3746,-60.2857C320.0273,-60.2857 481,-60.2857 481,-60.2857 481,-60.2857 481,-85.9642 481,-85.9642"/>
<polygon fill="#000000" fill-opacity="0.200000" stroke="#000000" stroke-width="2" stroke-opacity="0.200000" points="478.9001,-85.9641 481,-91.9642 483.1001,-85.9642 478.9001,-85.9641"/>
</g>
</g>
</svg>
