<?xml version="1.0" encoding="UTF-8" standalone="no"?>
<!DOCTYPE svg PUBLIC "-//W3C//DTD SVG 1.1//EN"
 "http://www.w3.org/Graphics/SVG/1.1/DTD/svg11.dtd">
<!-- Generated by graphviz version 2.40.1 (20161225.0304)
 -->
<!-- Title: dependency&#45;cruiser output Pages: 1 -->
<svg width="685pt" height="206pt"
 viewBox="0.00 0.00 685.00 206.00" xmlns="http://www.w3.org/2000/svg" xmlns:xlink="http://www.w3.org/1999/xlink">
<g id="graph0" class="graph" transform="scale(1 1) rotate(0) translate(4 202)">
<title>dependency&#45;cruiser output</title>
<polygon fill="#ffffff" stroke="transparent" points="-4,4 -4,-202 681,-202 681,4 -4,4"/>
<g id="clust1" class="cluster">
<title>cluster_src</title>
<path fill="#ffffff" stroke="#000000" stroke-width="2" d="M20,-8C20,-8 657,-8 657,-8 663,-8 669,-14 669,-20 669,-20 669,-178 669,-178 669,-184 663,-190 657,-190 657,-190 20,-190 20,-190 14,-190 8,-184 8,-178 8,-178 8,-20 8,-20 8,-14 14,-8 20,-8"/>
<text text-anchor="middle" x="338.5" y="-178.8" font-family="Helvetica,sans-Serif" font-weight="bold" font-size="9.00" fill="#000000">src</text>
</g>
<g id="clust2" class="cluster">
<title>cluster_src/modules</title>
<path fill="#ffffff" stroke="#000000" stroke-width="2" d="M201,-42C201,-42 649,-42 649,-42 655,-42 661,-48 661,-54 661,-54 661,-152 661,-152 661,-158 655,-164 649,-164 649,-164 201,-164 201,-164 195,-164 189,-158 189,-152 189,-152 189,-54 189,-54 189,-48 195,-42 201,-42"/>
<text text-anchor="middle" x="425" y="-152.8" font-family="Helvetica,sans-Serif" font-weight="bold" font-size="9.00" fill="#000000">modules</text>
</g>
<g id="clust3" class="cluster">
<title>cluster_src/scene</title>
<path fill="#ffffff" stroke="#000000" stroke-width="2" d="M90,-107C90,-107 169,-107 169,-107 175,-107 181,-113 181,-119 181,-119 181,-147 181,-147 181,-153 175,-159 169,-159 169,-159 90,-159 90,-159 84,-159 78,-153 78,-147 78,-147 78,-119 78,-119 78,-113 84,-107 90,-107"/>
<text text-anchor="middle" x="129.5" y="-147.8" font-family="Helvetica,sans-Serif" font-weight="bold" font-size="9.00" fill="#000000">scene</text>
</g>
<!-- src/index.tsx -->
<g id="node1" class="node">
<title>src/index.tsx</title>
<g id="a_node1"><a xlink:href="src/index.tsx" xlink:title="index.tsx">
<path fill="#bbfeff" stroke="#000000" d="M64,-133C64,-133 22,-133 22,-133 19,-133 16,-130 16,-127 16,-127 16,-121 16,-121 16,-118 19,-115 22,-115 22,-115 64,-115 64,-115 67,-115 70,-118 70,-121 70,-121 70,-127 70,-127 70,-130 67,-133 64,-133"/>
<text text-anchor="middle" x="43" y="-121.8" font-family="Helvetica,sans-Serif" font-size="9.00" fill="#000000">index.tsx</text>
</a>
</g>
</g>
<!-- src/scene/ReaderScene.tsx -->
<g id="node2" class="node">
<title>src/scene/ReaderScene.tsx</title>
<g id="a_node2"><a xlink:href="src/scene/ReaderScene.tsx" xlink:title="ReaderScene.tsx">
<path fill="#bbfeff" stroke="#000000" d="M167,-133C167,-133 92,-133 92,-133 89,-133 86,-130 86,-127 86,-127 86,-121 86,-121 86,-118 89,-115 92,-115 92,-115 167,-115 167,-115 170,-115 173,-118 173,-121 173,-121 173,-127 173,-127 173,-130 170,-133 167,-133"/>
<text text-anchor="middle" x="129.5" y="-121.8" font-family="Helvetica,sans-Serif" font-size="9.00" fill="#000000">ReaderScene.tsx</text>
</a>
</g>
</g>
<!-- src/index.tsx&#45;&gt;src/scene/ReaderScene.tsx -->
<g id="edge1" class="edge">
<title>src/index.tsx&#45;&gt;src/scene/ReaderScene.tsx</title>
<path fill="none" stroke="#000000" stroke-width="2" stroke-opacity="0.200000" d="M70.3691,-124C70.3691,-124 79.8699,-124 79.8699,-124"/>
<polygon fill="#000000" fill-opacity="0.200000" stroke="#000000" stroke-width="2" stroke-opacity="0.200000" points="79.8699,-126.1001 85.8699,-124 79.8698,-121.9001 79.8699,-126.1001"/>
</g>
<!-- src/modules/control -->
<g id="node6" class="node">
<title>src/modules/control</title>
<g id="a_node6"><a xlink:href="src/modules/control" xlink:title="control">
<polygon fill="#ffffcc" stroke="#000000" points="251,-124 199,-124 197,-122 197,-106 249,-106 251,-108 251,-124"/>
<polyline fill="none" stroke="#000000" points="249,-122 197,-122 "/>
<polyline fill="none" stroke="#000000" points="249,-122 249,-106 "/>
<polyline fill="none" stroke="#000000" points="249,-122 251,-124 "/>
<text text-anchor="middle" x="224" y="-112.8" font-family="Helvetica,sans-Serif" font-size="9.00" fill="#000000">control</text>
</a>
</g>
</g>
<!-- src/scene/ReaderScene.tsx&#45;&gt;src/modules/control -->
<g id="edge27" class="edge">
<title>src/scene/ReaderScene.tsx&#45;&gt;src/modules/control</title>
<path fill="none" stroke="#000000" stroke-width="2" stroke-opacity="0.200000" d="M173.154,-119.5C173.154,-119.5 190.9873,-119.5 190.9873,-119.5"/>
<polygon fill="#000000" fill-opacity="0.200000" stroke="#000000" stroke-width="2" stroke-opacity="0.200000" points="190.9873,-121.6001 196.9873,-119.5 190.9873,-117.4001 190.9873,-121.6001"/>
</g>
<!-- src/modules/display -->
<g id="node7" class="node">
<title>src/modules/display</title>
<g id="a_node7"><a xlink:href="src/modules/display" xlink:title="display">
<polygon fill="#ffffcc" stroke="#000000" points="452,-96 400,-96 398,-94 398,-78 450,-78 452,-80 452,-96"/>
<polyline fill="none" stroke="#000000" points="450,-94 398,-94 "/>
<polyline fill="none" stroke="#000000" points="450,-94 450,-78 "/>
<polyline fill="none" stroke="#000000" points="450,-94 452,-96 "/>
<text text-anchor="middle" x="425" y="-84.8" font-family="Helvetica,sans-Serif" font-size="9.00" fill="#000000">display</text>
</a>
</g>
</g>
<!-- src/scene/ReaderScene.tsx&#45;&gt;src/modules/display -->
<g id="edge28" class="edge">
<title>src/scene/ReaderScene.tsx&#45;&gt;src/modules/display</title>
<path fill="none" stroke="#000000" stroke-width="2" stroke-opacity="0.200000" d="M173.1274,-130C257.3244,-130 434,-130 434,-130 434,-130 434,-102.1192 434,-102.1192"/>
<polygon fill="#000000" fill-opacity="0.200000" stroke="#000000" stroke-width="2" stroke-opacity="0.200000" points="436.1001,-102.1192 434,-96.1192 431.9001,-102.1192 436.1001,-102.1192"/>
</g>
<!-- src/modules/selection -->
<g id="node9" class="node">
<title>src/modules/selection</title>
<g id="a_node9"><a xlink:href="src/modules/selection" xlink:title="selection">
<polygon fill="#ffffcc" stroke="#000000" points="586,-118 534,-118 532,-116 532,-100 584,-100 586,-102 586,-118"/>
<polyline fill="none" stroke="#000000" points="584,-116 532,-116 "/>
<polyline fill="none" stroke="#000000" points="584,-116 584,-100 "/>
<polyline fill="none" stroke="#000000" points="584,-116 586,-118 "/>
<text text-anchor="middle" x="559" y="-106.8" font-family="Helvetica,sans-Serif" font-size="9.00" fill="#000000">selection</text>
</a>
</g>
</g>
<!-- src/scene/ReaderScene.tsx&#45;&gt;src/modules/selection -->
<g id="edge29" class="edge">
<title>src/scene/ReaderScene.tsx&#45;&gt;src/modules/selection</title>
<path fill="none" stroke="#000000" stroke-width="2" stroke-opacity="0.200000" d="M173.1482,-131.5C284.0616,-131.5 568,-131.5 568,-131.5 568,-131.5 568,-124.1516 568,-124.1516"/>
<polygon fill="#000000" fill-opacity="0.200000" stroke="#000000" stroke-width="2" stroke-opacity="0.200000" points="570.1001,-124.1516 568,-118.1516 565.9001,-124.1516 570.1001,-124.1516"/>
</g>
<!-- src/modules/cards -->
<g id="node3" class="node">
<title>src/modules/cards</title>
<g id="a_node3"><a xlink:href="src/modules/cards" xlink:title="cards">
<polygon fill="#ffffcc" stroke="#000000" points="318,-119 266,-119 264,-117 264,-101 316,-101 318,-103 318,-119"/>
<polyline fill="none" stroke="#000000" points="316,-117 264,-117 "/>
<polyline fill="none" stroke="#000000" points="316,-117 316,-101 "/>
<polyline fill="none" stroke="#000000" points="316,-117 318,-119 "/>
<text text-anchor="middle" x="291" y="-107.8" font-family="Helvetica,sans-Serif" font-size="9.00" fill="#000000">cards</text>
</a>
</g>
</g>
<!-- src/modules/text -->
<g id="node4" class="node">
<title>src/modules/text</title>
<g id="a_node4"><a xlink:href="src/modules/text" xlink:title="text">
<polygon fill="#ffffcc" stroke="#000000" points="653,-118 601,-118 599,-116 599,-100 651,-100 653,-102 653,-118"/>
<polyline fill="none" stroke="#000000" points="651,-116 599,-116 "/>
<polyline fill="none" stroke="#000000" points="651,-116 651,-100 "/>
<polyline fill="none" stroke="#000000" points="651,-116 653,-118 "/>
<text text-anchor="middle" x="626" y="-106.8" font-family="Helvetica,sans-Serif" font-size="9.00" fill="#000000">text</text>
</a>
</g>
</g>
<!-- src/modules/cards&#45;&gt;src/modules/text -->
<g id="edge2" class="edge">
<title>src/modules/cards&#45;&gt;src/modules/text</title>
<path fill="none" stroke="#000000" stroke-width="2" stroke-opacity="0.200000" d="M291,-119.2958C291,-123.2646 291,-127 291,-127 291,-127 617,-127 617,-127 617,-127 617,-124.4217 617,-124.4217"/>
<polygon fill="#000000" fill-opacity="0.200000" stroke="#000000" stroke-width="2" stroke-opacity="0.200000" points="619.1001,-124.4217 617,-118.4217 614.9001,-124.4218 619.1001,-124.4217"/>
</g>
<!-- src/modules/db -->
<g id="node5" class="node">
<title>src/modules/db</title>
<g id="a_node5"><a xlink:href="src/modules/db" xlink:title="db">
<polygon fill="#ffffcc" stroke="#000000" points="385,-68 333,-68 331,-66 331,-50 383,-50 385,-52 385,-68"/>
<polyline fill="none" stroke="#000000" points="383,-66 331,-66 "/>
<polyline fill="none" stroke="#000000" points="383,-66 383,-50 "/>
<polyline fill="none" stroke="#000000" points="383,-66 385,-68 "/>
<text text-anchor="middle" x="358" y="-56.8" font-family="Helvetica,sans-Serif" font-size="9.00" fill="#000000">db</text>
</a>
</g>
</g>
<!-- src/modules/cards&#45;&gt;src/modules/db -->
<g id="edge3" class="edge">
<title>src/modules/cards&#45;&gt;src/modules/db</title>
<path fill="none" stroke="#000000" stroke-width="2" stroke-opacity="0.200000" d="M324.3016,-104.4C324.3016,-104.4 349,-104.4 349,-104.4 349,-104.4 349,-74.1874 349,-74.1874"/>
<polygon fill="#000000" fill-opacity="0.200000" stroke="#000000" stroke-width="2" stroke-opacity="0.200000" points="324.3017,-102.3001 318.3016,-104.4 324.3016,-106.5001 324.3017,-102.3001"/>
<polygon fill="#000000" fill-opacity="0.200000" stroke="#000000" stroke-width="2" stroke-opacity="0.200000" points="351.1001,-74.1873 349,-68.1874 346.9001,-74.1874 351.1001,-74.1873"/>
</g>
<!-- src/modules/db&#45;&gt;src/modules/display -->
<g id="edge12" class="edge">
<title>src/modules/db&#45;&gt;src/modules/display</title>
<path fill="none" stroke="#000000" stroke-width="2" stroke-opacity="0.200000" d="M367,-74.0256C367,-74.0256 367,-84 367,-84 367,-84 391.6984,-84 391.6984,-84"/>
<polygon fill="#000000" fill-opacity="0.200000" stroke="#000000" stroke-width="2" stroke-opacity="0.200000" points="369.1001,-74.0255 367,-68.0256 364.9001,-74.0256 369.1001,-74.0255"/>
<polygon fill="#000000" fill-opacity="0.200000" stroke="#000000" stroke-width="2" stroke-opacity="0.200000" points="391.6984,-86.1001 397.6984,-84 391.6983,-81.9001 391.6984,-86.1001"/>
</g>
<!-- src/modules/river -->
<g id="node8" class="node">
<title>src/modules/river</title>
<g id="a_node8"><a xlink:href="src/modules/river" xlink:title="river">
<polygon fill="#ffffcc" stroke="#000000" points="519,-68 467,-68 465,-66 465,-50 517,-50 519,-52 519,-68"/>
<polyline fill="none" stroke="#000000" points="517,-66 465,-66 "/>
<polyline fill="none" stroke="#000000" points="517,-66 517,-50 "/>
<polyline fill="none" stroke="#000000" points="517,-66 519,-68 "/>
<text text-anchor="middle" x="492" y="-56.8" font-family="Helvetica,sans-Serif" font-size="9.00" fill="#000000">river</text>
</a>
</g>
</g>
<!-- src/modules/db&#45;&gt;src/modules/river -->
<g id="edge13" class="edge">
<title>src/modules/db&#45;&gt;src/modules/river</title>
<path fill="none" stroke="#000000" stroke-width="2" stroke-opacity="0.200000" d="M391.1169,-59C391.1169,-59 458.9234,-59 458.9234,-59"/>
<polygon fill="#000000" fill-opacity="0.200000" stroke="#000000" stroke-width="2" stroke-opacity="0.200000" points="458.9234,-61.1 464.9234,-59 458.9234,-56.9 458.9234,-61.1"/>
<polygon fill="#000000" fill-opacity="0.200000" stroke="#000000" stroke-width="2" stroke-opacity="0.200000" points="391.1169,-56.9 385.1169,-59 391.1169,-61.1 391.1169,-56.9"/>
</g>
<!-- src/modules/control&#45;&gt;src/modules/cards -->
<g id="edge6" class="edge">
<title>src/modules/control&#45;&gt;src/modules/cards</title>
<path fill="none" stroke="#000000" stroke-width="2" stroke-opacity="0.200000" d="M251.2515,-112.5C251.2515,-112.5 257.9899,-112.5 257.9899,-112.5"/>
<polygon fill="#000000" fill-opacity="0.200000" stroke="#000000" stroke-width="2" stroke-opacity="0.200000" points="257.9899,-114.6001 263.9899,-112.5 257.9899,-110.4001 257.9899,-114.6001"/>
</g>
<!-- src/modules/control&#45;&gt;src/modules/text -->
<g id="edge10" class="edge">
<title>src/modules/control&#45;&gt;src/modules/text</title>
<path fill="none" stroke="#000000" stroke-width="2" stroke-opacity="0.200000" d="M215,-124.2285C215,-126.6016 215,-128.5 215,-128.5 215,-128.5 635,-128.5 635,-128.5 635,-128.5 635,-124.2931 635,-124.2931"/>
<polygon fill="#000000" fill-opacity="0.200000" stroke="#000000" stroke-width="2" stroke-opacity="0.200000" points="637.1001,-124.2931 635,-118.2931 632.9001,-124.2932 637.1001,-124.2931"/>
</g>
<!-- src/modules/control&#45;&gt;src/modules/db -->
<g id="edge4" class="edge">
<title>src/modules/control&#45;&gt;src/modules/db</title>
<path fill="none" stroke="#000000" stroke-width="2" stroke-opacity="0.200000" d="M219,-105.7527C219,-89.8472 219,-59 219,-59 219,-59 324.8694,-59 324.8694,-59"/>
<polygon fill="#000000" fill-opacity="0.200000" stroke="#000000" stroke-width="2" stroke-opacity="0.200000" points="324.8695,-61.1001 330.8694,-59 324.8694,-56.9001 324.8695,-61.1001"/>
</g>
<!-- src/modules/control&#45;&gt;src/modules/display -->
<g id="edge5" class="edge">
<title>src/modules/control&#45;&gt;src/modules/display</title>
<path fill="none" stroke="#000000" stroke-width="2" stroke-opacity="0.200000" d="M241,-105.9744C241,-98.8135 241,-90 241,-90 241,-90 391.8502,-90 391.8502,-90"/>
<polygon fill="#000000" fill-opacity="0.200000" stroke="#000000" stroke-width="2" stroke-opacity="0.200000" points="391.8502,-92.1001 397.8502,-90 391.8501,-87.9001 391.8502,-92.1001"/>
</g>
<!-- src/modules/control&#45;&gt;src/modules/river -->
<g id="edge7" class="edge">
<title>src/modules/control&#45;&gt;src/modules/river</title>
<path fill="none" stroke="#000000" stroke-width="2" stroke-opacity="0.200000" d="M230,-105.6788C230,-93.3053 230,-73 230,-73 230,-73 479,-73 479,-73 479,-73 479,-72.526 479,-72.526"/>
<polygon fill="#000000" fill-opacity="0.200000" stroke="#000000" stroke-width="2" stroke-opacity="0.200000" points="481.1001,-74.2602 479,-68.2602 476.9001,-74.2603 481.1001,-74.2602"/>
</g>
<!-- src/modules/control&#45;&gt;src/modules/selection -->
<g id="edge8" class="edge">
<title>src/modules/control&#45;&gt;src/modules/selection</title>
<path fill="none" stroke="#000000" stroke-width="2" stroke-opacity="0.200000" d="M233,-124.2125C233,-124.9976 233,-125.5 233,-125.5 233,-125.5 550,-125.5 550,-125.5 550,-125.5 550,-124.0224 550,-124.0224"/>
<polygon fill="#000000" fill-opacity="0.200000" stroke="#000000" stroke-width="2" stroke-opacity="0.200000" points="552.1001,-124.0224 550,-118.0224 547.9001,-124.0225 552.1001,-124.0224"/>
</g>
<!-- src/shared -->
<g id="node10" class="node">
<title>src/shared</title>
<g id="a_node10"><a xlink:href="src/shared" xlink:title="shared">
<polygon fill="#ffffcc" stroke="#000000" points="586,-34 534,-34 532,-32 532,-16 584,-16 586,-18 586,-34"/>
<polyline fill="none" stroke="#000000" points="584,-32 532,-32 "/>
<polyline fill="none" stroke="#000000" points="584,-32 584,-16 "/>
<polyline fill="none" stroke="#000000" points="584,-32 586,-34 "/>
<text text-anchor="middle" x="559" y="-22.8" font-family="Helvetica,sans-Serif" font-size="9.00" fill="#000000">shared</text>
</a>
</g>
</g>
<!-- src/modules/control&#45;&gt;src/shared -->
<g id="edge9" class="edge">
<title>src/modules/control&#45;&gt;src/shared</title>
<path fill="none" stroke="#000000" stroke-width="2" stroke-opacity="0.200000" d="M208,-105.7074C208,-82.7126 208,-25 208,-25 208,-25 525.7497,-25 525.7497,-25"/>
<polygon fill="#000000" fill-opacity="0.200000" stroke="#000000" stroke-width="2" stroke-opacity="0.200000" points="525.7497,-27.1001 531.7497,-25 525.7497,-22.9001 525.7497,-27.1001"/>
</g>
<!-- src/modules/display&#45;&gt;src/modules/cards -->
<g id="edge14" class="edge">
<title>src/modules/display&#45;&gt;src/modules/cards</title>
<path fill="none" stroke="#000000" stroke-width="2" stroke-opacity="0.200000" d="M416,-96.4263C416,-101.9297 416,-107.8 416,-107.8 416,-107.8 324.1231,-107.8 324.1231,-107.8"/>
<polygon fill="#000000" fill-opacity="0.200000" stroke="#000000" stroke-width="2" stroke-opacity="0.200000" points="324.1232,-105.7001 318.1231,-107.8 324.1231,-109.9001 324.1232,-105.7001"/>
</g>
<!-- src/modules/display&#45;&gt;src/modules/text -->
<g id="edge17" class="edge">
<title>src/modules/display&#45;&gt;src/modules/text</title>
<path fill="none" stroke="#000000" stroke-width="2" stroke-opacity="0.200000" d="M452.1017,-88.8C505.0266,-88.8 617,-88.8 617,-88.8 617,-88.8 617,-93.8456 617,-93.8456"/>
<polygon fill="#000000" fill-opacity="0.200000" stroke="#000000" stroke-width="2" stroke-opacity="0.200000" points="614.9001,-93.8456 617,-99.8456 619.1001,-93.8457 614.9001,-93.8456"/>
</g>
<!-- src/modules/display&#45;&gt;src/modules/river -->
<g id="edge16" class="edge">
<title>src/modules/display&#45;&gt;src/modules/river</title>
<path fill="none" stroke="#000000" stroke-width="2" stroke-opacity="0.200000" d="M452.2515,-81.6C470.8008,-81.6 492,-81.6 492,-81.6 492,-81.6 492,-74.1923 492,-74.1923"/>
<polygon fill="#000000" fill-opacity="0.200000" stroke="#000000" stroke-width="2" stroke-opacity="0.200000" points="494.1001,-74.1923 492,-68.1923 489.9001,-74.1923 494.1001,-74.1923"/>
</g>
<!-- src/modules/display&#45;&gt;src/modules/selection -->
<g id="edge18" class="edge">
<title>src/modules/display&#45;&gt;src/modules/selection</title>
<path fill="none" stroke="#000000" stroke-width="2" stroke-opacity="0.200000" d="M452.0716,-92.4C486.9092,-92.4 543,-92.4 543,-92.4 543,-92.4 543,-93.9229 543,-93.9229"/>
<polygon fill="#000000" fill-opacity="0.200000" stroke="#000000" stroke-width="2" stroke-opacity="0.200000" points="540.9001,-93.9229 543,-99.9229 545.1001,-93.9229 540.9001,-93.9229"/>
</g>
<!-- src/modules/display&#45;&gt;src/shared -->
<g id="edge15" class="edge">
<title>src/modules/display&#45;&gt;src/shared</title>
<path fill="none" stroke="#000000" stroke-width="2" stroke-opacity="0.200000" d="M452.345,-85.2C495.859,-85.2 576,-85.2 576,-85.2 576,-85.2 576,-40.1431 576,-40.1431"/>
<polygon fill="#000000" fill-opacity="0.200000" stroke="#000000" stroke-width="2" stroke-opacity="0.200000" points="578.1001,-40.143 576,-34.1431 573.9001,-40.1431 578.1001,-40.143"/>
</g>
<!-- src/modules/river&#45;&gt;src/modules/cards -->
<g id="edge20" class="edge">
<title>src/modules/river&#45;&gt;src/modules/cards</title>
<path fill="none" stroke="#000000" stroke-width="2" stroke-opacity="0.200000" d="M506,-68.0925C506,-83.0482 506,-111.2 506,-111.2 506,-111.2 324.2299,-111.2 324.2299,-111.2"/>
<polygon fill="#000000" fill-opacity="0.200000" stroke="#000000" stroke-width="2" stroke-opacity="0.200000" points="324.2299,-109.1001 318.2299,-111.2 324.2299,-113.3001 324.2299,-109.1001"/>
</g>
<!-- src/modules/river&#45;&gt;src/modules/text -->
<g id="edge22" class="edge">
<title>src/modules/river&#45;&gt;src/modules/text</title>
<path fill="none" stroke="#000000" stroke-width="2" stroke-opacity="0.200000" d="M519.2338,-59C560.7239,-59 635,-59 635,-59 635,-59 635,-93.8292 635,-93.8292"/>
<polygon fill="#000000" fill-opacity="0.200000" stroke="#000000" stroke-width="2" stroke-opacity="0.200000" points="632.9001,-93.8292 635,-99.8292 637.1001,-93.8293 632.9001,-93.8292"/>
</g>
<!-- src/modules/river&#45;&gt;src/modules/selection -->
<g id="edge23" class="edge">
<title>src/modules/river&#45;&gt;src/modules/selection</title>
<path fill="none" stroke="#000000" stroke-width="2" stroke-opacity="0.200000" d="M519.0137,-63.5C535.7215,-63.5 554,-63.5 554,-63.5 554,-63.5 554,-93.7924 554,-93.7924"/>
<polygon fill="#000000" fill-opacity="0.200000" stroke="#000000" stroke-width="2" stroke-opacity="0.200000" points="551.9001,-93.7924 554,-99.7924 556.1001,-93.7924 551.9001,-93.7924"/>
</g>
<!-- src/modules/river&#45;&gt;src/shared -->
<g id="edge21" class="edge">
<title>src/modules/river&#45;&gt;src/shared</title>
<path fill="none" stroke="#000000" stroke-width="2" stroke-opacity="0.200000" d="M519.1825,-54.5C539.9374,-54.5 565,-54.5 565,-54.5 565,-54.5 565,-40.0113 565,-40.0113"/>
<polygon fill="#000000" fill-opacity="0.200000" stroke="#000000" stroke-width="2" stroke-opacity="0.200000" points="567.1001,-40.0112 565,-34.0113 562.9001,-40.0113 567.1001,-40.0112"/>
</g>
<!-- src/modules/selection&#45;&gt;src/modules/cards -->
<g id="edge25" class="edge">
<title>src/modules/selection&#45;&gt;src/modules/cards</title>
<path fill="none" stroke="#000000" stroke-width="2" stroke-opacity="0.200000" d="M531.8279,-114.6C531.8279,-114.6 324.244,-114.6 324.244,-114.6"/>
<polygon fill="#000000" fill-opacity="0.200000" stroke="#000000" stroke-width="2" stroke-opacity="0.200000" points="324.2441,-112.5001 318.244,-114.6 324.244,-116.7001 324.2441,-112.5001"/>
</g>
<!-- src/modules/selection&#45;&gt;src/modules/text -->
<g id="edge26" class="edge">
<title>src/modules/selection&#45;&gt;src/modules/text</title>
<path fill="none" stroke="#000000" stroke-width="2" stroke-opacity="0.200000" d="M586.2515,-109C586.2515,-109 592.9899,-109 592.9899,-109"/>
<polygon fill="#000000" fill-opacity="0.200000" stroke="#000000" stroke-width="2" stroke-opacity="0.200000" points="592.9899,-111.1001 598.9899,-109 592.9899,-106.9001 592.9899,-111.1001"/>
</g>
</g>
</svg>
