<?xml version="1.0" encoding="UTF-8" standalone="no"?>
<!DOCTYPE svg PUBLIC "-//W3C//DTD SVG 1.1//EN"
 "http://www.w3.org/Graphics/SVG/1.1/DTD/svg11.dtd">
<!-- Generated by graphviz version 2.40.1 (20161225.0304)
 -->
<!-- Title: dependency&#45;cruiser output Pages: 1 -->
<svg width="551pt" height="182pt"
 viewBox="0.00 0.00 551.00 182.00" xmlns="http://www.w3.org/2000/svg" xmlns:xlink="http://www.w3.org/1999/xlink">
<g id="graph0" class="graph" transform="scale(1 1) rotate(0) translate(4 178)">
<title>dependency&#45;cruiser output</title>
<polygon fill="#ffffff" stroke="transparent" points="-4,4 -4,-178 547,-178 547,4 -4,4"/>
<g id="clust1" class="cluster">
<title>cluster_src</title>
<path fill="#ffffff" stroke="#000000" stroke-width="2" d="M20,-8C20,-8 523,-8 523,-8 529,-8 535,-14 535,-20 535,-20 535,-154 535,-154 535,-160 529,-166 523,-166 523,-166 20,-166 20,-166 14,-166 8,-160 8,-154 8,-154 8,-20 8,-20 8,-14 14,-8 20,-8"/>
<text text-anchor="middle" x="271.5" y="-154.8" font-family="Helvetica,sans-Serif" font-weight="bold" font-size="9.00" fill="#000000">src</text>
</g>
<g id="clust2" class="cluster">
<title>cluster_src/modules</title>
<path fill="#ffffff" stroke="#000000" stroke-width="2" d="M201,-16C201,-16 515,-16 515,-16 521,-16 527,-22 527,-28 527,-28 527,-128 527,-128 527,-134 521,-140 515,-140 515,-140 201,-140 201,-140 195,-140 189,-134 189,-128 189,-128 189,-28 189,-28 189,-22 195,-16 201,-16"/>
<text text-anchor="middle" x="358" y="-128.8" font-family="Helvetica,sans-Serif" font-weight="bold" font-size="9.00" fill="#000000">modules</text>
</g>
<g id="clust3" class="cluster">
<title>cluster_src/scene</title>
<path fill="#ffffff" stroke="#000000" stroke-width="2" d="M90,-63C90,-63 169,-63 169,-63 175,-63 181,-69 181,-75 181,-75 181,-103 181,-103 181,-109 175,-115 169,-115 169,-115 90,-115 90,-115 84,-115 78,-109 78,-103 78,-103 78,-75 78,-75 78,-69 84,-63 90,-63"/>
<text text-anchor="middle" x="129.5" y="-103.8" font-family="Helvetica,sans-Serif" font-weight="bold" font-size="9.00" fill="#000000">scene</text>
</g>
<!-- src/index.tsx -->
<g id="node1" class="node">
<title>src/index.tsx</title>
<g id="a_node1"><a xlink:href="src/index.tsx" xlink:title="index.tsx">
<path fill="#bbfeff" stroke="#000000" d="M64,-89C64,-89 22,-89 22,-89 19,-89 16,-86 16,-83 16,-83 16,-77 16,-77 16,-74 19,-71 22,-71 22,-71 64,-71 64,-71 67,-71 70,-74 70,-77 70,-77 70,-83 70,-83 70,-86 67,-89 64,-89"/>
<text text-anchor="middle" x="43" y="-77.8" font-family="Helvetica,sans-Serif" font-size="9.00" fill="#000000">index.tsx</text>
</a>
</g>
</g>
<!-- src/scene/ReaderScene.tsx -->
<g id="node2" class="node">
<title>src/scene/ReaderScene.tsx</title>
<g id="a_node2"><a xlink:href="src/scene/ReaderScene.tsx" xlink:title="ReaderScene.tsx">
<path fill="#bbfeff" stroke="#000000" d="M167,-89C167,-89 92,-89 92,-89 89,-89 86,-86 86,-83 86,-83 86,-77 86,-77 86,-74 89,-71 92,-71 92,-71 167,-71 167,-71 170,-71 173,-74 173,-77 173,-77 173,-83 173,-83 173,-86 170,-89 167,-89"/>
<text text-anchor="middle" x="129.5" y="-77.8" font-family="Helvetica,sans-Serif" font-size="9.00" fill="#000000">ReaderScene.tsx</text>
</a>
</g>
</g>
<!-- src/index.tsx&#45;&gt;src/scene/ReaderScene.tsx -->
<g id="edge1" class="edge">
<title>src/index.tsx&#45;&gt;src/scene/ReaderScene.tsx</title>
<path fill="none" stroke="#000000" stroke-width="2" stroke-opacity="0.200000" d="M70.3691,-80C70.3691,-80 79.8699,-80 79.8699,-80"/>
<polygon fill="#000000" fill-opacity="0.200000" stroke="#000000" stroke-width="2" stroke-opacity="0.200000" points="79.8699,-82.1001 85.8699,-80 79.8698,-77.9001 79.8699,-82.1001"/>
</g>
<!-- src/modules/control -->
<g id="node4" class="node">
<title>src/modules/control</title>
<g id="a_node4"><a xlink:href="src/modules/control" xlink:title="control">
<polygon fill="#ffffcc" stroke="#000000" points="251,-78 199,-78 197,-76 197,-60 249,-60 251,-62 251,-78"/>
<polyline fill="none" stroke="#000000" points="249,-76 197,-76 "/>
<polyline fill="none" stroke="#000000" points="249,-76 249,-60 "/>
<polyline fill="none" stroke="#000000" points="249,-76 251,-78 "/>
<text text-anchor="middle" x="224" y="-66.8" font-family="Helvetica,sans-Serif" font-size="9.00" fill="#000000">control</text>
</a>
</g>
</g>
<!-- src/scene/ReaderScene.tsx&#45;&gt;src/modules/control -->
<g id="edge17" class="edge">
<title>src/scene/ReaderScene.tsx&#45;&gt;src/modules/control</title>
<path fill="none" stroke="#000000" stroke-width="2" stroke-opacity="0.200000" d="M173.154,-74.5C173.154,-74.5 190.9873,-74.5 190.9873,-74.5"/>
<polygon fill="#000000" fill-opacity="0.200000" stroke="#000000" stroke-width="2" stroke-opacity="0.200000" points="190.9873,-76.6001 196.9873,-74.5 190.9873,-72.4001 190.9873,-76.6001"/>
</g>
<!-- src/modules/display -->
<g id="node8" class="node">
<title>src/modules/display</title>
<g id="a_node8"><a xlink:href="src/modules/display" xlink:title="display">
<polygon fill="#ffffcc" stroke="#000000" points="318,-100 266,-100 264,-98 264,-82 316,-82 318,-84 318,-100"/>
<polyline fill="none" stroke="#000000" points="316,-98 264,-98 "/>
<polyline fill="none" stroke="#000000" points="316,-98 316,-82 "/>
<polyline fill="none" stroke="#000000" points="316,-98 318,-100 "/>
<text text-anchor="middle" x="291" y="-88.8" font-family="Helvetica,sans-Serif" font-size="9.00" fill="#000000">display</text>
</a>
</g>
</g>
<!-- src/scene/ReaderScene.tsx&#45;&gt;src/modules/display -->
<g id="edge18" class="edge">
<title>src/scene/ReaderScene.tsx&#45;&gt;src/modules/display</title>
<path fill="none" stroke="#000000" stroke-width="2" stroke-opacity="0.200000" d="M173.2042,-86.6667C173.2042,-86.6667 257.9842,-86.6667 257.9842,-86.6667"/>
<polygon fill="#000000" fill-opacity="0.200000" stroke="#000000" stroke-width="2" stroke-opacity="0.200000" points="257.9842,-88.7668 263.9842,-86.6667 257.9841,-84.5668 257.9842,-88.7668"/>
</g>
<!-- src/modules/cards -->
<g id="node3" class="node">
<title>src/modules/cards</title>
<g id="a_node3"><a xlink:href="src/modules/cards" xlink:title="cards">
<polygon fill="#ffffcc" stroke="#000000" points="519,-86 467,-86 465,-84 465,-68 517,-68 519,-70 519,-86"/>
<polyline fill="none" stroke="#000000" points="517,-84 465,-84 "/>
<polyline fill="none" stroke="#000000" points="517,-84 517,-68 "/>
<polyline fill="none" stroke="#000000" points="517,-84 519,-86 "/>
<text text-anchor="middle" x="492" y="-74.8" font-family="Helvetica,sans-Serif" font-size="9.00" fill="#000000">cards</text>
</a>
</g>
</g>
<!-- src/modules/control&#45;&gt;src/modules/cards -->
<g id="edge2" class="edge">
<title>src/modules/control&#45;&gt;src/modules/cards</title>
<path fill="none" stroke="#000000" stroke-width="2" stroke-opacity="0.200000" d="M251.2895,-66C317.0725,-66 479,-66 479,-66 479,-66 479,-66.1719 479,-66.1719"/>
<polygon fill="#000000" fill-opacity="0.200000" stroke="#000000" stroke-width="2" stroke-opacity="0.200000" points="476.9004,-61.7186 479,-67.7188 481.1004,-61.7189 476.9004,-61.7186"/>
</g>
<!-- src/modules/db -->
<g id="node5" class="node">
<title>src/modules/db</title>
<g id="a_node5"><a xlink:href="src/modules/db" xlink:title="db">
<polygon fill="#ffffcc" stroke="#000000" points="318,-56 266,-56 264,-54 264,-38 316,-38 318,-40 318,-56"/>
<polyline fill="none" stroke="#000000" points="316,-54 264,-54 "/>
<polyline fill="none" stroke="#000000" points="316,-54 316,-38 "/>
<polyline fill="none" stroke="#000000" points="316,-54 318,-56 "/>
<text text-anchor="middle" x="291" y="-44.8" font-family="Helvetica,sans-Serif" font-size="9.00" fill="#000000">db</text>
</a>
</g>
</g>
<!-- src/modules/control&#45;&gt;src/modules/db -->
<g id="edge3" class="edge">
<title>src/modules/control&#45;&gt;src/modules/db</title>
<path fill="none" stroke="#000000" stroke-width="2" stroke-opacity="0.200000" d="M251.3016,-62C266.3451,-62 282,-62 282,-62 282,-62 282,-61.4244 282,-61.4244"/>
<polygon fill="#000000" fill-opacity="0.200000" stroke="#000000" stroke-width="2" stroke-opacity="0.200000" points="284.1001,-62.2435 282,-56.2435 279.9001,-62.2435 284.1001,-62.2435"/>
</g>
<!-- src/modules/pdf -->
<g id="node6" class="node">
<title>src/modules/pdf</title>
<g id="a_node6"><a xlink:href="src/modules/pdf" xlink:title="pdf">
<polygon fill="#ffffcc" stroke="#000000" points="385,-86 333,-86 331,-84 331,-68 383,-68 385,-70 385,-86"/>
<polyline fill="none" stroke="#000000" points="383,-84 331,-84 "/>
<polyline fill="none" stroke="#000000" points="383,-84 383,-68 "/>
<polyline fill="none" stroke="#000000" points="383,-84 385,-86 "/>
<text text-anchor="middle" x="358" y="-74.8" font-family="Helvetica,sans-Serif" font-size="9.00" fill="#000000">pdf</text>
</a>
</g>
</g>
<!-- src/modules/control&#45;&gt;src/modules/pdf -->
<g id="edge4" class="edge">
<title>src/modules/control&#45;&gt;src/modules/pdf</title>
<path fill="none" stroke="#000000" stroke-width="2" stroke-opacity="0.200000" d="M251.1169,-74.6667C251.1169,-74.6667 324.9234,-74.6667 324.9234,-74.6667"/>
<polygon fill="#000000" fill-opacity="0.200000" stroke="#000000" stroke-width="2" stroke-opacity="0.200000" points="324.9235,-76.7668 330.9234,-74.6667 324.9234,-72.5668 324.9235,-76.7668"/>
</g>
<!-- src/modules/river -->
<g id="node7" class="node">
<title>src/modules/river</title>
<g id="a_node7"><a xlink:href="src/modules/river" xlink:title="river">
<polygon fill="#ffffcc" stroke="#000000" points="385,-56 333,-56 331,-54 331,-38 383,-38 385,-40 385,-56"/>
<polyline fill="none" stroke="#000000" points="383,-54 331,-54 "/>
<polyline fill="none" stroke="#000000" points="383,-54 383,-38 "/>
<polyline fill="none" stroke="#000000" points="383,-54 385,-56 "/>
<text text-anchor="middle" x="358" y="-44.8" font-family="Helvetica,sans-Serif" font-size="9.00" fill="#000000">river</text>
</a>
</g>
</g>
<!-- src/modules/control&#45;&gt;src/modules/river -->
<g id="edge5" class="edge">
<title>src/modules/control&#45;&gt;src/modules/river</title>
<path fill="none" stroke="#000000" stroke-width="2" stroke-opacity="0.200000" d="M251.1169,-64C290.2721,-64 358,-64 358,-64 358,-64 358,-62.2958 358,-62.2958"/>
<polygon fill="#000000" fill-opacity="0.200000" stroke="#000000" stroke-width="2" stroke-opacity="0.200000" points="360.1001,-62.2958 358,-56.2958 355.9001,-62.2959 360.1001,-62.2958"/>
</g>
<!-- src/modules/control&#45;&gt;src/modules/display -->
<g id="edge6" class="edge">
<title>src/modules/control&#45;&gt;src/modules/display</title>
<path fill="none" stroke="#000000" stroke-width="2" stroke-opacity="0.200000" d="M224,-78.0967C224,-81.3984 224,-84.3333 224,-84.3333 224,-84.3333 257.7485,-84.3333 257.7485,-84.3333"/>
<polygon fill="#000000" fill-opacity="0.200000" stroke="#000000" stroke-width="2" stroke-opacity="0.200000" points="257.7486,-86.4334 263.7485,-84.3333 257.7485,-82.2334 257.7486,-86.4334"/>
</g>
<!-- src/modules/db&#45;&gt;src/modules/cards -->
<g id="edge8" class="edge">
<title>src/modules/db&#45;&gt;src/modules/cards</title>
<path fill="none" stroke="#000000" stroke-width="2" stroke-opacity="0.200000" d="M291,-37.859C291,-30.0261 291,-20 291,-20 291,-20 506,-20 506,-20 506,-20 506,-61.842 506,-61.842"/>
<polygon fill="#000000" fill-opacity="0.200000" stroke="#000000" stroke-width="2" stroke-opacity="0.200000" points="503.9001,-61.8419 506,-67.842 508.1001,-61.842 503.9001,-61.8419"/>
</g>
<!-- src/modules/db&#45;&gt;src/modules/pdf -->
<g id="edge7" class="edge">
<title>src/modules/db&#45;&gt;src/modules/pdf</title>
<path fill="none" stroke="#000000" stroke-width="2" stroke-opacity="0.200000" d="M300,-56.0608C300,-62.9791 300,-71.3333 300,-71.3333 300,-71.3333 324.6984,-71.3333 324.6984,-71.3333"/>
<polygon fill="#000000" fill-opacity="0.200000" stroke="#000000" stroke-width="2" stroke-opacity="0.200000" points="324.6984,-73.4334 330.6984,-71.3333 324.6983,-69.2334 324.6984,-73.4334"/>
</g>
<!-- src/modules/db&#45;&gt;src/modules/river -->
<g id="edge9" class="edge">
<title>src/modules/db&#45;&gt;src/modules/river</title>
<path fill="none" stroke="#000000" stroke-width="2" stroke-opacity="0.200000" d="M318.2515,-44C318.2515,-44 324.9899,-44 324.9899,-44"/>
<polygon fill="#000000" fill-opacity="0.200000" stroke="#000000" stroke-width="2" stroke-opacity="0.200000" points="324.9899,-46.1001 330.9899,-44 324.9899,-41.9001 324.9899,-46.1001"/>
</g>
<!-- src/modules/selection -->
<g id="node9" class="node">
<title>src/modules/selection</title>
<g id="a_node9"><a xlink:href="src/modules/selection" xlink:title="selection">
<polygon fill="#ffffcc" stroke="#000000" points="452,-86 400,-86 398,-84 398,-68 450,-68 452,-70 452,-86"/>
<polyline fill="none" stroke="#000000" points="450,-84 398,-84 "/>
<polyline fill="none" stroke="#000000" points="450,-84 450,-68 "/>
<polyline fill="none" stroke="#000000" points="450,-84 452,-86 "/>
<text text-anchor="middle" x="425" y="-74.8" font-family="Helvetica,sans-Serif" font-size="9.00" fill="#000000">selection</text>
</a>
</g>
</g>
<!-- src/modules/pdf&#45;&gt;src/modules/selection -->
<g id="edge13" class="edge">
<title>src/modules/pdf&#45;&gt;src/modules/selection</title>
<path fill="none" stroke="#000000" stroke-width="2" stroke-opacity="0.200000" d="M385.2515,-77C385.2515,-77 391.9899,-77 391.9899,-77"/>
<polygon fill="#000000" fill-opacity="0.200000" stroke="#000000" stroke-width="2" stroke-opacity="0.200000" points="391.9899,-79.1001 397.9899,-77 391.9899,-74.9001 391.9899,-79.1001"/>
</g>
<!-- src/modules/river&#45;&gt;src/modules/cards -->
<g id="edge14" class="edge">
<title>src/modules/river&#45;&gt;src/modules/cards</title>
<path fill="none" stroke="#000000" stroke-width="2" stroke-opacity="0.200000" d="M385.1169,-44C424.2721,-44 492,-44 492,-44 492,-44 492,-61.9826 492,-61.9826"/>
<polygon fill="#000000" fill-opacity="0.200000" stroke="#000000" stroke-width="2" stroke-opacity="0.200000" points="489.9001,-61.9826 492,-67.9826 494.1001,-61.9826 489.9001,-61.9826"/>
</g>
<!-- src/modules/river&#45;&gt;src/modules/selection -->
<g id="edge15" class="edge">
<title>src/modules/river&#45;&gt;src/modules/selection</title>
<path fill="none" stroke="#000000" stroke-width="2" stroke-opacity="0.200000" d="M385.2515,-50C403.8008,-50 425,-50 425,-50 425,-50 425,-61.859 425,-61.859"/>
<polygon fill="#000000" fill-opacity="0.200000" stroke="#000000" stroke-width="2" stroke-opacity="0.200000" points="422.9001,-61.859 425,-67.859 427.1001,-61.8591 422.9001,-61.859"/>
</g>
<!-- src/modules/display&#45;&gt;src/modules/pdf -->
<g id="edge10" class="edge">
<title>src/modules/display&#45;&gt;src/modules/pdf</title>
<path fill="none" stroke="#000000" stroke-width="2" stroke-opacity="0.200000" d="M318.2515,-93C336.8008,-93 358,-93 358,-93 358,-93 358,-92.1217 358,-92.1217"/>
<polygon fill="#000000" fill-opacity="0.200000" stroke="#000000" stroke-width="2" stroke-opacity="0.200000" points="360.1001,-92.1217 358,-86.1217 355.9001,-92.1217 360.1001,-92.1217"/>
</g>
<!-- src/modules/display&#45;&gt;src/modules/river -->
<g id="edge12" class="edge">
<title>src/modules/display&#45;&gt;src/modules/river</title>
<path fill="none" stroke="#000000" stroke-width="2" stroke-opacity="0.200000" d="M318.1196,-89.5C322.1591,-89.5 325,-89.5 325,-89.5 325,-89.5 325,-50 325,-50 325,-50 325.5748,-50 325.5748,-50"/>
<polygon fill="#000000" fill-opacity="0.200000" stroke="#000000" stroke-width="2" stroke-opacity="0.200000" points="324.7482,-52.1001 330.7482,-50 324.7481,-47.9001 324.7482,-52.1001"/>
</g>
<!-- src/modules/display&#45;&gt;src/modules/selection -->
<g id="edge11" class="edge">
<title>src/modules/display&#45;&gt;src/modules/selection</title>
<path fill="none" stroke="#000000" stroke-width="2" stroke-opacity="0.200000" d="M318.1169,-96.5C357.2721,-96.5 425,-96.5 425,-96.5 425,-96.5 425,-92.2931 425,-92.2931"/>
<polygon fill="#000000" fill-opacity="0.200000" stroke="#000000" stroke-width="2" stroke-opacity="0.200000" points="427.1001,-92.2931 425,-86.2931 422.9001,-92.2932 427.1001,-92.2931"/>
</g>
<!-- src/modules/selection&#45;&gt;src/modules/cards -->
<g id="edge16" class="edge">
<title>src/modules/selection&#45;&gt;src/modules/cards</title>
<path fill="none" stroke="#000000" stroke-width="2" stroke-opacity="0.200000" d="M452.2515,-77C452.2515,-77 458.9899,-77 458.9899,-77"/>
<polygon fill="#000000" fill-opacity="0.200000" stroke="#000000" stroke-width="2" stroke-opacity="0.200000" points="458.9899,-79.1001 464.9899,-77 458.9899,-74.9001 458.9899,-79.1001"/>
</g>
</g>
</svg>
