<?xml version="1.0" encoding="UTF-8" standalone="no"?>
<!DOCTYPE svg PUBLIC "-//W3C//DTD SVG 1.1//EN"
 "http://www.w3.org/Graphics/SVG/1.1/DTD/svg11.dtd">
<!-- Generated by graphviz version 2.40.1 (20161225.0304)
 -->
<!-- Title: dependency&#45;cruiser output Pages: 1 -->
<svg width="613pt" height="174pt"
 viewBox="0.00 0.00 613.00 174.00" xmlns="http://www.w3.org/2000/svg" xmlns:xlink="http://www.w3.org/1999/xlink">
<g id="graph0" class="graph" transform="scale(1 1) rotate(0) translate(4 170)">
<title>dependency&#45;cruiser output</title>
<polygon fill="#ffffff" stroke="transparent" points="-4,4 -4,-170 609,-170 609,4 -4,4"/>
<g id="clust1" class="cluster">
<title>cluster_src</title>
<path fill="#ffffff" stroke="#000000" stroke-width="2" d="M20,-8C20,-8 585,-8 585,-8 591,-8 597,-14 597,-20 597,-20 597,-146 597,-146 597,-152 591,-158 585,-158 585,-158 20,-158 20,-158 14,-158 8,-152 8,-146 8,-146 8,-20 8,-20 8,-14 14,-8 20,-8"/>
<text text-anchor="middle" x="302.5" y="-146.8" font-family="Helvetica,sans-Serif" font-weight="bold" font-size="9.00" fill="#000000">src</text>
</g>
<g id="clust2" class="cluster">
<title>cluster_src/modules</title>
<path fill="#ffffff" stroke="#000000" stroke-width="2" d="M201,-36C201,-36 515,-36 515,-36 521,-36 527,-42 527,-48 527,-48 527,-120 527,-120 527,-126 521,-132 515,-132 515,-132 201,-132 201,-132 195,-132 189,-126 189,-120 189,-120 189,-48 189,-48 189,-42 195,-36 201,-36"/>
<text text-anchor="middle" x="358" y="-120.8" font-family="Helvetica,sans-Serif" font-weight="bold" font-size="9.00" fill="#000000">modules</text>
</g>
<g id="clust3" class="cluster">
<title>cluster_src/scenes</title>
<path fill="#ffffff" stroke="#000000" stroke-width="2" d="M90,-51C90,-51 169,-51 169,-51 175,-51 181,-57 181,-63 181,-63 181,-91 181,-91 181,-97 175,-103 169,-103 169,-103 90,-103 90,-103 84,-103 78,-97 78,-91 78,-91 78,-63 78,-63 78,-57 84,-51 90,-51"/>
<text text-anchor="middle" x="129.5" y="-91.8" font-family="Helvetica,sans-Serif" font-weight="bold" font-size="9.00" fill="#000000">scenes</text>
</g>
<!-- src/index.tsx -->
<g id="node1" class="node">
<title>src/index.tsx</title>
<g id="a_node1"><a xlink:href="src/index.tsx" xlink:title="index.tsx">
<path fill="#bbfeff" stroke="#000000" d="M64,-77C64,-77 22,-77 22,-77 19,-77 16,-74 16,-71 16,-71 16,-65 16,-65 16,-62 19,-59 22,-59 22,-59 64,-59 64,-59 67,-59 70,-62 70,-65 70,-65 70,-71 70,-71 70,-74 67,-77 64,-77"/>
<text text-anchor="middle" x="43" y="-65.8" font-family="Helvetica,sans-Serif" font-size="9.00" fill="#000000">index.tsx</text>
</a>
</g>
</g>
<!-- src/scenes/ReaderScene.tsx -->
<g id="node2" class="node">
<title>src/scenes/ReaderScene.tsx</title>
<g id="a_node2"><a xlink:href="src/scenes/ReaderScene.tsx" xlink:title="ReaderScene.tsx">
<path fill="#bbfeff" stroke="#000000" d="M167,-77C167,-77 92,-77 92,-77 89,-77 86,-74 86,-71 86,-71 86,-65 86,-65 86,-62 89,-59 92,-59 92,-59 167,-59 167,-59 170,-59 173,-62 173,-65 173,-65 173,-71 173,-71 173,-74 170,-77 167,-77"/>
<text text-anchor="middle" x="129.5" y="-65.8" font-family="Helvetica,sans-Serif" font-size="9.00" fill="#000000">ReaderScene.tsx</text>
</a>
</g>
</g>
<!-- src/index.tsx&#45;&gt;src/scenes/ReaderScene.tsx -->
<g id="edge1" class="edge">
<title>src/index.tsx&#45;&gt;src/scenes/ReaderScene.tsx</title>
<path fill="none" stroke="#000000" stroke-width="2" stroke-opacity="0.200000" d="M70.3691,-68C70.3691,-68 79.8699,-68 79.8699,-68"/>
<polygon fill="#000000" fill-opacity="0.200000" stroke="#000000" stroke-width="2" stroke-opacity="0.200000" points="79.8699,-70.1001 85.8699,-68 79.8698,-65.9001 79.8699,-70.1001"/>
</g>
<!-- src/modules/control -->
<g id="node4" class="node">
<title>src/modules/control</title>
<g id="a_node4"><a xlink:href="src/modules/control" xlink:title="control">
<polygon fill="#ffffcc" stroke="#000000" points="251,-77 199,-77 197,-75 197,-59 249,-59 251,-61 251,-77"/>
<polyline fill="none" stroke="#000000" points="249,-75 197,-75 "/>
<polyline fill="none" stroke="#000000" points="249,-75 249,-59 "/>
<polyline fill="none" stroke="#000000" points="249,-75 251,-77 "/>
<text text-anchor="middle" x="224" y="-65.8" font-family="Helvetica,sans-Serif" font-size="9.00" fill="#000000">control</text>
</a>
</g>
</g>
<!-- src/scenes/ReaderScene.tsx&#45;&gt;src/modules/control -->
<g id="edge17" class="edge">
<title>src/scenes/ReaderScene.tsx&#45;&gt;src/modules/control</title>
<path fill="none" stroke="#000000" stroke-width="2" stroke-opacity="0.200000" d="M173.154,-68C173.154,-68 190.9873,-68 190.9873,-68"/>
<polygon fill="#000000" fill-opacity="0.200000" stroke="#000000" stroke-width="2" stroke-opacity="0.200000" points="190.9873,-70.1001 196.9873,-68 190.9873,-65.9001 190.9873,-70.1001"/>
</g>
<!-- src/modules/creation -->
<g id="node5" class="node">
<title>src/modules/creation</title>
<g id="a_node5"><a xlink:href="src/modules/creation" xlink:title="creation">
<polygon fill="#ffffcc" stroke="#000000" points="318,-62 266,-62 264,-60 264,-44 316,-44 318,-46 318,-62"/>
<polyline fill="none" stroke="#000000" points="316,-60 264,-60 "/>
<polyline fill="none" stroke="#000000" points="316,-60 316,-44 "/>
<polyline fill="none" stroke="#000000" points="316,-60 318,-62 "/>
<text text-anchor="middle" x="291" y="-50.8" font-family="Helvetica,sans-Serif" font-size="9.00" fill="#000000">creation</text>
</a>
</g>
</g>
<!-- src/scenes/ReaderScene.tsx&#45;&gt;src/modules/creation -->
<g id="edge18" class="edge">
<title>src/scenes/ReaderScene.tsx&#45;&gt;src/modules/creation</title>
<path fill="none" stroke="#000000" stroke-width="2" stroke-opacity="0.200000" d="M144,-58.9776C144,-55.1255 144,-51.5 144,-51.5 144,-51.5 257.6949,-51.5 257.6949,-51.5"/>
<polygon fill="#000000" fill-opacity="0.200000" stroke="#000000" stroke-width="2" stroke-opacity="0.200000" points="257.695,-53.6001 263.6949,-51.5 257.6949,-49.4001 257.695,-53.6001"/>
</g>
<!-- src/modules/display -->
<g id="node6" class="node">
<title>src/modules/display</title>
<g id="a_node6"><a xlink:href="src/modules/display" xlink:title="display">
<polygon fill="#ffffcc" stroke="#000000" points="519,-62 467,-62 465,-60 465,-44 517,-44 519,-46 519,-62"/>
<polyline fill="none" stroke="#000000" points="517,-60 465,-60 "/>
<polyline fill="none" stroke="#000000" points="517,-60 517,-44 "/>
<polyline fill="none" stroke="#000000" points="517,-60 519,-62 "/>
<text text-anchor="middle" x="492" y="-50.8" font-family="Helvetica,sans-Serif" font-size="9.00" fill="#000000">display</text>
</a>
</g>
</g>
<!-- src/scenes/ReaderScene.tsx&#45;&gt;src/modules/display -->
<g id="edge19" class="edge">
<title>src/scenes/ReaderScene.tsx&#45;&gt;src/modules/display</title>
<path fill="none" stroke="#000000" stroke-width="2" stroke-opacity="0.200000" d="M115,-58.7451C115,-44.7969 115,-20 115,-20 115,-20 492,-20 492,-20 492,-20 492,-37.9826 492,-37.9826"/>
<polygon fill="#000000" fill-opacity="0.200000" stroke="#000000" stroke-width="2" stroke-opacity="0.200000" points="489.9001,-37.9826 492,-43.9826 494.1001,-37.9826 489.9001,-37.9826"/>
</g>
<!-- src/modules/focus -->
<g id="node7" class="node">
<title>src/modules/focus</title>
<g id="a_node7"><a xlink:href="src/modules/focus" xlink:title="focus">
<polygon fill="#ffffcc" stroke="#000000" points="452,-92 400,-92 398,-90 398,-74 450,-74 452,-76 452,-92"/>
<polyline fill="none" stroke="#000000" points="450,-90 398,-90 "/>
<polyline fill="none" stroke="#000000" points="450,-90 450,-74 "/>
<polyline fill="none" stroke="#000000" points="450,-90 452,-92 "/>
<text text-anchor="middle" x="425" y="-80.8" font-family="Helvetica,sans-Serif" font-size="9.00" fill="#000000">focus</text>
</a>
</g>
</g>
<!-- src/scenes/ReaderScene.tsx&#45;&gt;src/modules/focus -->
<g id="edge20" class="edge">
<title>src/scenes/ReaderScene.tsx&#45;&gt;src/modules/focus</title>
<path fill="none" stroke="#000000" stroke-width="2" stroke-opacity="0.200000" d="M115,-77.0843C115,-87.749 115,-104 115,-104 115,-104 425,-104 425,-104 425,-104 425,-98.0278 425,-98.0278"/>
<polygon fill="#000000" fill-opacity="0.200000" stroke="#000000" stroke-width="2" stroke-opacity="0.200000" points="427.1001,-98.0277 425,-92.0278 422.9001,-98.0278 427.1001,-98.0277"/>
</g>
<!-- src/modules/river -->
<g id="node8" class="node">
<title>src/modules/river</title>
<g id="a_node8"><a xlink:href="src/modules/river" xlink:title="river">
<polygon fill="#ffffcc" stroke="#000000" points="385,-92 333,-92 331,-90 331,-74 383,-74 385,-76 385,-92"/>
<polyline fill="none" stroke="#000000" points="383,-90 331,-90 "/>
<polyline fill="none" stroke="#000000" points="383,-90 383,-74 "/>
<polyline fill="none" stroke="#000000" points="383,-90 385,-92 "/>
<text text-anchor="middle" x="358" y="-80.8" font-family="Helvetica,sans-Serif" font-size="9.00" fill="#000000">river</text>
</a>
</g>
</g>
<!-- src/scenes/ReaderScene.tsx&#45;&gt;src/modules/river -->
<g id="edge21" class="edge">
<title>src/scenes/ReaderScene.tsx&#45;&gt;src/modules/river</title>
<path fill="none" stroke="#000000" stroke-width="2" stroke-opacity="0.200000" d="M144,-77.0224C144,-80.8745 144,-84.5 144,-84.5 144,-84.5 324.8968,-84.5 324.8968,-84.5"/>
<polygon fill="#000000" fill-opacity="0.200000" stroke="#000000" stroke-width="2" stroke-opacity="0.200000" points="324.8968,-86.6001 330.8968,-84.5 324.8967,-82.4001 324.8968,-86.6001"/>
</g>
<!-- src/modules/cards -->
<g id="node3" class="node">
<title>src/modules/cards</title>
<g id="a_node3"><a xlink:href="src/modules/cards" xlink:title="cards">
<polygon fill="#ffffcc" stroke="#000000" points="452,-62 400,-62 398,-60 398,-44 450,-44 452,-46 452,-62"/>
<polyline fill="none" stroke="#000000" points="450,-60 398,-60 "/>
<polyline fill="none" stroke="#000000" points="450,-60 450,-44 "/>
<polyline fill="none" stroke="#000000" points="450,-60 452,-62 "/>
<text text-anchor="middle" x="425" y="-50.8" font-family="Helvetica,sans-Serif" font-size="9.00" fill="#000000">cards</text>
</a>
</g>
</g>
<!-- src/modules/control&#45;&gt;src/modules/creation -->
<g id="edge2" class="edge">
<title>src/modules/control&#45;&gt;src/modules/creation</title>
<path fill="none" stroke="#000000" stroke-width="2" stroke-opacity="0.200000" d="M251.3016,-65.4286C266.3451,-65.4286 282,-65.4286 282,-65.4286 282,-65.4286 282,-65.089 282,-65.089"/>
<polygon fill="#000000" fill-opacity="0.200000" stroke="#000000" stroke-width="2" stroke-opacity="0.200000" points="284.1002,-68.0323 282,-62.0324 279.9002,-68.0325 284.1002,-68.0323"/>
</g>
<!-- src/modules/control&#45;&gt;src/modules/display -->
<g id="edge3" class="edge">
<title>src/modules/control&#45;&gt;src/modules/display</title>
<path fill="none" stroke="#000000" stroke-width="2" stroke-opacity="0.200000" d="M251.155,-67.1429C318.3511,-67.1429 487,-67.1429 487,-67.1429 487,-67.1429 487,-66.6323 487,-66.6323"/>
<polygon fill="#000000" fill-opacity="0.200000" stroke="#000000" stroke-width="2" stroke-opacity="0.200000" points="489.1001,-68.0369 487,-62.037 484.9001,-68.037 489.1001,-68.0369"/>
</g>
<!-- src/modules/control&#45;&gt;src/modules/focus -->
<g id="edge4" class="edge">
<title>src/modules/control&#45;&gt;src/modules/focus</title>
<path fill="none" stroke="#000000" stroke-width="2" stroke-opacity="0.200000" d="M251.1078,-70.5714C305.9722,-70.5714 425,-70.5714 425,-70.5714 425,-70.5714 425,-70.911 425,-70.911"/>
<polygon fill="#000000" fill-opacity="0.200000" stroke="#000000" stroke-width="2" stroke-opacity="0.200000" points="422.9002,-67.9675 425,-73.9676 427.1002,-67.9677 422.9002,-67.9675"/>
</g>
<!-- src/modules/control&#45;&gt;src/modules/river -->
<g id="edge5" class="edge">
<title>src/modules/control&#45;&gt;src/modules/river</title>
<path fill="none" stroke="#000000" stroke-width="2" stroke-opacity="0.200000" d="M251.0716,-72.2857C285.9092,-72.2857 342,-72.2857 342,-72.2857 342,-72.2857 342,-72.4531 342,-72.4531"/>
<polygon fill="#000000" fill-opacity="0.200000" stroke="#000000" stroke-width="2" stroke-opacity="0.200000" points="339.9004,-67.9597 342,-73.9598 344.1004,-67.96 339.9004,-67.9597"/>
</g>
<!-- src/modules/creation&#45;&gt;src/modules/cards -->
<g id="edge6" class="edge">
<title>src/modules/creation&#45;&gt;src/modules/cards</title>
<path fill="none" stroke="#000000" stroke-width="2" stroke-opacity="0.200000" d="M318.1169,-47.6C318.1169,-47.6 391.9234,-47.6 391.9234,-47.6"/>
<polygon fill="#000000" fill-opacity="0.200000" stroke="#000000" stroke-width="2" stroke-opacity="0.200000" points="391.9235,-49.7001 397.9234,-47.6 391.9234,-45.5001 391.9235,-49.7001"/>
</g>
<!-- src/modules/creation&#45;&gt;src/modules/display -->
<g id="edge7" class="edge">
<title>src/modules/creation&#45;&gt;src/modules/display</title>
<path fill="none" stroke="#000000" stroke-width="2" stroke-opacity="0.200000" d="M300,-62.0402C300,-63.0446 300,-63.7143 300,-63.7143 300,-63.7143 476,-63.7143 476,-63.7143 476,-63.7143 476,-63.5469 476,-63.5469"/>
<polygon fill="#000000" fill-opacity="0.200000" stroke="#000000" stroke-width="2" stroke-opacity="0.200000" points="478.1004,-68.04 476,-62.0402 473.9004,-68.0403 478.1004,-68.04"/>
</g>
<!-- src/modules/creation&#45;&gt;src/modules/focus -->
<g id="edge8" class="edge">
<title>src/modules/creation&#45;&gt;src/modules/focus</title>
<path fill="none" stroke="#000000" stroke-width="2" stroke-opacity="0.200000" d="M318.0661,-51.2C347.9836,-51.2 392,-51.2 392,-51.2 392,-51.2 392,-80 392,-80 392,-80 392.5748,-80 392.5748,-80"/>
<polygon fill="#000000" fill-opacity="0.200000" stroke="#000000" stroke-width="2" stroke-opacity="0.200000" points="391.7482,-82.1001 397.7482,-80 391.7481,-77.9001 391.7482,-82.1001"/>
</g>
<!-- src/modules/creation&#45;&gt;src/modules/river -->
<g id="edge9" class="edge">
<title>src/modules/creation&#45;&gt;src/modules/river</title>
<path fill="none" stroke="#000000" stroke-width="2" stroke-opacity="0.200000" d="M318.1825,-58.4C338.9374,-58.4 364,-58.4 364,-58.4 364,-58.4 364,-67.8399 364,-67.8399"/>
<polygon fill="#000000" fill-opacity="0.200000" stroke="#000000" stroke-width="2" stroke-opacity="0.200000" points="361.9001,-67.8398 364,-73.8399 366.1001,-67.8399 361.9001,-67.8398"/>
</g>
<!-- src/shared -->
<g id="node9" class="node">
<title>src/shared</title>
<g id="a_node9"><a xlink:href="src/shared" xlink:title="shared">
<polygon fill="#ffffcc" stroke="#000000" points="589,-62 537,-62 535,-60 535,-44 587,-44 589,-46 589,-62"/>
<polyline fill="none" stroke="#000000" points="587,-60 535,-60 "/>
<polyline fill="none" stroke="#000000" points="587,-60 587,-44 "/>
<polyline fill="none" stroke="#000000" points="587,-60 589,-62 "/>
<text text-anchor="middle" x="562" y="-50.8" font-family="Helvetica,sans-Serif" font-size="9.00" fill="#000000">shared</text>
</a>
</g>
</g>
<!-- src/modules/creation&#45;&gt;src/shared -->
<g id="edge10" class="edge">
<title>src/modules/creation&#45;&gt;src/shared</title>
<path fill="none" stroke="#000000" stroke-width="2" stroke-opacity="0.200000" d="M291,-43.9722C291,-38.2805 291,-32 291,-32 291,-32 562,-32 562,-32 562,-32 562,-37.9722 562,-37.9722"/>
<polygon fill="#000000" fill-opacity="0.200000" stroke="#000000" stroke-width="2" stroke-opacity="0.200000" points="559.9001,-37.9722 562,-43.9722 564.1001,-37.9723 559.9001,-37.9722"/>
</g>
<!-- src/modules/display&#45;&gt;src/shared -->
<g id="edge11" class="edge">
<title>src/modules/display&#45;&gt;src/shared</title>
<path fill="none" stroke="#000000" stroke-width="2" stroke-opacity="0.200000" d="M519.2643,-53C519.2643,-53 528.695,-53 528.695,-53"/>
<polygon fill="#000000" fill-opacity="0.200000" stroke="#000000" stroke-width="2" stroke-opacity="0.200000" points="528.695,-55.1001 534.695,-53 528.695,-50.9001 528.695,-55.1001"/>
</g>
<!-- src/modules/focus&#45;&gt;src/modules/display -->
<g id="edge12" class="edge">
<title>src/modules/focus&#45;&gt;src/modules/display</title>
<path fill="none" stroke="#000000" stroke-width="2" stroke-opacity="0.200000" d="M452.0405,-83C476.5964,-83 509,-83 509,-83 509,-83 509,-68.164 509,-68.164"/>
<polygon fill="#000000" fill-opacity="0.200000" stroke="#000000" stroke-width="2" stroke-opacity="0.200000" points="511.1001,-68.164 509,-62.164 506.9001,-68.164 511.1001,-68.164"/>
</g>
<!-- src/modules/river&#45;&gt;src/modules/cards -->
<g id="edge13" class="edge">
<title>src/modules/river&#45;&gt;src/modules/cards</title>
<path fill="none" stroke="#000000" stroke-width="2" stroke-opacity="0.200000" d="M375,-73.7663C375,-65.542 375,-54.8 375,-54.8 375,-54.8 391.9513,-54.8 391.9513,-54.8"/>
<polygon fill="#000000" fill-opacity="0.200000" stroke="#000000" stroke-width="2" stroke-opacity="0.200000" points="391.9513,-56.9001 397.9513,-54.8 391.9512,-52.7001 391.9513,-56.9001"/>
</g>
<!-- src/modules/river&#45;&gt;src/modules/display -->
<g id="edge16" class="edge">
<title>src/modules/river&#45;&gt;src/modules/display</title>
<path fill="none" stroke="#000000" stroke-width="2" stroke-opacity="0.200000" d="M353,-73.963C353,-71.1913 353,-68.8571 353,-68.8571 353,-68.8571 498,-68.8571 498,-68.8571 498,-68.8571 498,-68.0403 498,-68.0403"/>
<polygon fill="#000000" fill-opacity="0.200000" stroke="#000000" stroke-width="2" stroke-opacity="0.200000" points="500.1001,-68.0402 498,-62.0403 495.9001,-68.0403 500.1001,-68.0402"/>
</g>
<!-- src/modules/river&#45;&gt;src/modules/focus -->
<g id="edge15" class="edge">
<title>src/modules/river&#45;&gt;src/modules/focus</title>
<path fill="none" stroke="#000000" stroke-width="2" stroke-opacity="0.200000" d="M385.2515,-86C385.2515,-86 391.9899,-86 391.9899,-86"/>
<polygon fill="#000000" fill-opacity="0.200000" stroke="#000000" stroke-width="2" stroke-opacity="0.200000" points="391.9899,-88.1001 397.9899,-86 391.9899,-83.9001 391.9899,-88.1001"/>
</g>
<!-- src/modules/river&#45;&gt;src/shared -->
<g id="edge14" class="edge">
<title>src/modules/river&#45;&gt;src/shared</title>
<path fill="none" stroke="#000000" stroke-width="2" stroke-opacity="0.200000" d="M358,-92.0174C358,-101.7881 358,-116 358,-116 358,-116 562,-116 562,-116 562,-116 562,-68.0264 562,-68.0264"/>
<polygon fill="#000000" fill-opacity="0.200000" stroke="#000000" stroke-width="2" stroke-opacity="0.200000" points="564.1001,-68.0263 562,-62.0264 559.9001,-68.0264 564.1001,-68.0263"/>
</g>
</g>
</svg>
