<?xml version="1.0" encoding="UTF-8" standalone="no"?>
<!DOCTYPE svg PUBLIC "-//W3C//DTD SVG 1.1//EN"
 "http://www.w3.org/Graphics/SVG/1.1/DTD/svg11.dtd">
<!-- Generated by graphviz version 2.40.1 (20161225.0304)
 -->
<!-- Title: dependency&#45;cruiser output Pages: 1 -->
<svg width="685pt" height="192pt"
 viewBox="0.00 0.00 685.00 192.00" xmlns="http://www.w3.org/2000/svg" xmlns:xlink="http://www.w3.org/1999/xlink">
<g id="graph0" class="graph" transform="scale(1 1) rotate(0) translate(4 188)">
<title>dependency&#45;cruiser output</title>
<polygon fill="#ffffff" stroke="transparent" points="-4,4 -4,-188 681,-188 681,4 -4,4"/>
<g id="clust1" class="cluster">
<title>cluster_src</title>
<path fill="#ffffff" stroke="#000000" stroke-width="2" d="M20,-8C20,-8 657,-8 657,-8 663,-8 669,-14 669,-20 669,-20 669,-164 669,-164 669,-170 663,-176 657,-176 657,-176 20,-176 20,-176 14,-176 8,-170 8,-164 8,-164 8,-20 8,-20 8,-14 14,-8 20,-8"/>
<text text-anchor="middle" x="338.5" y="-164.8" font-family="Helvetica,sans-Serif" font-weight="bold" font-size="9.00" fill="#000000">src</text>
</g>
<g id="clust2" class="cluster">
<title>cluster_src/modules</title>
<path fill="#ffffff" stroke="#000000" stroke-width="2" d="M201,-42C201,-42 649,-42 649,-42 655,-42 661,-48 661,-54 661,-54 661,-138 661,-138 661,-144 655,-150 649,-150 649,-150 201,-150 201,-150 195,-150 189,-144 189,-138 189,-138 189,-54 189,-54 189,-48 195,-42 201,-42"/>
<text text-anchor="middle" x="425" y="-138.8" font-family="Helvetica,sans-Serif" font-weight="bold" font-size="9.00" fill="#000000">modules</text>
</g>
<g id="clust3" class="cluster">
<title>cluster_src/scenes</title>
<path fill="#ffffff" stroke="#000000" stroke-width="2" d="M90,-94C90,-94 169,-94 169,-94 175,-94 181,-100 181,-106 181,-106 181,-134 181,-134 181,-140 175,-146 169,-146 169,-146 90,-146 90,-146 84,-146 78,-140 78,-134 78,-134 78,-106 78,-106 78,-100 84,-94 90,-94"/>
<text text-anchor="middle" x="129.5" y="-134.8" font-family="Helvetica,sans-Serif" font-weight="bold" font-size="9.00" fill="#000000">scenes</text>
</g>
<!-- src/index.tsx -->
<g id="node1" class="node">
<title>src/index.tsx</title>
<g id="a_node1"><a xlink:href="src/index.tsx" xlink:title="index.tsx">
<path fill="#bbfeff" stroke="#000000" d="M64,-120C64,-120 22,-120 22,-120 19,-120 16,-117 16,-114 16,-114 16,-108 16,-108 16,-105 19,-102 22,-102 22,-102 64,-102 64,-102 67,-102 70,-105 70,-108 70,-108 70,-114 70,-114 70,-117 67,-120 64,-120"/>
<text text-anchor="middle" x="43" y="-108.8" font-family="Helvetica,sans-Serif" font-size="9.00" fill="#000000">index.tsx</text>
</a>
</g>
</g>
<!-- src/scenes/ReaderScene.tsx -->
<g id="node2" class="node">
<title>src/scenes/ReaderScene.tsx</title>
<g id="a_node2"><a xlink:href="src/scenes/ReaderScene.tsx" xlink:title="ReaderScene.tsx">
<path fill="#bbfeff" stroke="#000000" d="M167,-120C167,-120 92,-120 92,-120 89,-120 86,-117 86,-114 86,-114 86,-108 86,-108 86,-105 89,-102 92,-102 92,-102 167,-102 167,-102 170,-102 173,-105 173,-108 173,-108 173,-114 173,-114 173,-117 170,-120 167,-120"/>
<text text-anchor="middle" x="129.5" y="-108.8" font-family="Helvetica,sans-Serif" font-size="9.00" fill="#000000">ReaderScene.tsx</text>
</a>
</g>
</g>
<!-- src/index.tsx&#45;&gt;src/scenes/ReaderScene.tsx -->
<g id="edge1" class="edge">
<title>src/index.tsx&#45;&gt;src/scenes/ReaderScene.tsx</title>
<path fill="none" stroke="#000000" stroke-width="2" stroke-opacity="0.200000" d="M70.3691,-111C70.3691,-111 79.8699,-111 79.8699,-111"/>
<polygon fill="#000000" fill-opacity="0.200000" stroke="#000000" stroke-width="2" stroke-opacity="0.200000" points="79.8699,-113.1001 85.8699,-111 79.8698,-108.9001 79.8699,-113.1001"/>
</g>
<!-- src/modules/control -->
<g id="node5" class="node">
<title>src/modules/control</title>
<g id="a_node5"><a xlink:href="src/modules/control" xlink:title="control">
<polygon fill="#ffffcc" stroke="#000000" points="251,-113 199,-113 197,-111 197,-95 249,-95 251,-97 251,-113"/>
<polyline fill="none" stroke="#000000" points="249,-111 197,-111 "/>
<polyline fill="none" stroke="#000000" points="249,-111 249,-95 "/>
<polyline fill="none" stroke="#000000" points="249,-111 251,-113 "/>
<text text-anchor="middle" x="224" y="-101.8" font-family="Helvetica,sans-Serif" font-size="9.00" fill="#000000">control</text>
</a>
</g>
</g>
<!-- src/scenes/ReaderScene.tsx&#45;&gt;src/modules/control -->
<g id="edge23" class="edge">
<title>src/scenes/ReaderScene.tsx&#45;&gt;src/modules/control</title>
<path fill="none" stroke="#000000" stroke-width="2" stroke-opacity="0.200000" d="M173.154,-107.5C173.154,-107.5 190.9873,-107.5 190.9873,-107.5"/>
<polygon fill="#000000" fill-opacity="0.200000" stroke="#000000" stroke-width="2" stroke-opacity="0.200000" points="190.9873,-109.6001 196.9873,-107.5 190.9873,-105.4001 190.9873,-109.6001"/>
</g>
<!-- src/modules/river -->
<g id="node7" class="node">
<title>src/modules/river</title>
<g id="a_node7"><a xlink:href="src/modules/river" xlink:title="river">
<polygon fill="#ffffcc" stroke="#000000" points="519,-82 467,-82 465,-80 465,-64 517,-64 519,-66 519,-82"/>
<polyline fill="none" stroke="#000000" points="517,-80 465,-80 "/>
<polyline fill="none" stroke="#000000" points="517,-80 517,-64 "/>
<polyline fill="none" stroke="#000000" points="517,-80 519,-82 "/>
<text text-anchor="middle" x="492" y="-70.8" font-family="Helvetica,sans-Serif" font-size="9.00" fill="#000000">river</text>
</a>
</g>
</g>
<!-- src/scenes/ReaderScene.tsx&#45;&gt;src/modules/river -->
<g id="edge25" class="edge">
<title>src/scenes/ReaderScene.tsx&#45;&gt;src/modules/river</title>
<path fill="none" stroke="#000000" stroke-width="2" stroke-opacity="0.200000" d="M173.2082,-118.6C271.4112,-118.6 501,-118.6 501,-118.6 501,-118.6 501,-88.2278 501,-88.2278"/>
<polygon fill="#000000" fill-opacity="0.200000" stroke="#000000" stroke-width="2" stroke-opacity="0.200000" points="503.1001,-88.2278 501,-82.2278 498.9001,-88.2279 503.1001,-88.2278"/>
</g>
<!-- src/modules/creation -->
<g id="node8" class="node">
<title>src/modules/creation</title>
<g id="a_node8"><a xlink:href="src/modules/creation" xlink:title="creation">
<polygon fill="#ffffcc" stroke="#000000" points="318,-110 266,-110 264,-108 264,-92 316,-92 318,-94 318,-110"/>
<polyline fill="none" stroke="#000000" points="316,-108 264,-108 "/>
<polyline fill="none" stroke="#000000" points="316,-108 316,-92 "/>
<polyline fill="none" stroke="#000000" points="316,-108 318,-110 "/>
<text text-anchor="middle" x="291" y="-98.8" font-family="Helvetica,sans-Serif" font-size="9.00" fill="#000000">creation</text>
</a>
</g>
</g>
<!-- src/scenes/ReaderScene.tsx&#45;&gt;src/modules/creation -->
<g id="edge24" class="edge">
<title>src/scenes/ReaderScene.tsx&#45;&gt;src/modules/creation</title>
<path fill="none" stroke="#000000" stroke-width="2" stroke-opacity="0.200000" d="M173.2042,-117.2C221.0331,-117.2 291,-117.2 291,-117.2 291,-117.2 291,-116.2357 291,-116.2357"/>
<polygon fill="#000000" fill-opacity="0.200000" stroke="#000000" stroke-width="2" stroke-opacity="0.200000" points="293.1001,-116.2357 291,-110.2357 288.9001,-116.2358 293.1001,-116.2357"/>
</g>
<!-- src/modules/cards -->
<g id="node3" class="node">
<title>src/modules/cards</title>
<g id="a_node3"><a xlink:href="src/modules/cards" xlink:title="cards">
<polygon fill="#ffffcc" stroke="#000000" points="385,-96 333,-96 331,-94 331,-78 383,-78 385,-80 385,-96"/>
<polyline fill="none" stroke="#000000" points="383,-94 331,-94 "/>
<polyline fill="none" stroke="#000000" points="383,-94 383,-78 "/>
<polyline fill="none" stroke="#000000" points="383,-94 385,-96 "/>
<text text-anchor="middle" x="358" y="-84.8" font-family="Helvetica,sans-Serif" font-size="9.00" fill="#000000">cards</text>
</a>
</g>
</g>
<!-- src/modules/db -->
<g id="node4" class="node">
<title>src/modules/db</title>
<g id="a_node4"><a xlink:href="src/modules/db" xlink:title="db">
<polygon fill="#ffffcc" stroke="#000000" points="452,-82 400,-82 398,-80 398,-64 450,-64 452,-66 452,-82"/>
<polyline fill="none" stroke="#000000" points="450,-80 398,-80 "/>
<polyline fill="none" stroke="#000000" points="450,-80 450,-64 "/>
<polyline fill="none" stroke="#000000" points="450,-80 452,-82 "/>
<text text-anchor="middle" x="425" y="-70.8" font-family="Helvetica,sans-Serif" font-size="9.00" fill="#000000">db</text>
</a>
</g>
</g>
<!-- src/modules/cards&#45;&gt;src/modules/db -->
<g id="edge2" class="edge">
<title>src/modules/cards&#45;&gt;src/modules/db</title>
<path fill="none" stroke="#000000" stroke-width="2" stroke-opacity="0.200000" d="M391.2515,-90.4C391.2515,-90.4 425,-90.4 425,-90.4 425,-90.4 425,-88.1077 425,-88.1077"/>
<polygon fill="#000000" fill-opacity="0.200000" stroke="#000000" stroke-width="2" stroke-opacity="0.200000" points="391.2515,-88.3001 385.2515,-90.4 391.2514,-92.5001 391.2515,-88.3001"/>
<polygon fill="#000000" fill-opacity="0.200000" stroke="#000000" stroke-width="2" stroke-opacity="0.200000" points="427.1001,-88.1076 425,-82.1077 422.9001,-88.1077 427.1001,-88.1076"/>
</g>
<!-- src/modules/db&#45;&gt;src/modules/river -->
<g id="edge15" class="edge">
<title>src/modules/db&#45;&gt;src/modules/river</title>
<path fill="none" stroke="#000000" stroke-width="2" stroke-opacity="0.200000" d="M458.2515,-73C458.2515,-73 458.9899,-73 458.9899,-73"/>
<polygon fill="#000000" fill-opacity="0.200000" stroke="#000000" stroke-width="2" stroke-opacity="0.200000" points="458.9899,-75.1001 464.9899,-73 458.9899,-70.9001 458.9899,-75.1001"/>
<polygon fill="#000000" fill-opacity="0.200000" stroke="#000000" stroke-width="2" stroke-opacity="0.200000" points="458.2515,-70.9001 452.2515,-73 458.2514,-75.1001 458.2515,-70.9001"/>
</g>
<!-- src/modules/control&#45;&gt;src/modules/cards -->
<g id="edge3" class="edge">
<title>src/modules/control&#45;&gt;src/modules/cards</title>
<path fill="none" stroke="#000000" stroke-width="2" stroke-opacity="0.200000" d="M233,-94.8289C233,-89.0469 233,-82.6667 233,-82.6667 233,-82.6667 324.8769,-82.6667 324.8769,-82.6667"/>
<polygon fill="#000000" fill-opacity="0.200000" stroke="#000000" stroke-width="2" stroke-opacity="0.200000" points="324.8769,-84.7668 330.8769,-82.6667 324.8768,-80.5668 324.8769,-84.7668"/>
</g>
<!-- src/modules/control&#45;&gt;src/modules/db -->
<g id="edge4" class="edge">
<title>src/modules/control&#45;&gt;src/modules/db</title>
<path fill="none" stroke="#000000" stroke-width="2" stroke-opacity="0.200000" d="M215,-94.9826C215,-85.2119 215,-71 215,-71 215,-71 391.9761,-71 391.9761,-71"/>
<polygon fill="#000000" fill-opacity="0.200000" stroke="#000000" stroke-width="2" stroke-opacity="0.200000" points="391.9761,-73.1001 397.9761,-71 391.976,-68.9001 391.9761,-73.1001"/>
</g>
<!-- src/modules/display -->
<g id="node6" class="node">
<title>src/modules/display</title>
<g id="a_node6"><a xlink:href="src/modules/display" xlink:title="display">
<polygon fill="#ffffcc" stroke="#000000" points="586,-82 534,-82 532,-80 532,-64 584,-64 586,-66 586,-82"/>
<polyline fill="none" stroke="#000000" points="584,-80 532,-80 "/>
<polyline fill="none" stroke="#000000" points="584,-80 584,-64 "/>
<polyline fill="none" stroke="#000000" points="584,-80 586,-82 "/>
<text text-anchor="middle" x="559" y="-70.8" font-family="Helvetica,sans-Serif" font-size="9.00" fill="#000000">display</text>
</a>
</g>
</g>
<!-- src/modules/control&#45;&gt;src/modules/display -->
<g id="edge5" class="edge">
<title>src/modules/control&#45;&gt;src/modules/display</title>
<path fill="none" stroke="#000000" stroke-width="2" stroke-opacity="0.200000" d="M224,-113.0632C224,-114.6477 224,-115.8 224,-115.8 224,-115.8 559,-115.8 559,-115.8 559,-115.8 559,-88.0768 559,-88.0768"/>
<polygon fill="#000000" fill-opacity="0.200000" stroke="#000000" stroke-width="2" stroke-opacity="0.200000" points="561.1001,-88.0767 559,-82.0768 556.9001,-88.0768 561.1001,-88.0767"/>
</g>
<!-- src/modules/control&#45;&gt;src/modules/river -->
<g id="edge6" class="edge">
<title>src/modules/control&#45;&gt;src/modules/river</title>
<path fill="none" stroke="#000000" stroke-width="2" stroke-opacity="0.200000" d="M238,-113.1248C238,-113.9023 238,-114.4 238,-114.4 238,-114.4 492,-114.4 492,-114.4 492,-114.4 492,-88.188 492,-88.188"/>
<polygon fill="#000000" fill-opacity="0.200000" stroke="#000000" stroke-width="2" stroke-opacity="0.200000" points="494.1001,-88.188 492,-82.188 489.9001,-88.188 494.1001,-88.188"/>
</g>
<!-- src/modules/control&#45;&gt;src/modules/creation -->
<g id="edge7" class="edge">
<title>src/modules/control&#45;&gt;src/modules/creation</title>
<path fill="none" stroke="#000000" stroke-width="2" stroke-opacity="0.200000" d="M251.2515,-102.5C251.2515,-102.5 257.9899,-102.5 257.9899,-102.5"/>
<polygon fill="#000000" fill-opacity="0.200000" stroke="#000000" stroke-width="2" stroke-opacity="0.200000" points="257.9899,-104.6001 263.9899,-102.5 257.9899,-100.4001 257.9899,-104.6001"/>
</g>
<!-- src/modules/focus -->
<g id="node9" class="node">
<title>src/modules/focus</title>
<g id="a_node9"><a xlink:href="src/modules/focus" xlink:title="focus">
<polygon fill="#ffffcc" stroke="#000000" points="653,-100 601,-100 599,-98 599,-82 651,-82 653,-84 653,-100"/>
<polyline fill="none" stroke="#000000" points="651,-98 599,-98 "/>
<polyline fill="none" stroke="#000000" points="651,-98 651,-82 "/>
<polyline fill="none" stroke="#000000" points="651,-98 653,-100 "/>
<text text-anchor="middle" x="626" y="-88.8" font-family="Helvetica,sans-Serif" font-size="9.00" fill="#000000">focus</text>
</a>
</g>
</g>
<!-- src/modules/control&#45;&gt;src/modules/focus -->
<g id="edge8" class="edge">
<title>src/modules/control&#45;&gt;src/modules/focus</title>
<path fill="none" stroke="#000000" stroke-width="2" stroke-opacity="0.200000" d="M211,-113.2906C211,-123.3574 211,-138 211,-138 211,-138 635,-138 635,-138 635,-138 635,-106.0621 635,-106.0621"/>
<polygon fill="#000000" fill-opacity="0.200000" stroke="#000000" stroke-width="2" stroke-opacity="0.200000" points="637.1001,-106.062 635,-100.0621 632.9001,-106.0621 637.1001,-106.062"/>
</g>
<!-- src/modules/display&#45;&gt;src/modules/focus -->
<g id="edge17" class="edge">
<title>src/modules/display&#45;&gt;src/modules/focus</title>
<path fill="none" stroke="#000000" stroke-width="2" stroke-opacity="0.200000" d="M573,-82.0632C573,-83.6477 573,-84.8 573,-84.8 573,-84.8 592.879,-84.8 592.879,-84.8"/>
<polygon fill="#000000" fill-opacity="0.200000" stroke="#000000" stroke-width="2" stroke-opacity="0.200000" points="592.879,-86.9001 598.879,-84.8 592.8789,-82.7001 592.879,-86.9001"/>
</g>
<!-- src/shared -->
<g id="node10" class="node">
<title>src/shared</title>
<g id="a_node10"><a xlink:href="src/shared" xlink:title="shared">
<polygon fill="#ffffcc" stroke="#000000" points="653,-34 601,-34 599,-32 599,-16 651,-16 653,-18 653,-34"/>
<polyline fill="none" stroke="#000000" points="651,-32 599,-32 "/>
<polyline fill="none" stroke="#000000" points="651,-32 651,-16 "/>
<polyline fill="none" stroke="#000000" points="651,-32 653,-34 "/>
<text text-anchor="middle" x="626" y="-22.8" font-family="Helvetica,sans-Serif" font-size="9.00" fill="#000000">shared</text>
</a>
</g>
</g>
<!-- src/modules/display&#45;&gt;src/shared -->
<g id="edge16" class="edge">
<title>src/modules/display&#45;&gt;src/shared</title>
<path fill="none" stroke="#000000" stroke-width="2" stroke-opacity="0.200000" d="M559,-63.7748C559,-51.0057 559,-29.5 559,-29.5 559,-29.5 592.7485,-29.5 592.7485,-29.5"/>
<polygon fill="#000000" fill-opacity="0.200000" stroke="#000000" stroke-width="2" stroke-opacity="0.200000" points="592.7486,-31.6001 598.7485,-29.5 592.7485,-27.4001 592.7486,-31.6001"/>
</g>
<!-- src/modules/river&#45;&gt;src/modules/cards -->
<g id="edge18" class="edge">
<title>src/modules/river&#45;&gt;src/modules/cards</title>
<path fill="none" stroke="#000000" stroke-width="2" stroke-opacity="0.200000" d="M474,-82.1544C474,-87.499 474,-93.2 474,-93.2 474,-93.2 391.1968,-93.2 391.1968,-93.2"/>
<polygon fill="#000000" fill-opacity="0.200000" stroke="#000000" stroke-width="2" stroke-opacity="0.200000" points="391.1969,-91.1001 385.1968,-93.2 391.1968,-95.3001 391.1969,-91.1001"/>
</g>
<!-- src/modules/river&#45;&gt;src/modules/display -->
<g id="edge19" class="edge">
<title>src/modules/river&#45;&gt;src/modules/display</title>
<path fill="none" stroke="#000000" stroke-width="2" stroke-opacity="0.200000" d="M519.2515,-73C519.2515,-73 525.9899,-73 525.9899,-73"/>
<polygon fill="#000000" fill-opacity="0.200000" stroke="#000000" stroke-width="2" stroke-opacity="0.200000" points="525.9899,-75.1001 531.9899,-73 525.9899,-70.9001 525.9899,-75.1001"/>
</g>
<!-- src/modules/river&#45;&gt;src/modules/focus -->
<g id="edge20" class="edge">
<title>src/modules/river&#45;&gt;src/modules/focus</title>
<path fill="none" stroke="#000000" stroke-width="2" stroke-opacity="0.200000" d="M510,-82.3291C510,-85.1904 510,-87.6 510,-87.6 510,-87.6 592.8032,-87.6 592.8032,-87.6"/>
<polygon fill="#000000" fill-opacity="0.200000" stroke="#000000" stroke-width="2" stroke-opacity="0.200000" points="592.8032,-89.7001 598.8032,-87.6 592.8031,-85.5001 592.8032,-89.7001"/>
</g>
<!-- src/modules/river&#45;&gt;src/shared -->
<g id="edge21" class="edge">
<title>src/modules/river&#45;&gt;src/shared</title>
<path fill="none" stroke="#000000" stroke-width="2" stroke-opacity="0.200000" d="M492,-63.7451C492,-49.7969 492,-25 492,-25 492,-25 592.8831,-25 592.8831,-25"/>
<polygon fill="#000000" fill-opacity="0.200000" stroke="#000000" stroke-width="2" stroke-opacity="0.200000" points="592.8831,-27.1001 598.8831,-25 592.8831,-22.9001 592.8831,-27.1001"/>
</g>
<!-- src/modules/creation&#45;&gt;src/modules/cards -->
<g id="edge9" class="edge">
<title>src/modules/creation&#45;&gt;src/modules/cards</title>
<path fill="none" stroke="#000000" stroke-width="2" stroke-opacity="0.200000" d="M300,-91.9602C300,-89.4187 300,-87.3333 300,-87.3333 300,-87.3333 324.6984,-87.3333 324.6984,-87.3333"/>
<polygon fill="#000000" fill-opacity="0.200000" stroke="#000000" stroke-width="2" stroke-opacity="0.200000" points="324.6984,-89.4334 330.6984,-87.3333 324.6983,-85.2334 324.6984,-89.4334"/>
</g>
<!-- src/modules/creation&#45;&gt;src/modules/display -->
<g id="edge10" class="edge">
<title>src/modules/creation&#45;&gt;src/modules/display</title>
<path fill="none" stroke="#000000" stroke-width="2" stroke-opacity="0.200000" d="M318.2895,-105C384.0725,-105 546,-105 546,-105 546,-105 546,-88.0843 546,-88.0843"/>
<polygon fill="#000000" fill-opacity="0.200000" stroke="#000000" stroke-width="2" stroke-opacity="0.200000" points="548.1001,-88.0843 546,-82.0843 543.9001,-88.0844 548.1001,-88.0843"/>
</g>
<!-- src/modules/creation&#45;&gt;src/modules/river -->
<g id="edge12" class="edge">
<title>src/modules/creation&#45;&gt;src/modules/river</title>
<path fill="none" stroke="#000000" stroke-width="2" stroke-opacity="0.200000" d="M318.1017,-102.5C371.0266,-102.5 483,-102.5 483,-102.5 483,-102.5 483,-88.0113 483,-88.0113"/>
<polygon fill="#000000" fill-opacity="0.200000" stroke="#000000" stroke-width="2" stroke-opacity="0.200000" points="485.1001,-88.0112 483,-82.0113 480.9001,-88.0113 485.1001,-88.0112"/>
</g>
<!-- src/modules/creation&#45;&gt;src/modules/focus -->
<g id="edge11" class="edge">
<title>src/modules/creation&#45;&gt;src/modules/focus</title>
<path fill="none" stroke="#000000" stroke-width="2" stroke-opacity="0.200000" d="M318.2339,-107.5C396.5846,-107.5 617,-107.5 617,-107.5 617,-107.5 617,-106.0224 617,-106.0224"/>
<polygon fill="#000000" fill-opacity="0.200000" stroke="#000000" stroke-width="2" stroke-opacity="0.200000" points="619.1001,-106.0224 617,-100.0224 614.9001,-106.0225 619.1001,-106.0224"/>
</g>
<!-- src/modules/creation&#45;&gt;src/shared -->
<g id="edge13" class="edge">
<title>src/modules/creation&#45;&gt;src/shared</title>
<path fill="none" stroke="#000000" stroke-width="2" stroke-opacity="0.200000" d="M282,-91.7656C282,-70.6209 282,-20.5 282,-20.5 282,-20.5 592.7194,-20.5 592.7194,-20.5"/>
<polygon fill="#000000" fill-opacity="0.200000" stroke="#000000" stroke-width="2" stroke-opacity="0.200000" points="592.7194,-22.6001 598.7194,-20.5 592.7193,-18.4001 592.7194,-22.6001"/>
</g>
</g>
</svg>
