<?xml version="1.0" encoding="UTF-8" standalone="no"?>
<!DOCTYPE svg PUBLIC "-//W3C//DTD SVG 1.1//EN"
 "http://www.w3.org/Graphics/SVG/1.1/DTD/svg11.dtd">
<!-- Generated by graphviz version 2.40.1 (20161225.0304)
 -->
<!-- Title: dependency&#45;cruiser output Pages: 1 -->
<svg width="754pt" height="248pt"
 viewBox="0.00 0.00 754.00 248.00" xmlns="http://www.w3.org/2000/svg" xmlns:xlink="http://www.w3.org/1999/xlink">
<g id="graph0" class="graph" transform="scale(1 1) rotate(0) translate(4 244)">
<title>dependency&#45;cruiser output</title>
<polygon fill="#ffffff" stroke="transparent" points="-4,4 -4,-244 750,-244 750,4 -4,4"/>
<g id="clust1" class="cluster">
<title>cluster_src</title>
<path fill="#ffffff" stroke="#000000" stroke-width="2" d="M20,-8C20,-8 726,-8 726,-8 732,-8 738,-14 738,-20 738,-20 738,-220 738,-220 738,-226 732,-232 726,-232 726,-232 20,-232 20,-232 14,-232 8,-226 8,-220 8,-220 8,-20 8,-20 8,-14 14,-8 20,-8"/>
<text text-anchor="middle" x="373" y="-220.8" font-family="Helvetica,sans-Serif" font-weight="bold" font-size="9.00" fill="#000000">src</text>
</g>
<g id="clust2" class="cluster">
<title>cluster_src/modules</title>
<path fill="#ffffff" stroke="#000000" stroke-width="2" d="M201,-42C201,-42 718,-42 718,-42 724,-42 730,-48 730,-54 730,-54 730,-194 730,-194 730,-200 724,-206 718,-206 718,-206 201,-206 201,-206 195,-206 189,-200 189,-194 189,-194 189,-54 189,-54 189,-48 195,-42 201,-42"/>
<text text-anchor="middle" x="459.5" y="-194.8" font-family="Helvetica,sans-Serif" font-weight="bold" font-size="9.00" fill="#000000">modules</text>
</g>
<g id="clust3" class="cluster">
<title>cluster_src/scenes</title>
<path fill="#ffffff" stroke="#000000" stroke-width="2" d="M90,-139C90,-139 169,-139 169,-139 175,-139 181,-145 181,-151 181,-151 181,-179 181,-179 181,-185 175,-191 169,-191 169,-191 90,-191 90,-191 84,-191 78,-185 78,-179 78,-179 78,-151 78,-151 78,-145 84,-139 90,-139"/>
<text text-anchor="middle" x="129.5" y="-179.8" font-family="Helvetica,sans-Serif" font-weight="bold" font-size="9.00" fill="#000000">scenes</text>
</g>
<!-- src/index.tsx -->
<g id="node1" class="node">
<title>src/index.tsx</title>
<g id="a_node1"><a xlink:href="src/index.tsx" xlink:title="index.tsx">
<path fill="#bbfeff" stroke="#000000" d="M64,-165C64,-165 22,-165 22,-165 19,-165 16,-162 16,-159 16,-159 16,-153 16,-153 16,-150 19,-147 22,-147 22,-147 64,-147 64,-147 67,-147 70,-150 70,-153 70,-153 70,-159 70,-159 70,-162 67,-165 64,-165"/>
<text text-anchor="middle" x="43" y="-153.8" font-family="Helvetica,sans-Serif" font-size="9.00" fill="#000000">index.tsx</text>
</a>
</g>
</g>
<!-- src/scenes/ReaderScene.tsx -->
<g id="node2" class="node">
<title>src/scenes/ReaderScene.tsx</title>
<g id="a_node2"><a xlink:href="src/scenes/ReaderScene.tsx" xlink:title="ReaderScene.tsx">
<path fill="#bbfeff" stroke="#000000" d="M167,-165C167,-165 92,-165 92,-165 89,-165 86,-162 86,-159 86,-159 86,-153 86,-153 86,-150 89,-147 92,-147 92,-147 167,-147 167,-147 170,-147 173,-150 173,-153 173,-153 173,-159 173,-159 173,-162 170,-165 167,-165"/>
<text text-anchor="middle" x="129.5" y="-153.8" font-family="Helvetica,sans-Serif" font-size="9.00" fill="#000000">ReaderScene.tsx</text>
</a>
</g>
</g>
<!-- src/index.tsx&#45;&gt;src/scenes/ReaderScene.tsx -->
<g id="edge1" class="edge">
<title>src/index.tsx&#45;&gt;src/scenes/ReaderScene.tsx</title>
<path fill="none" stroke="#000000" stroke-width="2" stroke-opacity="0.200000" d="M70.3691,-156C70.3691,-156 79.8699,-156 79.8699,-156"/>
<polygon fill="#000000" fill-opacity="0.200000" stroke="#000000" stroke-width="2" stroke-opacity="0.200000" points="79.8699,-158.1001 85.8699,-156 79.8698,-153.9001 79.8699,-158.1001"/>
</g>
<!-- src/modules/control -->
<g id="node6" class="node">
<title>src/modules/control</title>
<g id="a_node6"><a xlink:href="src/modules/control" xlink:title="control">
<polygon fill="#ffffcc" stroke="#000000" points="251,-134 199,-134 197,-132 197,-116 249,-116 251,-118 251,-134"/>
<polyline fill="none" stroke="#000000" points="249,-132 197,-132 "/>
<polyline fill="none" stroke="#000000" points="249,-132 249,-116 "/>
<polyline fill="none" stroke="#000000" points="249,-132 251,-134 "/>
<text text-anchor="middle" x="224" y="-122.8" font-family="Helvetica,sans-Serif" font-size="9.00" fill="#000000">control</text>
</a>
</g>
</g>
<!-- src/scenes/ReaderScene.tsx&#45;&gt;src/modules/control -->
<g id="edge35" class="edge">
<title>src/scenes/ReaderScene.tsx&#45;&gt;src/modules/control</title>
<path fill="none" stroke="#000000" stroke-width="2" stroke-opacity="0.200000" d="M173.154,-157.5714C197.9147,-157.5714 224,-157.5714 224,-157.5714 224,-157.5714 224,-140.2465 224,-140.2465"/>
<polygon fill="#000000" fill-opacity="0.200000" stroke="#000000" stroke-width="2" stroke-opacity="0.200000" points="226.1001,-140.2465 224,-134.2465 221.9001,-140.2466 226.1001,-140.2465"/>
</g>
<!-- src/modules/river -->
<g id="node8" class="node">
<title>src/modules/river</title>
<g id="a_node8"><a xlink:href="src/modules/river" xlink:title="river">
<polygon fill="#ffffcc" stroke="#000000" points="521,-110 469,-110 467,-108 467,-92 519,-92 521,-94 521,-110"/>
<polyline fill="none" stroke="#000000" points="519,-108 467,-108 "/>
<polyline fill="none" stroke="#000000" points="519,-108 519,-92 "/>
<polyline fill="none" stroke="#000000" points="519,-108 521,-110 "/>
<text text-anchor="middle" x="494" y="-98.8" font-family="Helvetica,sans-Serif" font-size="9.00" fill="#000000">river</text>
</a>
</g>
</g>
<!-- src/scenes/ReaderScene.tsx&#45;&gt;src/modules/river -->
<g id="edge37" class="edge">
<title>src/scenes/ReaderScene.tsx&#45;&gt;src/modules/river</title>
<path fill="none" stroke="#000000" stroke-width="2" stroke-opacity="0.200000" d="M173.0913,-161.2857C268.02,-161.2857 485,-161.2857 485,-161.2857 485,-161.2857 485,-116.1561 485,-116.1561"/>
<polygon fill="#000000" fill-opacity="0.200000" stroke="#000000" stroke-width="2" stroke-opacity="0.200000" points="487.1001,-116.1561 485,-110.1561 482.9001,-116.1561 487.1001,-116.1561"/>
</g>
<!-- src/modules/extraction -->
<g id="node9" class="node">
<title>src/modules/extraction</title>
<g id="a_node9"><a xlink:href="src/modules/extraction" xlink:title="extraction">
<polygon fill="#ffffcc" stroke="#000000" points="320,-119 266,-119 264,-117 264,-101 318,-101 320,-103 320,-119"/>
<polyline fill="none" stroke="#000000" points="318,-117 264,-117 "/>
<polyline fill="none" stroke="#000000" points="318,-117 318,-101 "/>
<polyline fill="none" stroke="#000000" points="318,-117 320,-119 "/>
<text text-anchor="middle" x="292" y="-107.8" font-family="Helvetica,sans-Serif" font-size="9.00" fill="#000000">extraction</text>
</a>
</g>
</g>
<!-- src/scenes/ReaderScene.tsx&#45;&gt;src/modules/extraction -->
<g id="edge36" class="edge">
<title>src/scenes/ReaderScene.tsx&#45;&gt;src/modules/extraction</title>
<path fill="none" stroke="#000000" stroke-width="2" stroke-opacity="0.200000" d="M173.0582,-159.4286C216.2424,-159.4286 276,-159.4286 276,-159.4286 276,-159.4286 276,-125.066 276,-125.066"/>
<polygon fill="#000000" fill-opacity="0.200000" stroke="#000000" stroke-width="2" stroke-opacity="0.200000" points="278.1001,-125.0659 276,-119.066 273.9001,-125.066 278.1001,-125.0659"/>
</g>
<!-- src/modules/selection -->
<g id="node12" class="node">
<title>src/modules/selection</title>
<g id="a_node12"><a xlink:href="src/modules/selection" xlink:title="selection">
<polygon fill="#ffffcc" stroke="#000000" points="588,-152 536,-152 534,-150 534,-134 586,-134 588,-136 588,-152"/>
<polyline fill="none" stroke="#000000" points="586,-150 534,-150 "/>
<polyline fill="none" stroke="#000000" points="586,-150 586,-134 "/>
<polyline fill="none" stroke="#000000" points="586,-150 588,-152 "/>
<text text-anchor="middle" x="561" y="-140.8" font-family="Helvetica,sans-Serif" font-size="9.00" fill="#000000">selection</text>
</a>
</g>
</g>
<!-- src/scenes/ReaderScene.tsx&#45;&gt;src/modules/selection -->
<g id="edge38" class="edge">
<title>src/scenes/ReaderScene.tsx&#45;&gt;src/modules/selection</title>
<path fill="none" stroke="#000000" stroke-width="2" stroke-opacity="0.200000" d="M173.2491,-163.1429C282.949,-163.1429 561,-163.1429 561,-163.1429 561,-163.1429 561,-158.1285 561,-158.1285"/>
<polygon fill="#000000" fill-opacity="0.200000" stroke="#000000" stroke-width="2" stroke-opacity="0.200000" points="563.1001,-158.1284 561,-152.1285 558.9001,-158.1285 563.1001,-158.1284"/>
</g>
<!-- src/modules/cards -->
<g id="node3" class="node">
<title>src/modules/cards</title>
<g id="a_node3"><a xlink:href="src/modules/cards" xlink:title="cards">
<polygon fill="#ffffcc" stroke="#000000" points="387,-133 335,-133 333,-131 333,-115 385,-115 387,-117 387,-133"/>
<polyline fill="none" stroke="#000000" points="385,-131 333,-131 "/>
<polyline fill="none" stroke="#000000" points="385,-131 385,-115 "/>
<polyline fill="none" stroke="#000000" points="385,-131 387,-133 "/>
<text text-anchor="middle" x="360" y="-121.8" font-family="Helvetica,sans-Serif" font-size="9.00" fill="#000000">cards</text>
</a>
</g>
</g>
<!-- src/modules/text -->
<g id="node4" class="node">
<title>src/modules/text</title>
<g id="a_node4"><a xlink:href="src/modules/text" xlink:title="text">
<polygon fill="#ffffcc" stroke="#000000" points="722,-80 670,-80 668,-78 668,-62 720,-62 722,-64 722,-80"/>
<polyline fill="none" stroke="#000000" points="720,-78 668,-78 "/>
<polyline fill="none" stroke="#000000" points="720,-78 720,-62 "/>
<polyline fill="none" stroke="#000000" points="720,-78 722,-80 "/>
<text text-anchor="middle" x="695" y="-68.8" font-family="Helvetica,sans-Serif" font-size="9.00" fill="#000000">text</text>
</a>
</g>
</g>
<!-- src/modules/cards&#45;&gt;src/modules/text -->
<g id="edge2" class="edge">
<title>src/modules/cards&#45;&gt;src/modules/text</title>
<path fill="none" stroke="#000000" stroke-width="2" stroke-opacity="0.200000" d="M351,-114.9375C351,-98.625 351,-66 351,-66 351,-66 661.7194,-66 661.7194,-66"/>
<polygon fill="#000000" fill-opacity="0.200000" stroke="#000000" stroke-width="2" stroke-opacity="0.200000" points="661.7194,-68.1001 667.7194,-66 661.7193,-63.9001 661.7194,-68.1001"/>
</g>
<!-- src/modules/db -->
<g id="node5" class="node">
<title>src/modules/db</title>
<g id="a_node5"><a xlink:href="src/modules/db" xlink:title="db">
<polygon fill="#ffffcc" stroke="#000000" points="454,-96 402,-96 400,-94 400,-78 452,-78 454,-80 454,-96"/>
<polyline fill="none" stroke="#000000" points="452,-94 400,-94 "/>
<polyline fill="none" stroke="#000000" points="452,-94 452,-78 "/>
<polyline fill="none" stroke="#000000" points="452,-94 454,-96 "/>
<text text-anchor="middle" x="427" y="-84.8" font-family="Helvetica,sans-Serif" font-size="9.00" fill="#000000">db</text>
</a>
</g>
</g>
<!-- src/modules/cards&#45;&gt;src/modules/db -->
<g id="edge3" class="edge">
<title>src/modules/cards&#45;&gt;src/modules/db</title>
<path fill="none" stroke="#000000" stroke-width="2" stroke-opacity="0.200000" d="M393.2515,-124C393.2515,-124 427,-124 427,-124 427,-124 427,-102.3367 427,-102.3367"/>
<polygon fill="#000000" fill-opacity="0.200000" stroke="#000000" stroke-width="2" stroke-opacity="0.200000" points="393.2515,-121.9001 387.2515,-124 393.2514,-126.1001 393.2515,-121.9001"/>
<polygon fill="#000000" fill-opacity="0.200000" stroke="#000000" stroke-width="2" stroke-opacity="0.200000" points="429.1001,-102.3366 427,-96.3367 424.9001,-102.3367 429.1001,-102.3366"/>
</g>
<!-- src/modules/db&#45;&gt;src/modules/river -->
<g id="edge14" class="edge">
<title>src/modules/db&#45;&gt;src/modules/river</title>
<path fill="none" stroke="#000000" stroke-width="2" stroke-opacity="0.200000" d="M460.2917,-86C460.2917,-86 478,-86 478,-86 478,-86 478,-86.5756 478,-86.5756"/>
<polygon fill="#000000" fill-opacity="0.200000" stroke="#000000" stroke-width="2" stroke-opacity="0.200000" points="460.2917,-83.9001 454.2917,-86 460.2916,-88.1001 460.2917,-83.9001"/>
<polygon fill="#000000" fill-opacity="0.200000" stroke="#000000" stroke-width="2" stroke-opacity="0.200000" points="475.9001,-85.7565 478,-91.7565 480.1001,-85.7565 475.9001,-85.7565"/>
</g>
<!-- src/modules/control&#45;&gt;src/modules/cards -->
<g id="edge6" class="edge">
<title>src/modules/control&#45;&gt;src/modules/cards</title>
<path fill="none" stroke="#000000" stroke-width="2" stroke-opacity="0.200000" d="M251.1948,-129.5C251.1948,-129.5 326.8524,-129.5 326.8524,-129.5"/>
<polygon fill="#000000" fill-opacity="0.200000" stroke="#000000" stroke-width="2" stroke-opacity="0.200000" points="326.8524,-131.6001 332.8524,-129.5 326.8523,-127.4001 326.8524,-131.6001"/>
</g>
<!-- src/modules/control&#45;&gt;src/modules/text -->
<g id="edge12" class="edge">
<title>src/modules/control&#45;&gt;src/modules/text</title>
<path fill="none" stroke="#000000" stroke-width="2" stroke-opacity="0.200000" d="M215,-115.9992C215,-99.0311 215,-64 215,-64 215,-64 661.8178,-64 661.8178,-64"/>
<polygon fill="#000000" fill-opacity="0.200000" stroke="#000000" stroke-width="2" stroke-opacity="0.200000" points="661.8179,-66.1001 667.8178,-64 661.8178,-61.9001 661.8179,-66.1001"/>
</g>
<!-- src/modules/control&#45;&gt;src/modules/db -->
<g id="edge4" class="edge">
<title>src/modules/control&#45;&gt;src/modules/db</title>
<path fill="none" stroke="#000000" stroke-width="2" stroke-opacity="0.200000" d="M233,-115.8013C233,-104.5551 233,-87 233,-87 233,-87 393.616,-87 393.616,-87"/>
<polygon fill="#000000" fill-opacity="0.200000" stroke="#000000" stroke-width="2" stroke-opacity="0.200000" points="393.616,-89.1001 399.616,-87 393.616,-84.9001 393.616,-89.1001"/>
</g>
<!-- src/modules/display -->
<g id="node7" class="node">
<title>src/modules/display</title>
<g id="a_node7"><a xlink:href="src/modules/display" xlink:title="display">
<polygon fill="#ffffcc" stroke="#000000" points="655,-88 603,-88 601,-86 601,-70 653,-70 655,-72 655,-88"/>
<polyline fill="none" stroke="#000000" points="653,-86 601,-86 "/>
<polyline fill="none" stroke="#000000" points="653,-86 653,-70 "/>
<polyline fill="none" stroke="#000000" points="653,-86 655,-88 "/>
<text text-anchor="middle" x="628" y="-76.8" font-family="Helvetica,sans-Serif" font-size="9.00" fill="#000000">display</text>
</a>
</g>
</g>
<!-- src/modules/control&#45;&gt;src/modules/display -->
<g id="edge5" class="edge">
<title>src/modules/control&#45;&gt;src/modules/display</title>
<path fill="none" stroke="#000000" stroke-width="2" stroke-opacity="0.200000" d="M224,-115.8842C224,-100.8904 224,-72.6667 224,-72.6667 224,-72.6667 594.8651,-72.6667 594.8651,-72.6667"/>
<polygon fill="#000000" fill-opacity="0.200000" stroke="#000000" stroke-width="2" stroke-opacity="0.200000" points="594.8651,-74.7668 600.8651,-72.6667 594.8651,-70.5668 594.8651,-74.7668"/>
</g>
<!-- src/modules/control&#45;&gt;src/modules/river -->
<g id="edge7" class="edge">
<title>src/modules/control&#45;&gt;src/modules/river</title>
<path fill="none" stroke="#000000" stroke-width="2" stroke-opacity="0.200000" d="M251.062,-126C281.5792,-126 327,-126 327,-126 327,-126 327,-105.5 327,-105.5 327,-105.5 460.7969,-105.5 460.7969,-105.5"/>
<polygon fill="#000000" fill-opacity="0.200000" stroke="#000000" stroke-width="2" stroke-opacity="0.200000" points="460.7969,-107.6001 466.7969,-105.5 460.7969,-103.4001 460.7969,-107.6001"/>
</g>
<!-- src/modules/control&#45;&gt;src/modules/extraction -->
<g id="edge8" class="edge">
<title>src/modules/control&#45;&gt;src/modules/extraction</title>
<path fill="none" stroke="#000000" stroke-width="2" stroke-opacity="0.200000" d="M242,-115.9776C242,-112.1255 242,-108.5 242,-108.5 242,-108.5 257.7853,-108.5 257.7853,-108.5"/>
<polygon fill="#000000" fill-opacity="0.200000" stroke="#000000" stroke-width="2" stroke-opacity="0.200000" points="257.7853,-110.6001 263.7853,-108.5 257.7852,-106.4001 257.7853,-110.6001"/>
</g>
<!-- src/modules/focus -->
<g id="node10" class="node">
<title>src/modules/focus</title>
<g id="a_node10"><a xlink:href="src/modules/focus" xlink:title="focus">
<polygon fill="#ffffcc" stroke="#000000" points="722,-110 670,-110 668,-108 668,-92 720,-92 722,-94 722,-110"/>
<polyline fill="none" stroke="#000000" points="720,-108 668,-108 "/>
<polyline fill="none" stroke="#000000" points="720,-108 720,-92 "/>
<polyline fill="none" stroke="#000000" points="720,-108 722,-110 "/>
<text text-anchor="middle" x="695" y="-98.8" font-family="Helvetica,sans-Serif" font-size="9.00" fill="#000000">focus</text>
</a>
</g>
</g>
<!-- src/modules/control&#45;&gt;src/modules/focus -->
<g id="edge9" class="edge">
<title>src/modules/control&#45;&gt;src/modules/focus</title>
<path fill="none" stroke="#000000" stroke-width="2" stroke-opacity="0.200000" d="M238,-134.0492C238,-143.1091 238,-155.7143 238,-155.7143 238,-155.7143 709,-155.7143 709,-155.7143 709,-155.7143 709,-116.035 709,-116.035"/>
<polygon fill="#000000" fill-opacity="0.200000" stroke="#000000" stroke-width="2" stroke-opacity="0.200000" points="711.1001,-116.0349 709,-110.035 706.9001,-116.035 711.1001,-116.0349"/>
</g>
<!-- src/shared -->
<g id="node11" class="node">
<title>src/shared</title>
<g id="a_node11"><a xlink:href="src/shared" xlink:title="shared">
<polygon fill="#ffffcc" stroke="#000000" points="722,-34 670,-34 668,-32 668,-16 720,-16 722,-18 722,-34"/>
<polyline fill="none" stroke="#000000" points="720,-32 668,-32 "/>
<polyline fill="none" stroke="#000000" points="720,-32 720,-16 "/>
<polyline fill="none" stroke="#000000" points="720,-32 722,-34 "/>
<text text-anchor="middle" x="695" y="-22.8" font-family="Helvetica,sans-Serif" font-size="9.00" fill="#000000">shared</text>
</a>
</g>
</g>
<!-- src/modules/control&#45;&gt;src/shared -->
<g id="edge10" class="edge">
<title>src/modules/control&#45;&gt;src/shared</title>
<path fill="none" stroke="#000000" stroke-width="2" stroke-opacity="0.200000" d="M206,-115.6465C206,-89.8511 206,-19.6 206,-19.6 206,-19.6 661.6614,-19.6 661.6614,-19.6"/>
<polygon fill="#000000" fill-opacity="0.200000" stroke="#000000" stroke-width="2" stroke-opacity="0.200000" points="661.6614,-21.6999 667.6614,-19.6 661.6615,-17.4999 661.6614,-21.6999"/>
</g>
<!-- src/modules/control&#45;&gt;src/modules/selection -->
<g id="edge11" class="edge">
<title>src/modules/control&#45;&gt;src/modules/selection</title>
<path fill="none" stroke="#000000" stroke-width="2" stroke-opacity="0.200000" d="M211,-134.2455C211,-139.2421 211,-144.4 211,-144.4 211,-144.4 527.8273,-144.4 527.8273,-144.4"/>
<polygon fill="#000000" fill-opacity="0.200000" stroke="#000000" stroke-width="2" stroke-opacity="0.200000" points="527.8274,-146.5001 533.8273,-144.4 527.8273,-142.3001 527.8274,-146.5001"/>
</g>
<!-- src/modules/display&#45;&gt;src/modules/text -->
<g id="edge18" class="edge">
<title>src/modules/display&#45;&gt;src/modules/text</title>
<path fill="none" stroke="#000000" stroke-width="2" stroke-opacity="0.200000" d="M655.2515,-75C655.2515,-75 661.9899,-75 661.9899,-75"/>
<polygon fill="#000000" fill-opacity="0.200000" stroke="#000000" stroke-width="2" stroke-opacity="0.200000" points="661.9899,-77.1001 667.9899,-75 661.9899,-72.9001 661.9899,-77.1001"/>
</g>
<!-- src/modules/display&#45;&gt;src/modules/db -->
<g id="edge16" class="edge">
<title>src/modules/display&#45;&gt;src/modules/db</title>
<path fill="none" stroke="#000000" stroke-width="2" stroke-opacity="0.200000" d="M600.8922,-80C600.8922,-80 460.3202,-80 460.3202,-80"/>
<polygon fill="#000000" fill-opacity="0.200000" stroke="#000000" stroke-width="2" stroke-opacity="0.200000" points="460.3202,-77.9001 454.3202,-80 460.3202,-82.1001 460.3202,-77.9001"/>
</g>
<!-- src/modules/display&#45;&gt;src/modules/focus -->
<g id="edge17" class="edge">
<title>src/modules/display&#45;&gt;src/modules/focus</title>
<path fill="none" stroke="#000000" stroke-width="2" stroke-opacity="0.200000" d="M655.2515,-84C673.8008,-84 695,-84 695,-84 695,-84 695,-85.7042 695,-85.7042"/>
<polygon fill="#000000" fill-opacity="0.200000" stroke="#000000" stroke-width="2" stroke-opacity="0.200000" points="692.9001,-85.7041 695,-91.7042 697.1001,-85.7042 692.9001,-85.7041"/>
</g>
<!-- src/modules/display&#45;&gt;src/shared -->
<g id="edge15" class="edge">
<title>src/modules/display&#45;&gt;src/shared</title>
<path fill="none" stroke="#000000" stroke-width="2" stroke-opacity="0.200000" d="M628,-69.6294C628,-55.5068 628,-30.4 628,-30.4 628,-30.4 661.7485,-30.4 661.7485,-30.4"/>
<polygon fill="#000000" fill-opacity="0.200000" stroke="#000000" stroke-width="2" stroke-opacity="0.200000" points="661.7486,-32.5001 667.7485,-30.4 661.7485,-28.3001 661.7486,-32.5001"/>
</g>
<!-- src/modules/river&#45;&gt;src/modules/cards -->
<g id="edge25" class="edge">
<title>src/modules/river&#45;&gt;src/modules/cards</title>
<path fill="none" stroke="#000000" stroke-width="2" stroke-opacity="0.200000" d="M466.8769,-107.75C430.1134,-107.75 369,-107.75 369,-107.75 369,-107.75 369,-108.7358 369,-108.7358"/>
<polygon fill="#000000" fill-opacity="0.200000" stroke="#000000" stroke-width="2" stroke-opacity="0.200000" points="366.9001,-108.7357 369,-114.7358 371.1001,-108.7358 366.9001,-108.7357"/>
</g>
<!-- src/modules/river&#45;&gt;src/modules/text -->
<g id="edge29" class="edge">
<title>src/modules/river&#45;&gt;src/modules/text</title>
<path fill="none" stroke="#000000" stroke-width="2" stroke-opacity="0.200000" d="M500,-91.9826C500,-82.2119 500,-68 500,-68 500,-68 661.8861,-68 661.8861,-68"/>
<polygon fill="#000000" fill-opacity="0.200000" stroke="#000000" stroke-width="2" stroke-opacity="0.200000" points="661.8861,-70.1001 667.8861,-68 661.8861,-65.9001 661.8861,-70.1001"/>
</g>
<!-- src/modules/river&#45;&gt;src/modules/display -->
<g id="edge26" class="edge">
<title>src/modules/river&#45;&gt;src/modules/display</title>
<path fill="none" stroke="#000000" stroke-width="2" stroke-opacity="0.200000" d="M511,-91.9452C511,-87.0515 511,-82 511,-82 511,-82 594.8638,-82 594.8638,-82"/>
<polygon fill="#000000" fill-opacity="0.200000" stroke="#000000" stroke-width="2" stroke-opacity="0.200000" points="594.8638,-84.1001 600.8638,-82 594.8637,-79.9001 594.8638,-84.1001"/>
</g>
<!-- src/modules/river&#45;&gt;src/modules/focus -->
<g id="edge27" class="edge">
<title>src/modules/river&#45;&gt;src/modules/focus</title>
<path fill="none" stroke="#000000" stroke-width="2" stroke-opacity="0.200000" d="M521.1078,-101C521.1078,-101 661.6798,-101 661.6798,-101"/>
<polygon fill="#000000" fill-opacity="0.200000" stroke="#000000" stroke-width="2" stroke-opacity="0.200000" points="661.6798,-103.1001 667.6798,-101 661.6798,-98.9001 661.6798,-103.1001"/>
</g>
<!-- src/modules/river&#45;&gt;src/shared -->
<g id="edge28" class="edge">
<title>src/modules/river&#45;&gt;src/shared</title>
<path fill="none" stroke="#000000" stroke-width="2" stroke-opacity="0.200000" d="M489,-91.9016C489,-72.0881 489,-26.8 489,-26.8 489,-26.8 661.6448,-26.8 661.6448,-26.8"/>
<polygon fill="#000000" fill-opacity="0.200000" stroke="#000000" stroke-width="2" stroke-opacity="0.200000" points="661.6448,-28.9001 667.6448,-26.8 661.6448,-24.7001 661.6448,-28.9001"/>
</g>
<!-- src/modules/river&#45;&gt;src/modules/selection -->
<g id="edge30" class="edge">
<title>src/modules/river&#45;&gt;src/modules/selection</title>
<path fill="none" stroke="#000000" stroke-width="2" stroke-opacity="0.200000" d="M503,-110.3535C503,-120.9011 503,-136.6 503,-136.6 503,-136.6 527.6984,-136.6 527.6984,-136.6"/>
<polygon fill="#000000" fill-opacity="0.200000" stroke="#000000" stroke-width="2" stroke-opacity="0.200000" points="527.6984,-138.7001 533.6984,-136.6 527.6983,-134.5001 527.6984,-138.7001"/>
</g>
<!-- src/modules/extraction&#45;&gt;src/modules/cards -->
<g id="edge24" class="edge">
<title>src/modules/extraction&#45;&gt;src/modules/cards</title>
<path fill="none" stroke="#000000" stroke-width="2" stroke-opacity="0.200000" d="M309,-119.0843C309,-121.0229 309,-122.5 309,-122.5 309,-122.5 326.7083,-122.5 326.7083,-122.5"/>
<polygon fill="#000000" fill-opacity="0.200000" stroke="#000000" stroke-width="2" stroke-opacity="0.200000" points="326.7084,-124.6001 332.7083,-122.5 326.7083,-120.4001 326.7084,-124.6001"/>
</g>
<!-- src/modules/extraction&#45;&gt;src/modules/display -->
<g id="edge19" class="edge">
<title>src/modules/extraction&#45;&gt;src/modules/display</title>
<path fill="none" stroke="#000000" stroke-width="2" stroke-opacity="0.200000" d="M302,-100.8917C302,-90.6206 302,-75.3333 302,-75.3333 302,-75.3333 594.7661,-75.3333 594.7661,-75.3333"/>
<polygon fill="#000000" fill-opacity="0.200000" stroke="#000000" stroke-width="2" stroke-opacity="0.200000" points="594.7662,-77.4334 600.7661,-75.3333 594.7661,-73.2334 594.7662,-77.4334"/>
</g>
<!-- src/modules/extraction&#45;&gt;src/modules/river -->
<g id="edge21" class="edge">
<title>src/modules/extraction&#45;&gt;src/modules/river</title>
<path fill="none" stroke="#000000" stroke-width="2" stroke-opacity="0.200000" d="M320.0872,-103.25C320.0872,-103.25 460.7967,-103.25 460.7967,-103.25"/>
<polygon fill="#000000" fill-opacity="0.200000" stroke="#000000" stroke-width="2" stroke-opacity="0.200000" points="460.7968,-105.3501 466.7967,-103.25 460.7967,-101.1501 460.7968,-105.3501"/>
</g>
<!-- src/modules/extraction&#45;&gt;src/modules/focus -->
<g id="edge20" class="edge">
<title>src/modules/extraction&#45;&gt;src/modules/focus</title>
<path fill="none" stroke="#000000" stroke-width="2" stroke-opacity="0.200000" d="M287,-119.301C287,-132.1748 287,-153.8571 287,-153.8571 287,-153.8571 695,-153.8571 695,-153.8571 695,-153.8571 695,-116.207 695,-116.207"/>
<polygon fill="#000000" fill-opacity="0.200000" stroke="#000000" stroke-width="2" stroke-opacity="0.200000" points="697.1001,-116.207 695,-110.207 692.9001,-116.207 697.1001,-116.207"/>
</g>
<!-- src/modules/extraction&#45;&gt;src/shared -->
<g id="edge23" class="edge">
<title>src/modules/extraction&#45;&gt;src/shared</title>
<path fill="none" stroke="#000000" stroke-width="2" stroke-opacity="0.200000" d="M283,-100.7109C283,-78.3188 283,-23.2 283,-23.2 283,-23.2 661.9675,-23.2 661.9675,-23.2"/>
<polygon fill="#000000" fill-opacity="0.200000" stroke="#000000" stroke-width="2" stroke-opacity="0.200000" points="661.9676,-25.3001 667.9675,-23.2 661.9675,-21.1001 661.9676,-25.3001"/>
</g>
<!-- src/modules/extraction&#45;&gt;src/modules/selection -->
<g id="edge22" class="edge">
<title>src/modules/extraction&#45;&gt;src/modules/selection</title>
<path fill="none" stroke="#000000" stroke-width="2" stroke-opacity="0.200000" d="M298,-119.0275C298,-128.429 298,-141.8 298,-141.8 298,-141.8 527.845,-141.8 527.845,-141.8"/>
<polygon fill="#000000" fill-opacity="0.200000" stroke="#000000" stroke-width="2" stroke-opacity="0.200000" points="527.845,-143.9001 533.845,-141.8 527.8449,-139.7001 527.845,-143.9001"/>
</g>
<!-- src/modules/selection&#45;&gt;src/modules/cards -->
<g id="edge32" class="edge">
<title>src/modules/selection&#45;&gt;src/modules/cards</title>
<path fill="none" stroke="#000000" stroke-width="2" stroke-opacity="0.200000" d="M533.8922,-139.2C479.0278,-139.2 360,-139.2 360,-139.2 360,-139.2 360,-138.5818 360,-138.5818"/>
<polygon fill="#000000" fill-opacity="0.200000" stroke="#000000" stroke-width="2" stroke-opacity="0.200000" points="362.1001,-139.0175 360,-133.0176 357.9001,-139.0176 362.1001,-139.0175"/>
</g>
<!-- src/modules/selection&#45;&gt;src/modules/display -->
<g id="edge33" class="edge">
<title>src/modules/selection&#45;&gt;src/modules/display</title>
<path fill="none" stroke="#000000" stroke-width="2" stroke-opacity="0.200000" d="M561,-133.7813C561,-117.1875 561,-84 561,-84 561,-84 594.7485,-84 594.7485,-84"/>
<polygon fill="#000000" fill-opacity="0.200000" stroke="#000000" stroke-width="2" stroke-opacity="0.200000" points="594.7486,-86.1001 600.7485,-84 594.7485,-81.9001 594.7486,-86.1001"/>
</g>
<!-- src/modules/selection&#45;&gt;src/modules/focus -->
<g id="edge34" class="edge">
<title>src/modules/selection&#45;&gt;src/modules/focus</title>
<path fill="none" stroke="#000000" stroke-width="2" stroke-opacity="0.200000" d="M588.1548,-143C623.8296,-143 682,-143 682,-143 682,-143 682,-116.3212 682,-116.3212"/>
<polygon fill="#000000" fill-opacity="0.200000" stroke="#000000" stroke-width="2" stroke-opacity="0.200000" points="684.1001,-116.3211 682,-110.3212 679.9001,-116.3212 684.1001,-116.3211"/>
</g>
</g>
</svg>
