<?xml version="1.0" encoding="UTF-8" standalone="no"?>
<!DOCTYPE svg PUBLIC "-//W3C//DTD SVG 1.1//EN"
 "http://www.w3.org/Graphics/SVG/1.1/DTD/svg11.dtd">
<!-- Generated by graphviz version 2.40.1 (20161225.0304)
 -->
<!-- Title: dependency&#45;cruiser output Pages: 1 -->
<svg width="685pt" height="192pt"
 viewBox="0.00 0.00 685.00 192.00" xmlns="http://www.w3.org/2000/svg" xmlns:xlink="http://www.w3.org/1999/xlink">
<g id="graph0" class="graph" transform="scale(1 1) rotate(0) translate(4 188)">
<title>dependency&#45;cruiser output</title>
<polygon fill="#ffffff" stroke="transparent" points="-4,4 -4,-188 681,-188 681,4 -4,4"/>
<g id="clust1" class="cluster">
<title>cluster_src</title>
<path fill="#ffffff" stroke="#000000" stroke-width="2" d="M20,-8C20,-8 657,-8 657,-8 663,-8 669,-14 669,-20 669,-20 669,-164 669,-164 669,-170 663,-176 657,-176 657,-176 20,-176 20,-176 14,-176 8,-170 8,-164 8,-164 8,-20 8,-20 8,-14 14,-8 20,-8"/>
<text text-anchor="middle" x="338.5" y="-164.8" font-family="Helvetica,sans-Serif" font-weight="bold" font-size="9.00" fill="#000000">src</text>
</g>
<g id="clust2" class="cluster">
<title>cluster_src/modules</title>
<path fill="#ffffff" stroke="#000000" stroke-width="2" d="M201,-16C201,-16 649,-16 649,-16 655,-16 661,-22 661,-28 661,-28 661,-112 661,-112 661,-118 655,-124 649,-124 649,-124 201,-124 201,-124 195,-124 189,-118 189,-112 189,-112 189,-28 189,-28 189,-22 195,-16 201,-16"/>
<text text-anchor="middle" x="425" y="-112.8" font-family="Helvetica,sans-Serif" font-weight="bold" font-size="9.00" fill="#000000">modules</text>
</g>
<g id="clust3" class="cluster">
<title>cluster_src/scene</title>
<path fill="#ffffff" stroke="#000000" stroke-width="2" d="M90,-85C90,-85 169,-85 169,-85 175,-85 181,-91 181,-97 181,-97 181,-125 181,-125 181,-131 175,-137 169,-137 169,-137 90,-137 90,-137 84,-137 78,-131 78,-125 78,-125 78,-97 78,-97 78,-91 84,-85 90,-85"/>
<text text-anchor="middle" x="129.5" y="-125.8" font-family="Helvetica,sans-Serif" font-weight="bold" font-size="9.00" fill="#000000">scene</text>
</g>
<!-- src/index.tsx -->
<g id="node1" class="node">
<title>src/index.tsx</title>
<g id="a_node1"><a xlink:href="src/index.tsx" xlink:title="index.tsx">
<path fill="#bbfeff" stroke="#000000" d="M64,-111C64,-111 22,-111 22,-111 19,-111 16,-108 16,-105 16,-105 16,-99 16,-99 16,-96 19,-93 22,-93 22,-93 64,-93 64,-93 67,-93 70,-96 70,-99 70,-99 70,-105 70,-105 70,-108 67,-111 64,-111"/>
<text text-anchor="middle" x="43" y="-99.8" font-family="Helvetica,sans-Serif" font-size="9.00" fill="#000000">index.tsx</text>
</a>
</g>
</g>
<!-- src/scene/ReaderScene.tsx -->
<g id="node2" class="node">
<title>src/scene/ReaderScene.tsx</title>
<g id="a_node2"><a xlink:href="src/scene/ReaderScene.tsx" xlink:title="ReaderScene.tsx">
<path fill="#bbfeff" stroke="#000000" d="M167,-111C167,-111 92,-111 92,-111 89,-111 86,-108 86,-105 86,-105 86,-99 86,-99 86,-96 89,-93 92,-93 92,-93 167,-93 167,-93 170,-93 173,-96 173,-99 173,-99 173,-105 173,-105 173,-108 170,-111 167,-111"/>
<text text-anchor="middle" x="129.5" y="-99.8" font-family="Helvetica,sans-Serif" font-size="9.00" fill="#000000">ReaderScene.tsx</text>
</a>
</g>
</g>
<!-- src/index.tsx&#45;&gt;src/scene/ReaderScene.tsx -->
<g id="edge1" class="edge">
<title>src/index.tsx&#45;&gt;src/scene/ReaderScene.tsx</title>
<path fill="none" stroke="#000000" stroke-width="2" stroke-opacity="0.200000" d="M70.3691,-102C70.3691,-102 79.8699,-102 79.8699,-102"/>
<polygon fill="#000000" fill-opacity="0.200000" stroke="#000000" stroke-width="2" stroke-opacity="0.200000" points="79.8699,-104.1001 85.8699,-102 79.8698,-99.9001 79.8699,-104.1001"/>
</g>
<!-- src/modules/control -->
<g id="node6" class="node">
<title>src/modules/control</title>
<g id="a_node6"><a xlink:href="src/modules/control" xlink:title="control">
<polygon fill="#ffffcc" stroke="#000000" points="251,-91 199,-91 197,-89 197,-73 249,-73 251,-75 251,-91"/>
<polyline fill="none" stroke="#000000" points="249,-89 197,-89 "/>
<polyline fill="none" stroke="#000000" points="249,-89 249,-73 "/>
<polyline fill="none" stroke="#000000" points="249,-89 251,-91 "/>
<text text-anchor="middle" x="224" y="-79.8" font-family="Helvetica,sans-Serif" font-size="9.00" fill="#000000">control</text>
</a>
</g>
</g>
<!-- src/scene/ReaderScene.tsx&#45;&gt;src/modules/control -->
<g id="edge26" class="edge">
<title>src/scene/ReaderScene.tsx&#45;&gt;src/modules/control</title>
<path fill="none" stroke="#000000" stroke-width="2" stroke-opacity="0.200000" d="M173.0014,-101.25C194.123,-101.25 215,-101.25 215,-101.25 215,-101.25 215,-97.174 215,-97.174"/>
<polygon fill="#000000" fill-opacity="0.200000" stroke="#000000" stroke-width="2" stroke-opacity="0.200000" points="217.1001,-97.1739 215,-91.174 212.9001,-97.174 217.1001,-97.1739"/>
</g>
<!-- src/modules/display -->
<g id="node8" class="node">
<title>src/modules/display</title>
<g id="a_node8"><a xlink:href="src/modules/display" xlink:title="display">
<polygon fill="#ffffcc" stroke="#000000" points="385,-84 333,-84 331,-82 331,-66 383,-66 385,-68 385,-84"/>
<polyline fill="none" stroke="#000000" points="383,-82 331,-82 "/>
<polyline fill="none" stroke="#000000" points="383,-82 383,-66 "/>
<polyline fill="none" stroke="#000000" points="383,-82 385,-84 "/>
<text text-anchor="middle" x="358" y="-72.8" font-family="Helvetica,sans-Serif" font-size="9.00" fill="#000000">display</text>
</a>
</g>
</g>
<!-- src/scene/ReaderScene.tsx&#45;&gt;src/modules/display -->
<g id="edge27" class="edge">
<title>src/scene/ReaderScene.tsx&#45;&gt;src/modules/display</title>
<path fill="none" stroke="#000000" stroke-width="2" stroke-opacity="0.200000" d="M173.0169,-104.5C239.3141,-104.5 358,-104.5 358,-104.5 358,-104.5 358,-90.0113 358,-90.0113"/>
<polygon fill="#000000" fill-opacity="0.200000" stroke="#000000" stroke-width="2" stroke-opacity="0.200000" points="360.1001,-90.0112 358,-84.0113 355.9001,-90.0113 360.1001,-90.0112"/>
</g>
<!-- src/modules/selection -->
<g id="node10" class="node">
<title>src/modules/selection</title>
<g id="a_node10"><a xlink:href="src/modules/selection" xlink:title="selection">
<polygon fill="#ffffcc" stroke="#000000" points="519,-98 467,-98 465,-96 465,-80 517,-80 519,-82 519,-98"/>
<polyline fill="none" stroke="#000000" points="517,-96 465,-96 "/>
<polyline fill="none" stroke="#000000" points="517,-96 517,-80 "/>
<polyline fill="none" stroke="#000000" points="517,-96 519,-98 "/>
<text text-anchor="middle" x="492" y="-86.8" font-family="Helvetica,sans-Serif" font-size="9.00" fill="#000000">selection</text>
</a>
</g>
</g>
<!-- src/scene/ReaderScene.tsx&#45;&gt;src/modules/selection -->
<g id="edge28" class="edge">
<title>src/scene/ReaderScene.tsx&#45;&gt;src/modules/selection</title>
<path fill="none" stroke="#000000" stroke-width="2" stroke-opacity="0.200000" d="M173.226,-107.75C269.6399,-107.75 492,-107.75 492,-107.75 492,-107.75 492,-104.375 492,-104.375"/>
<polygon fill="#000000" fill-opacity="0.200000" stroke="#000000" stroke-width="2" stroke-opacity="0.200000" points="494.1001,-104.375 492,-98.375 489.9001,-104.375 494.1001,-104.375"/>
</g>
<!-- src/modules/cards -->
<g id="node3" class="node">
<title>src/modules/cards</title>
<g id="a_node3"><a xlink:href="src/modules/cards" xlink:title="cards">
<polygon fill="#ffffcc" stroke="#000000" points="586,-56 534,-56 532,-54 532,-38 584,-38 586,-40 586,-56"/>
<polyline fill="none" stroke="#000000" points="584,-54 532,-54 "/>
<polyline fill="none" stroke="#000000" points="584,-54 584,-38 "/>
<polyline fill="none" stroke="#000000" points="584,-54 586,-56 "/>
<text text-anchor="middle" x="559" y="-44.8" font-family="Helvetica,sans-Serif" font-size="9.00" fill="#000000">cards</text>
</a>
</g>
</g>
<!-- src/shared -->
<g id="node4" class="node">
<title>src/shared</title>
<g id="a_node4"><a xlink:href="src/shared" xlink:title="shared">
<polygon fill="#ffffcc" stroke="#000000" points="653,-150 601,-150 599,-148 599,-132 651,-132 653,-134 653,-150"/>
<polyline fill="none" stroke="#000000" points="651,-148 599,-148 "/>
<polyline fill="none" stroke="#000000" points="651,-148 651,-132 "/>
<polyline fill="none" stroke="#000000" points="651,-148 653,-150 "/>
<text text-anchor="middle" x="626" y="-138.8" font-family="Helvetica,sans-Serif" font-size="9.00" fill="#000000">shared</text>
</a>
</g>
</g>
<!-- src/modules/cards&#45;&gt;src/shared -->
<g id="edge2" class="edge">
<title>src/modules/cards&#45;&gt;src/shared</title>
<path fill="none" stroke="#000000" stroke-width="2" stroke-opacity="0.200000" d="M576,-56.148C576,-78.7852 576,-135.6 576,-135.6 576,-135.6 592.9513,-135.6 592.9513,-135.6"/>
<polygon fill="#000000" fill-opacity="0.200000" stroke="#000000" stroke-width="2" stroke-opacity="0.200000" points="592.9513,-137.7001 598.9513,-135.6 592.9512,-133.5001 592.9513,-137.7001"/>
</g>
<!-- src/modules/text -->
<g id="node5" class="node">
<title>src/modules/text</title>
<g id="a_node5"><a xlink:href="src/modules/text" xlink:title="text">
<polygon fill="#ffffcc" stroke="#000000" points="653,-67 601,-67 599,-65 599,-49 651,-49 653,-51 653,-67"/>
<polyline fill="none" stroke="#000000" points="651,-65 599,-65 "/>
<polyline fill="none" stroke="#000000" points="651,-65 651,-49 "/>
<polyline fill="none" stroke="#000000" points="651,-65 653,-67 "/>
<text text-anchor="middle" x="626" y="-55.8" font-family="Helvetica,sans-Serif" font-size="9.00" fill="#000000">text</text>
</a>
</g>
</g>
<!-- src/modules/cards&#45;&gt;src/modules/text -->
<g id="edge3" class="edge">
<title>src/modules/cards&#45;&gt;src/modules/text</title>
<path fill="none" stroke="#000000" stroke-width="2" stroke-opacity="0.200000" d="M586.2515,-52.5C586.2515,-52.5 592.9899,-52.5 592.9899,-52.5"/>
<polygon fill="#000000" fill-opacity="0.200000" stroke="#000000" stroke-width="2" stroke-opacity="0.200000" points="592.9899,-54.6001 598.9899,-52.5 592.9899,-50.4001 592.9899,-54.6001"/>
</g>
<!-- src/modules/control&#45;&gt;src/modules/cards -->
<g id="edge4" class="edge">
<title>src/modules/control&#45;&gt;src/modules/cards</title>
<path fill="none" stroke="#000000" stroke-width="2" stroke-opacity="0.200000" d="M215,-72.8773C215,-61.2578 215,-42.6667 215,-42.6667 215,-42.6667 525.7194,-42.6667 525.7194,-42.6667"/>
<polygon fill="#000000" fill-opacity="0.200000" stroke="#000000" stroke-width="2" stroke-opacity="0.200000" points="525.7194,-44.7668 531.7194,-42.6667 525.7193,-40.5668 525.7194,-44.7668"/>
</g>
<!-- src/modules/control&#45;&gt;src/shared -->
<g id="edge8" class="edge">
<title>src/modules/control&#45;&gt;src/shared</title>
<path fill="none" stroke="#000000" stroke-width="2" stroke-opacity="0.200000" d="M233,-91.2269C233,-109.0341 233,-146.4 233,-146.4 233,-146.4 592.9875,-146.4 592.9875,-146.4"/>
<polygon fill="#000000" fill-opacity="0.200000" stroke="#000000" stroke-width="2" stroke-opacity="0.200000" points="592.9876,-148.5001 598.9875,-146.4 592.9875,-144.3001 592.9876,-148.5001"/>
</g>
<!-- src/modules/control&#45;&gt;src/modules/text -->
<g id="edge9" class="edge">
<title>src/modules/control&#45;&gt;src/modules/text</title>
<path fill="none" stroke="#000000" stroke-width="2" stroke-opacity="0.200000" d="M251.4174,-89.6C313.4078,-89.6 459,-89.6 459,-89.6 459,-89.6 459,-62.6 459,-62.6 459,-62.6 592.7969,-62.6 592.7969,-62.6"/>
<polygon fill="#000000" fill-opacity="0.200000" stroke="#000000" stroke-width="2" stroke-opacity="0.200000" points="592.7969,-64.7001 598.7969,-62.6 592.7969,-60.5001 592.7969,-64.7001"/>
</g>
<!-- src/modules/db -->
<g id="node7" class="node">
<title>src/modules/db</title>
<g id="a_node7"><a xlink:href="src/modules/db" xlink:title="db">
<polygon fill="#ffffcc" stroke="#000000" points="318,-84 266,-84 264,-82 264,-66 316,-66 318,-68 318,-84"/>
<polyline fill="none" stroke="#000000" points="316,-82 264,-82 "/>
<polyline fill="none" stroke="#000000" points="316,-82 316,-66 "/>
<polyline fill="none" stroke="#000000" points="316,-82 318,-84 "/>
<text text-anchor="middle" x="291" y="-72.8" font-family="Helvetica,sans-Serif" font-size="9.00" fill="#000000">db</text>
</a>
</g>
</g>
<!-- src/modules/control&#45;&gt;src/modules/db -->
<g id="edge5" class="edge">
<title>src/modules/control&#45;&gt;src/modules/db</title>
<path fill="none" stroke="#000000" stroke-width="2" stroke-opacity="0.200000" d="M251.2515,-78.5C251.2515,-78.5 257.9899,-78.5 257.9899,-78.5"/>
<polygon fill="#000000" fill-opacity="0.200000" stroke="#000000" stroke-width="2" stroke-opacity="0.200000" points="257.9899,-80.6001 263.9899,-78.5 257.9899,-76.4001 257.9899,-80.6001"/>
</g>
<!-- src/modules/control&#45;&gt;src/modules/display -->
<g id="edge6" class="edge">
<title>src/modules/control&#45;&gt;src/modules/display</title>
<path fill="none" stroke="#000000" stroke-width="2" stroke-opacity="0.200000" d="M251.1548,-85.4C286.8296,-85.4 345,-85.4 345,-85.4 345,-85.4 345,-85.2725 345,-85.2725"/>
<polygon fill="#000000" fill-opacity="0.200000" stroke="#000000" stroke-width="2" stroke-opacity="0.200000" points="347.1005,-90.1246 345,-84.1248 342.9005,-90.1249 347.1005,-90.1246"/>
</g>
<!-- src/modules/river -->
<g id="node9" class="node">
<title>src/modules/river</title>
<g id="a_node9"><a xlink:href="src/modules/river" xlink:title="river">
<polygon fill="#ffffcc" stroke="#000000" points="452,-70 400,-70 398,-68 398,-52 450,-52 452,-54 452,-70"/>
<polyline fill="none" stroke="#000000" points="450,-68 398,-68 "/>
<polyline fill="none" stroke="#000000" points="450,-68 450,-52 "/>
<polyline fill="none" stroke="#000000" points="450,-68 452,-70 "/>
<text text-anchor="middle" x="425" y="-58.8" font-family="Helvetica,sans-Serif" font-size="9.00" fill="#000000">river</text>
</a>
</g>
</g>
<!-- src/modules/control&#45;&gt;src/modules/river -->
<g id="edge7" class="edge">
<title>src/modules/control&#45;&gt;src/modules/river</title>
<path fill="none" stroke="#000000" stroke-width="2" stroke-opacity="0.200000" d="M233,-72.8541C233,-65.5977 233,-56.6667 233,-56.6667 233,-56.6667 391.8983,-56.6667 391.8983,-56.6667"/>
<polygon fill="#000000" fill-opacity="0.200000" stroke="#000000" stroke-width="2" stroke-opacity="0.200000" points="391.8983,-58.7668 397.8983,-56.6667 391.8983,-54.5668 391.8983,-58.7668"/>
</g>
<!-- src/modules/db&#45;&gt;src/modules/cards -->
<g id="edge11" class="edge">
<title>src/modules/db&#45;&gt;src/modules/cards</title>
<path fill="none" stroke="#000000" stroke-width="2" stroke-opacity="0.200000" d="M282,-65.9409C282,-57.8721 282,-47.3333 282,-47.3333 282,-47.3333 525.9357,-47.3333 525.9357,-47.3333"/>
<polygon fill="#000000" fill-opacity="0.200000" stroke="#000000" stroke-width="2" stroke-opacity="0.200000" points="525.9358,-49.4334 531.9357,-47.3333 525.9357,-45.2334 525.9358,-49.4334"/>
</g>
<!-- src/modules/db&#45;&gt;src/shared -->
<g id="edge10" class="edge">
<title>src/modules/db&#45;&gt;src/shared</title>
<path fill="none" stroke="#000000" stroke-width="2" stroke-opacity="0.200000" d="M291,-84.1438C291,-102.6503 291,-142.8 291,-142.8 291,-142.8 592.8693,-142.8 592.8693,-142.8"/>
<polygon fill="#000000" fill-opacity="0.200000" stroke="#000000" stroke-width="2" stroke-opacity="0.200000" points="592.8693,-144.9001 598.8693,-142.8 592.8693,-140.7001 592.8693,-144.9001"/>
</g>
<!-- src/modules/db&#45;&gt;src/modules/display -->
<g id="edge12" class="edge">
<title>src/modules/db&#45;&gt;src/modules/display</title>
<path fill="none" stroke="#000000" stroke-width="2" stroke-opacity="0.200000" d="M318.2515,-75C318.2515,-75 324.9899,-75 324.9899,-75"/>
<polygon fill="#000000" fill-opacity="0.200000" stroke="#000000" stroke-width="2" stroke-opacity="0.200000" points="324.9899,-77.1001 330.9899,-75 324.9899,-72.9001 324.9899,-77.1001"/>
</g>
<!-- src/modules/db&#45;&gt;src/modules/river -->
<g id="edge13" class="edge">
<title>src/modules/db&#45;&gt;src/modules/river</title>
<path fill="none" stroke="#000000" stroke-width="2" stroke-opacity="0.200000" d="M300,-65.9602C300,-63.4187 300,-61.3333 300,-61.3333 300,-61.3333 391.8769,-61.3333 391.8769,-61.3333"/>
<polygon fill="#000000" fill-opacity="0.200000" stroke="#000000" stroke-width="2" stroke-opacity="0.200000" points="391.8769,-63.4334 397.8769,-61.3333 391.8768,-59.2334 391.8769,-63.4334"/>
</g>
<!-- src/modules/display&#45;&gt;src/modules/cards -->
<g id="edge14" class="edge">
<title>src/modules/display&#45;&gt;src/modules/cards</title>
<path fill="none" stroke="#000000" stroke-width="2" stroke-opacity="0.200000" d="M385.253,-74C439.1084,-74 554,-74 554,-74 554,-74 554,-62.141 554,-62.141"/>
<polygon fill="#000000" fill-opacity="0.200000" stroke="#000000" stroke-width="2" stroke-opacity="0.200000" points="556.1001,-62.1409 554,-56.141 551.9001,-62.141 556.1001,-62.1409"/>
</g>
<!-- src/modules/display&#45;&gt;src/shared -->
<g id="edge15" class="edge">
<title>src/modules/display&#45;&gt;src/shared</title>
<path fill="none" stroke="#000000" stroke-width="2" stroke-opacity="0.200000" d="M385.0393,-78C455.6217,-78 640,-78 640,-78 640,-78 640,-125.9736 640,-125.9736"/>
<polygon fill="#000000" fill-opacity="0.200000" stroke="#000000" stroke-width="2" stroke-opacity="0.200000" points="637.9001,-125.9736 640,-131.9736 642.1001,-125.9737 637.9001,-125.9736"/>
</g>
<!-- src/modules/display&#45;&gt;src/modules/text -->
<g id="edge16" class="edge">
<title>src/modules/display&#45;&gt;src/modules/text</title>
<path fill="none" stroke="#000000" stroke-width="2" stroke-opacity="0.200000" d="M385.2895,-76C451.0725,-76 613,-76 613,-76 613,-76 613,-73.4217 613,-73.4217"/>
<polygon fill="#000000" fill-opacity="0.200000" stroke="#000000" stroke-width="2" stroke-opacity="0.200000" points="615.1001,-73.4217 613,-67.4217 610.9001,-73.4218 615.1001,-73.4217"/>
</g>
<!-- src/modules/display&#45;&gt;src/modules/river -->
<g id="edge17" class="edge">
<title>src/modules/display&#45;&gt;src/modules/river</title>
<path fill="none" stroke="#000000" stroke-width="2" stroke-opacity="0.200000" d="M385.3164,-72C398.7101,-72 412,-72 412,-72 412,-72 412,-71.8281 412,-71.8281"/>
<polygon fill="#000000" fill-opacity="0.200000" stroke="#000000" stroke-width="2" stroke-opacity="0.200000" points="414.1004,-76.2811 412,-70.2813 409.9004,-76.2814 414.1004,-76.2811"/>
</g>
<!-- src/modules/display&#45;&gt;src/modules/selection -->
<g id="edge18" class="edge">
<title>src/modules/display&#45;&gt;src/modules/selection</title>
<path fill="none" stroke="#000000" stroke-width="2" stroke-opacity="0.200000" d="M372,-84.0234C372,-86.3438 372,-88.2 372,-88.2 372,-88.2 458.7701,-88.2 458.7701,-88.2"/>
<polygon fill="#000000" fill-opacity="0.200000" stroke="#000000" stroke-width="2" stroke-opacity="0.200000" points="458.7702,-90.3001 464.7701,-88.2 458.7701,-86.1001 458.7702,-90.3001"/>
</g>
<!-- src/modules/river&#45;&gt;src/modules/cards -->
<g id="edge19" class="edge">
<title>src/modules/river&#45;&gt;src/modules/cards</title>
<path fill="none" stroke="#000000" stroke-width="2" stroke-opacity="0.200000" d="M452.0716,-58.2C486.9092,-58.2 543,-58.2 543,-58.2 543,-58.2 543,-57.9841 543,-57.9841"/>
<polygon fill="#000000" fill-opacity="0.200000" stroke="#000000" stroke-width="2" stroke-opacity="0.200000" points="545.1003,-62.0404 543,-56.0405 540.9003,-62.0406 545.1003,-62.0404"/>
</g>
<!-- src/modules/river&#45;&gt;src/shared -->
<g id="edge20" class="edge">
<title>src/modules/river&#45;&gt;src/shared</title>
<path fill="none" stroke="#000000" stroke-width="2" stroke-opacity="0.200000" d="M425,-70.2777C425,-90.992 425,-139.2 425,-139.2 425,-139.2 592.8922,-139.2 592.8922,-139.2"/>
<polygon fill="#000000" fill-opacity="0.200000" stroke="#000000" stroke-width="2" stroke-opacity="0.200000" points="592.8923,-141.3001 598.8922,-139.2 592.8922,-137.1001 592.8923,-141.3001"/>
</g>
<!-- src/modules/river&#45;&gt;src/modules/text -->
<g id="edge21" class="edge">
<title>src/modules/river&#45;&gt;src/modules/text</title>
<path fill="none" stroke="#000000" stroke-width="2" stroke-opacity="0.200000" d="M452.1078,-60.4C452.1078,-60.4 592.6798,-60.4 592.6798,-60.4"/>
<polygon fill="#000000" fill-opacity="0.200000" stroke="#000000" stroke-width="2" stroke-opacity="0.200000" points="592.6798,-62.5001 598.6798,-60.4 592.6798,-58.3001 592.6798,-62.5001"/>
</g>
<!-- src/modules/river&#45;&gt;src/modules/selection -->
<g id="edge22" class="edge">
<title>src/modules/river&#45;&gt;src/modules/selection</title>
<path fill="none" stroke="#000000" stroke-width="2" stroke-opacity="0.200000" d="M439,-70.0236C439,-77.4636 439,-86.8 439,-86.8 439,-86.8 458.879,-86.8 458.879,-86.8"/>
<polygon fill="#000000" fill-opacity="0.200000" stroke="#000000" stroke-width="2" stroke-opacity="0.200000" points="458.879,-88.9001 464.879,-86.8 458.8789,-84.7001 458.879,-88.9001"/>
</g>
<!-- src/modules/selection&#45;&gt;src/modules/cards -->
<g id="edge24" class="edge">
<title>src/modules/selection&#45;&gt;src/modules/cards</title>
<path fill="none" stroke="#000000" stroke-width="2" stroke-opacity="0.200000" d="M519.1825,-86C539.9374,-86 565,-86 565,-86 565,-86 565,-62.0454 565,-62.0454"/>
<polygon fill="#000000" fill-opacity="0.200000" stroke="#000000" stroke-width="2" stroke-opacity="0.200000" points="567.1001,-62.0454 565,-56.0454 562.9001,-62.0454 567.1001,-62.0454"/>
</g>
<!-- src/modules/selection&#45;&gt;src/shared -->
<g id="edge23" class="edge">
<title>src/modules/selection&#45;&gt;src/shared</title>
<path fill="none" stroke="#000000" stroke-width="2" stroke-opacity="0.200000" d="M519.1169,-92C558.2721,-92 626,-92 626,-92 626,-92 626,-125.5523 626,-125.5523"/>
<polygon fill="#000000" fill-opacity="0.200000" stroke="#000000" stroke-width="2" stroke-opacity="0.200000" points="623.9001,-125.5523 626,-131.5523 628.1001,-125.5523 623.9001,-125.5523"/>
</g>
<!-- src/modules/selection&#45;&gt;src/modules/text -->
<g id="edge25" class="edge">
<title>src/modules/selection&#45;&gt;src/modules/text</title>
<path fill="none" stroke="#000000" stroke-width="2" stroke-opacity="0.200000" d="M492,-79.9888C492,-73.1084 492,-64.8 492,-64.8 492,-64.8 592.8831,-64.8 592.8831,-64.8"/>
<polygon fill="#000000" fill-opacity="0.200000" stroke="#000000" stroke-width="2" stroke-opacity="0.200000" points="592.8831,-66.9001 598.8831,-64.8 592.8831,-62.7001 592.8831,-66.9001"/>
</g>
</g>
</svg>
