<?xml version="1.0" encoding="UTF-8" standalone="no"?>
<!DOCTYPE svg PUBLIC "-//W3C//DTD SVG 1.1//EN"
 "http://www.w3.org/Graphics/SVG/1.1/DTD/svg11.dtd">
<!-- Generated by graphviz version 2.43.0 (0)
 -->
<!-- Title: dependency&#45;cruiser output Pages: 1 -->
<svg width="440pt" height="168pt"
 viewBox="0.00 0.00 440.00 168.00" xmlns="http://www.w3.org/2000/svg" xmlns:xlink="http://www.w3.org/1999/xlink">
<g id="graph0" class="graph" transform="scale(1 1) rotate(0) translate(4 164)">
<title>dependency&#45;cruiser output</title>
<polygon fill="white" stroke="transparent" points="-4,4 -4,-164 436,-164 436,4 -4,4"/>
<g id="clust1" class="cluster">
<title>cluster_src</title>
<path fill="#ffffff" stroke="black" stroke-width="2" d="M20,-8C20,-8 412,-8 412,-8 418,-8 424,-14 424,-20 424,-20 424,-140 424,-140 424,-146 418,-152 412,-152 412,-152 20,-152 20,-152 14,-152 8,-146 8,-140 8,-140 8,-20 8,-20 8,-14 14,-8 20,-8"/>
<text text-anchor="middle" x="216" y="-140.8" font-family="Helvetica,sans-Serif" font-weight="bold" font-size="9.00">src</text>
</g>
<g id="clust2" class="cluster">
<title>cluster_src/modules</title>
<path fill="#ffffff" stroke="black" stroke-width="2" d="M90,-16C90,-16 404,-16 404,-16 410,-16 416,-22 416,-28 416,-28 416,-114 416,-114 416,-120 410,-126 404,-126 404,-126 90,-126 90,-126 84,-126 78,-120 78,-114 78,-114 78,-28 78,-28 78,-22 84,-16 90,-16"/>
<text text-anchor="middle" x="247" y="-114.8" font-family="Helvetica,sans-Serif" font-weight="bold" font-size="9.00">modules</text>
</g>
<!-- src/index.tsx -->
<g id="node1" class="node">
<title>src/index.tsx</title>
<g id="a_node1"><a xlink:href="src/index.tsx" xlink:title="index.tsx">
<path fill="#bbfeff" stroke="black" d="M64,-86C64,-86 22,-86 22,-86 19,-86 16,-83 16,-80 16,-80 16,-74 16,-74 16,-71 19,-68 22,-68 22,-68 64,-68 64,-68 67,-68 70,-71 70,-74 70,-74 70,-80 70,-80 70,-83 67,-86 64,-86"/>
<text text-anchor="middle" x="43" y="-74.8" font-family="Helvetica,sans-Serif" font-size="9.00">index.tsx</text>
</a>
</g>
</g>
<!-- src/modules/display -->
<g id="node2" class="node">
<title>src/modules/display</title>
<g id="a_node2"><a xlink:href="src/modules/display" xlink:title="display">
<polygon fill="#ffffcc" stroke="black" points="140,-86 88,-86 86,-84 86,-68 138,-68 140,-70 140,-86"/>
<polyline fill="none" stroke="black" points="138,-84 86,-84 "/>
<polyline fill="none" stroke="black" points="138,-84 138,-68 "/>
<polyline fill="none" stroke="black" points="138,-84 140,-86 "/>
<text text-anchor="middle" x="113" y="-74.8" font-family="Helvetica,sans-Serif" font-size="9.00">display</text>
</a>
</g>
</g>
<!-- src/index.tsx&#45;&gt;src/modules/display -->
<g id="edge1" class="edge">
<title>src/index.tsx&#45;&gt;src/modules/display</title>
<path fill="none" stroke="#000000" stroke-width="2" stroke-opacity="0.200000" d="M70.26,-77C70.26,-77 79.69,-77 79.69,-77"/>
<polygon fill="#000000" fill-opacity="0.200000" stroke="#000000" stroke-width="2" stroke-opacity="0.200000" points="79.7,-79.1 85.69,-77 79.69,-74.9 79.7,-79.1"/>
</g>
<!-- src/modules/cards -->
<g id="node3" class="node">
<title>src/modules/cards</title>
<g id="a_node3"><a xlink:href="src/modules/cards" xlink:title="cards">
<polygon fill="#ffffcc" stroke="black" points="408,-89 356,-89 354,-87 354,-71 406,-71 408,-73 408,-89"/>
<polyline fill="none" stroke="black" points="406,-87 354,-87 "/>
<polyline fill="none" stroke="black" points="406,-87 406,-71 "/>
<polyline fill="none" stroke="black" points="406,-87 408,-89 "/>
<text text-anchor="middle" x="381" y="-77.8" font-family="Helvetica,sans-Serif" font-size="9.00">cards</text>
</a>
</g>
</g>
<!-- src/modules/display&#45;&gt;src/modules/cards -->
<g id="edge8" class="edge">
<title>src/modules/display&#45;&gt;src/modules/cards</title>
<path fill="none" stroke="#000000" stroke-width="2" stroke-opacity="0.200000" d="M113,-86.08C113,-96.75 113,-113 113,-113 113,-113 390,-113 390,-113 390,-113 390,-95.02 390,-95.02"/>
<polygon fill="#000000" fill-opacity="0.200000" stroke="#000000" stroke-width="2" stroke-opacity="0.200000" points="392.1,-95.02 390,-89.02 387.9,-95.02 392.1,-95.02"/>
</g>
<!-- src/modules/db -->
<g id="node4" class="node">
<title>src/modules/db</title>
<g id="a_node4"><a xlink:href="src/modules/db" xlink:title="db">
<polygon fill="#ffffcc" stroke="black" points="207,-86 155,-86 153,-84 153,-68 205,-68 207,-70 207,-86"/>
<polyline fill="none" stroke="black" points="205,-84 153,-84 "/>
<polyline fill="none" stroke="black" points="205,-84 205,-68 "/>
<polyline fill="none" stroke="black" points="205,-84 207,-86 "/>
<text text-anchor="middle" x="180" y="-74.8" font-family="Helvetica,sans-Serif" font-size="9.00">db</text>
</a>
</g>
</g>
<!-- src/modules/display&#45;&gt;src/modules/db -->
<g id="edge7" class="edge">
<title>src/modules/display&#45;&gt;src/modules/db</title>
<path fill="none" stroke="#000000" stroke-width="2" stroke-opacity="0.200000" d="M140.25,-77C140.25,-77 146.99,-77 146.99,-77"/>
<polygon fill="#000000" fill-opacity="0.200000" stroke="#000000" stroke-width="2" stroke-opacity="0.200000" points="146.99,-79.1 152.99,-77 146.99,-74.9 146.99,-79.1"/>
</g>
<!-- src/modules/pdf -->
<g id="node5" class="node">
<title>src/modules/pdf</title>
<g id="a_node5"><a xlink:href="src/modules/pdf" xlink:title="pdf">
<polygon fill="#ffffcc" stroke="black" points="274,-56 222,-56 220,-54 220,-38 272,-38 274,-40 274,-56"/>
<polyline fill="none" stroke="black" points="272,-54 220,-54 "/>
<polyline fill="none" stroke="black" points="272,-54 272,-38 "/>
<polyline fill="none" stroke="black" points="272,-54 274,-56 "/>
<text text-anchor="middle" x="247" y="-44.8" font-family="Helvetica,sans-Serif" font-size="9.00">pdf</text>
</a>
</g>
</g>
<!-- src/modules/display&#45;&gt;src/modules/pdf -->
<g id="edge5" class="edge">
<title>src/modules/display&#45;&gt;src/modules/pdf</title>
<path fill="none" stroke="#000000" stroke-width="2" stroke-opacity="0.200000" d="M100,-67.98C100,-58.21 100,-44 100,-44 100,-44 213.69,-44 213.69,-44"/>
<polygon fill="#000000" fill-opacity="0.200000" stroke="#000000" stroke-width="2" stroke-opacity="0.200000" points="213.69,-46.1 219.69,-44 213.69,-41.9 213.69,-46.1"/>
</g>
<!-- src/modules/river -->
<g id="node6" class="node">
<title>src/modules/river</title>
<g id="a_node6"><a xlink:href="src/modules/river" xlink:title="river">
<polygon fill="#ffffcc" stroke="black" points="274,-86 222,-86 220,-84 220,-68 272,-68 274,-70 274,-86"/>
<polyline fill="none" stroke="black" points="272,-84 220,-84 "/>
<polyline fill="none" stroke="black" points="272,-84 272,-68 "/>
<polyline fill="none" stroke="black" points="272,-84 274,-86 "/>
<text text-anchor="middle" x="247" y="-74.8" font-family="Helvetica,sans-Serif" font-size="9.00">river</text>
</a>
</g>
</g>
<!-- src/modules/display&#45;&gt;src/modules/river -->
<g id="edge9" class="edge">
<title>src/modules/display&#45;&gt;src/modules/river</title>
<path fill="none" stroke="#000000" stroke-width="2" stroke-opacity="0.200000" d="M127,-67.8C127,-64.47 127,-61.5 127,-61.5 127,-61.5 238,-61.5 238,-61.5 238,-61.5 238,-62.13 238,-62.13"/>
<polygon fill="#000000" fill-opacity="0.200000" stroke="#000000" stroke-width="2" stroke-opacity="0.200000" points="235.9,-61.8 238,-67.8 240.1,-61.8 235.9,-61.8"/>
</g>
<!-- src/modules/selection -->
<g id="node7" class="node">
<title>src/modules/selection</title>
<g id="a_node7"><a xlink:href="src/modules/selection" xlink:title="selection">
<polygon fill="#ffffcc" stroke="black" points="341,-67 289,-67 287,-65 287,-49 339,-49 341,-51 341,-67"/>
<polyline fill="none" stroke="black" points="339,-65 287,-65 "/>
<polyline fill="none" stroke="black" points="339,-65 339,-49 "/>
<polyline fill="none" stroke="black" points="339,-65 341,-67 "/>
<text text-anchor="middle" x="314" y="-55.8" font-family="Helvetica,sans-Serif" font-size="9.00">selection</text>
</a>
</g>
</g>
<!-- src/modules/display&#45;&gt;src/modules/selection -->
<g id="edge6" class="edge">
<title>src/modules/display&#45;&gt;src/modules/selection</title>
<path fill="none" stroke="#000000" stroke-width="2" stroke-opacity="0.200000" d="M113,-67.88C113,-63.31 113,-58.75 113,-58.75 113,-58.75 280.89,-58.75 280.89,-58.75"/>
<polygon fill="#000000" fill-opacity="0.200000" stroke="#000000" stroke-width="2" stroke-opacity="0.200000" points="280.89,-60.85 286.89,-58.75 280.89,-56.65 280.89,-60.85"/>
</g>
<!-- src/modules/db&#45;&gt;src/modules/cards -->
<g id="edge2" class="edge">
<title>src/modules/db&#45;&gt;src/modules/cards</title>
<path fill="none" stroke="#000000" stroke-width="2" stroke-opacity="0.200000" d="M180,-86.21C180,-92.98 180,-101 180,-101 180,-101 372,-101 372,-101 372,-101 372,-95.03 372,-95.03"/>
<polygon fill="#000000" fill-opacity="0.200000" stroke="#000000" stroke-width="2" stroke-opacity="0.200000" points="374.1,-95.03 372,-89.03 369.9,-95.03 374.1,-95.03"/>
</g>
<!-- src/modules/db&#45;&gt;src/modules/pdf -->
<g id="edge3" class="edge">
<title>src/modules/db&#45;&gt;src/modules/pdf</title>
<path fill="none" stroke="#000000" stroke-width="2" stroke-opacity="0.200000" d="M180,-67.86C180,-60.03 180,-50 180,-50 180,-50 213.75,-50 213.75,-50"/>
<polygon fill="#000000" fill-opacity="0.200000" stroke="#000000" stroke-width="2" stroke-opacity="0.200000" points="213.75,-52.1 219.75,-50 213.75,-47.9 213.75,-52.1"/>
</g>
<!-- src/modules/db&#45;&gt;src/modules/river -->
<g id="edge4" class="edge">
<title>src/modules/db&#45;&gt;src/modules/river</title>
<path fill="none" stroke="#000000" stroke-width="2" stroke-opacity="0.200000" d="M207.25,-77C207.25,-77 213.99,-77 213.99,-77"/>
<polygon fill="#000000" fill-opacity="0.200000" stroke="#000000" stroke-width="2" stroke-opacity="0.200000" points="213.99,-79.1 219.99,-77 213.99,-74.9 213.99,-79.1"/>
</g>
<!-- src/modules/pdf&#45;&gt;src/modules/selection -->
<g id="edge10" class="edge">
<title>src/modules/pdf&#45;&gt;src/modules/selection</title>
<path fill="none" stroke="#000000" stroke-width="2" stroke-opacity="0.200000" d="M274.25,-52.5C274.25,-52.5 280.99,-52.5 280.99,-52.5"/>
<polygon fill="#000000" fill-opacity="0.200000" stroke="#000000" stroke-width="2" stroke-opacity="0.200000" points="280.99,-54.6 286.99,-52.5 280.99,-50.4 280.99,-54.6"/>
</g>
<!-- src/modules/river&#45;&gt;src/modules/cards -->
<g id="edge11" class="edge">
<title>src/modules/river&#45;&gt;src/modules/cards</title>
<path fill="none" stroke="#000000" stroke-width="2" stroke-opacity="0.200000" d="M274.12,-81C274.12,-81 347.92,-81 347.92,-81"/>
<polygon fill="#000000" fill-opacity="0.200000" stroke="#000000" stroke-width="2" stroke-opacity="0.200000" points="347.92,-83.1 353.92,-81 347.92,-78.9 347.92,-83.1"/>
</g>
<!-- src/modules/river&#45;&gt;src/modules/selection -->
<g id="edge12" class="edge">
<title>src/modules/river&#45;&gt;src/modules/selection</title>
<path fill="none" stroke="#000000" stroke-width="2" stroke-opacity="0.200000" d="M256,-67.73C256,-65.76 256,-64.25 256,-64.25 256,-64.25 280.7,-64.25 280.7,-64.25"/>
<polygon fill="#000000" fill-opacity="0.200000" stroke="#000000" stroke-width="2" stroke-opacity="0.200000" points="280.7,-66.35 286.7,-64.25 280.7,-62.15 280.7,-66.35"/>
</g>
<!-- src/modules/selection&#45;&gt;src/modules/cards -->
<g id="edge13" class="edge">
<title>src/modules/selection&#45;&gt;src/modules/cards</title>
<path fill="none" stroke="#000000" stroke-width="2" stroke-opacity="0.200000" d="M314,-67.42C314,-71.78 314,-76 314,-76 314,-76 347.75,-76 347.75,-76"/>
<polygon fill="#000000" fill-opacity="0.200000" stroke="#000000" stroke-width="2" stroke-opacity="0.200000" points="347.75,-78.1 353.75,-76 347.75,-73.9 347.75,-78.1"/>
</g>
</g>
</svg>
