<?xml version="1.0" encoding="UTF-8" standalone="no"?>
<!DOCTYPE svg PUBLIC "-//W3C//DTD SVG 1.1//EN"
 "http://www.w3.org/Graphics/SVG/1.1/DTD/svg11.dtd">
<!-- Generated by graphviz version 2.40.1 (20161225.0304)
 -->
<!-- Title: dependency&#45;cruiser output Pages: 1 -->
<svg width="685pt" height="192pt"
 viewBox="0.00 0.00 685.00 192.00" xmlns="http://www.w3.org/2000/svg" xmlns:xlink="http://www.w3.org/1999/xlink">
<g id="graph0" class="graph" transform="scale(1 1) rotate(0) translate(4 188)">
<title>dependency&#45;cruiser output</title>
<polygon fill="#ffffff" stroke="transparent" points="-4,4 -4,-188 681,-188 681,4 -4,4"/>
<g id="clust1" class="cluster">
<title>cluster_src</title>
<path fill="#ffffff" stroke="#000000" stroke-width="2" d="M20,-8C20,-8 657,-8 657,-8 663,-8 669,-14 669,-20 669,-20 669,-164 669,-164 669,-170 663,-176 657,-176 657,-176 20,-176 20,-176 14,-176 8,-170 8,-164 8,-164 8,-20 8,-20 8,-14 14,-8 20,-8"/>
<text text-anchor="middle" x="338.5" y="-164.8" font-family="Helvetica,sans-Serif" font-weight="bold" font-size="9.00" fill="#000000">src</text>
</g>
<g id="clust2" class="cluster">
<title>cluster_src/modules</title>
<path fill="#ffffff" stroke="#000000" stroke-width="2" d="M201,-42C201,-42 649,-42 649,-42 655,-42 661,-48 661,-54 661,-54 661,-138 661,-138 661,-144 655,-150 649,-150 649,-150 201,-150 201,-150 195,-150 189,-144 189,-138 189,-138 189,-54 189,-54 189,-48 195,-42 201,-42"/>
<text text-anchor="middle" x="425" y="-138.8" font-family="Helvetica,sans-Serif" font-weight="bold" font-size="9.00" fill="#000000">modules</text>
</g>
<g id="clust3" class="cluster">
<title>cluster_src/scene</title>
<path fill="#ffffff" stroke="#000000" stroke-width="2" d="M90,-94C90,-94 169,-94 169,-94 175,-94 181,-100 181,-106 181,-106 181,-134 181,-134 181,-140 175,-146 169,-146 169,-146 90,-146 90,-146 84,-146 78,-140 78,-134 78,-134 78,-106 78,-106 78,-100 84,-94 90,-94"/>
<text text-anchor="middle" x="129.5" y="-134.8" font-family="Helvetica,sans-Serif" font-weight="bold" font-size="9.00" fill="#000000">scene</text>
</g>
<!-- src/index.tsx -->
<g id="node1" class="node">
<title>src/index.tsx</title>
<g id="a_node1"><a xlink:href="src/index.tsx" xlink:title="index.tsx">
<path fill="#bbfeff" stroke="#000000" d="M64,-120C64,-120 22,-120 22,-120 19,-120 16,-117 16,-114 16,-114 16,-108 16,-108 16,-105 19,-102 22,-102 22,-102 64,-102 64,-102 67,-102 70,-105 70,-108 70,-108 70,-114 70,-114 70,-117 67,-120 64,-120"/>
<text text-anchor="middle" x="43" y="-108.8" font-family="Helvetica,sans-Serif" font-size="9.00" fill="#000000">index.tsx</text>
</a>
</g>
</g>
<!-- src/scene/ReaderScene.tsx -->
<g id="node2" class="node">
<title>src/scene/ReaderScene.tsx</title>
<g id="a_node2"><a xlink:href="src/scene/ReaderScene.tsx" xlink:title="ReaderScene.tsx">
<path fill="#bbfeff" stroke="#000000" d="M167,-120C167,-120 92,-120 92,-120 89,-120 86,-117 86,-114 86,-114 86,-108 86,-108 86,-105 89,-102 92,-102 92,-102 167,-102 167,-102 170,-102 173,-105 173,-108 173,-108 173,-114 173,-114 173,-117 170,-120 167,-120"/>
<text text-anchor="middle" x="129.5" y="-108.8" font-family="Helvetica,sans-Serif" font-size="9.00" fill="#000000">ReaderScene.tsx</text>
</a>
</g>
</g>
<!-- src/index.tsx&#45;&gt;src/scene/ReaderScene.tsx -->
<g id="edge1" class="edge">
<title>src/index.tsx&#45;&gt;src/scene/ReaderScene.tsx</title>
<path fill="none" stroke="#000000" stroke-width="2" stroke-opacity="0.200000" d="M70.3691,-111C70.3691,-111 79.8699,-111 79.8699,-111"/>
<polygon fill="#000000" fill-opacity="0.200000" stroke="#000000" stroke-width="2" stroke-opacity="0.200000" points="79.8699,-113.1001 85.8699,-111 79.8698,-108.9001 79.8699,-113.1001"/>
</g>
<!-- src/modules/control -->
<g id="node6" class="node">
<title>src/modules/control</title>
<g id="a_node6"><a xlink:href="src/modules/control" xlink:title="control">
<polygon fill="#ffffcc" stroke="#000000" points="251,-112 199,-112 197,-110 197,-94 249,-94 251,-96 251,-112"/>
<polyline fill="none" stroke="#000000" points="249,-110 197,-110 "/>
<polyline fill="none" stroke="#000000" points="249,-110 249,-94 "/>
<polyline fill="none" stroke="#000000" points="249,-110 251,-112 "/>
<text text-anchor="middle" x="224" y="-100.8" font-family="Helvetica,sans-Serif" font-size="9.00" fill="#000000">control</text>
</a>
</g>
</g>
<!-- src/scene/ReaderScene.tsx&#45;&gt;src/modules/control -->
<g id="edge26" class="edge">
<title>src/scene/ReaderScene.tsx&#45;&gt;src/modules/control</title>
<path fill="none" stroke="#000000" stroke-width="2" stroke-opacity="0.200000" d="M173.154,-107C173.154,-107 190.9873,-107 190.9873,-107"/>
<polygon fill="#000000" fill-opacity="0.200000" stroke="#000000" stroke-width="2" stroke-opacity="0.200000" points="190.9873,-109.1001 196.9873,-107 190.9873,-104.9001 190.9873,-109.1001"/>
</g>
<!-- src/modules/display -->
<g id="node7" class="node">
<title>src/modules/display</title>
<g id="a_node7"><a xlink:href="src/modules/display" xlink:title="display">
<polygon fill="#ffffcc" stroke="#000000" points="452,-96 400,-96 398,-94 398,-78 450,-78 452,-80 452,-96"/>
<polyline fill="none" stroke="#000000" points="450,-94 398,-94 "/>
<polyline fill="none" stroke="#000000" points="450,-94 450,-78 "/>
<polyline fill="none" stroke="#000000" points="450,-94 452,-96 "/>
<text text-anchor="middle" x="425" y="-84.8" font-family="Helvetica,sans-Serif" font-size="9.00" fill="#000000">display</text>
</a>
</g>
</g>
<!-- src/scene/ReaderScene.tsx&#45;&gt;src/modules/display -->
<g id="edge27" class="edge">
<title>src/scene/ReaderScene.tsx&#45;&gt;src/modules/display</title>
<path fill="none" stroke="#000000" stroke-width="2" stroke-opacity="0.200000" d="M173.102,-116.8C255.3003,-116.8 425,-116.8 425,-116.8 425,-116.8 425,-102.1029 425,-102.1029"/>
<polygon fill="#000000" fill-opacity="0.200000" stroke="#000000" stroke-width="2" stroke-opacity="0.200000" points="427.1001,-102.1029 425,-96.1029 422.9001,-102.1029 427.1001,-102.1029"/>
</g>
<!-- src/modules/selection -->
<g id="node10" class="node">
<title>src/modules/selection</title>
<g id="a_node10"><a xlink:href="src/modules/selection" xlink:title="selection">
<polygon fill="#ffffcc" stroke="#000000" points="586,-110 534,-110 532,-108 532,-92 584,-92 586,-94 586,-110"/>
<polyline fill="none" stroke="#000000" points="584,-108 532,-108 "/>
<polyline fill="none" stroke="#000000" points="584,-108 584,-92 "/>
<polyline fill="none" stroke="#000000" points="584,-108 586,-110 "/>
<text text-anchor="middle" x="559" y="-98.8" font-family="Helvetica,sans-Serif" font-size="9.00" fill="#000000">selection</text>
</a>
</g>
</g>
<!-- src/scene/ReaderScene.tsx&#45;&gt;src/modules/selection -->
<g id="edge28" class="edge">
<title>src/scene/ReaderScene.tsx&#45;&gt;src/modules/selection</title>
<path fill="none" stroke="#000000" stroke-width="2" stroke-opacity="0.200000" d="M173.0464,-118.4C282.2377,-118.4 559,-118.4 559,-118.4 559,-118.4 559,-116.1077 559,-116.1077"/>
<polygon fill="#000000" fill-opacity="0.200000" stroke="#000000" stroke-width="2" stroke-opacity="0.200000" points="561.1001,-116.1076 559,-110.1077 556.9001,-116.1077 561.1001,-116.1076"/>
</g>
<!-- src/modules/cards -->
<g id="node3" class="node">
<title>src/modules/cards</title>
<g id="a_node3"><a xlink:href="src/modules/cards" xlink:title="cards">
<polygon fill="#ffffcc" stroke="#000000" points="318,-108 266,-108 264,-106 264,-90 316,-90 318,-92 318,-108"/>
<polyline fill="none" stroke="#000000" points="316,-106 264,-106 "/>
<polyline fill="none" stroke="#000000" points="316,-106 316,-90 "/>
<polyline fill="none" stroke="#000000" points="316,-106 318,-108 "/>
<text text-anchor="middle" x="291" y="-96.8" font-family="Helvetica,sans-Serif" font-size="9.00" fill="#000000">cards</text>
</a>
</g>
</g>
<!-- src/modules/text -->
<g id="node4" class="node">
<title>src/modules/text</title>
<g id="a_node4"><a xlink:href="src/modules/text" xlink:title="text">
<polygon fill="#ffffcc" stroke="#000000" points="653,-110 601,-110 599,-108 599,-92 651,-92 653,-94 653,-110"/>
<polyline fill="none" stroke="#000000" points="651,-108 599,-108 "/>
<polyline fill="none" stroke="#000000" points="651,-108 651,-92 "/>
<polyline fill="none" stroke="#000000" points="651,-108 653,-110 "/>
<text text-anchor="middle" x="626" y="-98.8" font-family="Helvetica,sans-Serif" font-size="9.00" fill="#000000">text</text>
</a>
</g>
</g>
<!-- src/modules/cards&#45;&gt;src/modules/text -->
<g id="edge2" class="edge">
<title>src/modules/cards&#45;&gt;src/modules/text</title>
<path fill="none" stroke="#000000" stroke-width="2" stroke-opacity="0.200000" d="M291,-108.3291C291,-111.1904 291,-113.6 291,-113.6 291,-113.6 617,-113.6 617,-113.6 617,-113.6 617,-113.2557 617,-113.2557"/>
<polygon fill="#000000" fill-opacity="0.200000" stroke="#000000" stroke-width="2" stroke-opacity="0.200000" points="619.1002,-116.1569 617,-110.157 614.9002,-116.1571 619.1002,-116.1569"/>
</g>
<!-- src/modules/db -->
<g id="node5" class="node">
<title>src/modules/db</title>
<g id="a_node5"><a xlink:href="src/modules/db" xlink:title="db">
<polygon fill="#ffffcc" stroke="#000000" points="385,-68 333,-68 331,-66 331,-50 383,-50 385,-52 385,-68"/>
<polyline fill="none" stroke="#000000" points="383,-66 331,-66 "/>
<polyline fill="none" stroke="#000000" points="383,-66 383,-50 "/>
<polyline fill="none" stroke="#000000" points="383,-66 385,-68 "/>
<text text-anchor="middle" x="358" y="-56.8" font-family="Helvetica,sans-Serif" font-size="9.00" fill="#000000">db</text>
</a>
</g>
</g>
<!-- src/modules/cards&#45;&gt;src/modules/db -->
<g id="edge3" class="edge">
<title>src/modules/cards&#45;&gt;src/modules/db</title>
<path fill="none" stroke="#000000" stroke-width="2" stroke-opacity="0.200000" d="M291,-83.6633C291,-83.6633 291,-62 291,-62 291,-62 324.7485,-62 324.7485,-62"/>
<polygon fill="#000000" fill-opacity="0.200000" stroke="#000000" stroke-width="2" stroke-opacity="0.200000" points="288.9001,-83.6633 291,-89.6633 293.1001,-83.6634 288.9001,-83.6633"/>
<polygon fill="#000000" fill-opacity="0.200000" stroke="#000000" stroke-width="2" stroke-opacity="0.200000" points="324.7486,-64.1001 330.7485,-62 324.7485,-59.9001 324.7486,-64.1001"/>
</g>
<!-- src/modules/db&#45;&gt;src/modules/display -->
<g id="edge11" class="edge">
<title>src/modules/db&#45;&gt;src/modules/display</title>
<path fill="none" stroke="#000000" stroke-width="2" stroke-opacity="0.200000" d="M358,-74.0902C358,-74.0902 358,-82 358,-82 358,-82 391.7485,-82 391.7485,-82"/>
<polygon fill="#000000" fill-opacity="0.200000" stroke="#000000" stroke-width="2" stroke-opacity="0.200000" points="360.1001,-74.0902 358,-68.0902 355.9001,-74.0902 360.1001,-74.0902"/>
<polygon fill="#000000" fill-opacity="0.200000" stroke="#000000" stroke-width="2" stroke-opacity="0.200000" points="391.7486,-84.1001 397.7485,-82 391.7485,-79.9001 391.7486,-84.1001"/>
</g>
<!-- src/modules/river -->
<g id="node8" class="node">
<title>src/modules/river</title>
<g id="a_node8"><a xlink:href="src/modules/river" xlink:title="river">
<polygon fill="#ffffcc" stroke="#000000" points="519,-68 467,-68 465,-66 465,-50 517,-50 519,-52 519,-68"/>
<polyline fill="none" stroke="#000000" points="517,-66 465,-66 "/>
<polyline fill="none" stroke="#000000" points="517,-66 517,-50 "/>
<polyline fill="none" stroke="#000000" points="517,-66 519,-68 "/>
<text text-anchor="middle" x="492" y="-56.8" font-family="Helvetica,sans-Serif" font-size="9.00" fill="#000000">river</text>
</a>
</g>
</g>
<!-- src/modules/db&#45;&gt;src/modules/river -->
<g id="edge12" class="edge">
<title>src/modules/db&#45;&gt;src/modules/river</title>
<path fill="none" stroke="#000000" stroke-width="2" stroke-opacity="0.200000" d="M391.1169,-59C391.1169,-59 458.9234,-59 458.9234,-59"/>
<polygon fill="#000000" fill-opacity="0.200000" stroke="#000000" stroke-width="2" stroke-opacity="0.200000" points="458.9234,-61.1 464.9234,-59 458.9234,-56.9 458.9234,-61.1"/>
<polygon fill="#000000" fill-opacity="0.200000" stroke="#000000" stroke-width="2" stroke-opacity="0.200000" points="391.1169,-56.9 385.1169,-59 391.1169,-61.1 391.1169,-56.9"/>
</g>
<!-- src/modules/control&#45;&gt;src/modules/cards -->
<g id="edge6" class="edge">
<title>src/modules/control&#45;&gt;src/modules/cards</title>
<path fill="none" stroke="#000000" stroke-width="2" stroke-opacity="0.200000" d="M251.2515,-101C251.2515,-101 257.9899,-101 257.9899,-101"/>
<polygon fill="#000000" fill-opacity="0.200000" stroke="#000000" stroke-width="2" stroke-opacity="0.200000" points="257.9899,-103.1001 263.9899,-101 257.9899,-98.9001 257.9899,-103.1001"/>
</g>
<!-- src/modules/control&#45;&gt;src/modules/text -->
<g id="edge9" class="edge">
<title>src/modules/control&#45;&gt;src/modules/text</title>
<path fill="none" stroke="#000000" stroke-width="2" stroke-opacity="0.200000" d="M224,-112.1214C224,-113.8865 224,-115.2 224,-115.2 224,-115.2 635,-115.2 635,-115.2 635,-115.2 635,-114.6873 635,-114.6873"/>
<polygon fill="#000000" fill-opacity="0.200000" stroke="#000000" stroke-width="2" stroke-opacity="0.200000" points="637.1001,-116.0734 635,-110.0735 632.9001,-116.0735 637.1001,-116.0734"/>
</g>
<!-- src/modules/control&#45;&gt;src/modules/db -->
<g id="edge4" class="edge">
<title>src/modules/control&#45;&gt;src/modules/db</title>
<path fill="none" stroke="#000000" stroke-width="2" stroke-opacity="0.200000" d="M219,-93.9379C219,-80.2803 219,-56 219,-56 219,-56 324.8694,-56 324.8694,-56"/>
<polygon fill="#000000" fill-opacity="0.200000" stroke="#000000" stroke-width="2" stroke-opacity="0.200000" points="324.8695,-58.1001 330.8694,-56 324.8694,-53.9001 324.8695,-58.1001"/>
</g>
<!-- src/modules/control&#45;&gt;src/modules/display -->
<g id="edge5" class="edge">
<title>src/modules/control&#45;&gt;src/modules/display</title>
<path fill="none" stroke="#000000" stroke-width="2" stroke-opacity="0.200000" d="M241,-93.7042C241,-89.7354 241,-86 241,-86 241,-86 391.8502,-86 391.8502,-86"/>
<polygon fill="#000000" fill-opacity="0.200000" stroke="#000000" stroke-width="2" stroke-opacity="0.200000" points="391.8502,-88.1001 397.8502,-86 391.8501,-83.9001 391.8502,-88.1001"/>
</g>
<!-- src/modules/control&#45;&gt;src/modules/river -->
<g id="edge7" class="edge">
<title>src/modules/control&#45;&gt;src/modules/river</title>
<path fill="none" stroke="#000000" stroke-width="2" stroke-opacity="0.200000" d="M230,-93.836C230,-85.0135 230,-73 230,-73 230,-73 479,-73 479,-73 479,-73 479,-72.526 479,-72.526"/>
<polygon fill="#000000" fill-opacity="0.200000" stroke="#000000" stroke-width="2" stroke-opacity="0.200000" points="481.1001,-74.2602 479,-68.2602 476.9001,-74.2603 481.1001,-74.2602"/>
</g>
<!-- src/shared -->
<g id="node9" class="node">
<title>src/shared</title>
<g id="a_node9"><a xlink:href="src/shared" xlink:title="shared">
<polygon fill="#ffffcc" stroke="#000000" points="586,-34 534,-34 532,-32 532,-16 584,-16 586,-18 586,-34"/>
<polyline fill="none" stroke="#000000" points="584,-32 532,-32 "/>
<polyline fill="none" stroke="#000000" points="584,-32 584,-16 "/>
<polyline fill="none" stroke="#000000" points="584,-32 586,-34 "/>
<text text-anchor="middle" x="559" y="-22.8" font-family="Helvetica,sans-Serif" font-size="9.00" fill="#000000">shared</text>
</a>
</g>
</g>
<!-- src/modules/control&#45;&gt;src/shared -->
<g id="edge8" class="edge">
<title>src/modules/control&#45;&gt;src/shared</title>
<path fill="none" stroke="#000000" stroke-width="2" stroke-opacity="0.200000" d="M208,-93.7461C208,-73.0847 208,-25 208,-25 208,-25 525.7497,-25 525.7497,-25"/>
<polygon fill="#000000" fill-opacity="0.200000" stroke="#000000" stroke-width="2" stroke-opacity="0.200000" points="525.7497,-27.1001 531.7497,-25 525.7497,-22.9001 525.7497,-27.1001"/>
</g>
<!-- src/modules/display&#45;&gt;src/modules/cards -->
<g id="edge13" class="edge">
<title>src/modules/display&#45;&gt;src/modules/cards</title>
<path fill="none" stroke="#000000" stroke-width="2" stroke-opacity="0.200000" d="M412,-96.1279C412,-98.6943 412,-100.8 412,-100.8 412,-100.8 324.1548,-100.8 324.1548,-100.8"/>
<polygon fill="#000000" fill-opacity="0.200000" stroke="#000000" stroke-width="2" stroke-opacity="0.200000" points="324.1548,-98.7001 318.1548,-100.8 324.1547,-102.9001 324.1548,-98.7001"/>
</g>
<!-- src/modules/display&#45;&gt;src/modules/text -->
<g id="edge15" class="edge">
<title>src/modules/display&#45;&gt;src/modules/text</title>
<path fill="none" stroke="#000000" stroke-width="2" stroke-opacity="0.200000" d="M452.1017,-88.5C505.0266,-88.5 617,-88.5 617,-88.5 617,-88.5 617,-88.8416 617,-88.8416"/>
<polygon fill="#000000" fill-opacity="0.200000" stroke="#000000" stroke-width="2" stroke-opacity="0.200000" points="614.9002,-85.9156 617,-91.9157 619.1002,-85.9157 614.9002,-85.9156"/>
</g>
<!-- src/modules/display&#45;&gt;src/modules/river -->
<g id="edge16" class="edge">
<title>src/modules/display&#45;&gt;src/modules/river</title>
<path fill="none" stroke="#000000" stroke-width="2" stroke-opacity="0.200000" d="M452.2515,-81.5C470.8008,-81.5 492,-81.5 492,-81.5 492,-81.5 492,-74.1516 492,-74.1516"/>
<polygon fill="#000000" fill-opacity="0.200000" stroke="#000000" stroke-width="2" stroke-opacity="0.200000" points="494.1001,-74.1516 492,-68.1516 489.9001,-74.1516 494.1001,-74.1516"/>
</g>
<!-- src/modules/display&#45;&gt;src/shared -->
<g id="edge14" class="edge">
<title>src/modules/display&#45;&gt;src/shared</title>
<path fill="none" stroke="#000000" stroke-width="2" stroke-opacity="0.200000" d="M452.1455,-85C494.8718,-85 573,-85 573,-85 573,-85 573,-40.1127 573,-40.1127"/>
<polygon fill="#000000" fill-opacity="0.200000" stroke="#000000" stroke-width="2" stroke-opacity="0.200000" points="575.1001,-40.1127 573,-34.1127 570.9001,-40.1127 575.1001,-40.1127"/>
</g>
<!-- src/modules/display&#45;&gt;src/modules/selection -->
<g id="edge17" class="edge">
<title>src/modules/display&#45;&gt;src/modules/selection</title>
<path fill="none" stroke="#000000" stroke-width="2" stroke-opacity="0.200000" d="M439,-96.202C439,-97.4982 439,-98.4 439,-98.4 439,-98.4 525.7701,-98.4 525.7701,-98.4"/>
<polygon fill="#000000" fill-opacity="0.200000" stroke="#000000" stroke-width="2" stroke-opacity="0.200000" points="525.7702,-100.5001 531.7701,-98.4 525.7701,-96.3001 525.7702,-100.5001"/>
</g>
<!-- src/modules/river&#45;&gt;src/modules/cards -->
<g id="edge19" class="edge">
<title>src/modules/river&#45;&gt;src/modules/cards</title>
<path fill="none" stroke="#000000" stroke-width="2" stroke-opacity="0.200000" d="M506,-68.3737C506,-81.3482 506,-103.2 506,-103.2 506,-103.2 324.2299,-103.2 324.2299,-103.2"/>
<polygon fill="#000000" fill-opacity="0.200000" stroke="#000000" stroke-width="2" stroke-opacity="0.200000" points="324.2299,-101.1001 318.2299,-103.2 324.2299,-105.3001 324.2299,-101.1001"/>
</g>
<!-- src/modules/river&#45;&gt;src/modules/text -->
<g id="edge21" class="edge">
<title>src/modules/river&#45;&gt;src/modules/text</title>
<path fill="none" stroke="#000000" stroke-width="2" stroke-opacity="0.200000" d="M519.2338,-59C560.7239,-59 635,-59 635,-59 635,-59 635,-85.6788 635,-85.6788"/>
<polygon fill="#000000" fill-opacity="0.200000" stroke="#000000" stroke-width="2" stroke-opacity="0.200000" points="632.9001,-85.6788 635,-91.6788 637.1001,-85.6789 632.9001,-85.6788"/>
</g>
<!-- src/modules/river&#45;&gt;src/shared -->
<g id="edge20" class="edge">
<title>src/modules/river&#45;&gt;src/shared</title>
<path fill="none" stroke="#000000" stroke-width="2" stroke-opacity="0.200000" d="M519.2515,-54.5C537.8008,-54.5 559,-54.5 559,-54.5 559,-54.5 559,-40.0113 559,-40.0113"/>
<polygon fill="#000000" fill-opacity="0.200000" stroke="#000000" stroke-width="2" stroke-opacity="0.200000" points="561.1001,-40.0112 559,-34.0113 556.9001,-40.0113 561.1001,-40.0112"/>
</g>
<!-- src/modules/river&#45;&gt;src/modules/selection -->
<g id="edge22" class="edge">
<title>src/modules/river&#45;&gt;src/modules/selection</title>
<path fill="none" stroke="#000000" stroke-width="2" stroke-opacity="0.200000" d="M519.3164,-63.5C532.7101,-63.5 546,-63.5 546,-63.5 546,-63.5 546,-85.9223 546,-85.9223"/>
<polygon fill="#000000" fill-opacity="0.200000" stroke="#000000" stroke-width="2" stroke-opacity="0.200000" points="543.9001,-85.9223 546,-91.9223 548.1001,-85.9223 543.9001,-85.9223"/>
</g>
<!-- src/modules/selection&#45;&gt;src/modules/cards -->
<g id="edge24" class="edge">
<title>src/modules/selection&#45;&gt;src/modules/cards</title>
<path fill="none" stroke="#000000" stroke-width="2" stroke-opacity="0.200000" d="M531.8279,-105.6C531.8279,-105.6 324.244,-105.6 324.244,-105.6"/>
<polygon fill="#000000" fill-opacity="0.200000" stroke="#000000" stroke-width="2" stroke-opacity="0.200000" points="324.2441,-103.5001 318.244,-105.6 324.244,-107.7001 324.2441,-103.5001"/>
</g>
<!-- src/modules/selection&#45;&gt;src/modules/text -->
<g id="edge25" class="edge">
<title>src/modules/selection&#45;&gt;src/modules/text</title>
<path fill="none" stroke="#000000" stroke-width="2" stroke-opacity="0.200000" d="M586.2515,-101C586.2515,-101 592.9899,-101 592.9899,-101"/>
<polygon fill="#000000" fill-opacity="0.200000" stroke="#000000" stroke-width="2" stroke-opacity="0.200000" points="592.9899,-103.1001 598.9899,-101 592.9899,-98.9001 592.9899,-103.1001"/>
</g>
</g>
</svg>
