<?xml version="1.0" encoding="UTF-8" standalone="no"?>
<!DOCTYPE svg PUBLIC "-//W3C//DTD SVG 1.1//EN"
 "http://www.w3.org/Graphics/SVG/1.1/DTD/svg11.dtd">
<!-- Generated by graphviz version 2.40.1 (20161225.0304)
 -->
<!-- Title: dependency&#45;cruiser output Pages: 1 -->
<svg width="629pt" height="246pt"
 viewBox="0.00 0.00 629.00 246.00" xmlns="http://www.w3.org/2000/svg" xmlns:xlink="http://www.w3.org/1999/xlink">
<g id="graph0" class="graph" transform="scale(1 1) rotate(0) translate(4 242)">
<title>dependency&#45;cruiser output</title>
<polygon fill="#ffffff" stroke="transparent" points="-4,4 -4,-242 625,-242 625,4 -4,4"/>
<g id="clust1" class="cluster">
<title>cluster_src</title>
<path fill="#ffffff" stroke="#000000" stroke-width="2" d="M20,-8C20,-8 601,-8 601,-8 607,-8 613,-14 613,-20 613,-20 613,-218 613,-218 613,-224 607,-230 601,-230 601,-230 20,-230 20,-230 14,-230 8,-224 8,-218 8,-218 8,-20 8,-20 8,-14 14,-8 20,-8"/>
<text text-anchor="middle" x="310.5" y="-218.8" font-family="Helvetica,sans-Serif" font-weight="bold" font-size="9.00" fill="#000000">src</text>
</g>
<g id="clust2" class="cluster">
<title>cluster_src/modules</title>
<path fill="#ffffff" stroke="#000000" stroke-width="2" d="M201,-36C201,-36 515,-36 515,-36 521,-36 527,-42 527,-48 527,-48 527,-192 527,-192 527,-198 521,-204 515,-204 515,-204 201,-204 201,-204 195,-204 189,-198 189,-192 189,-192 189,-48 189,-48 189,-42 195,-36 201,-36"/>
<text text-anchor="middle" x="358" y="-192.8" font-family="Helvetica,sans-Serif" font-weight="bold" font-size="9.00" fill="#000000">modules</text>
</g>
<g id="clust3" class="cluster">
<title>cluster_src/scenes</title>
<path fill="#ffffff" stroke="#000000" stroke-width="2" d="M90,-84C90,-84 169,-84 169,-84 175,-84 181,-90 181,-96 181,-96 181,-124 181,-124 181,-130 175,-136 169,-136 169,-136 90,-136 90,-136 84,-136 78,-130 78,-124 78,-124 78,-96 78,-96 78,-90 84,-84 90,-84"/>
<text text-anchor="middle" x="129.5" y="-124.8" font-family="Helvetica,sans-Serif" font-weight="bold" font-size="9.00" fill="#000000">scenes</text>
</g>
<g id="clust4" class="cluster">
<title>cluster_src/shared</title>
<path fill="#ffffff" stroke="#000000" stroke-width="2" d="M547,-16C547,-16 593,-16 593,-16 599,-16 605,-22 605,-28 605,-28 605,-86 605,-86 605,-92 599,-98 593,-98 593,-98 547,-98 547,-98 541,-98 535,-92 535,-86 535,-86 535,-28 535,-28 535,-22 541,-16 547,-16"/>
<text text-anchor="middle" x="570" y="-86.8" font-family="Helvetica,sans-Serif" font-weight="bold" font-size="9.00" fill="#000000">shared</text>
</g>
<!-- src/index.tsx -->
<g id="node1" class="node">
<title>src/index.tsx</title>
<g id="a_node1"><a xlink:href="src/index.tsx" xlink:title="index.tsx">
<path fill="#bbfeff" stroke="#000000" d="M64,-136C64,-136 22,-136 22,-136 19,-136 16,-133 16,-130 16,-130 16,-124 16,-124 16,-121 19,-118 22,-118 22,-118 64,-118 64,-118 67,-118 70,-121 70,-124 70,-124 70,-130 70,-130 70,-133 67,-136 64,-136"/>
<text text-anchor="middle" x="43" y="-124.8" font-family="Helvetica,sans-Serif" font-size="9.00" fill="#000000">index.tsx</text>
</a>
</g>
</g>
<!-- src/scenes/ReaderScene.tsx -->
<g id="node2" class="node">
<title>src/scenes/ReaderScene.tsx</title>
<g id="a_node2"><a xlink:href="src/scenes/ReaderScene.tsx" xlink:title="ReaderScene.tsx">
<path fill="#bbfeff" stroke="#000000" d="M167,-110C167,-110 92,-110 92,-110 89,-110 86,-107 86,-104 86,-104 86,-98 86,-98 86,-95 89,-92 92,-92 92,-92 167,-92 167,-92 170,-92 173,-95 173,-98 173,-98 173,-104 173,-104 173,-107 170,-110 167,-110"/>
<text text-anchor="middle" x="129.5" y="-98.8" font-family="Helvetica,sans-Serif" font-size="9.00" fill="#000000">ReaderScene.tsx</text>
</a>
</g>
</g>
<!-- src/index.tsx&#45;&gt;src/scenes/ReaderScene.tsx -->
<g id="edge1" class="edge">
<title>src/index.tsx&#45;&gt;src/scenes/ReaderScene.tsx</title>
<path fill="none" stroke="#000000" stroke-width="2" stroke-opacity="0.200000" d="M70.2184,-124.6667C82.7998,-124.6667 95,-124.6667 95,-124.6667 95,-124.6667 95,-116.0825 95,-116.0825"/>
<polygon fill="#000000" fill-opacity="0.200000" stroke="#000000" stroke-width="2" stroke-opacity="0.200000" points="97.1001,-116.0824 95,-110.0825 92.9001,-116.0825 97.1001,-116.0824"/>
</g>
<!-- src/store.ts -->
<g id="node3" class="node">
<title>src/store.ts</title>
<g id="a_node3"><a xlink:href="src/store.ts" xlink:title="store.ts">
<path fill="#ddfeff" stroke="#000000" d="M150.5,-162C150.5,-162 108.5,-162 108.5,-162 105.5,-162 102.5,-159 102.5,-156 102.5,-156 102.5,-150 102.5,-150 102.5,-147 105.5,-144 108.5,-144 108.5,-144 150.5,-144 150.5,-144 153.5,-144 156.5,-147 156.5,-150 156.5,-150 156.5,-156 156.5,-156 156.5,-159 153.5,-162 150.5,-162"/>
<text text-anchor="middle" x="129.5" y="-150.8" font-family="Helvetica,sans-Serif" font-size="9.00" fill="#000000">store.ts</text>
</a>
</g>
</g>
<!-- src/index.tsx&#45;&gt;src/store.ts -->
<g id="edge2" class="edge">
<title>src/index.tsx&#45;&gt;src/store.ts</title>
<path fill="none" stroke="#000000" stroke-width="2" stroke-opacity="0.200000" d="M43,-136.0935C43,-143.5912 43,-153 43,-153 43,-153 96.1309,-153 96.1309,-153"/>
<polygon fill="#000000" fill-opacity="0.200000" stroke="#000000" stroke-width="2" stroke-opacity="0.200000" points="96.1309,-155.1001 102.1309,-153 96.1308,-150.9001 96.1309,-155.1001"/>
</g>
<!-- src/modules/control -->
<g id="node8" class="node">
<title>src/modules/control</title>
<g id="a_node8"><a xlink:href="src/modules/control" xlink:title="control">
<polygon fill="#ffffcc" stroke="#000000" points="251,-128 199,-128 197,-126 197,-110 249,-110 251,-112 251,-128"/>
<polyline fill="none" stroke="#000000" points="249,-126 197,-126 "/>
<polyline fill="none" stroke="#000000" points="249,-126 249,-110 "/>
<polyline fill="none" stroke="#000000" points="249,-126 251,-128 "/>
<text text-anchor="middle" x="224" y="-116.8" font-family="Helvetica,sans-Serif" font-size="9.00" fill="#000000">control</text>
</a>
</g>
</g>
<!-- src/scenes/ReaderScene.tsx&#45;&gt;src/modules/control -->
<g id="edge22" class="edge">
<title>src/scenes/ReaderScene.tsx&#45;&gt;src/modules/control</title>
<path fill="none" stroke="#000000" stroke-width="2" stroke-opacity="0.200000" d="M168,-110.1699C168,-112.321 168,-114 168,-114 168,-114 190.9842,-114 190.9842,-114"/>
<polygon fill="#000000" fill-opacity="0.200000" stroke="#000000" stroke-width="2" stroke-opacity="0.200000" points="190.9842,-116.1001 196.9842,-114 190.9842,-111.9001 190.9842,-116.1001"/>
</g>
<!-- src/modules/creation -->
<g id="node9" class="node">
<title>src/modules/creation</title>
<g id="a_node9"><a xlink:href="src/modules/creation" xlink:title="creation">
<polygon fill="#ffffcc" stroke="#000000" points="318,-128 266,-128 264,-126 264,-110 316,-110 318,-112 318,-128"/>
<polyline fill="none" stroke="#000000" points="316,-126 264,-126 "/>
<polyline fill="none" stroke="#000000" points="316,-126 316,-110 "/>
<polyline fill="none" stroke="#000000" points="316,-126 318,-128 "/>
<text text-anchor="middle" x="291" y="-116.8" font-family="Helvetica,sans-Serif" font-size="9.00" fill="#000000">creation</text>
</a>
</g>
</g>
<!-- src/scenes/ReaderScene.tsx&#45;&gt;src/modules/creation -->
<g id="edge23" class="edge">
<title>src/scenes/ReaderScene.tsx&#45;&gt;src/modules/creation</title>
<path fill="none" stroke="#000000" stroke-width="2" stroke-opacity="0.200000" d="M173.2517,-96.6667C217.0555,-96.6667 278,-96.6667 278,-96.6667 278,-96.6667 278,-103.9162 278,-103.9162"/>
<polygon fill="#000000" fill-opacity="0.200000" stroke="#000000" stroke-width="2" stroke-opacity="0.200000" points="275.9001,-103.9161 278,-109.9162 280.1001,-103.9162 275.9001,-103.9161"/>
</g>
<!-- src/modules/display -->
<g id="node10" class="node">
<title>src/modules/display</title>
<g id="a_node10"><a xlink:href="src/modules/display" xlink:title="display">
<polygon fill="#ffffcc" stroke="#000000" points="452,-106 400,-106 398,-104 398,-88 450,-88 452,-90 452,-106"/>
<polyline fill="none" stroke="#000000" points="450,-104 398,-104 "/>
<polyline fill="none" stroke="#000000" points="450,-104 450,-88 "/>
<polyline fill="none" stroke="#000000" points="450,-104 452,-106 "/>
<text text-anchor="middle" x="425" y="-94.8" font-family="Helvetica,sans-Serif" font-size="9.00" fill="#000000">display</text>
</a>
</g>
</g>
<!-- src/scenes/ReaderScene.tsx&#45;&gt;src/modules/display -->
<g id="edge24" class="edge">
<title>src/scenes/ReaderScene.tsx&#45;&gt;src/modules/display</title>
<path fill="none" stroke="#000000" stroke-width="2" stroke-opacity="0.200000" d="M144,-91.9764C144,-84.5364 144,-75.2 144,-75.2 144,-75.2 425,-75.2 425,-75.2 425,-75.2 425,-81.8812 425,-81.8812"/>
<polygon fill="#000000" fill-opacity="0.200000" stroke="#000000" stroke-width="2" stroke-opacity="0.200000" points="422.9001,-81.8811 425,-87.8812 427.1001,-81.8812 422.9001,-81.8811"/>
</g>
<!-- src/modules/select -->
<g id="node11" class="node">
<title>src/modules/select</title>
<g id="a_node11"><a xlink:href="src/modules/select" xlink:title="select">
<polygon fill="#ffffcc" stroke="#000000" points="385,-106 333,-106 331,-104 331,-88 383,-88 385,-90 385,-106"/>
<polyline fill="none" stroke="#000000" points="383,-104 331,-104 "/>
<polyline fill="none" stroke="#000000" points="383,-104 383,-88 "/>
<polyline fill="none" stroke="#000000" points="383,-104 385,-106 "/>
<text text-anchor="middle" x="358" y="-94.8" font-family="Helvetica,sans-Serif" font-size="9.00" fill="#000000">select</text>
</a>
</g>
</g>
<!-- src/scenes/ReaderScene.tsx&#45;&gt;src/modules/select -->
<g id="edge27" class="edge">
<title>src/scenes/ReaderScene.tsx&#45;&gt;src/modules/select</title>
<path fill="none" stroke="#000000" stroke-width="2" stroke-opacity="0.200000" d="M173.0169,-94.3333C173.0169,-94.3333 324.7698,-94.3333 324.7698,-94.3333"/>
<polygon fill="#000000" fill-opacity="0.200000" stroke="#000000" stroke-width="2" stroke-opacity="0.200000" points="324.7698,-96.4334 330.7698,-94.3333 324.7697,-92.2334 324.7698,-96.4334"/>
</g>
<!-- src/modules/river -->
<g id="node12" class="node">
<title>src/modules/river</title>
<g id="a_node12"><a xlink:href="src/modules/river" xlink:title="river">
<polygon fill="#ffffcc" stroke="#000000" points="385,-150 333,-150 331,-148 331,-132 383,-132 385,-134 385,-150"/>
<polyline fill="none" stroke="#000000" points="383,-148 331,-148 "/>
<polyline fill="none" stroke="#000000" points="383,-148 383,-132 "/>
<polyline fill="none" stroke="#000000" points="383,-148 385,-150 "/>
<text text-anchor="middle" x="358" y="-138.8" font-family="Helvetica,sans-Serif" font-size="9.00" fill="#000000">river</text>
</a>
</g>
</g>
<!-- src/scenes/ReaderScene.tsx&#45;&gt;src/modules/river -->
<g id="edge26" class="edge">
<title>src/scenes/ReaderScene.tsx&#45;&gt;src/modules/river</title>
<path fill="none" stroke="#000000" stroke-width="2" stroke-opacity="0.200000" d="M162,-110.0454C162,-121.5664 162,-140 162,-140 162,-140 324.747,-140 324.747,-140"/>
<polygon fill="#000000" fill-opacity="0.200000" stroke="#000000" stroke-width="2" stroke-opacity="0.200000" points="324.7471,-142.1001 330.747,-140 324.747,-137.9001 324.7471,-142.1001"/>
</g>
<!-- src/modules/navigate -->
<g id="node13" class="node">
<title>src/modules/navigate</title>
<g id="a_node13"><a xlink:href="src/modules/navigate" xlink:title="navigate">
<polygon fill="#ffffcc" stroke="#000000" points="385,-62 333,-62 331,-60 331,-44 383,-44 385,-46 385,-62"/>
<polyline fill="none" stroke="#000000" points="383,-60 331,-60 "/>
<polyline fill="none" stroke="#000000" points="383,-60 383,-44 "/>
<polyline fill="none" stroke="#000000" points="383,-60 385,-62 "/>
<text text-anchor="middle" x="358" y="-50.8" font-family="Helvetica,sans-Serif" font-size="9.00" fill="#000000">navigate</text>
</a>
</g>
</g>
<!-- src/scenes/ReaderScene.tsx&#45;&gt;src/modules/navigate -->
<g id="edge25" class="edge">
<title>src/scenes/ReaderScene.tsx&#45;&gt;src/modules/navigate</title>
<path fill="none" stroke="#000000" stroke-width="2" stroke-opacity="0.200000" d="M115,-91.7451C115,-77.7969 115,-53 115,-53 115,-53 324.5972,-53 324.5972,-53"/>
<polygon fill="#000000" fill-opacity="0.200000" stroke="#000000" stroke-width="2" stroke-opacity="0.200000" points="324.5972,-55.1001 330.5972,-53 324.5971,-50.9001 324.5972,-55.1001"/>
</g>
<!-- src/modules/analyze -->
<g id="node4" class="node">
<title>src/modules/analyze</title>
<g id="a_node4"><a xlink:href="src/modules/analyze" xlink:title="analyze">
<polygon fill="#ffffcc" stroke="#000000" points="519,-106 467,-106 465,-104 465,-88 517,-88 519,-90 519,-106"/>
<polyline fill="none" stroke="#000000" points="517,-104 465,-104 "/>
<polyline fill="none" stroke="#000000" points="517,-104 517,-88 "/>
<polyline fill="none" stroke="#000000" points="517,-104 519,-106 "/>
<text text-anchor="middle" x="492" y="-94.8" font-family="Helvetica,sans-Serif" font-size="9.00" fill="#000000">analyze</text>
</a>
</g>
</g>
<!-- src/store.ts&#45;&gt;src/modules/analyze -->
<g id="edge28" class="edge">
<title>src/store.ts&#45;&gt;src/modules/analyze</title>
<path fill="none" stroke="#000000" stroke-width="2" stroke-opacity="0.200000" d="M130,-162.1758C130,-170.6719 130,-182 130,-182 130,-182 501,-182 501,-182 501,-182 501,-112.0965 501,-112.0965"/>
<polygon fill="#000000" fill-opacity="0.200000" stroke="#000000" stroke-width="2" stroke-opacity="0.200000" points="503.1001,-112.0965 501,-106.0965 498.9001,-112.0965 503.1001,-112.0965"/>
</g>
<!-- src/modules/cards -->
<g id="node7" class="node">
<title>src/modules/cards</title>
<g id="a_node7"><a xlink:href="src/modules/cards" xlink:title="cards">
<polygon fill="#ffffcc" stroke="#000000" points="452,-164 400,-164 398,-162 398,-146 450,-146 452,-148 452,-164"/>
<polyline fill="none" stroke="#000000" points="450,-162 398,-162 "/>
<polyline fill="none" stroke="#000000" points="450,-162 450,-146 "/>
<polyline fill="none" stroke="#000000" points="450,-162 452,-164 "/>
<text text-anchor="middle" x="425" y="-152.8" font-family="Helvetica,sans-Serif" font-size="9.00" fill="#000000">cards</text>
</a>
</g>
</g>
<!-- src/store.ts&#45;&gt;src/modules/cards -->
<g id="edge29" class="edge">
<title>src/store.ts&#45;&gt;src/modules/cards</title>
<path fill="none" stroke="#000000" stroke-width="2" stroke-opacity="0.200000" d="M156.507,-160C156.507,-160 391.7349,-160 391.7349,-160"/>
<polygon fill="#000000" fill-opacity="0.200000" stroke="#000000" stroke-width="2" stroke-opacity="0.200000" points="391.7349,-162.1001 397.7349,-160 391.7349,-157.9001 391.7349,-162.1001"/>
</g>
<!-- src/store.ts&#45;&gt;src/modules/control -->
<g id="edge30" class="edge">
<title>src/store.ts&#45;&gt;src/modules/control</title>
<path fill="none" stroke="#000000" stroke-width="2" stroke-opacity="0.200000" d="M139,-143.6702C139,-134.3293 139,-121.3333 139,-121.3333 139,-121.3333 190.6376,-121.3333 190.6376,-121.3333"/>
<polygon fill="#000000" fill-opacity="0.200000" stroke="#000000" stroke-width="2" stroke-opacity="0.200000" points="190.6376,-123.4334 196.6376,-121.3333 190.6376,-119.2334 190.6376,-123.4334"/>
</g>
<!-- src/store.ts&#45;&gt;src/modules/creation -->
<g id="edge31" class="edge">
<title>src/store.ts&#45;&gt;src/modules/creation</title>
<path fill="none" stroke="#000000" stroke-width="2" stroke-opacity="0.200000" d="M156.7639,-154C200.6283,-154 282,-154 282,-154 282,-154 282,-134.1958 282,-134.1958"/>
<polygon fill="#000000" fill-opacity="0.200000" stroke="#000000" stroke-width="2" stroke-opacity="0.200000" points="284.1001,-134.1958 282,-128.1958 279.9001,-134.1959 284.1001,-134.1958"/>
</g>
<!-- src/store.ts&#45;&gt;src/modules/display -->
<g id="edge32" class="edge">
<title>src/store.ts&#45;&gt;src/modules/display</title>
<path fill="none" stroke="#000000" stroke-width="2" stroke-opacity="0.200000" d="M156.9132,-158C224.748,-158 395,-158 395,-158 395,-158 395,-101.5 395,-101.5 395,-101.5 395.2769,-101.5 395.2769,-101.5"/>
<polygon fill="#000000" fill-opacity="0.200000" stroke="#000000" stroke-width="2" stroke-opacity="0.200000" points="391.7686,-103.6002 397.7686,-101.5 391.7685,-99.4002 391.7686,-103.6002"/>
</g>
<!-- src/store.ts&#45;&gt;src/modules/select -->
<g id="edge34" class="edge">
<title>src/store.ts&#45;&gt;src/modules/select</title>
<path fill="none" stroke="#000000" stroke-width="2" stroke-opacity="0.200000" d="M156.7515,-152C194.4716,-152 258,-152 258,-152 258,-152 258,-101.3333 258,-101.3333 258,-101.3333 324.9386,-101.3333 324.9386,-101.3333"/>
<polygon fill="#000000" fill-opacity="0.200000" stroke="#000000" stroke-width="2" stroke-opacity="0.200000" points="324.9386,-103.4334 330.9386,-101.3333 324.9385,-99.2334 324.9386,-103.4334"/>
</g>
<!-- src/store.ts&#45;&gt;src/modules/river -->
<g id="edge33" class="edge">
<title>src/store.ts&#45;&gt;src/modules/river</title>
<path fill="none" stroke="#000000" stroke-width="2" stroke-opacity="0.200000" d="M121,-143.7188C121,-142.6875 121,-142 121,-142 121,-142 324.8131,-142 324.8131,-142"/>
<polygon fill="#000000" fill-opacity="0.200000" stroke="#000000" stroke-width="2" stroke-opacity="0.200000" points="324.8131,-144.1001 330.8131,-142 324.8131,-139.9001 324.8131,-144.1001"/>
</g>
<!-- src/shared/utils.ts -->
<g id="node5" class="node">
<title>src/shared/utils.ts</title>
<g id="a_node5"><a xlink:href="src/shared/utils.ts" xlink:title="utils.ts">
<path fill="#ddfeff" stroke="#000000" d="M591,-42C591,-42 549,-42 549,-42 546,-42 543,-39 543,-36 543,-36 543,-30 543,-30 543,-27 546,-24 549,-24 549,-24 591,-24 591,-24 594,-24 597,-27 597,-30 597,-30 597,-36 597,-36 597,-39 594,-42 591,-42"/>
<text text-anchor="middle" x="570" y="-30.8" font-family="Helvetica,sans-Serif" font-size="9.00" fill="#000000">utils.ts</text>
</a>
</g>
</g>
<!-- src/modules/analyze&#45;&gt;src/shared/utils.ts -->
<g id="edge3" class="edge">
<title>src/modules/analyze&#45;&gt;src/shared/utils.ts</title>
<path fill="none" stroke="#000000" stroke-width="2" stroke-opacity="0.200000" d="M498,-87.8438C498,-71.3625 498,-38.4 498,-38.4 498,-38.4 536.7799,-38.4 536.7799,-38.4"/>
<polygon fill="#000000" fill-opacity="0.200000" stroke="#000000" stroke-width="2" stroke-opacity="0.200000" points="536.7799,-40.5001 542.7799,-38.4 536.7799,-36.3001 536.7799,-40.5001"/>
</g>
<!-- src/shared/rect.ts -->
<g id="node6" class="node">
<title>src/shared/rect.ts</title>
<g id="a_node6"><a xlink:href="src/shared/rect.ts" xlink:title="rect.ts">
<path fill="#ddfeff" stroke="#000000" d="M591,-72C591,-72 549,-72 549,-72 546,-72 543,-69 543,-66 543,-66 543,-60 543,-60 543,-57 546,-54 549,-54 549,-54 591,-54 591,-54 594,-54 597,-57 597,-60 597,-60 597,-66 597,-66 597,-69 594,-72 591,-72"/>
<text text-anchor="middle" x="570" y="-60.8" font-family="Helvetica,sans-Serif" font-size="9.00" fill="#000000">rect.ts</text>
</a>
</g>
</g>
<!-- src/modules/analyze&#45;&gt;src/shared/rect.ts -->
<g id="edge4" class="edge">
<title>src/modules/analyze&#45;&gt;src/shared/rect.ts</title>
<path fill="none" stroke="#000000" stroke-width="2" stroke-opacity="0.200000" d="M509,-87.7226C509,-79.4594 509,-68.6667 509,-68.6667 509,-68.6667 536.7115,-68.6667 536.7115,-68.6667"/>
<polygon fill="#000000" fill-opacity="0.200000" stroke="#000000" stroke-width="2" stroke-opacity="0.200000" points="536.7115,-70.7668 542.7115,-68.6667 536.7115,-66.5668 536.7115,-70.7668"/>
</g>
<!-- src/modules/control&#45;&gt;src/modules/analyze -->
<g id="edge5" class="edge">
<title>src/modules/control&#45;&gt;src/modules/analyze</title>
<path fill="none" stroke="#000000" stroke-width="2" stroke-opacity="0.200000" d="M211,-109.9895C211,-98.0285 211,-78.4 211,-78.4 211,-78.4 487,-78.4 487,-78.4 487,-78.4 487,-81.7 487,-81.7"/>
<polygon fill="#000000" fill-opacity="0.200000" stroke="#000000" stroke-width="2" stroke-opacity="0.200000" points="484.9001,-81.7 487,-87.7 489.1001,-81.7 484.9001,-81.7"/>
</g>
<!-- src/modules/control&#45;&gt;src/modules/creation -->
<g id="edge6" class="edge">
<title>src/modules/control&#45;&gt;src/modules/creation</title>
<path fill="none" stroke="#000000" stroke-width="2" stroke-opacity="0.200000" d="M251.2515,-119C251.2515,-119 257.9899,-119 257.9899,-119"/>
<polygon fill="#000000" fill-opacity="0.200000" stroke="#000000" stroke-width="2" stroke-opacity="0.200000" points="257.9899,-121.1001 263.9899,-119 257.9899,-116.9001 257.9899,-121.1001"/>
</g>
<!-- src/modules/control&#45;&gt;src/modules/display -->
<g id="edge7" class="edge">
<title>src/modules/control&#45;&gt;src/modules/display</title>
<path fill="none" stroke="#000000" stroke-width="2" stroke-opacity="0.200000" d="M224,-109.9465C224,-98.8779 224,-81.6 224,-81.6 224,-81.6 412,-81.6 412,-81.6 412,-81.6 412,-82.2264 412,-82.2264"/>
<polygon fill="#000000" fill-opacity="0.200000" stroke="#000000" stroke-width="2" stroke-opacity="0.200000" points="409.9001,-81.8637 412,-87.8638 414.1001,-81.8638 409.9001,-81.8637"/>
</g>
<!-- src/modules/control&#45;&gt;src/modules/select -->
<g id="edge8" class="edge">
<title>src/modules/control&#45;&gt;src/modules/select</title>
<path fill="none" stroke="#000000" stroke-width="2" stroke-opacity="0.200000" d="M238,-109.9363C238,-104.6445 238,-99 238,-99 238,-99 324.7701,-99 324.7701,-99"/>
<polygon fill="#000000" fill-opacity="0.200000" stroke="#000000" stroke-width="2" stroke-opacity="0.200000" points="324.7702,-101.1001 330.7701,-99 324.7701,-96.9001 324.7702,-101.1001"/>
</g>
<!-- src/modules/creation&#45;&gt;src/modules/analyze -->
<g id="edge9" class="edge">
<title>src/modules/creation&#45;&gt;src/modules/analyze</title>
<path fill="none" stroke="#000000" stroke-width="2" stroke-opacity="0.200000" d="M318.1017,-116C371.0266,-116 483,-116 483,-116 483,-116 483,-112.0548 483,-112.0548"/>
<polygon fill="#000000" fill-opacity="0.200000" stroke="#000000" stroke-width="2" stroke-opacity="0.200000" points="485.1001,-112.0548 483,-106.0548 480.9001,-112.0549 485.1001,-112.0548"/>
</g>
<!-- src/modules/creation&#45;&gt;src/shared/utils.ts -->
<g id="edge12" class="edge">
<title>src/modules/creation&#45;&gt;src/shared/utils.ts</title>
<path fill="none" stroke="#000000" stroke-width="2" stroke-opacity="0.200000" d="M291,-109.9021C291,-86.7835 291,-27.6 291,-27.6 291,-27.6 536.9948,-27.6 536.9948,-27.6"/>
<polygon fill="#000000" fill-opacity="0.200000" stroke="#000000" stroke-width="2" stroke-opacity="0.200000" points="536.9948,-29.6999 542.9948,-27.6 536.9948,-25.4999 536.9948,-29.6999"/>
</g>
<!-- src/modules/creation&#45;&gt;src/modules/cards -->
<g id="edge10" class="edge">
<title>src/modules/creation&#45;&gt;src/modules/cards</title>
<path fill="none" stroke="#000000" stroke-width="2" stroke-opacity="0.200000" d="M318.1169,-122C357.2721,-122 425,-122 425,-122 425,-122 425,-139.9826 425,-139.9826"/>
<polygon fill="#000000" fill-opacity="0.200000" stroke="#000000" stroke-width="2" stroke-opacity="0.200000" points="422.9001,-139.9826 425,-145.9826 427.1001,-139.9826 422.9001,-139.9826"/>
</g>
<!-- src/modules/creation&#45;&gt;src/modules/select -->
<g id="edge11" class="edge">
<title>src/modules/creation&#45;&gt;src/modules/select</title>
<path fill="none" stroke="#000000" stroke-width="2" stroke-opacity="0.200000" d="M305,-109.9033C305,-106.6016 305,-103.6667 305,-103.6667 305,-103.6667 324.879,-103.6667 324.879,-103.6667"/>
<polygon fill="#000000" fill-opacity="0.200000" stroke="#000000" stroke-width="2" stroke-opacity="0.200000" points="324.879,-105.7668 330.879,-103.6667 324.8789,-101.5668 324.879,-105.7668"/>
</g>
<!-- src/modules/creation&#45;&gt;src/modules/river -->
<g id="edge13" class="edge">
<title>src/modules/creation&#45;&gt;src/modules/river</title>
<path fill="none" stroke="#000000" stroke-width="2" stroke-opacity="0.200000" d="M300,-128.0548C300,-132.9485 300,-138 300,-138 300,-138 324.6984,-138 324.6984,-138"/>
<polygon fill="#000000" fill-opacity="0.200000" stroke="#000000" stroke-width="2" stroke-opacity="0.200000" points="324.6984,-140.1001 330.6984,-138 324.6983,-135.9001 324.6984,-140.1001"/>
</g>
<!-- src/modules/display&#45;&gt;src/modules/analyze -->
<g id="edge14" class="edge">
<title>src/modules/display&#45;&gt;src/modules/analyze</title>
<path fill="none" stroke="#000000" stroke-width="2" stroke-opacity="0.200000" d="M452.2515,-97C452.2515,-97 458.9899,-97 458.9899,-97"/>
<polygon fill="#000000" fill-opacity="0.200000" stroke="#000000" stroke-width="2" stroke-opacity="0.200000" points="458.9899,-99.1001 464.9899,-97 458.9899,-94.9001 458.9899,-99.1001"/>
</g>
<!-- src/modules/select&#45;&gt;src/modules/analyze -->
<g id="edge18" class="edge">
<title>src/modules/select&#45;&gt;src/modules/analyze</title>
<path fill="none" stroke="#000000" stroke-width="2" stroke-opacity="0.200000" d="M367,-87.8786C367,-86.1135 367,-84.8 367,-84.8 367,-84.8 476,-84.8 476,-84.8 476,-84.8 476,-85.1079 476,-85.1079"/>
<polygon fill="#000000" fill-opacity="0.200000" stroke="#000000" stroke-width="2" stroke-opacity="0.200000" points="473.9002,-81.8785 476,-87.8786 478.1002,-81.8787 473.9002,-81.8785"/>
</g>
<!-- src/modules/select&#45;&gt;src/shared/utils.ts -->
<g id="edge21" class="edge">
<title>src/modules/select&#45;&gt;src/shared/utils.ts</title>
<path fill="none" stroke="#000000" stroke-width="2" stroke-opacity="0.200000" d="M385.1988,-92.5C387.5166,-92.5 389,-92.5 389,-92.5 389,-92.5 389,-31.2 389,-31.2 389,-31.2 536.9025,-31.2 536.9025,-31.2"/>
<polygon fill="#000000" fill-opacity="0.200000" stroke="#000000" stroke-width="2" stroke-opacity="0.200000" points="536.9025,-33.3001 542.9025,-31.2 536.9024,-29.1001 536.9025,-33.3001"/>
</g>
<!-- src/modules/select&#45;&gt;src/shared/rect.ts -->
<g id="edge20" class="edge">
<title>src/modules/select&#45;&gt;src/shared/rect.ts</title>
<path fill="none" stroke="#000000" stroke-width="2" stroke-opacity="0.200000" d="M349,-87.6702C349,-78.3293 349,-65.3333 349,-65.3333 349,-65.3333 536.9011,-65.3333 536.9011,-65.3333"/>
<polygon fill="#000000" fill-opacity="0.200000" stroke="#000000" stroke-width="2" stroke-opacity="0.200000" points="536.9011,-67.4334 542.9011,-65.3333 536.901,-63.2334 536.9011,-67.4334"/>
</g>
<!-- src/modules/select&#45;&gt;src/modules/display -->
<g id="edge19" class="edge">
<title>src/modules/select&#45;&gt;src/modules/display</title>
<path fill="none" stroke="#000000" stroke-width="2" stroke-opacity="0.200000" d="M385.2515,-97C385.2515,-97 391.9899,-97 391.9899,-97"/>
<polygon fill="#000000" fill-opacity="0.200000" stroke="#000000" stroke-width="2" stroke-opacity="0.200000" points="391.9899,-99.1001 397.9899,-97 391.9899,-94.9001 391.9899,-99.1001"/>
</g>
<!-- src/modules/river&#45;&gt;src/shared/utils.ts -->
<g id="edge16" class="edge">
<title>src/modules/river&#45;&gt;src/shared/utils.ts</title>
<path fill="none" stroke="#000000" stroke-width="2" stroke-opacity="0.200000" d="M385.1196,-139C389.1591,-139 392,-139 392,-139 392,-139 392,-34.8 392,-34.8 392,-34.8 536.9656,-34.8 536.9656,-34.8"/>
<polygon fill="#000000" fill-opacity="0.200000" stroke="#000000" stroke-width="2" stroke-opacity="0.200000" points="536.9657,-36.9001 542.9656,-34.8 536.9656,-32.7001 536.9657,-36.9001"/>
</g>
<!-- src/modules/river&#45;&gt;src/modules/cards -->
<g id="edge17" class="edge">
<title>src/modules/river&#45;&gt;src/modules/cards</title>
<path fill="none" stroke="#000000" stroke-width="2" stroke-opacity="0.200000" d="M358,-150.2435C358,-153.3303 358,-156 358,-156 358,-156 391.7485,-156 391.7485,-156"/>
<polygon fill="#000000" fill-opacity="0.200000" stroke="#000000" stroke-width="2" stroke-opacity="0.200000" points="391.7486,-158.1001 397.7485,-156 391.7485,-153.9001 391.7486,-158.1001"/>
</g>
<!-- src/modules/navigate&#45;&gt;src/modules/display -->
<g id="edge15" class="edge">
<title>src/modules/navigate&#45;&gt;src/modules/display</title>
<path fill="none" stroke="#000000" stroke-width="2" stroke-opacity="0.200000" d="M385.4229,-58C408.9216,-58 439,-58 439,-58 439,-58 439,-81.9546 439,-81.9546"/>
<polygon fill="#000000" fill-opacity="0.200000" stroke="#000000" stroke-width="2" stroke-opacity="0.200000" points="436.9001,-81.9546 439,-87.9546 441.1001,-81.9546 436.9001,-81.9546"/>
</g>
</g>
</svg>
