<?xml version="1.0" encoding="UTF-8" standalone="no"?>
<!DOCTYPE svg PUBLIC "-//W3C//DTD SVG 1.1//EN"
 "http://www.w3.org/Graphics/SVG/1.1/DTD/svg11.dtd">
<!-- Generated by graphviz version 2.43.0 (0)
 -->
<!-- Title: dependency&#45;cruiser output Pages: 1 -->
<svg width="440pt" height="168pt"
 viewBox="0.00 0.00 440.00 168.00" xmlns="http://www.w3.org/2000/svg" xmlns:xlink="http://www.w3.org/1999/xlink">
<g id="graph0" class="graph" transform="scale(1 1) rotate(0) translate(4 164)">
<title>dependency&#45;cruiser output</title>
<polygon fill="white" stroke="transparent" points="-4,4 -4,-164 436,-164 436,4 -4,4"/>
<g id="clust1" class="cluster">
<title>cluster_src</title>
<path fill="#ffffff" stroke="black" stroke-width="2" d="M20,-8C20,-8 412,-8 412,-8 418,-8 424,-14 424,-20 424,-20 424,-140 424,-140 424,-146 418,-152 412,-152 412,-152 20,-152 20,-152 14,-152 8,-146 8,-140 8,-140 8,-20 8,-20 8,-14 14,-8 20,-8"/>
<text text-anchor="middle" x="216" y="-140.8" font-family="Helvetica,sans-Serif" font-weight="bold" font-size="9.00">src</text>
</g>
<g id="clust2" class="cluster">
<title>cluster_src/modules</title>
<path fill="#ffffff" stroke="black" stroke-width="2" d="M90,-16C90,-16 404,-16 404,-16 410,-16 416,-22 416,-28 416,-28 416,-114 416,-114 416,-120 410,-126 404,-126 404,-126 90,-126 90,-126 84,-126 78,-120 78,-114 78,-114 78,-28 78,-28 78,-22 84,-16 90,-16"/>
<text text-anchor="middle" x="247" y="-114.8" font-family="Helvetica,sans-Serif" font-weight="bold" font-size="9.00">modules</text>
</g>
<!-- src/index.tsx -->
<g id="node1" class="node">
<title>src/index.tsx</title>
<g id="a_node1"><a xlink:href="src/index.tsx" xlink:title="index.tsx">
<path fill="#bbfeff" stroke="black" d="M64,-64C64,-64 22,-64 22,-64 19,-64 16,-61 16,-58 16,-58 16,-52 16,-52 16,-49 19,-46 22,-46 22,-46 64,-46 64,-46 67,-46 70,-49 70,-52 70,-52 70,-58 70,-58 70,-61 67,-64 64,-64"/>
<text text-anchor="middle" x="43" y="-52.8" font-family="Helvetica,sans-Serif" font-size="9.00">index.tsx</text>
</a>
</g>
</g>
<!-- src/modules/display -->
<g id="node2" class="node">
<title>src/modules/display</title>
<g id="a_node2"><a xlink:href="src/modules/display" xlink:title="display">
<polygon fill="#ffffcc" stroke="black" points="140,-64 88,-64 86,-62 86,-46 138,-46 140,-48 140,-64"/>
<polyline fill="none" stroke="black" points="138,-62 86,-62 "/>
<polyline fill="none" stroke="black" points="138,-62 138,-46 "/>
<polyline fill="none" stroke="black" points="138,-62 140,-64 "/>
<text text-anchor="middle" x="113" y="-52.8" font-family="Helvetica,sans-Serif" font-size="9.00">display</text>
</a>
</g>
</g>
<!-- src/index.tsx&#45;&gt;src/modules/display -->
<g id="edge1" class="edge">
<title>src/index.tsx&#45;&gt;src/modules/display</title>
<path fill="none" stroke="#000000" stroke-width="2" stroke-opacity="0.200000" d="M70.26,-55C70.26,-55 79.69,-55 79.69,-55"/>
<polygon fill="#000000" fill-opacity="0.200000" stroke="#000000" stroke-width="2" stroke-opacity="0.200000" points="79.7,-57.1 85.69,-55 79.69,-52.9 79.7,-57.1"/>
</g>
<!-- src/modules/cards -->
<g id="node3" class="node">
<title>src/modules/cards</title>
<g id="a_node3"><a xlink:href="src/modules/cards" xlink:title="cards">
<polygon fill="#ffffcc" stroke="black" points="408,-56 356,-56 354,-54 354,-38 406,-38 408,-40 408,-56"/>
<polyline fill="none" stroke="black" points="406,-54 354,-54 "/>
<polyline fill="none" stroke="black" points="406,-54 406,-38 "/>
<polyline fill="none" stroke="black" points="406,-54 408,-56 "/>
<text text-anchor="middle" x="381" y="-44.8" font-family="Helvetica,sans-Serif" font-size="9.00">cards</text>
</a>
</g>
</g>
<!-- src/modules/display&#45;&gt;src/modules/cards -->
<g id="edge5" class="edge">
<title>src/modules/display&#45;&gt;src/modules/cards</title>
<path fill="none" stroke="#000000" stroke-width="2" stroke-opacity="0.200000" d="M100,-45.9C100,-33.82 100,-14 100,-14 100,-14 381,-14 381,-14 381,-14 381,-31.98 381,-31.98"/>
<polygon fill="#000000" fill-opacity="0.200000" stroke="#000000" stroke-width="2" stroke-opacity="0.200000" points="378.9,-31.98 381,-37.98 383.1,-31.98 378.9,-31.98"/>
</g>
<!-- src/modules/data -->
<g id="node4" class="node">
<title>src/modules/data</title>
<g id="a_node4"><a xlink:href="src/modules/data" xlink:title="data">
<polygon fill="#ffffcc" stroke="black" points="207,-64 155,-64 153,-62 153,-46 205,-46 207,-48 207,-64"/>
<polyline fill="none" stroke="black" points="205,-62 153,-62 "/>
<polyline fill="none" stroke="black" points="205,-62 205,-46 "/>
<polyline fill="none" stroke="black" points="205,-62 207,-64 "/>
<text text-anchor="middle" x="180" y="-52.8" font-family="Helvetica,sans-Serif" font-size="9.00">data</text>
</a>
</g>
</g>
<!-- src/modules/display&#45;&gt;src/modules/data -->
<g id="edge9" class="edge">
<title>src/modules/display&#45;&gt;src/modules/data</title>
<path fill="none" stroke="#000000" stroke-width="2" stroke-opacity="0.200000" d="M140.25,-55C140.25,-55 146.99,-55 146.99,-55"/>
<polygon fill="#000000" fill-opacity="0.200000" stroke="#000000" stroke-width="2" stroke-opacity="0.200000" points="146.99,-57.1 152.99,-55 146.99,-52.9 146.99,-57.1"/>
</g>
<!-- src/modules/pdf -->
<g id="node5" class="node">
<title>src/modules/pdf</title>
<g id="a_node5"><a xlink:href="src/modules/pdf" xlink:title="pdf">
<polygon fill="#ffffcc" stroke="black" points="274,-56 222,-56 220,-54 220,-38 272,-38 274,-40 274,-56"/>
<polyline fill="none" stroke="black" points="272,-54 220,-54 "/>
<polyline fill="none" stroke="black" points="272,-54 272,-38 "/>
<polyline fill="none" stroke="black" points="272,-54 274,-56 "/>
<text text-anchor="middle" x="247" y="-44.8" font-family="Helvetica,sans-Serif" font-size="9.00">pdf</text>
</a>
</g>
</g>
<!-- src/modules/display&#45;&gt;src/modules/pdf -->
<g id="edge8" class="edge">
<title>src/modules/display&#45;&gt;src/modules/pdf</title>
<path fill="none" stroke="#000000" stroke-width="2" stroke-opacity="0.200000" d="M127,-45.83C127,-43.68 127,-42 127,-42 127,-42 213.77,-42 213.77,-42"/>
<polygon fill="#000000" fill-opacity="0.200000" stroke="#000000" stroke-width="2" stroke-opacity="0.200000" points="213.77,-44.1 219.77,-42 213.77,-39.9 213.77,-44.1"/>
</g>
<!-- src/modules/river -->
<g id="node6" class="node">
<title>src/modules/river</title>
<g id="a_node6"><a xlink:href="src/modules/river" xlink:title="river">
<polygon fill="#ffffcc" stroke="black" points="274,-86 222,-86 220,-84 220,-68 272,-68 274,-70 274,-86"/>
<polyline fill="none" stroke="black" points="272,-84 220,-84 "/>
<polyline fill="none" stroke="black" points="272,-84 272,-68 "/>
<polyline fill="none" stroke="black" points="272,-84 274,-86 "/>
<text text-anchor="middle" x="247" y="-74.8" font-family="Helvetica,sans-Serif" font-size="9.00">river</text>
</a>
</g>
</g>
<!-- src/modules/display&#45;&gt;src/modules/river -->
<g id="edge7" class="edge">
<title>src/modules/display&#45;&gt;src/modules/river</title>
<path fill="none" stroke="#000000" stroke-width="2" stroke-opacity="0.200000" d="M113,-64.2C113,-70.23 113,-77 113,-77 113,-77 213.88,-77 213.88,-77"/>
<polygon fill="#000000" fill-opacity="0.200000" stroke="#000000" stroke-width="2" stroke-opacity="0.200000" points="213.88,-79.1 219.88,-77 213.88,-74.9 213.88,-79.1"/>
</g>
<!-- src/modules/selection -->
<g id="node7" class="node">
<title>src/modules/selection</title>
<g id="a_node7"><a xlink:href="src/modules/selection" xlink:title="selection">
<polygon fill="#ffffcc" stroke="black" points="341,-56 289,-56 287,-54 287,-38 339,-38 341,-40 341,-56"/>
<polyline fill="none" stroke="black" points="339,-54 287,-54 "/>
<polyline fill="none" stroke="black" points="339,-54 339,-38 "/>
<polyline fill="none" stroke="black" points="339,-54 341,-56 "/>
<text text-anchor="middle" x="314" y="-44.8" font-family="Helvetica,sans-Serif" font-size="9.00">selection</text>
</a>
</g>
</g>
<!-- src/modules/display&#45;&gt;src/modules/selection -->
<g id="edge6" class="edge">
<title>src/modules/display&#45;&gt;src/modules/selection</title>
<path fill="none" stroke="#000000" stroke-width="2" stroke-opacity="0.200000" d="M113,-45.82C113,-37.33 113,-26 113,-26 113,-26 314,-26 314,-26 314,-26 314,-31.97 314,-31.97"/>
<polygon fill="#000000" fill-opacity="0.200000" stroke="#000000" stroke-width="2" stroke-opacity="0.200000" points="311.9,-31.97 314,-37.97 316.1,-31.97 311.9,-31.97"/>
</g>
<!-- src/modules/data&#45;&gt;src/modules/cards -->
<g id="edge2" class="edge">
<title>src/modules/data&#45;&gt;src/modules/cards</title>
<path fill="none" stroke="#000000" stroke-width="2" stroke-opacity="0.200000" d="M207.1,-58.67C260.03,-58.67 372,-58.67 372,-58.67 372,-58.67 372,-58.44 372,-58.44"/>
<polygon fill="#000000" fill-opacity="0.200000" stroke="#000000" stroke-width="2" stroke-opacity="0.200000" points="374.1,-62.42 372,-56.42 369.9,-62.42 374.1,-62.42"/>
</g>
<!-- src/modules/data&#45;&gt;src/modules/pdf -->
<g id="edge3" class="edge">
<title>src/modules/data&#45;&gt;src/modules/pdf</title>
<path fill="none" stroke="#000000" stroke-width="2" stroke-opacity="0.200000" d="M207.25,-51C207.25,-51 213.99,-51 213.99,-51"/>
<polygon fill="#000000" fill-opacity="0.200000" stroke="#000000" stroke-width="2" stroke-opacity="0.200000" points="213.99,-53.1 219.99,-51 213.99,-48.9 213.99,-53.1"/>
</g>
<!-- src/modules/data&#45;&gt;src/modules/river -->
<g id="edge4" class="edge">
<title>src/modules/data&#45;&gt;src/modules/river</title>
<path fill="none" stroke="#000000" stroke-width="2" stroke-opacity="0.200000" d="M207.25,-61.33C225.8,-61.33 247,-61.33 247,-61.33 247,-61.33 247,-61.97 247,-61.97"/>
<polygon fill="#000000" fill-opacity="0.200000" stroke="#000000" stroke-width="2" stroke-opacity="0.200000" points="244.9,-61.71 247,-67.71 249.1,-61.71 244.9,-61.71"/>
</g>
<!-- src/modules/pdf&#45;&gt;src/modules/selection -->
<g id="edge10" class="edge">
<title>src/modules/pdf&#45;&gt;src/modules/selection</title>
<path fill="none" stroke="#000000" stroke-width="2" stroke-opacity="0.200000" d="M274.25,-47C274.25,-47 280.99,-47 280.99,-47"/>
<polygon fill="#000000" fill-opacity="0.200000" stroke="#000000" stroke-width="2" stroke-opacity="0.200000" points="280.99,-49.1 286.99,-47 280.99,-44.9 280.99,-49.1"/>
</g>
<!-- src/modules/river&#45;&gt;src/modules/cards -->
<g id="edge11" class="edge">
<title>src/modules/river&#45;&gt;src/modules/cards</title>
<path fill="none" stroke="#000000" stroke-width="2" stroke-opacity="0.200000" d="M274.23,-80C315.72,-80 390,-80 390,-80 390,-80 390,-62.02 390,-62.02"/>
<polygon fill="#000000" fill-opacity="0.200000" stroke="#000000" stroke-width="2" stroke-opacity="0.200000" points="392.1,-62.02 390,-56.02 387.9,-62.02 392.1,-62.02"/>
</g>
<!-- src/modules/river&#45;&gt;src/modules/selection -->
<g id="edge12" class="edge">
<title>src/modules/river&#45;&gt;src/modules/selection</title>
<path fill="none" stroke="#000000" stroke-width="2" stroke-opacity="0.200000" d="M274.25,-74C292.8,-74 314,-74 314,-74 314,-74 314,-62.14 314,-62.14"/>
<polygon fill="#000000" fill-opacity="0.200000" stroke="#000000" stroke-width="2" stroke-opacity="0.200000" points="316.1,-62.14 314,-56.14 311.9,-62.14 316.1,-62.14"/>
</g>
<!-- src/modules/selection&#45;&gt;src/modules/cards -->
<g id="edge13" class="edge">
<title>src/modules/selection&#45;&gt;src/modules/cards</title>
<path fill="none" stroke="#000000" stroke-width="2" stroke-opacity="0.200000" d="M341.25,-47C341.25,-47 347.99,-47 347.99,-47"/>
<polygon fill="#000000" fill-opacity="0.200000" stroke="#000000" stroke-width="2" stroke-opacity="0.200000" points="347.99,-49.1 353.99,-47 347.99,-44.9 347.99,-49.1"/>
</g>
</g>
</svg>
